<?xml version="1.0" encoding="utf-8" standalone="no"?>
<!DOCTYPE svg PUBLIC "-//W3C//DTD SVG 1.1//EN"
  "http://www.w3.org/Graphics/SVG/1.1/DTD/svg11.dtd">
<!-- Created with matplotlib (http://matplotlib.org/) -->
<svg height="314pt" version="1.1" viewBox="0 0 401 314" width="401pt" xmlns="http://www.w3.org/2000/svg" xmlns:xlink="http://www.w3.org/1999/xlink">
 <defs>
  <style type="text/css">
*{stroke-linecap:butt;stroke-linejoin:round;}
  </style>
 </defs>
 <g id="figure_1">
  <g id="patch_1">
   <path d="M 0 314.131875 
L 401.1075 314.131875 
L 401.1075 0 
L 0 0 
z
" style="fill:#ffffff;"/>
  </g>
  <g id="axes_1">
   <g id="patch_2">
    <path d="M 33.2875 290.25375 
L 390.4075 290.25375 
L 390.4075 24.14175 
L 33.2875 24.14175 
z
" style="fill:#e5e5e5;"/>
   </g>
   <g id="matplotlib.axis_1">
    <g id="xtick_1">
     <g id="line2d_1">
      <path clip-path="url(#pf4e41eb8d9)" d="M 54.033876 290.25375 
L 54.033876 24.14175 
" style="fill:none;stroke:#ffffff;stroke-linecap:square;stroke-width:0.8;"/>
     </g>
     <g id="line2d_2">
      <defs>
       <path d="M 0 0 
L 0 3.5 
" id="m7985460dc6" style="stroke:#555555;stroke-width:0.8;"/>
      </defs>
      <g>
       <use style="fill:#555555;stroke:#555555;stroke-width:0.8;" x="54.033876" xlink:href="#m7985460dc6" y="290.25375"/>
      </g>
     </g>
     <g id="text_1">
      <!-- −0.10 -->
      <defs>
       <path d="M 10.59375 35.5 
L 73.1875 35.5 
L 73.1875 27.203125 
L 10.59375 27.203125 
z
" id="DejaVuSans-2212"/>
       <path d="M 31.78125 66.40625 
Q 24.171875 66.40625 20.328125 58.90625 
Q 16.5 51.421875 16.5 36.375 
Q 16.5 21.390625 20.328125 13.890625 
Q 24.171875 6.390625 31.78125 6.390625 
Q 39.453125 6.390625 43.28125 13.890625 
Q 47.125 21.390625 47.125 36.375 
Q 47.125 51.421875 43.28125 58.90625 
Q 39.453125 66.40625 31.78125 66.40625 
M 31.78125 74.21875 
Q 44.046875 74.21875 50.515625 64.515625 
Q 56.984375 54.828125 56.984375 36.375 
Q 56.984375 17.96875 50.515625 8.265625 
Q 44.046875 -1.421875 31.78125 -1.421875 
Q 19.53125 -1.421875 13.0625 8.265625 
Q 6.59375 17.96875 6.59375 36.375 
Q 6.59375 54.828125 13.0625 64.515625 
Q 19.53125 74.21875 31.78125 74.21875 
" id="DejaVuSans-30"/>
       <path d="M 10.6875 12.40625 
L 21 12.40625 
L 21 0 
L 10.6875 0 
z
" id="DejaVuSans-2e"/>
       <path d="M 12.40625 8.296875 
L 28.515625 8.296875 
L 28.515625 63.921875 
L 10.984375 60.40625 
L 10.984375 69.390625 
L 28.421875 72.90625 
L 38.28125 72.90625 
L 38.28125 8.296875 
L 54.390625 8.296875 
L 54.390625 0 
L 12.40625 0 
z
" id="DejaVuSans-31"/>
      </defs>
      <g style="fill:#555555;" transform="translate(38.71122 304.852187)scale(0.1 -0.1)">
       <use xlink:href="#DejaVuSans-2212"/>
       <use x="83.789062" xlink:href="#DejaVuSans-30"/>
       <use x="147.412109" xlink:href="#DejaVuSans-2e"/>
       <use x="179.199219" xlink:href="#DejaVuSans-31"/>
       <use x="242.822266" xlink:href="#DejaVuSans-30"/>
      </g>
     </g>
    </g>
    <g id="xtick_2">
     <g id="line2d_3">
      <path clip-path="url(#pf4e41eb8d9)" d="M 100.895567 290.25375 
L 100.895567 24.14175 
" style="fill:none;stroke:#ffffff;stroke-linecap:square;stroke-width:0.8;"/>
     </g>
     <g id="line2d_4">
      <g>
       <use style="fill:#555555;stroke:#555555;stroke-width:0.8;" x="100.895567" xlink:href="#m7985460dc6" y="290.25375"/>
      </g>
     </g>
     <g id="text_2">
      <!-- −0.05 -->
      <defs>
       <path d="M 10.796875 72.90625 
L 49.515625 72.90625 
L 49.515625 64.59375 
L 19.828125 64.59375 
L 19.828125 46.734375 
Q 21.96875 47.46875 24.109375 47.828125 
Q 26.265625 48.1875 28.421875 48.1875 
Q 40.625 48.1875 47.75 41.5 
Q 54.890625 34.8125 54.890625 23.390625 
Q 54.890625 11.625 47.5625 5.09375 
Q 40.234375 -1.421875 26.90625 -1.421875 
Q 22.3125 -1.421875 17.546875 -0.640625 
Q 12.796875 0.140625 7.71875 1.703125 
L 7.71875 11.625 
Q 12.109375 9.234375 16.796875 8.0625 
Q 21.484375 6.890625 26.703125 6.890625 
Q 35.15625 6.890625 40.078125 11.328125 
Q 45.015625 15.765625 45.015625 23.390625 
Q 45.015625 31 40.078125 35.4375 
Q 35.15625 39.890625 26.703125 39.890625 
Q 22.75 39.890625 18.8125 39.015625 
Q 14.890625 38.140625 10.796875 36.28125 
z
" id="DejaVuSans-35"/>
      </defs>
      <g style="fill:#555555;" transform="translate(85.572911 304.852187)scale(0.1 -0.1)">
       <use xlink:href="#DejaVuSans-2212"/>
       <use x="83.789062" xlink:href="#DejaVuSans-30"/>
       <use x="147.412109" xlink:href="#DejaVuSans-2e"/>
       <use x="179.199219" xlink:href="#DejaVuSans-30"/>
       <use x="242.822266" xlink:href="#DejaVuSans-35"/>
      </g>
     </g>
    </g>
    <g id="xtick_3">
     <g id="line2d_5">
      <path clip-path="url(#pf4e41eb8d9)" d="M 147.757258 290.25375 
L 147.757258 24.14175 
" style="fill:none;stroke:#ffffff;stroke-linecap:square;stroke-width:0.8;"/>
     </g>
     <g id="line2d_6">
      <g>
       <use style="fill:#555555;stroke:#555555;stroke-width:0.8;" x="147.757258" xlink:href="#m7985460dc6" y="290.25375"/>
      </g>
     </g>
     <g id="text_3">
      <!-- 0.00 -->
      <g style="fill:#555555;" transform="translate(136.624445 304.852187)scale(0.1 -0.1)">
       <use xlink:href="#DejaVuSans-30"/>
       <use x="63.623047" xlink:href="#DejaVuSans-2e"/>
       <use x="95.410156" xlink:href="#DejaVuSans-30"/>
       <use x="159.033203" xlink:href="#DejaVuSans-30"/>
      </g>
     </g>
    </g>
    <g id="xtick_4">
     <g id="line2d_7">
      <path clip-path="url(#pf4e41eb8d9)" d="M 194.618949 290.25375 
L 194.618949 24.14175 
" style="fill:none;stroke:#ffffff;stroke-linecap:square;stroke-width:0.8;"/>
     </g>
     <g id="line2d_8">
      <g>
       <use style="fill:#555555;stroke:#555555;stroke-width:0.8;" x="194.618949" xlink:href="#m7985460dc6" y="290.25375"/>
      </g>
     </g>
     <g id="text_4">
      <!-- 0.05 -->
      <g style="fill:#555555;" transform="translate(183.486136 304.852187)scale(0.1 -0.1)">
       <use xlink:href="#DejaVuSans-30"/>
       <use x="63.623047" xlink:href="#DejaVuSans-2e"/>
       <use x="95.410156" xlink:href="#DejaVuSans-30"/>
       <use x="159.033203" xlink:href="#DejaVuSans-35"/>
      </g>
     </g>
    </g>
    <g id="xtick_5">
     <g id="line2d_9">
      <path clip-path="url(#pf4e41eb8d9)" d="M 241.48064 290.25375 
L 241.48064 24.14175 
" style="fill:none;stroke:#ffffff;stroke-linecap:square;stroke-width:0.8;"/>
     </g>
     <g id="line2d_10">
      <g>
       <use style="fill:#555555;stroke:#555555;stroke-width:0.8;" x="241.48064" xlink:href="#m7985460dc6" y="290.25375"/>
      </g>
     </g>
     <g id="text_5">
      <!-- 0.10 -->
      <g style="fill:#555555;" transform="translate(230.347827 304.852187)scale(0.1 -0.1)">
       <use xlink:href="#DejaVuSans-30"/>
       <use x="63.623047" xlink:href="#DejaVuSans-2e"/>
       <use x="95.410156" xlink:href="#DejaVuSans-31"/>
       <use x="159.033203" xlink:href="#DejaVuSans-30"/>
      </g>
     </g>
    </g>
    <g id="xtick_6">
     <g id="line2d_11">
      <path clip-path="url(#pf4e41eb8d9)" d="M 288.34233 290.25375 
L 288.34233 24.14175 
" style="fill:none;stroke:#ffffff;stroke-linecap:square;stroke-width:0.8;"/>
     </g>
     <g id="line2d_12">
      <g>
       <use style="fill:#555555;stroke:#555555;stroke-width:0.8;" x="288.34233" xlink:href="#m7985460dc6" y="290.25375"/>
      </g>
     </g>
     <g id="text_6">
      <!-- 0.15 -->
      <g style="fill:#555555;" transform="translate(277.209518 304.852187)scale(0.1 -0.1)">
       <use xlink:href="#DejaVuSans-30"/>
       <use x="63.623047" xlink:href="#DejaVuSans-2e"/>
       <use x="95.410156" xlink:href="#DejaVuSans-31"/>
       <use x="159.033203" xlink:href="#DejaVuSans-35"/>
      </g>
     </g>
    </g>
    <g id="xtick_7">
     <g id="line2d_13">
      <path clip-path="url(#pf4e41eb8d9)" d="M 335.204021 290.25375 
L 335.204021 24.14175 
" style="fill:none;stroke:#ffffff;stroke-linecap:square;stroke-width:0.8;"/>
     </g>
     <g id="line2d_14">
      <g>
       <use style="fill:#555555;stroke:#555555;stroke-width:0.8;" x="335.204021" xlink:href="#m7985460dc6" y="290.25375"/>
      </g>
     </g>
     <g id="text_7">
      <!-- 0.20 -->
      <defs>
       <path d="M 19.1875 8.296875 
L 53.609375 8.296875 
L 53.609375 0 
L 7.328125 0 
L 7.328125 8.296875 
Q 12.9375 14.109375 22.625 23.890625 
Q 32.328125 33.6875 34.8125 36.53125 
Q 39.546875 41.84375 41.421875 45.53125 
Q 43.3125 49.21875 43.3125 52.78125 
Q 43.3125 58.59375 39.234375 62.25 
Q 35.15625 65.921875 28.609375 65.921875 
Q 23.96875 65.921875 18.8125 64.3125 
Q 13.671875 62.703125 7.8125 59.421875 
L 7.8125 69.390625 
Q 13.765625 71.78125 18.9375 73 
Q 24.125 74.21875 28.421875 74.21875 
Q 39.75 74.21875 46.484375 68.546875 
Q 53.21875 62.890625 53.21875 53.421875 
Q 53.21875 48.921875 51.53125 44.890625 
Q 49.859375 40.875 45.40625 35.40625 
Q 44.1875 33.984375 37.640625 27.21875 
Q 31.109375 20.453125 19.1875 8.296875 
" id="DejaVuSans-32"/>
      </defs>
      <g style="fill:#555555;" transform="translate(324.071209 304.852187)scale(0.1 -0.1)">
       <use xlink:href="#DejaVuSans-30"/>
       <use x="63.623047" xlink:href="#DejaVuSans-2e"/>
       <use x="95.410156" xlink:href="#DejaVuSans-32"/>
       <use x="159.033203" xlink:href="#DejaVuSans-30"/>
      </g>
     </g>
    </g>
    <g id="xtick_8">
     <g id="line2d_15">
      <path clip-path="url(#pf4e41eb8d9)" d="M 382.065712 290.25375 
L 382.065712 24.14175 
" style="fill:none;stroke:#ffffff;stroke-linecap:square;stroke-width:0.8;"/>
     </g>
     <g id="line2d_16">
      <g>
       <use style="fill:#555555;stroke:#555555;stroke-width:0.8;" x="382.065712" xlink:href="#m7985460dc6" y="290.25375"/>
      </g>
     </g>
     <g id="text_8">
      <!-- 0.25 -->
      <g style="fill:#555555;" transform="translate(370.932899 304.852187)scale(0.1 -0.1)">
       <use xlink:href="#DejaVuSans-30"/>
       <use x="63.623047" xlink:href="#DejaVuSans-2e"/>
       <use x="95.410156" xlink:href="#DejaVuSans-32"/>
       <use x="159.033203" xlink:href="#DejaVuSans-35"/>
      </g>
     </g>
    </g>
   </g>
   <g id="matplotlib.axis_2">
    <g id="ytick_1">
     <g id="line2d_17">
      <path clip-path="url(#pf4e41eb8d9)" d="M 33.2875 290.25375 
L 390.4075 290.25375 
" style="fill:none;stroke:#ffffff;stroke-linecap:square;stroke-width:0.8;"/>
     </g>
     <g id="line2d_18">
      <defs>
       <path d="M 0 0 
L -3.5 0 
" id="m9f499ca7c2" style="stroke:#555555;stroke-width:0.8;"/>
      </defs>
      <g>
       <use style="fill:#555555;stroke:#555555;stroke-width:0.8;" x="33.2875" xlink:href="#m9f499ca7c2" y="290.25375"/>
      </g>
     </g>
     <g id="text_9">
      <!-- 0 -->
      <g style="fill:#555555;" transform="translate(19.925 294.052969)scale(0.1 -0.1)">
       <use xlink:href="#DejaVuSans-30"/>
      </g>
     </g>
    </g>
    <g id="ytick_2">
     <g id="line2d_19">
      <path clip-path="url(#pf4e41eb8d9)" d="M 33.2875 257.761442 
L 390.4075 257.761442 
" style="fill:none;stroke:#ffffff;stroke-linecap:square;stroke-width:0.8;"/>
     </g>
     <g id="line2d_20">
      <g>
       <use style="fill:#555555;stroke:#555555;stroke-width:0.8;" x="33.2875" xlink:href="#m9f499ca7c2" y="257.761442"/>
      </g>
     </g>
     <g id="text_10">
      <!-- 25 -->
      <g style="fill:#555555;" transform="translate(13.5625 261.560661)scale(0.1 -0.1)">
       <use xlink:href="#DejaVuSans-32"/>
       <use x="63.623047" xlink:href="#DejaVuSans-35"/>
      </g>
     </g>
    </g>
    <g id="ytick_3">
     <g id="line2d_21">
      <path clip-path="url(#pf4e41eb8d9)" d="M 33.2875 225.269135 
L 390.4075 225.269135 
" style="fill:none;stroke:#ffffff;stroke-linecap:square;stroke-width:0.8;"/>
     </g>
     <g id="line2d_22">
      <g>
       <use style="fill:#555555;stroke:#555555;stroke-width:0.8;" x="33.2875" xlink:href="#m9f499ca7c2" y="225.269135"/>
      </g>
     </g>
     <g id="text_11">
      <!-- 50 -->
      <g style="fill:#555555;" transform="translate(13.5625 229.068353)scale(0.1 -0.1)">
       <use xlink:href="#DejaVuSans-35"/>
       <use x="63.623047" xlink:href="#DejaVuSans-30"/>
      </g>
     </g>
    </g>
    <g id="ytick_4">
     <g id="line2d_23">
      <path clip-path="url(#pf4e41eb8d9)" d="M 33.2875 192.776827 
L 390.4075 192.776827 
" style="fill:none;stroke:#ffffff;stroke-linecap:square;stroke-width:0.8;"/>
     </g>
     <g id="line2d_24">
      <g>
       <use style="fill:#555555;stroke:#555555;stroke-width:0.8;" x="33.2875" xlink:href="#m9f499ca7c2" y="192.776827"/>
      </g>
     </g>
     <g id="text_12">
      <!-- 75 -->
      <defs>
       <path d="M 8.203125 72.90625 
L 55.078125 72.90625 
L 55.078125 68.703125 
L 28.609375 0 
L 18.3125 0 
L 43.21875 64.59375 
L 8.203125 64.59375 
z
" id="DejaVuSans-37"/>
      </defs>
      <g style="fill:#555555;" transform="translate(13.5625 196.576046)scale(0.1 -0.1)">
       <use xlink:href="#DejaVuSans-37"/>
       <use x="63.623047" xlink:href="#DejaVuSans-35"/>
      </g>
     </g>
    </g>
    <g id="ytick_5">
     <g id="line2d_25">
      <path clip-path="url(#pf4e41eb8d9)" d="M 33.2875 160.284519 
L 390.4075 160.284519 
" style="fill:none;stroke:#ffffff;stroke-linecap:square;stroke-width:0.8;"/>
     </g>
     <g id="line2d_26">
      <g>
       <use style="fill:#555555;stroke:#555555;stroke-width:0.8;" x="33.2875" xlink:href="#m9f499ca7c2" y="160.284519"/>
      </g>
     </g>
     <g id="text_13">
      <!-- 100 -->
      <g style="fill:#555555;" transform="translate(7.2 164.083738)scale(0.1 -0.1)">
       <use xlink:href="#DejaVuSans-31"/>
       <use x="63.623047" xlink:href="#DejaVuSans-30"/>
       <use x="127.246094" xlink:href="#DejaVuSans-30"/>
      </g>
     </g>
    </g>
    <g id="ytick_6">
     <g id="line2d_27">
      <path clip-path="url(#pf4e41eb8d9)" d="M 33.2875 127.792212 
L 390.4075 127.792212 
" style="fill:none;stroke:#ffffff;stroke-linecap:square;stroke-width:0.8;"/>
     </g>
     <g id="line2d_28">
      <g>
       <use style="fill:#555555;stroke:#555555;stroke-width:0.8;" x="33.2875" xlink:href="#m9f499ca7c2" y="127.792212"/>
      </g>
     </g>
     <g id="text_14">
      <!-- 125 -->
      <g style="fill:#555555;" transform="translate(7.2 131.59143)scale(0.1 -0.1)">
       <use xlink:href="#DejaVuSans-31"/>
       <use x="63.623047" xlink:href="#DejaVuSans-32"/>
       <use x="127.246094" xlink:href="#DejaVuSans-35"/>
      </g>
     </g>
    </g>
    <g id="ytick_7">
     <g id="line2d_29">
      <path clip-path="url(#pf4e41eb8d9)" d="M 33.2875 95.299904 
L 390.4075 95.299904 
" style="fill:none;stroke:#ffffff;stroke-linecap:square;stroke-width:0.8;"/>
     </g>
     <g id="line2d_30">
      <g>
       <use style="fill:#555555;stroke:#555555;stroke-width:0.8;" x="33.2875" xlink:href="#m9f499ca7c2" y="95.299904"/>
      </g>
     </g>
     <g id="text_15">
      <!-- 150 -->
      <g style="fill:#555555;" transform="translate(7.2 99.099123)scale(0.1 -0.1)">
       <use xlink:href="#DejaVuSans-31"/>
       <use x="63.623047" xlink:href="#DejaVuSans-35"/>
       <use x="127.246094" xlink:href="#DejaVuSans-30"/>
      </g>
     </g>
    </g>
    <g id="ytick_8">
     <g id="line2d_31">
      <path clip-path="url(#pf4e41eb8d9)" d="M 33.2875 62.807596 
L 390.4075 62.807596 
" style="fill:none;stroke:#ffffff;stroke-linecap:square;stroke-width:0.8;"/>
     </g>
     <g id="line2d_32">
      <g>
       <use style="fill:#555555;stroke:#555555;stroke-width:0.8;" x="33.2875" xlink:href="#m9f499ca7c2" y="62.807596"/>
      </g>
     </g>
     <g id="text_16">
      <!-- 175 -->
      <g style="fill:#555555;" transform="translate(7.2 66.606815)scale(0.1 -0.1)">
       <use xlink:href="#DejaVuSans-31"/>
       <use x="63.623047" xlink:href="#DejaVuSans-37"/>
       <use x="127.246094" xlink:href="#DejaVuSans-35"/>
      </g>
     </g>
    </g>
    <g id="ytick_9">
     <g id="line2d_33">
      <path clip-path="url(#pf4e41eb8d9)" d="M 33.2875 30.315288 
L 390.4075 30.315288 
" style="fill:none;stroke:#ffffff;stroke-linecap:square;stroke-width:0.8;"/>
     </g>
     <g id="line2d_34">
      <g>
       <use style="fill:#555555;stroke:#555555;stroke-width:0.8;" x="33.2875" xlink:href="#m9f499ca7c2" y="30.315288"/>
      </g>
     </g>
     <g id="text_17">
      <!-- 200 -->
      <g style="fill:#555555;" transform="translate(7.2 34.114507)scale(0.1 -0.1)">
       <use xlink:href="#DejaVuSans-32"/>
       <use x="63.623047" xlink:href="#DejaVuSans-30"/>
       <use x="127.246094" xlink:href="#DejaVuSans-30"/>
      </g>
     </g>
    </g>
   </g>
   <g id="patch_3">
    <path clip-path="url(#pf4e41eb8d9)" d="M 109.515633 290.25375 
L 111.060679 290.25375 
L 111.060679 288.954058 
L 109.515633 288.954058 
z
" style="fill:#e24a33;opacity:0.5;"/>
   </g>
   <g id="patch_4">
    <path clip-path="url(#pf4e41eb8d9)" d="M 111.060679 290.25375 
L 112.605726 290.25375 
L 112.605726 290.25375 
L 111.060679 290.25375 
z
" style="fill:#e24a33;opacity:0.5;"/>
   </g>
   <g id="patch_5">
    <path clip-path="url(#pf4e41eb8d9)" d="M 112.605726 290.25375 
L 114.150773 290.25375 
L 114.150773 290.25375 
L 112.605726 290.25375 
z
" style="fill:#e24a33;opacity:0.5;"/>
   </g>
   <g id="patch_6">
    <path clip-path="url(#pf4e41eb8d9)" d="M 114.150773 290.25375 
L 115.695819 290.25375 
L 115.695819 290.25375 
L 114.150773 290.25375 
z
" style="fill:#e24a33;opacity:0.5;"/>
   </g>
   <g id="patch_7">
    <path clip-path="url(#pf4e41eb8d9)" d="M 115.695819 290.25375 
L 117.240866 290.25375 
L 117.240866 290.25375 
L 115.695819 290.25375 
z
" style="fill:#e24a33;opacity:0.5;"/>
   </g>
   <g id="patch_8">
    <path clip-path="url(#pf4e41eb8d9)" d="M 117.240866 290.25375 
L 118.785912 290.25375 
L 118.785912 287.654365 
L 117.240866 287.654365 
z
" style="fill:#e24a33;opacity:0.5;"/>
   </g>
   <g id="patch_9">
    <path clip-path="url(#pf4e41eb8d9)" d="M 118.785912 290.25375 
L 120.330959 290.25375 
L 120.330959 286.354673 
L 118.785912 286.354673 
z
" style="fill:#e24a33;opacity:0.5;"/>
   </g>
   <g id="patch_10">
    <path clip-path="url(#pf4e41eb8d9)" d="M 120.330959 290.25375 
L 121.876005 290.25375 
L 121.876005 287.654365 
L 120.330959 287.654365 
z
" style="fill:#e24a33;opacity:0.5;"/>
   </g>
   <g id="patch_11">
    <path clip-path="url(#pf4e41eb8d9)" d="M 121.876005 290.25375 
L 123.421052 290.25375 
L 123.421052 287.654365 
L 121.876005 287.654365 
z
" style="fill:#e24a33;opacity:0.5;"/>
   </g>
   <g id="patch_12">
    <path clip-path="url(#pf4e41eb8d9)" d="M 123.421052 290.25375 
L 124.966099 290.25375 
L 124.966099 285.054981 
L 123.421052 285.054981 
z
" style="fill:#e24a33;opacity:0.5;"/>
   </g>
   <g id="patch_13">
    <path clip-path="url(#pf4e41eb8d9)" d="M 124.966099 290.25375 
L 126.511145 290.25375 
L 126.511145 279.856212 
L 124.966099 279.856212 
z
" style="fill:#e24a33;opacity:0.5;"/>
   </g>
   <g id="patch_14">
    <path clip-path="url(#pf4e41eb8d9)" d="M 126.511145 290.25375 
L 128.056192 290.25375 
L 128.056192 274.657442 
L 126.511145 274.657442 
z
" style="fill:#e24a33;opacity:0.5;"/>
   </g>
   <g id="patch_15">
    <path clip-path="url(#pf4e41eb8d9)" d="M 128.056192 290.25375 
L 129.601238 290.25375 
L 129.601238 275.957135 
L 128.056192 275.957135 
z
" style="fill:#e24a33;opacity:0.5;"/>
   </g>
   <g id="patch_16">
    <path clip-path="url(#pf4e41eb8d9)" d="M 129.601238 290.25375 
L 131.146285 290.25375 
L 131.146285 264.259904 
L 129.601238 264.259904 
z
" style="fill:#e24a33;opacity:0.5;"/>
   </g>
   <g id="patch_17">
    <path clip-path="url(#pf4e41eb8d9)" d="M 131.146285 290.25375 
L 132.691331 290.25375 
L 132.691331 257.761442 
L 131.146285 257.761442 
z
" style="fill:#e24a33;opacity:0.5;"/>
   </g>
   <g id="patch_18">
    <path clip-path="url(#pf4e41eb8d9)" d="M 132.691331 290.25375 
L 134.236378 290.25375 
L 134.236378 257.761442 
L 132.691331 257.761442 
z
" style="fill:#e24a33;opacity:0.5;"/>
   </g>
   <g id="patch_19">
    <path clip-path="url(#pf4e41eb8d9)" d="M 134.236378 290.25375 
L 135.781425 290.25375 
L 135.781425 253.862365 
L 134.236378 253.862365 
z
" style="fill:#e24a33;opacity:0.5;"/>
   </g>
   <g id="patch_20">
    <path clip-path="url(#pf4e41eb8d9)" d="M 135.781425 290.25375 
L 137.326471 290.25375 
L 137.326471 248.663596 
L 135.781425 248.663596 
z
" style="fill:#e24a33;opacity:0.5;"/>
   </g>
   <g id="patch_21">
    <path clip-path="url(#pf4e41eb8d9)" d="M 137.326471 290.25375 
L 138.871518 290.25375 
L 138.871518 247.363904 
L 137.326471 247.363904 
z
" style="fill:#e24a33;opacity:0.5;"/>
   </g>
   <g id="patch_22">
    <path clip-path="url(#pf4e41eb8d9)" d="M 138.871518 290.25375 
L 140.416564 290.25375 
L 140.416564 230.467904 
L 138.871518 230.467904 
z
" style="fill:#e24a33;opacity:0.5;"/>
   </g>
   <g id="patch_23">
    <path clip-path="url(#pf4e41eb8d9)" d="M 140.416564 290.25375 
L 141.961611 290.25375 
L 141.961611 240.865442 
L 140.416564 240.865442 
z
" style="fill:#e24a33;opacity:0.5;"/>
   </g>
   <g id="patch_24">
    <path clip-path="url(#pf4e41eb8d9)" d="M 141.961611 290.25375 
L 143.506657 290.25375 
L 143.506657 221.370058 
L 141.961611 221.370058 
z
" style="fill:#e24a33;opacity:0.5;"/>
   </g>
   <g id="patch_25">
    <path clip-path="url(#pf4e41eb8d9)" d="M 143.506657 290.25375 
L 145.051704 290.25375 
L 145.051704 209.672827 
L 143.506657 209.672827 
z
" style="fill:#e24a33;opacity:0.5;"/>
   </g>
   <g id="patch_26">
    <path clip-path="url(#pf4e41eb8d9)" d="M 145.051704 290.25375 
L 146.596751 290.25375 
L 146.596751 221.370058 
L 145.051704 221.370058 
z
" style="fill:#e24a33;opacity:0.5;"/>
   </g>
   <g id="patch_27">
    <path clip-path="url(#pf4e41eb8d9)" d="M 146.596751 290.25375 
L 148.141797 290.25375 
L 148.141797 200.574981 
L 146.596751 200.574981 
z
" style="fill:#e24a33;opacity:0.5;"/>
   </g>
   <g id="patch_28">
    <path clip-path="url(#pf4e41eb8d9)" d="M 148.141797 290.25375 
L 149.686844 290.25375 
L 149.686844 236.966365 
L 148.141797 236.966365 
z
" style="fill:#e24a33;opacity:0.5;"/>
   </g>
   <g id="patch_29">
    <path clip-path="url(#pf4e41eb8d9)" d="M 149.686844 290.25375 
L 151.23189 290.25375 
L 151.23189 209.672827 
L 149.686844 209.672827 
z
" style="fill:#e24a33;opacity:0.5;"/>
   </g>
   <g id="patch_30">
    <path clip-path="url(#pf4e41eb8d9)" d="M 151.23189 290.25375 
L 152.776937 290.25375 
L 152.776937 197.975596 
L 151.23189 197.975596 
z
" style="fill:#e24a33;opacity:0.5;"/>
   </g>
   <g id="patch_31">
    <path clip-path="url(#pf4e41eb8d9)" d="M 152.776937 290.25375 
L 154.321983 290.25375 
L 154.321983 213.571904 
L 152.776937 213.571904 
z
" style="fill:#e24a33;opacity:0.5;"/>
   </g>
   <g id="patch_32">
    <path clip-path="url(#pf4e41eb8d9)" d="M 154.321983 290.25375 
L 155.86703 290.25375 
L 155.86703 225.269135 
L 154.321983 225.269135 
z
" style="fill:#e24a33;opacity:0.5;"/>
   </g>
   <g id="patch_33">
    <path clip-path="url(#pf4e41eb8d9)" d="M 155.86703 290.25375 
L 157.412077 290.25375 
L 157.412077 229.168212 
L 155.86703 229.168212 
z
" style="fill:#e24a33;opacity:0.5;"/>
   </g>
   <g id="patch_34">
    <path clip-path="url(#pf4e41eb8d9)" d="M 157.412077 290.25375 
L 158.957123 290.25375 
L 158.957123 236.966365 
L 157.412077 236.966365 
z
" style="fill:#e24a33;opacity:0.5;"/>
   </g>
   <g id="patch_35">
    <path clip-path="url(#pf4e41eb8d9)" d="M 158.957123 290.25375 
L 160.50217 290.25375 
L 160.50217 244.764519 
L 158.957123 244.764519 
z
" style="fill:#e24a33;opacity:0.5;"/>
   </g>
   <g id="patch_36">
    <path clip-path="url(#pf4e41eb8d9)" d="M 160.50217 290.25375 
L 162.047216 290.25375 
L 162.047216 268.158981 
L 160.50217 268.158981 
z
" style="fill:#e24a33;opacity:0.5;"/>
   </g>
   <g id="patch_37">
    <path clip-path="url(#pf4e41eb8d9)" d="M 162.047216 290.25375 
L 163.592263 290.25375 
L 163.592263 270.758365 
L 162.047216 270.758365 
z
" style="fill:#e24a33;opacity:0.5;"/>
   </g>
   <g id="patch_38">
    <path clip-path="url(#pf4e41eb8d9)" d="M 163.592263 290.25375 
L 165.137309 290.25375 
L 165.137309 277.256827 
L 163.592263 277.256827 
z
" style="fill:#e24a33;opacity:0.5;"/>
   </g>
   <g id="patch_39">
    <path clip-path="url(#pf4e41eb8d9)" d="M 165.137309 290.25375 
L 166.682356 290.25375 
L 166.682356 272.058058 
L 165.137309 272.058058 
z
" style="fill:#e24a33;opacity:0.5;"/>
   </g>
   <g id="patch_40">
    <path clip-path="url(#pf4e41eb8d9)" d="M 166.682356 290.25375 
L 168.227403 290.25375 
L 168.227403 286.354673 
L 166.682356 286.354673 
z
" style="fill:#e24a33;opacity:0.5;"/>
   </g>
   <g id="patch_41">
    <path clip-path="url(#pf4e41eb8d9)" d="M 168.227403 290.25375 
L 169.772449 290.25375 
L 169.772449 286.354673 
L 168.227403 286.354673 
z
" style="fill:#e24a33;opacity:0.5;"/>
   </g>
   <g id="patch_42">
    <path clip-path="url(#pf4e41eb8d9)" d="M 169.772449 290.25375 
L 171.317496 290.25375 
L 171.317496 285.054981 
L 169.772449 285.054981 
z
" style="fill:#e24a33;opacity:0.5;"/>
   </g>
   <g id="patch_43">
    <path clip-path="url(#pf4e41eb8d9)" d="M 171.317496 290.25375 
L 172.862542 290.25375 
L 172.862542 290.25375 
L 171.317496 290.25375 
z
" style="fill:#e24a33;opacity:0.5;"/>
   </g>
   <g id="patch_44">
    <path clip-path="url(#pf4e41eb8d9)" d="M 172.862542 290.25375 
L 174.407589 290.25375 
L 174.407589 288.954058 
L 172.862542 288.954058 
z
" style="fill:#e24a33;opacity:0.5;"/>
   </g>
   <g id="patch_45">
    <path clip-path="url(#pf4e41eb8d9)" d="M 174.407589 290.25375 
L 175.952635 290.25375 
L 175.952635 290.25375 
L 174.407589 290.25375 
z
" style="fill:#e24a33;opacity:0.5;"/>
   </g>
   <g id="patch_46">
    <path clip-path="url(#pf4e41eb8d9)" d="M 175.952635 290.25375 
L 177.497682 290.25375 
L 177.497682 290.25375 
L 175.952635 290.25375 
z
" style="fill:#e24a33;opacity:0.5;"/>
   </g>
   <g id="patch_47">
    <path clip-path="url(#pf4e41eb8d9)" d="M 177.497682 290.25375 
L 179.042729 290.25375 
L 179.042729 290.25375 
L 177.497682 290.25375 
z
" style="fill:#e24a33;opacity:0.5;"/>
   </g>
   <g id="patch_48">
    <path clip-path="url(#pf4e41eb8d9)" d="M 179.042729 290.25375 
L 180.587775 290.25375 
L 180.587775 290.25375 
L 179.042729 290.25375 
z
" style="fill:#e24a33;opacity:0.5;"/>
   </g>
   <g id="patch_49">
    <path clip-path="url(#pf4e41eb8d9)" d="M 180.587775 290.25375 
L 182.132822 290.25375 
L 182.132822 290.25375 
L 180.587775 290.25375 
z
" style="fill:#e24a33;opacity:0.5;"/>
   </g>
   <g id="patch_50">
    <path clip-path="url(#pf4e41eb8d9)" d="M 182.132822 290.25375 
L 183.677868 290.25375 
L 183.677868 290.25375 
L 182.132822 290.25375 
z
" style="fill:#e24a33;opacity:0.5;"/>
   </g>
   <g id="patch_51">
    <path clip-path="url(#pf4e41eb8d9)" d="M 183.677868 290.25375 
L 185.222915 290.25375 
L 185.222915 290.25375 
L 183.677868 290.25375 
z
" style="fill:#e24a33;opacity:0.5;"/>
   </g>
   <g id="patch_52">
    <path clip-path="url(#pf4e41eb8d9)" d="M 185.222915 290.25375 
L 186.767961 290.25375 
L 186.767961 288.954058 
L 185.222915 288.954058 
z
" style="fill:#e24a33;opacity:0.5;"/>
   </g>
   <g id="patch_53">
    <path clip-path="url(#pf4e41eb8d9)" d="M 49.520227 290.25375 
L 52.70083 290.25375 
L 52.70083 288.954058 
L 49.520227 288.954058 
z
" style="fill:#348abd;opacity:0.5;"/>
   </g>
   <g id="patch_54">
    <path clip-path="url(#pf4e41eb8d9)" d="M 52.70083 290.25375 
L 55.881433 290.25375 
L 55.881433 290.25375 
L 52.70083 290.25375 
z
" style="fill:#348abd;opacity:0.5;"/>
   </g>
   <g id="patch_55">
    <path clip-path="url(#pf4e41eb8d9)" d="M 55.881433 290.25375 
L 59.062036 290.25375 
L 59.062036 290.25375 
L 55.881433 290.25375 
z
" style="fill:#348abd;opacity:0.5;"/>
   </g>
   <g id="patch_56">
    <path clip-path="url(#pf4e41eb8d9)" d="M 59.062036 290.25375 
L 62.242639 290.25375 
L 62.242639 290.25375 
L 59.062036 290.25375 
z
" style="fill:#348abd;opacity:0.5;"/>
   </g>
   <g id="patch_57">
    <path clip-path="url(#pf4e41eb8d9)" d="M 62.242639 290.25375 
L 65.423242 290.25375 
L 65.423242 290.25375 
L 62.242639 290.25375 
z
" style="fill:#348abd;opacity:0.5;"/>
   </g>
   <g id="patch_58">
    <path clip-path="url(#pf4e41eb8d9)" d="M 65.423242 290.25375 
L 68.603845 290.25375 
L 68.603845 288.954058 
L 65.423242 288.954058 
z
" style="fill:#348abd;opacity:0.5;"/>
   </g>
   <g id="patch_59">
    <path clip-path="url(#pf4e41eb8d9)" d="M 68.603845 290.25375 
L 71.784448 290.25375 
L 71.784448 290.25375 
L 68.603845 290.25375 
z
" style="fill:#348abd;opacity:0.5;"/>
   </g>
   <g id="patch_60">
    <path clip-path="url(#pf4e41eb8d9)" d="M 71.784448 290.25375 
L 74.965051 290.25375 
L 74.965051 290.25375 
L 71.784448 290.25375 
z
" style="fill:#348abd;opacity:0.5;"/>
   </g>
   <g id="patch_61">
    <path clip-path="url(#pf4e41eb8d9)" d="M 74.965051 290.25375 
L 78.145654 290.25375 
L 78.145654 287.654365 
L 74.965051 287.654365 
z
" style="fill:#348abd;opacity:0.5;"/>
   </g>
   <g id="patch_62">
    <path clip-path="url(#pf4e41eb8d9)" d="M 78.145654 290.25375 
L 81.326257 290.25375 
L 81.326257 290.25375 
L 78.145654 290.25375 
z
" style="fill:#348abd;opacity:0.5;"/>
   </g>
   <g id="patch_63">
    <path clip-path="url(#pf4e41eb8d9)" d="M 81.326257 290.25375 
L 84.50686 290.25375 
L 84.50686 288.954058 
L 81.326257 288.954058 
z
" style="fill:#348abd;opacity:0.5;"/>
   </g>
   <g id="patch_64">
    <path clip-path="url(#pf4e41eb8d9)" d="M 84.50686 290.25375 
L 87.687462 290.25375 
L 87.687462 290.25375 
L 84.50686 290.25375 
z
" style="fill:#348abd;opacity:0.5;"/>
   </g>
   <g id="patch_65">
    <path clip-path="url(#pf4e41eb8d9)" d="M 87.687462 290.25375 
L 90.868065 290.25375 
L 90.868065 288.954058 
L 87.687462 288.954058 
z
" style="fill:#348abd;opacity:0.5;"/>
   </g>
   <g id="patch_66">
    <path clip-path="url(#pf4e41eb8d9)" d="M 90.868065 290.25375 
L 94.048668 290.25375 
L 94.048668 287.654365 
L 90.868065 287.654365 
z
" style="fill:#348abd;opacity:0.5;"/>
   </g>
   <g id="patch_67">
    <path clip-path="url(#pf4e41eb8d9)" d="M 94.048668 290.25375 
L 97.229271 290.25375 
L 97.229271 290.25375 
L 94.048668 290.25375 
z
" style="fill:#348abd;opacity:0.5;"/>
   </g>
   <g id="patch_68">
    <path clip-path="url(#pf4e41eb8d9)" d="M 97.229271 290.25375 
L 100.409874 290.25375 
L 100.409874 290.25375 
L 97.229271 290.25375 
z
" style="fill:#348abd;opacity:0.5;"/>
   </g>
   <g id="patch_69">
    <path clip-path="url(#pf4e41eb8d9)" d="M 100.409874 290.25375 
L 103.590477 290.25375 
L 103.590477 288.954058 
L 100.409874 288.954058 
z
" style="fill:#348abd;opacity:0.5;"/>
   </g>
   <g id="patch_70">
    <path clip-path="url(#pf4e41eb8d9)" d="M 103.590477 290.25375 
L 106.77108 290.25375 
L 106.77108 288.954058 
L 103.590477 288.954058 
z
" style="fill:#348abd;opacity:0.5;"/>
   </g>
   <g id="patch_71">
    <path clip-path="url(#pf4e41eb8d9)" d="M 106.77108 290.25375 
L 109.951683 290.25375 
L 109.951683 287.654365 
L 106.77108 287.654365 
z
" style="fill:#348abd;opacity:0.5;"/>
   </g>
   <g id="patch_72">
    <path clip-path="url(#pf4e41eb8d9)" d="M 109.951683 290.25375 
L 113.132286 290.25375 
L 113.132286 286.354673 
L 109.951683 286.354673 
z
" style="fill:#348abd;opacity:0.5;"/>
   </g>
   <g id="patch_73">
    <path clip-path="url(#pf4e41eb8d9)" d="M 113.132286 290.25375 
L 116.312889 290.25375 
L 116.312889 281.155904 
L 113.132286 281.155904 
z
" style="fill:#348abd;opacity:0.5;"/>
   </g>
   <g id="patch_74">
    <path clip-path="url(#pf4e41eb8d9)" d="M 116.312889 290.25375 
L 119.493492 290.25375 
L 119.493492 274.657442 
L 116.312889 274.657442 
z
" style="fill:#348abd;opacity:0.5;"/>
   </g>
   <g id="patch_75">
    <path clip-path="url(#pf4e41eb8d9)" d="M 119.493492 290.25375 
L 122.674095 290.25375 
L 122.674095 283.755288 
L 119.493492 283.755288 
z
" style="fill:#348abd;opacity:0.5;"/>
   </g>
   <g id="patch_76">
    <path clip-path="url(#pf4e41eb8d9)" d="M 122.674095 290.25375 
L 125.854698 290.25375 
L 125.854698 272.058058 
L 122.674095 272.058058 
z
" style="fill:#348abd;opacity:0.5;"/>
   </g>
   <g id="patch_77">
    <path clip-path="url(#pf4e41eb8d9)" d="M 125.854698 290.25375 
L 129.035301 290.25375 
L 129.035301 260.360827 
L 125.854698 260.360827 
z
" style="fill:#348abd;opacity:0.5;"/>
   </g>
   <g id="patch_78">
    <path clip-path="url(#pf4e41eb8d9)" d="M 129.035301 290.25375 
L 132.215904 290.25375 
L 132.215904 257.761442 
L 129.035301 257.761442 
z
" style="fill:#348abd;opacity:0.5;"/>
   </g>
   <g id="patch_79">
    <path clip-path="url(#pf4e41eb8d9)" d="M 132.215904 290.25375 
L 135.396506 290.25375 
L 135.396506 218.770673 
L 132.215904 218.770673 
z
" style="fill:#348abd;opacity:0.5;"/>
   </g>
   <g id="patch_80">
    <path clip-path="url(#pf4e41eb8d9)" d="M 135.396506 290.25375 
L 138.577109 290.25375 
L 138.577109 182.379288 
L 135.396506 182.379288 
z
" style="fill:#348abd;opacity:0.5;"/>
   </g>
   <g id="patch_81">
    <path clip-path="url(#pf4e41eb8d9)" d="M 138.577109 290.25375 
L 141.757712 290.25375 
L 141.757712 209.672827 
L 138.577109 209.672827 
z
" style="fill:#348abd;opacity:0.5;"/>
   </g>
   <g id="patch_82">
    <path clip-path="url(#pf4e41eb8d9)" d="M 141.757712 290.25375 
L 144.938315 290.25375 
L 144.938315 171.98175 
L 141.757712 171.98175 
z
" style="fill:#348abd;opacity:0.5;"/>
   </g>
   <g id="patch_83">
    <path clip-path="url(#pf4e41eb8d9)" d="M 144.938315 290.25375 
L 148.118918 290.25375 
L 148.118918 179.779904 
L 144.938315 179.779904 
z
" style="fill:#348abd;opacity:0.5;"/>
   </g>
   <g id="patch_84">
    <path clip-path="url(#pf4e41eb8d9)" d="M 148.118918 290.25375 
L 151.299521 290.25375 
L 151.299521 183.678981 
L 148.118918 183.678981 
z
" style="fill:#348abd;opacity:0.5;"/>
   </g>
   <g id="patch_85">
    <path clip-path="url(#pf4e41eb8d9)" d="M 151.299521 290.25375 
L 154.480124 290.25375 
L 154.480124 144.688212 
L 151.299521 144.688212 
z
" style="fill:#348abd;opacity:0.5;"/>
   </g>
   <g id="patch_86">
    <path clip-path="url(#pf4e41eb8d9)" d="M 154.480124 290.25375 
L 157.660727 290.25375 
L 157.660727 181.079596 
L 154.480124 181.079596 
z
" style="fill:#348abd;opacity:0.5;"/>
   </g>
   <g id="patch_87">
    <path clip-path="url(#pf4e41eb8d9)" d="M 157.660727 290.25375 
L 160.84133 290.25375 
L 160.84133 162.883904 
L 157.660727 162.883904 
z
" style="fill:#348abd;opacity:0.5;"/>
   </g>
   <g id="patch_88">
    <path clip-path="url(#pf4e41eb8d9)" d="M 160.84133 290.25375 
L 164.021933 290.25375 
L 164.021933 223.969442 
L 160.84133 223.969442 
z
" style="fill:#348abd;opacity:0.5;"/>
   </g>
   <g id="patch_89">
    <path clip-path="url(#pf4e41eb8d9)" d="M 164.021933 290.25375 
L 167.202536 290.25375 
L 167.202536 261.660519 
L 164.021933 261.660519 
z
" style="fill:#348abd;opacity:0.5;"/>
   </g>
   <g id="patch_90">
    <path clip-path="url(#pf4e41eb8d9)" d="M 167.202536 290.25375 
L 170.383139 290.25375 
L 170.383139 252.562673 
L 167.202536 252.562673 
z
" style="fill:#348abd;opacity:0.5;"/>
   </g>
   <g id="patch_91">
    <path clip-path="url(#pf4e41eb8d9)" d="M 170.383139 290.25375 
L 173.563742 290.25375 
L 173.563742 269.458673 
L 170.383139 269.458673 
z
" style="fill:#348abd;opacity:0.5;"/>
   </g>
   <g id="patch_92">
    <path clip-path="url(#pf4e41eb8d9)" d="M 173.563742 290.25375 
L 176.744345 290.25375 
L 176.744345 278.556519 
L 173.563742 278.556519 
z
" style="fill:#348abd;opacity:0.5;"/>
   </g>
   <g id="patch_93">
    <path clip-path="url(#pf4e41eb8d9)" d="M 176.744345 290.25375 
L 179.924948 290.25375 
L 179.924948 281.155904 
L 176.744345 281.155904 
z
" style="fill:#348abd;opacity:0.5;"/>
   </g>
   <g id="patch_94">
    <path clip-path="url(#pf4e41eb8d9)" d="M 179.924948 290.25375 
L 183.10555 290.25375 
L 183.10555 286.354673 
L 179.924948 286.354673 
z
" style="fill:#348abd;opacity:0.5;"/>
   </g>
   <g id="patch_95">
    <path clip-path="url(#pf4e41eb8d9)" d="M 183.10555 290.25375 
L 186.286153 290.25375 
L 186.286153 283.755288 
L 183.10555 283.755288 
z
" style="fill:#348abd;opacity:0.5;"/>
   </g>
   <g id="patch_96">
    <path clip-path="url(#pf4e41eb8d9)" d="M 186.286153 290.25375 
L 189.466756 290.25375 
L 189.466756 287.654365 
L 186.286153 287.654365 
z
" style="fill:#348abd;opacity:0.5;"/>
   </g>
   <g id="patch_97">
    <path clip-path="url(#pf4e41eb8d9)" d="M 189.466756 290.25375 
L 192.647359 290.25375 
L 192.647359 288.954058 
L 189.466756 288.954058 
z
" style="fill:#348abd;opacity:0.5;"/>
   </g>
   <g id="patch_98">
    <path clip-path="url(#pf4e41eb8d9)" d="M 192.647359 290.25375 
L 195.827962 290.25375 
L 195.827962 287.654365 
L 192.647359 287.654365 
z
" style="fill:#348abd;opacity:0.5;"/>
   </g>
   <g id="patch_99">
    <path clip-path="url(#pf4e41eb8d9)" d="M 195.827962 290.25375 
L 199.008565 290.25375 
L 199.008565 287.654365 
L 195.827962 287.654365 
z
" style="fill:#348abd;opacity:0.5;"/>
   </g>
   <g id="patch_100">
    <path clip-path="url(#pf4e41eb8d9)" d="M 199.008565 290.25375 
L 202.189168 290.25375 
L 202.189168 290.25375 
L 199.008565 290.25375 
z
" style="fill:#348abd;opacity:0.5;"/>
   </g>
   <g id="patch_101">
    <path clip-path="url(#pf4e41eb8d9)" d="M 202.189168 290.25375 
L 205.369771 290.25375 
L 205.369771 290.25375 
L 202.189168 290.25375 
z
" style="fill:#348abd;opacity:0.5;"/>
   </g>
   <g id="patch_102">
    <path clip-path="url(#pf4e41eb8d9)" d="M 205.369771 290.25375 
L 208.550374 290.25375 
L 208.550374 288.954058 
L 205.369771 288.954058 
z
" style="fill:#348abd;opacity:0.5;"/>
   </g>
   <g id="patch_103">
    <path clip-path="url(#pf4e41eb8d9)" d="M 147.757258 290.25375 
L 150.872839 290.25375 
L 150.872839 287.654365 
L 147.757258 287.654365 
z
" style="fill:#988ed5;opacity:0.5;"/>
   </g>
   <g id="patch_104">
    <path clip-path="url(#pf4e41eb8d9)" d="M 150.872839 290.25375 
L 153.988419 290.25375 
L 153.988419 290.25375 
L 150.872839 290.25375 
z
" style="fill:#988ed5;opacity:0.5;"/>
   </g>
   <g id="patch_105">
    <path clip-path="url(#pf4e41eb8d9)" d="M 153.988419 290.25375 
L 157.104 290.25375 
L 157.104 290.25375 
L 153.988419 290.25375 
z
" style="fill:#988ed5;opacity:0.5;"/>
   </g>
   <g id="patch_106">
    <path clip-path="url(#pf4e41eb8d9)" d="M 157.104 290.25375 
L 160.219581 290.25375 
L 160.219581 268.158981 
L 157.104 268.158981 
z
" style="fill:#988ed5;opacity:0.5;"/>
   </g>
   <g id="patch_107">
    <path clip-path="url(#pf4e41eb8d9)" d="M 160.219581 290.25375 
L 163.335162 290.25375 
L 163.335162 212.272212 
L 160.219581 212.272212 
z
" style="fill:#988ed5;opacity:0.5;"/>
   </g>
   <g id="patch_108">
    <path clip-path="url(#pf4e41eb8d9)" d="M 163.335162 290.25375 
L 166.450742 290.25375 
L 166.450742 175.880827 
L 163.335162 175.880827 
z
" style="fill:#988ed5;opacity:0.5;"/>
   </g>
   <g id="patch_109">
    <path clip-path="url(#pf4e41eb8d9)" d="M 166.450742 290.25375 
L 169.566323 290.25375 
L 169.566323 153.786058 
L 166.450742 153.786058 
z
" style="fill:#988ed5;opacity:0.5;"/>
   </g>
   <g id="patch_110">
    <path clip-path="url(#pf4e41eb8d9)" d="M 169.566323 290.25375 
L 172.681904 290.25375 
L 172.681904 132.990981 
L 169.566323 132.990981 
z
" style="fill:#988ed5;opacity:0.5;"/>
   </g>
   <g id="patch_111">
    <path clip-path="url(#pf4e41eb8d9)" d="M 172.681904 290.25375 
L 175.797484 290.25375 
L 175.797484 104.39775 
L 172.681904 104.39775 
z
" style="fill:#988ed5;opacity:0.5;"/>
   </g>
   <g id="patch_112">
    <path clip-path="url(#pf4e41eb8d9)" d="M 175.797484 290.25375 
L 178.913065 290.25375 
L 178.913065 158.984827 
L 175.797484 158.984827 
z
" style="fill:#988ed5;opacity:0.5;"/>
   </g>
   <g id="patch_113">
    <path clip-path="url(#pf4e41eb8d9)" d="M 178.913065 290.25375 
L 182.028646 290.25375 
L 182.028646 182.379288 
L 178.913065 182.379288 
z
" style="fill:#988ed5;opacity:0.5;"/>
   </g>
   <g id="patch_114">
    <path clip-path="url(#pf4e41eb8d9)" d="M 182.028646 290.25375 
L 185.144227 290.25375 
L 185.144227 213.571904 
L 182.028646 213.571904 
z
" style="fill:#988ed5;opacity:0.5;"/>
   </g>
   <g id="patch_115">
    <path clip-path="url(#pf4e41eb8d9)" d="M 185.144227 290.25375 
L 188.259807 290.25375 
L 188.259807 233.067288 
L 185.144227 233.067288 
z
" style="fill:#988ed5;opacity:0.5;"/>
   </g>
   <g id="patch_116">
    <path clip-path="url(#pf4e41eb8d9)" d="M 188.259807 290.25375 
L 191.375388 290.25375 
L 191.375388 239.56575 
L 188.259807 239.56575 
z
" style="fill:#988ed5;opacity:0.5;"/>
   </g>
   <g id="patch_117">
    <path clip-path="url(#pf4e41eb8d9)" d="M 191.375388 290.25375 
L 194.490969 290.25375 
L 194.490969 257.761442 
L 191.375388 257.761442 
z
" style="fill:#988ed5;opacity:0.5;"/>
   </g>
   <g id="patch_118">
    <path clip-path="url(#pf4e41eb8d9)" d="M 194.490969 290.25375 
L 197.60655 290.25375 
L 197.60655 262.960212 
L 194.490969 262.960212 
z
" style="fill:#988ed5;opacity:0.5;"/>
   </g>
   <g id="patch_119">
    <path clip-path="url(#pf4e41eb8d9)" d="M 197.60655 290.25375 
L 200.72213 290.25375 
L 200.72213 260.360827 
L 197.60655 260.360827 
z
" style="fill:#988ed5;opacity:0.5;"/>
   </g>
   <g id="patch_120">
    <path clip-path="url(#pf4e41eb8d9)" d="M 200.72213 290.25375 
L 203.837711 290.25375 
L 203.837711 273.35775 
L 200.72213 273.35775 
z
" style="fill:#988ed5;opacity:0.5;"/>
   </g>
   <g id="patch_121">
    <path clip-path="url(#pf4e41eb8d9)" d="M 203.837711 290.25375 
L 206.953292 290.25375 
L 206.953292 275.957135 
L 203.837711 275.957135 
z
" style="fill:#988ed5;opacity:0.5;"/>
   </g>
   <g id="patch_122">
    <path clip-path="url(#pf4e41eb8d9)" d="M 206.953292 290.25375 
L 210.068872 290.25375 
L 210.068872 285.054981 
L 206.953292 285.054981 
z
" style="fill:#988ed5;opacity:0.5;"/>
   </g>
   <g id="patch_123">
    <path clip-path="url(#pf4e41eb8d9)" d="M 210.068872 290.25375 
L 213.184453 290.25375 
L 213.184453 278.556519 
L 210.068872 278.556519 
z
" style="fill:#988ed5;opacity:0.5;"/>
   </g>
   <g id="patch_124">
    <path clip-path="url(#pf4e41eb8d9)" d="M 213.184453 290.25375 
L 216.300034 290.25375 
L 216.300034 283.755288 
L 213.184453 283.755288 
z
" style="fill:#988ed5;opacity:0.5;"/>
   </g>
   <g id="patch_125">
    <path clip-path="url(#pf4e41eb8d9)" d="M 216.300034 290.25375 
L 219.415615 290.25375 
L 219.415615 283.755288 
L 216.300034 283.755288 
z
" style="fill:#988ed5;opacity:0.5;"/>
   </g>
   <g id="patch_126">
    <path clip-path="url(#pf4e41eb8d9)" d="M 219.415615 290.25375 
L 222.531195 290.25375 
L 222.531195 283.755288 
L 219.415615 283.755288 
z
" style="fill:#988ed5;opacity:0.5;"/>
   </g>
   <g id="patch_127">
    <path clip-path="url(#pf4e41eb8d9)" d="M 222.531195 290.25375 
L 225.646776 290.25375 
L 225.646776 287.654365 
L 222.531195 287.654365 
z
" style="fill:#988ed5;opacity:0.5;"/>
   </g>
   <g id="patch_128">
    <path clip-path="url(#pf4e41eb8d9)" d="M 225.646776 290.25375 
L 228.762357 290.25375 
L 228.762357 287.654365 
L 225.646776 287.654365 
z
" style="fill:#988ed5;opacity:0.5;"/>
   </g>
   <g id="patch_129">
    <path clip-path="url(#pf4e41eb8d9)" d="M 228.762357 290.25375 
L 231.877937 290.25375 
L 231.877937 290.25375 
L 228.762357 290.25375 
z
" style="fill:#988ed5;opacity:0.5;"/>
   </g>
   <g id="patch_130">
    <path clip-path="url(#pf4e41eb8d9)" d="M 231.877937 290.25375 
L 234.993518 290.25375 
L 234.993518 290.25375 
L 231.877937 290.25375 
z
" style="fill:#988ed5;opacity:0.5;"/>
   </g>
   <g id="patch_131">
    <path clip-path="url(#pf4e41eb8d9)" d="M 234.993518 290.25375 
L 238.109099 290.25375 
L 238.109099 287.654365 
L 234.993518 287.654365 
z
" style="fill:#988ed5;opacity:0.5;"/>
   </g>
   <g id="patch_132">
    <path clip-path="url(#pf4e41eb8d9)" d="M 238.109099 290.25375 
L 241.22468 290.25375 
L 241.22468 286.354673 
L 238.109099 286.354673 
z
" style="fill:#988ed5;opacity:0.5;"/>
   </g>
   <g id="patch_133">
    <path clip-path="url(#pf4e41eb8d9)" d="M 241.22468 290.25375 
L 244.34026 290.25375 
L 244.34026 290.25375 
L 241.22468 290.25375 
z
" style="fill:#988ed5;opacity:0.5;"/>
   </g>
   <g id="patch_134">
    <path clip-path="url(#pf4e41eb8d9)" d="M 244.34026 290.25375 
L 247.455841 290.25375 
L 247.455841 287.654365 
L 244.34026 287.654365 
z
" style="fill:#988ed5;opacity:0.5;"/>
   </g>
   <g id="patch_135">
    <path clip-path="url(#pf4e41eb8d9)" d="M 247.455841 290.25375 
L 250.571422 290.25375 
L 250.571422 288.954058 
L 247.455841 288.954058 
z
" style="fill:#988ed5;opacity:0.5;"/>
   </g>
   <g id="patch_136">
    <path clip-path="url(#pf4e41eb8d9)" d="M 250.571422 290.25375 
L 253.687003 290.25375 
L 253.687003 290.25375 
L 250.571422 290.25375 
z
" style="fill:#988ed5;opacity:0.5;"/>
   </g>
   <g id="patch_137">
    <path clip-path="url(#pf4e41eb8d9)" d="M 253.687003 290.25375 
L 256.802583 290.25375 
L 256.802583 288.954058 
L 253.687003 288.954058 
z
" style="fill:#988ed5;opacity:0.5;"/>
   </g>
   <g id="patch_138">
    <path clip-path="url(#pf4e41eb8d9)" d="M 256.802583 290.25375 
L 259.918164 290.25375 
L 259.918164 287.654365 
L 256.802583 287.654365 
z
" style="fill:#988ed5;opacity:0.5;"/>
   </g>
   <g id="patch_139">
    <path clip-path="url(#pf4e41eb8d9)" d="M 259.918164 290.25375 
L 263.033745 290.25375 
L 263.033745 288.954058 
L 259.918164 288.954058 
z
" style="fill:#988ed5;opacity:0.5;"/>
   </g>
   <g id="patch_140">
    <path clip-path="url(#pf4e41eb8d9)" d="M 263.033745 290.25375 
L 266.149325 290.25375 
L 266.149325 290.25375 
L 263.033745 290.25375 
z
" style="fill:#988ed5;opacity:0.5;"/>
   </g>
   <g id="patch_141">
    <path clip-path="url(#pf4e41eb8d9)" d="M 266.149325 290.25375 
L 269.264906 290.25375 
L 269.264906 290.25375 
L 266.149325 290.25375 
z
" style="fill:#988ed5;opacity:0.5;"/>
   </g>
   <g id="patch_142">
    <path clip-path="url(#pf4e41eb8d9)" d="M 269.264906 290.25375 
L 272.380487 290.25375 
L 272.380487 290.25375 
L 269.264906 290.25375 
z
" style="fill:#988ed5;opacity:0.5;"/>
   </g>
   <g id="patch_143">
    <path clip-path="url(#pf4e41eb8d9)" d="M 272.380487 290.25375 
L 275.496068 290.25375 
L 275.496068 290.25375 
L 272.380487 290.25375 
z
" style="fill:#988ed5;opacity:0.5;"/>
   </g>
   <g id="patch_144">
    <path clip-path="url(#pf4e41eb8d9)" d="M 275.496068 290.25375 
L 278.611648 290.25375 
L 278.611648 290.25375 
L 275.496068 290.25375 
z
" style="fill:#988ed5;opacity:0.5;"/>
   </g>
   <g id="patch_145">
    <path clip-path="url(#pf4e41eb8d9)" d="M 278.611648 290.25375 
L 281.727229 290.25375 
L 281.727229 288.954058 
L 278.611648 288.954058 
z
" style="fill:#988ed5;opacity:0.5;"/>
   </g>
   <g id="patch_146">
    <path clip-path="url(#pf4e41eb8d9)" d="M 281.727229 290.25375 
L 284.84281 290.25375 
L 284.84281 290.25375 
L 281.727229 290.25375 
z
" style="fill:#988ed5;opacity:0.5;"/>
   </g>
   <g id="patch_147">
    <path clip-path="url(#pf4e41eb8d9)" d="M 284.84281 290.25375 
L 287.958391 290.25375 
L 287.958391 290.25375 
L 284.84281 290.25375 
z
" style="fill:#988ed5;opacity:0.5;"/>
   </g>
   <g id="patch_148">
    <path clip-path="url(#pf4e41eb8d9)" d="M 287.958391 290.25375 
L 291.073971 290.25375 
L 291.073971 290.25375 
L 287.958391 290.25375 
z
" style="fill:#988ed5;opacity:0.5;"/>
   </g>
   <g id="patch_149">
    <path clip-path="url(#pf4e41eb8d9)" d="M 291.073971 290.25375 
L 294.189552 290.25375 
L 294.189552 290.25375 
L 291.073971 290.25375 
z
" style="fill:#988ed5;opacity:0.5;"/>
   </g>
   <g id="patch_150">
    <path clip-path="url(#pf4e41eb8d9)" d="M 294.189552 290.25375 
L 297.305133 290.25375 
L 297.305133 290.25375 
L 294.189552 290.25375 
z
" style="fill:#988ed5;opacity:0.5;"/>
   </g>
   <g id="patch_151">
    <path clip-path="url(#pf4e41eb8d9)" d="M 297.305133 290.25375 
L 300.420713 290.25375 
L 300.420713 288.954058 
L 297.305133 288.954058 
z
" style="fill:#988ed5;opacity:0.5;"/>
   </g>
   <g id="patch_152">
    <path clip-path="url(#pf4e41eb8d9)" d="M 300.420713 290.25375 
L 303.536294 290.25375 
L 303.536294 287.654365 
L 300.420713 287.654365 
z
" style="fill:#988ed5;opacity:0.5;"/>
   </g>
   <g id="patch_153">
    <path clip-path="url(#pf4e41eb8d9)" d="M 104.684534 290.25375 
L 110.074338 290.25375 
L 110.074338 287.654365 
L 104.684534 287.654365 
z
" style="fill:#777777;opacity:0.5;"/>
   </g>
   <g id="patch_154">
    <path clip-path="url(#pf4e41eb8d9)" d="M 110.074338 290.25375 
L 115.464143 290.25375 
L 115.464143 287.654365 
L 110.074338 287.654365 
z
" style="fill:#777777;opacity:0.5;"/>
   </g>
   <g id="patch_155">
    <path clip-path="url(#pf4e41eb8d9)" d="M 115.464143 290.25375 
L 120.853948 290.25375 
L 120.853948 282.455596 
L 115.464143 282.455596 
z
" style="fill:#777777;opacity:0.5;"/>
   </g>
   <g id="patch_156">
    <path clip-path="url(#pf4e41eb8d9)" d="M 120.853948 290.25375 
L 126.243753 290.25375 
L 126.243753 279.856212 
L 120.853948 279.856212 
z
" style="fill:#777777;opacity:0.5;"/>
   </g>
   <g id="patch_157">
    <path clip-path="url(#pf4e41eb8d9)" d="M 126.243753 290.25375 
L 131.633557 290.25375 
L 131.633557 269.458673 
L 126.243753 269.458673 
z
" style="fill:#777777;opacity:0.5;"/>
   </g>
   <g id="patch_158">
    <path clip-path="url(#pf4e41eb8d9)" d="M 131.633557 290.25375 
L 137.023362 290.25375 
L 137.023362 235.666673 
L 131.633557 235.666673 
z
" style="fill:#777777;opacity:0.5;"/>
   </g>
   <g id="patch_159">
    <path clip-path="url(#pf4e41eb8d9)" d="M 137.023362 290.25375 
L 142.413167 290.25375 
L 142.413167 161.584212 
L 137.023362 161.584212 
z
" style="fill:#777777;opacity:0.5;"/>
   </g>
   <g id="patch_160">
    <path clip-path="url(#pf4e41eb8d9)" d="M 142.413167 290.25375 
L 147.802972 290.25375 
L 147.802972 100.498673 
L 142.413167 100.498673 
z
" style="fill:#777777;opacity:0.5;"/>
   </g>
   <g id="patch_161">
    <path clip-path="url(#pf4e41eb8d9)" d="M 147.802972 290.25375 
L 153.192777 290.25375 
L 153.192777 108.296827 
L 147.802972 108.296827 
z
" style="fill:#777777;opacity:0.5;"/>
   </g>
   <g id="patch_162">
    <path clip-path="url(#pf4e41eb8d9)" d="M 153.192777 290.25375 
L 158.582581 290.25375 
L 158.582581 36.81375 
L 153.192777 36.81375 
z
" style="fill:#777777;opacity:0.5;"/>
   </g>
   <g id="patch_163">
    <path clip-path="url(#pf4e41eb8d9)" d="M 158.582581 290.25375 
L 163.972386 290.25375 
L 163.972386 64.107288 
L 158.582581 64.107288 
z
" style="fill:#777777;opacity:0.5;"/>
   </g>
   <g id="patch_164">
    <path clip-path="url(#pf4e41eb8d9)" d="M 163.972386 290.25375 
L 169.362191 290.25375 
L 169.362191 195.376212 
L 163.972386 195.376212 
z
" style="fill:#777777;opacity:0.5;"/>
   </g>
   <g id="patch_165">
    <path clip-path="url(#pf4e41eb8d9)" d="M 169.362191 290.25375 
L 174.751996 290.25375 
L 174.751996 247.363904 
L 169.362191 247.363904 
z
" style="fill:#777777;opacity:0.5;"/>
   </g>
   <g id="patch_166">
    <path clip-path="url(#pf4e41eb8d9)" d="M 174.751996 290.25375 
L 180.141801 290.25375 
L 180.141801 252.562673 
L 174.751996 252.562673 
z
" style="fill:#777777;opacity:0.5;"/>
   </g>
   <g id="patch_167">
    <path clip-path="url(#pf4e41eb8d9)" d="M 180.141801 290.25375 
L 185.531605 290.25375 
L 185.531605 272.058058 
L 180.141801 272.058058 
z
" style="fill:#777777;opacity:0.5;"/>
   </g>
   <g id="patch_168">
    <path clip-path="url(#pf4e41eb8d9)" d="M 185.531605 290.25375 
L 190.92141 290.25375 
L 190.92141 281.155904 
L 185.531605 281.155904 
z
" style="fill:#777777;opacity:0.5;"/>
   </g>
   <g id="patch_169">
    <path clip-path="url(#pf4e41eb8d9)" d="M 190.92141 290.25375 
L 196.311215 290.25375 
L 196.311215 282.455596 
L 190.92141 282.455596 
z
" style="fill:#777777;opacity:0.5;"/>
   </g>
   <g id="patch_170">
    <path clip-path="url(#pf4e41eb8d9)" d="M 196.311215 290.25375 
L 201.70102 290.25375 
L 201.70102 285.054981 
L 196.311215 285.054981 
z
" style="fill:#777777;opacity:0.5;"/>
   </g>
   <g id="patch_171">
    <path clip-path="url(#pf4e41eb8d9)" d="M 201.70102 290.25375 
L 207.090824 290.25375 
L 207.090824 290.25375 
L 201.70102 290.25375 
z
" style="fill:#777777;opacity:0.5;"/>
   </g>
   <g id="patch_172">
    <path clip-path="url(#pf4e41eb8d9)" d="M 207.090824 290.25375 
L 212.480629 290.25375 
L 212.480629 288.954058 
L 207.090824 288.954058 
z
" style="fill:#777777;opacity:0.5;"/>
   </g>
   <g id="patch_173">
    <path clip-path="url(#pf4e41eb8d9)" d="M 212.480629 290.25375 
L 217.870434 290.25375 
L 217.870434 290.25375 
L 212.480629 290.25375 
z
" style="fill:#777777;opacity:0.5;"/>
   </g>
   <g id="patch_174">
    <path clip-path="url(#pf4e41eb8d9)" d="M 217.870434 290.25375 
L 223.260239 290.25375 
L 223.260239 287.654365 
L 217.870434 287.654365 
z
" style="fill:#777777;opacity:0.5;"/>
   </g>
   <g id="patch_175">
    <path clip-path="url(#pf4e41eb8d9)" d="M 223.260239 290.25375 
L 228.650044 290.25375 
L 228.650044 288.954058 
L 223.260239 288.954058 
z
" style="fill:#777777;opacity:0.5;"/>
   </g>
   <g id="patch_176">
    <path clip-path="url(#pf4e41eb8d9)" d="M 228.650044 290.25375 
L 234.039848 290.25375 
L 234.039848 288.954058 
L 228.650044 288.954058 
z
" style="fill:#777777;opacity:0.5;"/>
   </g>
   <g id="patch_177">
    <path clip-path="url(#pf4e41eb8d9)" d="M 234.039848 290.25375 
L 239.429653 290.25375 
L 239.429653 290.25375 
L 234.039848 290.25375 
z
" style="fill:#777777;opacity:0.5;"/>
   </g>
   <g id="patch_178">
    <path clip-path="url(#pf4e41eb8d9)" d="M 239.429653 290.25375 
L 244.819458 290.25375 
L 244.819458 290.25375 
L 239.429653 290.25375 
z
" style="fill:#777777;opacity:0.5;"/>
   </g>
   <g id="patch_179">
    <path clip-path="url(#pf4e41eb8d9)" d="M 244.819458 290.25375 
L 250.209263 290.25375 
L 250.209263 288.954058 
L 244.819458 288.954058 
z
" style="fill:#777777;opacity:0.5;"/>
   </g>
   <g id="patch_180">
    <path clip-path="url(#pf4e41eb8d9)" d="M 250.209263 290.25375 
L 255.599067 290.25375 
L 255.599067 290.25375 
L 250.209263 290.25375 
z
" style="fill:#777777;opacity:0.5;"/>
   </g>
   <g id="patch_181">
    <path clip-path="url(#pf4e41eb8d9)" d="M 255.599067 290.25375 
L 260.988872 290.25375 
L 260.988872 290.25375 
L 255.599067 290.25375 
z
" style="fill:#777777;opacity:0.5;"/>
   </g>
   <g id="patch_182">
    <path clip-path="url(#pf4e41eb8d9)" d="M 260.988872 290.25375 
L 266.378677 290.25375 
L 266.378677 290.25375 
L 260.988872 290.25375 
z
" style="fill:#777777;opacity:0.5;"/>
   </g>
   <g id="patch_183">
    <path clip-path="url(#pf4e41eb8d9)" d="M 266.378677 290.25375 
L 271.768482 290.25375 
L 271.768482 290.25375 
L 266.378677 290.25375 
z
" style="fill:#777777;opacity:0.5;"/>
   </g>
   <g id="patch_184">
    <path clip-path="url(#pf4e41eb8d9)" d="M 271.768482 290.25375 
L 277.158287 290.25375 
L 277.158287 290.25375 
L 271.768482 290.25375 
z
" style="fill:#777777;opacity:0.5;"/>
   </g>
   <g id="patch_185">
    <path clip-path="url(#pf4e41eb8d9)" d="M 277.158287 290.25375 
L 282.548091 290.25375 
L 282.548091 290.25375 
L 277.158287 290.25375 
z
" style="fill:#777777;opacity:0.5;"/>
   </g>
   <g id="patch_186">
    <path clip-path="url(#pf4e41eb8d9)" d="M 282.548091 290.25375 
L 287.937896 290.25375 
L 287.937896 290.25375 
L 282.548091 290.25375 
z
" style="fill:#777777;opacity:0.5;"/>
   </g>
   <g id="patch_187">
    <path clip-path="url(#pf4e41eb8d9)" d="M 287.937896 290.25375 
L 293.327701 290.25375 
L 293.327701 290.25375 
L 287.937896 290.25375 
z
" style="fill:#777777;opacity:0.5;"/>
   </g>
   <g id="patch_188">
    <path clip-path="url(#pf4e41eb8d9)" d="M 293.327701 290.25375 
L 298.717506 290.25375 
L 298.717506 290.25375 
L 293.327701 290.25375 
z
" style="fill:#777777;opacity:0.5;"/>
   </g>
   <g id="patch_189">
    <path clip-path="url(#pf4e41eb8d9)" d="M 298.717506 290.25375 
L 304.107311 290.25375 
L 304.107311 290.25375 
L 298.717506 290.25375 
z
" style="fill:#777777;opacity:0.5;"/>
   </g>
   <g id="patch_190">
    <path clip-path="url(#pf4e41eb8d9)" d="M 304.107311 290.25375 
L 309.497115 290.25375 
L 309.497115 290.25375 
L 304.107311 290.25375 
z
" style="fill:#777777;opacity:0.5;"/>
   </g>
   <g id="patch_191">
    <path clip-path="url(#pf4e41eb8d9)" d="M 309.497115 290.25375 
L 314.88692 290.25375 
L 314.88692 290.25375 
L 309.497115 290.25375 
z
" style="fill:#777777;opacity:0.5;"/>
   </g>
   <g id="patch_192">
    <path clip-path="url(#pf4e41eb8d9)" d="M 314.88692 290.25375 
L 320.276725 290.25375 
L 320.276725 290.25375 
L 314.88692 290.25375 
z
" style="fill:#777777;opacity:0.5;"/>
   </g>
   <g id="patch_193">
    <path clip-path="url(#pf4e41eb8d9)" d="M 320.276725 290.25375 
L 325.66653 290.25375 
L 325.66653 290.25375 
L 320.276725 290.25375 
z
" style="fill:#777777;opacity:0.5;"/>
   </g>
   <g id="patch_194">
    <path clip-path="url(#pf4e41eb8d9)" d="M 325.66653 290.25375 
L 331.056334 290.25375 
L 331.056334 290.25375 
L 325.66653 290.25375 
z
" style="fill:#777777;opacity:0.5;"/>
   </g>
   <g id="patch_195">
    <path clip-path="url(#pf4e41eb8d9)" d="M 331.056334 290.25375 
L 336.446139 290.25375 
L 336.446139 290.25375 
L 331.056334 290.25375 
z
" style="fill:#777777;opacity:0.5;"/>
   </g>
   <g id="patch_196">
    <path clip-path="url(#pf4e41eb8d9)" d="M 336.446139 290.25375 
L 341.835944 290.25375 
L 341.835944 290.25375 
L 336.446139 290.25375 
z
" style="fill:#777777;opacity:0.5;"/>
   </g>
   <g id="patch_197">
    <path clip-path="url(#pf4e41eb8d9)" d="M 341.835944 290.25375 
L 347.225749 290.25375 
L 347.225749 290.25375 
L 341.835944 290.25375 
z
" style="fill:#777777;opacity:0.5;"/>
   </g>
   <g id="patch_198">
    <path clip-path="url(#pf4e41eb8d9)" d="M 347.225749 290.25375 
L 352.615554 290.25375 
L 352.615554 290.25375 
L 347.225749 290.25375 
z
" style="fill:#777777;opacity:0.5;"/>
   </g>
   <g id="patch_199">
    <path clip-path="url(#pf4e41eb8d9)" d="M 352.615554 290.25375 
L 358.005358 290.25375 
L 358.005358 290.25375 
L 352.615554 290.25375 
z
" style="fill:#777777;opacity:0.5;"/>
   </g>
   <g id="patch_200">
    <path clip-path="url(#pf4e41eb8d9)" d="M 358.005358 290.25375 
L 363.395163 290.25375 
L 363.395163 290.25375 
L 358.005358 290.25375 
z
" style="fill:#777777;opacity:0.5;"/>
   </g>
   <g id="patch_201">
    <path clip-path="url(#pf4e41eb8d9)" d="M 363.395163 290.25375 
L 368.784968 290.25375 
L 368.784968 290.25375 
L 363.395163 290.25375 
z
" style="fill:#777777;opacity:0.5;"/>
   </g>
   <g id="patch_202">
    <path clip-path="url(#pf4e41eb8d9)" d="M 368.784968 290.25375 
L 374.174773 290.25375 
L 374.174773 288.954058 
L 368.784968 288.954058 
z
" style="fill:#777777;opacity:0.5;"/>
   </g>
   <g id="patch_203">
    <path d="M 33.2875 290.25375 
L 33.2875 24.14175 
" style="fill:none;stroke:#ffffff;stroke-linecap:square;stroke-linejoin:miter;"/>
   </g>
   <g id="patch_204">
    <path d="M 390.4075 290.25375 
L 390.4075 24.14175 
" style="fill:none;stroke:#ffffff;stroke-linecap:square;stroke-linejoin:miter;"/>
   </g>
   <g id="patch_205">
    <path d="M 33.2875 290.25375 
L 390.4075 290.25375 
" style="fill:none;stroke:#ffffff;stroke-linecap:square;stroke-linejoin:miter;"/>
   </g>
   <g id="patch_206">
    <path d="M 33.2875 24.14175 
L 390.4075 24.14175 
" style="fill:none;stroke:#ffffff;stroke-linecap:square;stroke-linejoin:miter;"/>
   </g>
   <g id="text_18">
    <!-- Histogram of Daily Returns -->
    <defs>
     <path d="M 9.8125 72.90625 
L 19.671875 72.90625 
L 19.671875 43.015625 
L 55.515625 43.015625 
L 55.515625 72.90625 
L 65.375 72.90625 
L 65.375 0 
L 55.515625 0 
L 55.515625 34.71875 
L 19.671875 34.71875 
L 19.671875 0 
L 9.8125 0 
z
" id="DejaVuSans-48"/>
     <path d="M 9.421875 54.6875 
L 18.40625 54.6875 
L 18.40625 0 
L 9.421875 0 
z
M 9.421875 75.984375 
L 18.40625 75.984375 
L 18.40625 64.59375 
L 9.421875 64.59375 
z
" id="DejaVuSans-69"/>
     <path d="M 44.28125 53.078125 
L 44.28125 44.578125 
Q 40.484375 46.53125 36.375 47.5 
Q 32.28125 48.484375 27.875 48.484375 
Q 21.1875 48.484375 17.84375 46.4375 
Q 14.5 44.390625 14.5 40.28125 
Q 14.5 37.15625 16.890625 35.375 
Q 19.28125 33.59375 26.515625 31.984375 
L 29.59375 31.296875 
Q 39.15625 29.25 43.1875 25.515625 
Q 47.21875 21.78125 47.21875 15.09375 
Q 47.21875 7.46875 41.1875 3.015625 
Q 35.15625 -1.421875 24.609375 -1.421875 
Q 20.21875 -1.421875 15.453125 -0.5625 
Q 10.6875 0.296875 5.421875 2 
L 5.421875 11.28125 
Q 10.40625 8.6875 15.234375 7.390625 
Q 20.0625 6.109375 24.8125 6.109375 
Q 31.15625 6.109375 34.5625 8.28125 
Q 37.984375 10.453125 37.984375 14.40625 
Q 37.984375 18.0625 35.515625 20.015625 
Q 33.0625 21.96875 24.703125 23.78125 
L 21.578125 24.515625 
Q 13.234375 26.265625 9.515625 29.90625 
Q 5.8125 33.546875 5.8125 39.890625 
Q 5.8125 47.609375 11.28125 51.796875 
Q 16.75 56 26.8125 56 
Q 31.78125 56 36.171875 55.265625 
Q 40.578125 54.546875 44.28125 53.078125 
" id="DejaVuSans-73"/>
     <path d="M 18.3125 70.21875 
L 18.3125 54.6875 
L 36.8125 54.6875 
L 36.8125 47.703125 
L 18.3125 47.703125 
L 18.3125 18.015625 
Q 18.3125 11.328125 20.140625 9.421875 
Q 21.96875 7.515625 27.59375 7.515625 
L 36.8125 7.515625 
L 36.8125 0 
L 27.59375 0 
Q 17.1875 0 13.234375 3.875 
Q 9.28125 7.765625 9.28125 18.015625 
L 9.28125 47.703125 
L 2.6875 47.703125 
L 2.6875 54.6875 
L 9.28125 54.6875 
L 9.28125 70.21875 
z
" id="DejaVuSans-74"/>
     <path d="M 30.609375 48.390625 
Q 23.390625 48.390625 19.1875 42.75 
Q 14.984375 37.109375 14.984375 27.296875 
Q 14.984375 17.484375 19.15625 11.84375 
Q 23.34375 6.203125 30.609375 6.203125 
Q 37.796875 6.203125 41.984375 11.859375 
Q 46.1875 17.53125 46.1875 27.296875 
Q 46.1875 37.015625 41.984375 42.703125 
Q 37.796875 48.390625 30.609375 48.390625 
M 30.609375 56 
Q 42.328125 56 49.015625 48.375 
Q 55.71875 40.765625 55.71875 27.296875 
Q 55.71875 13.875 49.015625 6.21875 
Q 42.328125 -1.421875 30.609375 -1.421875 
Q 18.84375 -1.421875 12.171875 6.21875 
Q 5.515625 13.875 5.515625 27.296875 
Q 5.515625 40.765625 12.171875 48.375 
Q 18.84375 56 30.609375 56 
" id="DejaVuSans-6f"/>
     <path d="M 45.40625 27.984375 
Q 45.40625 37.75 41.375 43.109375 
Q 37.359375 48.484375 30.078125 48.484375 
Q 22.859375 48.484375 18.828125 43.109375 
Q 14.796875 37.75 14.796875 27.984375 
Q 14.796875 18.265625 18.828125 12.890625 
Q 22.859375 7.515625 30.078125 7.515625 
Q 37.359375 7.515625 41.375 12.890625 
Q 45.40625 18.265625 45.40625 27.984375 
M 54.390625 6.78125 
Q 54.390625 -7.171875 48.1875 -13.984375 
Q 42 -20.796875 29.203125 -20.796875 
Q 24.46875 -20.796875 20.265625 -20.09375 
Q 16.0625 -19.390625 12.109375 -17.921875 
L 12.109375 -9.1875 
Q 16.0625 -11.328125 19.921875 -12.34375 
Q 23.78125 -13.375 27.78125 -13.375 
Q 36.625 -13.375 41.015625 -8.765625 
Q 45.40625 -4.15625 45.40625 5.171875 
L 45.40625 9.625 
Q 42.625 4.78125 38.28125 2.390625 
Q 33.9375 0 27.875 0 
Q 17.828125 0 11.671875 7.65625 
Q 5.515625 15.328125 5.515625 27.984375 
Q 5.515625 40.671875 11.671875 48.328125 
Q 17.828125 56 27.875 56 
Q 33.9375 56 38.28125 53.609375 
Q 42.625 51.21875 45.40625 46.390625 
L 45.40625 54.6875 
L 54.390625 54.6875 
z
" id="DejaVuSans-67"/>
     <path d="M 41.109375 46.296875 
Q 39.59375 47.171875 37.8125 47.578125 
Q 36.03125 48 33.890625 48 
Q 26.265625 48 22.1875 43.046875 
Q 18.109375 38.09375 18.109375 28.8125 
L 18.109375 0 
L 9.078125 0 
L 9.078125 54.6875 
L 18.109375 54.6875 
L 18.109375 46.1875 
Q 20.953125 51.171875 25.484375 53.578125 
Q 30.03125 56 36.53125 56 
Q 37.453125 56 38.578125 55.875 
Q 39.703125 55.765625 41.0625 55.515625 
z
" id="DejaVuSans-72"/>
     <path d="M 34.28125 27.484375 
Q 23.390625 27.484375 19.1875 25 
Q 14.984375 22.515625 14.984375 16.5 
Q 14.984375 11.71875 18.140625 8.90625 
Q 21.296875 6.109375 26.703125 6.109375 
Q 34.1875 6.109375 38.703125 11.40625 
Q 43.21875 16.703125 43.21875 25.484375 
L 43.21875 27.484375 
z
M 52.203125 31.203125 
L 52.203125 0 
L 43.21875 0 
L 43.21875 8.296875 
Q 40.140625 3.328125 35.546875 0.953125 
Q 30.953125 -1.421875 24.3125 -1.421875 
Q 15.921875 -1.421875 10.953125 3.296875 
Q 6 8.015625 6 15.921875 
Q 6 25.140625 12.171875 29.828125 
Q 18.359375 34.515625 30.609375 34.515625 
L 43.21875 34.515625 
L 43.21875 35.40625 
Q 43.21875 41.609375 39.140625 45 
Q 35.0625 48.390625 27.6875 48.390625 
Q 23 48.390625 18.546875 47.265625 
Q 14.109375 46.140625 10.015625 43.890625 
L 10.015625 52.203125 
Q 14.9375 54.109375 19.578125 55.046875 
Q 24.21875 56 28.609375 56 
Q 40.484375 56 46.34375 49.84375 
Q 52.203125 43.703125 52.203125 31.203125 
" id="DejaVuSans-61"/>
     <path d="M 52 44.1875 
Q 55.375 50.25 60.0625 53.125 
Q 64.75 56 71.09375 56 
Q 79.640625 56 84.28125 50.015625 
Q 88.921875 44.046875 88.921875 33.015625 
L 88.921875 0 
L 79.890625 0 
L 79.890625 32.71875 
Q 79.890625 40.578125 77.09375 44.375 
Q 74.3125 48.1875 68.609375 48.1875 
Q 61.625 48.1875 57.5625 43.546875 
Q 53.515625 38.921875 53.515625 30.90625 
L 53.515625 0 
L 44.484375 0 
L 44.484375 32.71875 
Q 44.484375 40.625 41.703125 44.40625 
Q 38.921875 48.1875 33.109375 48.1875 
Q 26.21875 48.1875 22.15625 43.53125 
Q 18.109375 38.875 18.109375 30.90625 
L 18.109375 0 
L 9.078125 0 
L 9.078125 54.6875 
L 18.109375 54.6875 
L 18.109375 46.1875 
Q 21.1875 51.21875 25.484375 53.609375 
Q 29.78125 56 35.6875 56 
Q 41.65625 56 45.828125 52.96875 
Q 50 49.953125 52 44.1875 
" id="DejaVuSans-6d"/>
     <path id="DejaVuSans-20"/>
     <path d="M 37.109375 75.984375 
L 37.109375 68.5 
L 28.515625 68.5 
Q 23.6875 68.5 21.796875 66.546875 
Q 19.921875 64.59375 19.921875 59.515625 
L 19.921875 54.6875 
L 34.71875 54.6875 
L 34.71875 47.703125 
L 19.921875 47.703125 
L 19.921875 0 
L 10.890625 0 
L 10.890625 47.703125 
L 2.296875 47.703125 
L 2.296875 54.6875 
L 10.890625 54.6875 
L 10.890625 58.5 
Q 10.890625 67.625 15.140625 71.796875 
Q 19.390625 75.984375 28.609375 75.984375 
z
" id="DejaVuSans-66"/>
     <path d="M 19.671875 64.796875 
L 19.671875 8.109375 
L 31.59375 8.109375 
Q 46.6875 8.109375 53.6875 14.9375 
Q 60.6875 21.78125 60.6875 36.53125 
Q 60.6875 51.171875 53.6875 57.984375 
Q 46.6875 64.796875 31.59375 64.796875 
z
M 9.8125 72.90625 
L 30.078125 72.90625 
Q 51.265625 72.90625 61.171875 64.09375 
Q 71.09375 55.28125 71.09375 36.53125 
Q 71.09375 17.671875 61.125 8.828125 
Q 51.171875 0 30.078125 0 
L 9.8125 0 
z
" id="DejaVuSans-44"/>
     <path d="M 9.421875 75.984375 
L 18.40625 75.984375 
L 18.40625 0 
L 9.421875 0 
z
" id="DejaVuSans-6c"/>
     <path d="M 32.171875 -5.078125 
Q 28.375 -14.84375 24.75 -17.8125 
Q 21.140625 -20.796875 15.09375 -20.796875 
L 7.90625 -20.796875 
L 7.90625 -13.28125 
L 13.1875 -13.28125 
Q 16.890625 -13.28125 18.9375 -11.515625 
Q 21 -9.765625 23.484375 -3.21875 
L 25.09375 0.875 
L 2.984375 54.6875 
L 12.5 54.6875 
L 29.59375 11.921875 
L 46.6875 54.6875 
L 56.203125 54.6875 
z
" id="DejaVuSans-79"/>
     <path d="M 44.390625 34.1875 
Q 47.5625 33.109375 50.5625 29.59375 
Q 53.5625 26.078125 56.59375 19.921875 
L 66.609375 0 
L 56 0 
L 46.6875 18.703125 
Q 43.0625 26.03125 39.671875 28.421875 
Q 36.28125 30.8125 30.421875 30.8125 
L 19.671875 30.8125 
L 19.671875 0 
L 9.8125 0 
L 9.8125 72.90625 
L 32.078125 72.90625 
Q 44.578125 72.90625 50.734375 67.671875 
Q 56.890625 62.453125 56.890625 51.90625 
Q 56.890625 45.015625 53.6875 40.46875 
Q 50.484375 35.9375 44.390625 34.1875 
M 19.671875 64.796875 
L 19.671875 38.921875 
L 32.078125 38.921875 
Q 39.203125 38.921875 42.84375 42.21875 
Q 46.484375 45.515625 46.484375 51.90625 
Q 46.484375 58.296875 42.84375 61.546875 
Q 39.203125 64.796875 32.078125 64.796875 
z
" id="DejaVuSans-52"/>
     <path d="M 56.203125 29.59375 
L 56.203125 25.203125 
L 14.890625 25.203125 
Q 15.484375 15.921875 20.484375 11.0625 
Q 25.484375 6.203125 34.421875 6.203125 
Q 39.59375 6.203125 44.453125 7.46875 
Q 49.3125 8.734375 54.109375 11.28125 
L 54.109375 2.78125 
Q 49.265625 0.734375 44.1875 -0.34375 
Q 39.109375 -1.421875 33.890625 -1.421875 
Q 20.796875 -1.421875 13.15625 6.1875 
Q 5.515625 13.8125 5.515625 26.8125 
Q 5.515625 40.234375 12.765625 48.109375 
Q 20.015625 56 32.328125 56 
Q 43.359375 56 49.78125 48.890625 
Q 56.203125 41.796875 56.203125 29.59375 
M 47.21875 32.234375 
Q 47.125 39.59375 43.09375 43.984375 
Q 39.0625 48.390625 32.421875 48.390625 
Q 24.90625 48.390625 20.390625 44.140625 
Q 15.875 39.890625 15.1875 32.171875 
z
" id="DejaVuSans-65"/>
     <path d="M 8.5 21.578125 
L 8.5 54.6875 
L 17.484375 54.6875 
L 17.484375 21.921875 
Q 17.484375 14.15625 20.5 10.265625 
Q 23.53125 6.390625 29.59375 6.390625 
Q 36.859375 6.390625 41.078125 11.03125 
Q 45.3125 15.671875 45.3125 23.6875 
L 45.3125 54.6875 
L 54.296875 54.6875 
L 54.296875 0 
L 45.3125 0 
L 45.3125 8.40625 
Q 42.046875 3.421875 37.71875 1 
Q 33.40625 -1.421875 27.6875 -1.421875 
Q 18.265625 -1.421875 13.375 4.4375 
Q 8.5 10.296875 8.5 21.578125 
M 31.109375 56 
z
" id="DejaVuSans-75"/>
     <path d="M 54.890625 33.015625 
L 54.890625 0 
L 45.90625 0 
L 45.90625 32.71875 
Q 45.90625 40.484375 42.875 44.328125 
Q 39.84375 48.1875 33.796875 48.1875 
Q 26.515625 48.1875 22.3125 43.546875 
Q 18.109375 38.921875 18.109375 30.90625 
L 18.109375 0 
L 9.078125 0 
L 9.078125 54.6875 
L 18.109375 54.6875 
L 18.109375 46.1875 
Q 21.34375 51.125 25.703125 53.5625 
Q 30.078125 56 35.796875 56 
Q 45.21875 56 50.046875 50.171875 
Q 54.890625 44.34375 54.890625 33.015625 
" id="DejaVuSans-6e"/>
    </defs>
    <g transform="translate(114.387625 18.14175)scale(0.144 -0.144)">
     <use xlink:href="#DejaVuSans-48"/>
     <use x="75.195312" xlink:href="#DejaVuSans-69"/>
     <use x="102.978516" xlink:href="#DejaVuSans-73"/>
     <use x="155.078125" xlink:href="#DejaVuSans-74"/>
     <use x="194.287109" xlink:href="#DejaVuSans-6f"/>
     <use x="255.46875" xlink:href="#DejaVuSans-67"/>
     <use x="318.945312" xlink:href="#DejaVuSans-72"/>
     <use x="360.058594" xlink:href="#DejaVuSans-61"/>
     <use x="421.337891" xlink:href="#DejaVuSans-6d"/>
     <use x="518.75" xlink:href="#DejaVuSans-20"/>
     <use x="550.537109" xlink:href="#DejaVuSans-6f"/>
     <use x="611.71875" xlink:href="#DejaVuSans-66"/>
     <use x="646.923828" xlink:href="#DejaVuSans-20"/>
     <use x="678.710938" xlink:href="#DejaVuSans-44"/>
     <use x="755.712891" xlink:href="#DejaVuSans-61"/>
     <use x="816.992188" xlink:href="#DejaVuSans-69"/>
     <use x="844.775391" xlink:href="#DejaVuSans-6c"/>
     <use x="872.558594" xlink:href="#DejaVuSans-79"/>
     <use x="931.738281" xlink:href="#DejaVuSans-20"/>
     <use x="963.525391" xlink:href="#DejaVuSans-52"/>
     <use x="1032.945312" xlink:href="#DejaVuSans-65"/>
     <use x="1094.46875" xlink:href="#DejaVuSans-74"/>
     <use x="1133.677734" xlink:href="#DejaVuSans-75"/>
     <use x="1197.056641" xlink:href="#DejaVuSans-72"/>
     <use x="1238.154297" xlink:href="#DejaVuSans-6e"/>
     <use x="1301.533203" xlink:href="#DejaVuSans-73"/>
    </g>
   </g>
   <g id="legend_1">
    <g id="patch_207">
     <path d="M 293.921562 90.85425 
L 383.4075 90.85425 
Q 385.4075 90.85425 385.4075 88.85425 
L 385.4075 31.14175 
Q 385.4075 29.14175 383.4075 29.14175 
L 293.921562 29.14175 
Q 291.921562 29.14175 291.921562 31.14175 
L 291.921562 88.85425 
Q 291.921562 90.85425 293.921562 90.85425 
z
" style="fill:#e5e5e5;opacity:0.8;stroke:#cccccc;stroke-linejoin:miter;stroke-width:0.5;"/>
    </g>
    <g id="patch_208">
     <path d="M 295.921562 40.740187 
L 315.921562 40.740187 
L 315.921562 33.740187 
L 295.921562 33.740187 
z
" style="fill:#e24a33;opacity:0.5;"/>
    </g>
    <g id="text_19">
     <!-- Market -->
     <defs>
      <path d="M 9.8125 72.90625 
L 24.515625 72.90625 
L 43.109375 23.296875 
L 61.8125 72.90625 
L 76.515625 72.90625 
L 76.515625 0 
L 66.890625 0 
L 66.890625 64.015625 
L 48.09375 14.015625 
L 38.1875 14.015625 
L 19.390625 64.015625 
L 19.390625 0 
L 9.8125 0 
z
" id="DejaVuSans-4d"/>
      <path d="M 9.078125 75.984375 
L 18.109375 75.984375 
L 18.109375 31.109375 
L 44.921875 54.6875 
L 56.390625 54.6875 
L 27.390625 29.109375 
L 57.625 0 
L 45.90625 0 
L 18.109375 26.703125 
L 18.109375 0 
L 9.078125 0 
z
" id="DejaVuSans-6b"/>
     </defs>
     <g transform="translate(323.921562 40.740187)scale(0.1 -0.1)">
      <use xlink:href="#DejaVuSans-4d"/>
      <use x="86.279297" xlink:href="#DejaVuSans-61"/>
      <use x="147.558594" xlink:href="#DejaVuSans-72"/>
      <use x="188.671875" xlink:href="#DejaVuSans-6b"/>
      <use x="246.535156" xlink:href="#DejaVuSans-65"/>
      <use x="308.058594" xlink:href="#DejaVuSans-74"/>
     </g>
    </g>
    <g id="patch_209">
     <path d="M 295.921562 55.418312 
L 315.921562 55.418312 
L 315.921562 48.418312 
L 295.921562 48.418312 
z
" style="fill:#348abd;opacity:0.5;"/>
    </g>
    <g id="text_20">
     <!-- Model A -->
     <defs>
      <path d="M 45.40625 46.390625 
L 45.40625 75.984375 
L 54.390625 75.984375 
L 54.390625 0 
L 45.40625 0 
L 45.40625 8.203125 
Q 42.578125 3.328125 38.25 0.953125 
Q 33.9375 -1.421875 27.875 -1.421875 
Q 17.96875 -1.421875 11.734375 6.484375 
Q 5.515625 14.40625 5.515625 27.296875 
Q 5.515625 40.1875 11.734375 48.09375 
Q 17.96875 56 27.875 56 
Q 33.9375 56 38.25 53.625 
Q 42.578125 51.265625 45.40625 46.390625 
M 14.796875 27.296875 
Q 14.796875 17.390625 18.875 11.75 
Q 22.953125 6.109375 30.078125 6.109375 
Q 37.203125 6.109375 41.296875 11.75 
Q 45.40625 17.390625 45.40625 27.296875 
Q 45.40625 37.203125 41.296875 42.84375 
Q 37.203125 48.484375 30.078125 48.484375 
Q 22.953125 48.484375 18.875 42.84375 
Q 14.796875 37.203125 14.796875 27.296875 
" id="DejaVuSans-64"/>
      <path d="M 34.1875 63.1875 
L 20.796875 26.90625 
L 47.609375 26.90625 
z
M 28.609375 72.90625 
L 39.796875 72.90625 
L 67.578125 0 
L 57.328125 0 
L 50.6875 18.703125 
L 17.828125 18.703125 
L 11.1875 0 
L 0.78125 0 
z
" id="DejaVuSans-41"/>
     </defs>
     <g transform="translate(323.921562 55.418312)scale(0.1 -0.1)">
      <use xlink:href="#DejaVuSans-4d"/>
      <use x="86.279297" xlink:href="#DejaVuSans-6f"/>
      <use x="147.460938" xlink:href="#DejaVuSans-64"/>
      <use x="210.9375" xlink:href="#DejaVuSans-65"/>
      <use x="272.460938" xlink:href="#DejaVuSans-6c"/>
      <use x="300.244141" xlink:href="#DejaVuSans-20"/>
      <use x="332.03125" xlink:href="#DejaVuSans-41"/>
     </g>
    </g>
    <g id="patch_210">
     <path d="M 295.921562 70.096437 
L 315.921562 70.096437 
L 315.921562 63.096437 
L 295.921562 63.096437 
z
" style="fill:#988ed5;opacity:0.5;"/>
    </g>
    <g id="text_21">
     <!-- Perfect Info -->
     <defs>
      <path d="M 19.671875 64.796875 
L 19.671875 37.40625 
L 32.078125 37.40625 
Q 38.96875 37.40625 42.71875 40.96875 
Q 46.484375 44.53125 46.484375 51.125 
Q 46.484375 57.671875 42.71875 61.234375 
Q 38.96875 64.796875 32.078125 64.796875 
z
M 9.8125 72.90625 
L 32.078125 72.90625 
Q 44.34375 72.90625 50.609375 67.359375 
Q 56.890625 61.8125 56.890625 51.125 
Q 56.890625 40.328125 50.609375 34.8125 
Q 44.34375 29.296875 32.078125 29.296875 
L 19.671875 29.296875 
L 19.671875 0 
L 9.8125 0 
z
" id="DejaVuSans-50"/>
      <path d="M 48.78125 52.59375 
L 48.78125 44.1875 
Q 44.96875 46.296875 41.140625 47.34375 
Q 37.3125 48.390625 33.40625 48.390625 
Q 24.65625 48.390625 19.8125 42.84375 
Q 14.984375 37.3125 14.984375 27.296875 
Q 14.984375 17.28125 19.8125 11.734375 
Q 24.65625 6.203125 33.40625 6.203125 
Q 37.3125 6.203125 41.140625 7.25 
Q 44.96875 8.296875 48.78125 10.40625 
L 48.78125 2.09375 
Q 45.015625 0.34375 40.984375 -0.53125 
Q 36.96875 -1.421875 32.421875 -1.421875 
Q 20.0625 -1.421875 12.78125 6.34375 
Q 5.515625 14.109375 5.515625 27.296875 
Q 5.515625 40.671875 12.859375 48.328125 
Q 20.21875 56 33.015625 56 
Q 37.15625 56 41.109375 55.140625 
Q 45.0625 54.296875 48.78125 52.59375 
" id="DejaVuSans-63"/>
      <path d="M 9.8125 72.90625 
L 19.671875 72.90625 
L 19.671875 0 
L 9.8125 0 
z
" id="DejaVuSans-49"/>
     </defs>
     <g transform="translate(323.921562 70.096437)scale(0.1 -0.1)">
      <use xlink:href="#DejaVuSans-50"/>
      <use x="60.255859" xlink:href="#DejaVuSans-65"/>
      <use x="121.779297" xlink:href="#DejaVuSans-72"/>
      <use x="162.892578" xlink:href="#DejaVuSans-66"/>
      <use x="198.097656" xlink:href="#DejaVuSans-65"/>
      <use x="259.621094" xlink:href="#DejaVuSans-63"/>
      <use x="314.601562" xlink:href="#DejaVuSans-74"/>
      <use x="353.810547" xlink:href="#DejaVuSans-20"/>
      <use x="385.597656" xlink:href="#DejaVuSans-49"/>
      <use x="415.089844" xlink:href="#DejaVuSans-6e"/>
      <use x="478.46875" xlink:href="#DejaVuSans-66"/>
      <use x="513.673828" xlink:href="#DejaVuSans-6f"/>
     </g>
    </g>
    <g id="patch_211">
     <path d="M 295.921562 84.774562 
L 315.921562 84.774562 
L 315.921562 77.774562 
L 295.921562 77.774562 
z
" style="fill:#777777;opacity:0.5;"/>
    </g>
    <g id="text_22">
     <!-- Model B -->
     <defs>
      <path d="M 19.671875 34.8125 
L 19.671875 8.109375 
L 35.5 8.109375 
Q 43.453125 8.109375 47.28125 11.40625 
Q 51.125 14.703125 51.125 21.484375 
Q 51.125 28.328125 47.28125 31.5625 
Q 43.453125 34.8125 35.5 34.8125 
z
M 19.671875 64.796875 
L 19.671875 42.828125 
L 34.28125 42.828125 
Q 41.5 42.828125 45.03125 45.53125 
Q 48.578125 48.25 48.578125 53.8125 
Q 48.578125 59.328125 45.03125 62.0625 
Q 41.5 64.796875 34.28125 64.796875 
z
M 9.8125 72.90625 
L 35.015625 72.90625 
Q 46.296875 72.90625 52.390625 68.21875 
Q 58.5 63.53125 58.5 54.890625 
Q 58.5 48.1875 55.375 44.234375 
Q 52.25 40.28125 46.1875 39.3125 
Q 53.46875 37.75 57.5 32.78125 
Q 61.53125 27.828125 61.53125 20.40625 
Q 61.53125 10.640625 54.890625 5.3125 
Q 48.25 0 35.984375 0 
L 9.8125 0 
z
" id="DejaVuSans-42"/>
     </defs>
     <g transform="translate(323.921562 84.774562)scale(0.1 -0.1)">
      <use xlink:href="#DejaVuSans-4d"/>
      <use x="86.279297" xlink:href="#DejaVuSans-6f"/>
      <use x="147.460938" xlink:href="#DejaVuSans-64"/>
      <use x="210.9375" xlink:href="#DejaVuSans-65"/>
      <use x="272.460938" xlink:href="#DejaVuSans-6c"/>
      <use x="300.244141" xlink:href="#DejaVuSans-20"/>
      <use x="332.03125" xlink:href="#DejaVuSans-42"/>
     </g>
    </g>
   </g>
  </g>
 </g>
 <defs>
  <clipPath id="pf4e41eb8d9">
   <rect height="266.112" width="357.12" x="33.2875" y="24.14175"/>
  </clipPath>
 </defs>
</svg>
