<?xml version="1.0" encoding="utf-8" standalone="no"?>
<!DOCTYPE svg PUBLIC "-//W3C//DTD SVG 1.1//EN"
  "http://www.w3.org/Graphics/SVG/1.1/DTD/svg11.dtd">
<!-- Created with matplotlib (http://matplotlib.org/) -->
<svg height="314pt" version="1.1" viewBox="0 0 401 314" width="401pt" xmlns="http://www.w3.org/2000/svg" xmlns:xlink="http://www.w3.org/1999/xlink">
 <defs>
  <style type="text/css">
*{stroke-linecap:butt;stroke-linejoin:round;}
  </style>
 </defs>
 <g id="figure_1">
  <g id="patch_1">
   <path d="M 0 314.131875 
L 401.1075 314.131875 
L 401.1075 0 
L 0 0 
z
" style="fill:#ffffff;"/>
  </g>
  <g id="axes_1">
   <g id="patch_2">
    <path d="M 33.2875 290.25375 
L 390.4075 290.25375 
L 390.4075 24.14175 
L 33.2875 24.14175 
z
" style="fill:#e5e5e5;"/>
   </g>
   <g id="matplotlib.axis_1">
    <g id="xtick_1">
     <g id="line2d_1">
      <path clip-path="url(#p74c9333555)" d="M 55.289062 290.25375 
L 55.289062 24.14175 
" style="fill:none;stroke:#ffffff;stroke-linecap:square;stroke-width:0.8;"/>
     </g>
     <g id="line2d_2">
      <defs>
       <path d="M 0 0 
L 0 3.5 
" id="ma2e3b33c7a" style="stroke:#555555;stroke-width:0.8;"/>
      </defs>
      <g>
       <use style="fill:#555555;stroke:#555555;stroke-width:0.8;" x="55.289062" xlink:href="#ma2e3b33c7a" y="290.25375"/>
      </g>
     </g>
     <g id="text_1">
      <!-- −0.10 -->
      <defs>
       <path d="M 10.59375 35.5 
L 73.1875 35.5 
L 73.1875 27.203125 
L 10.59375 27.203125 
z
" id="DejaVuSans-2212"/>
       <path d="M 31.78125 66.40625 
Q 24.171875 66.40625 20.328125 58.90625 
Q 16.5 51.421875 16.5 36.375 
Q 16.5 21.390625 20.328125 13.890625 
Q 24.171875 6.390625 31.78125 6.390625 
Q 39.453125 6.390625 43.28125 13.890625 
Q 47.125 21.390625 47.125 36.375 
Q 47.125 51.421875 43.28125 58.90625 
Q 39.453125 66.40625 31.78125 66.40625 
M 31.78125 74.21875 
Q 44.046875 74.21875 50.515625 64.515625 
Q 56.984375 54.828125 56.984375 36.375 
Q 56.984375 17.96875 50.515625 8.265625 
Q 44.046875 -1.421875 31.78125 -1.421875 
Q 19.53125 -1.421875 13.0625 8.265625 
Q 6.59375 17.96875 6.59375 36.375 
Q 6.59375 54.828125 13.0625 64.515625 
Q 19.53125 74.21875 31.78125 74.21875 
" id="DejaVuSans-30"/>
       <path d="M 10.6875 12.40625 
L 21 12.40625 
L 21 0 
L 10.6875 0 
z
" id="DejaVuSans-2e"/>
       <path d="M 12.40625 8.296875 
L 28.515625 8.296875 
L 28.515625 63.921875 
L 10.984375 60.40625 
L 10.984375 69.390625 
L 28.421875 72.90625 
L 38.28125 72.90625 
L 38.28125 8.296875 
L 54.390625 8.296875 
L 54.390625 0 
L 12.40625 0 
z
" id="DejaVuSans-31"/>
      </defs>
      <g style="fill:#555555;" transform="translate(39.966406 304.852187)scale(0.1 -0.1)">
       <use xlink:href="#DejaVuSans-2212"/>
       <use x="83.789062" xlink:href="#DejaVuSans-30"/>
       <use x="147.412109" xlink:href="#DejaVuSans-2e"/>
       <use x="179.199219" xlink:href="#DejaVuSans-31"/>
       <use x="242.822266" xlink:href="#DejaVuSans-30"/>
      </g>
     </g>
    </g>
    <g id="xtick_2">
     <g id="line2d_3">
      <path clip-path="url(#p74c9333555)" d="M 115.182364 290.25375 
L 115.182364 24.14175 
" style="fill:none;stroke:#ffffff;stroke-linecap:square;stroke-width:0.8;"/>
     </g>
     <g id="line2d_4">
      <g>
       <use style="fill:#555555;stroke:#555555;stroke-width:0.8;" x="115.182364" xlink:href="#ma2e3b33c7a" y="290.25375"/>
      </g>
     </g>
     <g id="text_2">
      <!-- −0.05 -->
      <defs>
       <path d="M 10.796875 72.90625 
L 49.515625 72.90625 
L 49.515625 64.59375 
L 19.828125 64.59375 
L 19.828125 46.734375 
Q 21.96875 47.46875 24.109375 47.828125 
Q 26.265625 48.1875 28.421875 48.1875 
Q 40.625 48.1875 47.75 41.5 
Q 54.890625 34.8125 54.890625 23.390625 
Q 54.890625 11.625 47.5625 5.09375 
Q 40.234375 -1.421875 26.90625 -1.421875 
Q 22.3125 -1.421875 17.546875 -0.640625 
Q 12.796875 0.140625 7.71875 1.703125 
L 7.71875 11.625 
Q 12.109375 9.234375 16.796875 8.0625 
Q 21.484375 6.890625 26.703125 6.890625 
Q 35.15625 6.890625 40.078125 11.328125 
Q 45.015625 15.765625 45.015625 23.390625 
Q 45.015625 31 40.078125 35.4375 
Q 35.15625 39.890625 26.703125 39.890625 
Q 22.75 39.890625 18.8125 39.015625 
Q 14.890625 38.140625 10.796875 36.28125 
z
" id="DejaVuSans-35"/>
      </defs>
      <g style="fill:#555555;" transform="translate(99.859707 304.852187)scale(0.1 -0.1)">
       <use xlink:href="#DejaVuSans-2212"/>
       <use x="83.789062" xlink:href="#DejaVuSans-30"/>
       <use x="147.412109" xlink:href="#DejaVuSans-2e"/>
       <use x="179.199219" xlink:href="#DejaVuSans-30"/>
       <use x="242.822266" xlink:href="#DejaVuSans-35"/>
      </g>
     </g>
    </g>
    <g id="xtick_3">
     <g id="line2d_5">
      <path clip-path="url(#p74c9333555)" d="M 175.075665 290.25375 
L 175.075665 24.14175 
" style="fill:none;stroke:#ffffff;stroke-linecap:square;stroke-width:0.8;"/>
     </g>
     <g id="line2d_6">
      <g>
       <use style="fill:#555555;stroke:#555555;stroke-width:0.8;" x="175.075665" xlink:href="#ma2e3b33c7a" y="290.25375"/>
      </g>
     </g>
     <g id="text_3">
      <!-- 0.00 -->
      <g style="fill:#555555;" transform="translate(163.942853 304.852187)scale(0.1 -0.1)">
       <use xlink:href="#DejaVuSans-30"/>
       <use x="63.623047" xlink:href="#DejaVuSans-2e"/>
       <use x="95.410156" xlink:href="#DejaVuSans-30"/>
       <use x="159.033203" xlink:href="#DejaVuSans-30"/>
      </g>
     </g>
    </g>
    <g id="xtick_4">
     <g id="line2d_7">
      <path clip-path="url(#p74c9333555)" d="M 234.968967 290.25375 
L 234.968967 24.14175 
" style="fill:none;stroke:#ffffff;stroke-linecap:square;stroke-width:0.8;"/>
     </g>
     <g id="line2d_8">
      <g>
       <use style="fill:#555555;stroke:#555555;stroke-width:0.8;" x="234.968967" xlink:href="#ma2e3b33c7a" y="290.25375"/>
      </g>
     </g>
     <g id="text_4">
      <!-- 0.05 -->
      <g style="fill:#555555;" transform="translate(223.836154 304.852187)scale(0.1 -0.1)">
       <use xlink:href="#DejaVuSans-30"/>
       <use x="63.623047" xlink:href="#DejaVuSans-2e"/>
       <use x="95.410156" xlink:href="#DejaVuSans-30"/>
       <use x="159.033203" xlink:href="#DejaVuSans-35"/>
      </g>
     </g>
    </g>
    <g id="xtick_5">
     <g id="line2d_9">
      <path clip-path="url(#p74c9333555)" d="M 294.862269 290.25375 
L 294.862269 24.14175 
" style="fill:none;stroke:#ffffff;stroke-linecap:square;stroke-width:0.8;"/>
     </g>
     <g id="line2d_10">
      <g>
       <use style="fill:#555555;stroke:#555555;stroke-width:0.8;" x="294.862269" xlink:href="#ma2e3b33c7a" y="290.25375"/>
      </g>
     </g>
     <g id="text_5">
      <!-- 0.10 -->
      <g style="fill:#555555;" transform="translate(283.729456 304.852187)scale(0.1 -0.1)">
       <use xlink:href="#DejaVuSans-30"/>
       <use x="63.623047" xlink:href="#DejaVuSans-2e"/>
       <use x="95.410156" xlink:href="#DejaVuSans-31"/>
       <use x="159.033203" xlink:href="#DejaVuSans-30"/>
      </g>
     </g>
    </g>
    <g id="xtick_6">
     <g id="line2d_11">
      <path clip-path="url(#p74c9333555)" d="M 354.75557 290.25375 
L 354.75557 24.14175 
" style="fill:none;stroke:#ffffff;stroke-linecap:square;stroke-width:0.8;"/>
     </g>
     <g id="line2d_12">
      <g>
       <use style="fill:#555555;stroke:#555555;stroke-width:0.8;" x="354.75557" xlink:href="#ma2e3b33c7a" y="290.25375"/>
      </g>
     </g>
     <g id="text_6">
      <!-- 0.15 -->
      <g style="fill:#555555;" transform="translate(343.622758 304.852187)scale(0.1 -0.1)">
       <use xlink:href="#DejaVuSans-30"/>
       <use x="63.623047" xlink:href="#DejaVuSans-2e"/>
       <use x="95.410156" xlink:href="#DejaVuSans-31"/>
       <use x="159.033203" xlink:href="#DejaVuSans-35"/>
      </g>
     </g>
    </g>
   </g>
   <g id="matplotlib.axis_2">
    <g id="ytick_1">
     <g id="line2d_13">
      <path clip-path="url(#p74c9333555)" d="M 33.2875 290.25375 
L 390.4075 290.25375 
" style="fill:none;stroke:#ffffff;stroke-linecap:square;stroke-width:0.8;"/>
     </g>
     <g id="line2d_14">
      <defs>
       <path d="M 0 0 
L -3.5 0 
" id="m9c7abc3fe5" style="stroke:#555555;stroke-width:0.8;"/>
      </defs>
      <g>
       <use style="fill:#555555;stroke:#555555;stroke-width:0.8;" x="33.2875" xlink:href="#m9c7abc3fe5" y="290.25375"/>
      </g>
     </g>
     <g id="text_7">
      <!-- 0 -->
      <g style="fill:#555555;" transform="translate(19.925 294.052969)scale(0.1 -0.1)">
       <use xlink:href="#DejaVuSans-30"/>
      </g>
     </g>
    </g>
    <g id="ytick_2">
     <g id="line2d_15">
      <path clip-path="url(#p74c9333555)" d="M 33.2875 254.807596 
L 390.4075 254.807596 
" style="fill:none;stroke:#ffffff;stroke-linecap:square;stroke-width:0.8;"/>
     </g>
     <g id="line2d_16">
      <g>
       <use style="fill:#555555;stroke:#555555;stroke-width:0.8;" x="33.2875" xlink:href="#m9c7abc3fe5" y="254.807596"/>
      </g>
     </g>
     <g id="text_8">
      <!-- 20 -->
      <defs>
       <path d="M 19.1875 8.296875 
L 53.609375 8.296875 
L 53.609375 0 
L 7.328125 0 
L 7.328125 8.296875 
Q 12.9375 14.109375 22.625 23.890625 
Q 32.328125 33.6875 34.8125 36.53125 
Q 39.546875 41.84375 41.421875 45.53125 
Q 43.3125 49.21875 43.3125 52.78125 
Q 43.3125 58.59375 39.234375 62.25 
Q 35.15625 65.921875 28.609375 65.921875 
Q 23.96875 65.921875 18.8125 64.3125 
Q 13.671875 62.703125 7.8125 59.421875 
L 7.8125 69.390625 
Q 13.765625 71.78125 18.9375 73 
Q 24.125 74.21875 28.421875 74.21875 
Q 39.75 74.21875 46.484375 68.546875 
Q 53.21875 62.890625 53.21875 53.421875 
Q 53.21875 48.921875 51.53125 44.890625 
Q 49.859375 40.875 45.40625 35.40625 
Q 44.1875 33.984375 37.640625 27.21875 
Q 31.109375 20.453125 19.1875 8.296875 
" id="DejaVuSans-32"/>
      </defs>
      <g style="fill:#555555;" transform="translate(13.5625 258.606815)scale(0.1 -0.1)">
       <use xlink:href="#DejaVuSans-32"/>
       <use x="63.623047" xlink:href="#DejaVuSans-30"/>
      </g>
     </g>
    </g>
    <g id="ytick_3">
     <g id="line2d_17">
      <path clip-path="url(#p74c9333555)" d="M 33.2875 219.361442 
L 390.4075 219.361442 
" style="fill:none;stroke:#ffffff;stroke-linecap:square;stroke-width:0.8;"/>
     </g>
     <g id="line2d_18">
      <g>
       <use style="fill:#555555;stroke:#555555;stroke-width:0.8;" x="33.2875" xlink:href="#m9c7abc3fe5" y="219.361442"/>
      </g>
     </g>
     <g id="text_9">
      <!-- 40 -->
      <defs>
       <path d="M 37.796875 64.3125 
L 12.890625 25.390625 
L 37.796875 25.390625 
z
M 35.203125 72.90625 
L 47.609375 72.90625 
L 47.609375 25.390625 
L 58.015625 25.390625 
L 58.015625 17.1875 
L 47.609375 17.1875 
L 47.609375 0 
L 37.796875 0 
L 37.796875 17.1875 
L 4.890625 17.1875 
L 4.890625 26.703125 
z
" id="DejaVuSans-34"/>
      </defs>
      <g style="fill:#555555;" transform="translate(13.5625 223.160661)scale(0.1 -0.1)">
       <use xlink:href="#DejaVuSans-34"/>
       <use x="63.623047" xlink:href="#DejaVuSans-30"/>
      </g>
     </g>
    </g>
    <g id="ytick_4">
     <g id="line2d_19">
      <path clip-path="url(#p74c9333555)" d="M 33.2875 183.915288 
L 390.4075 183.915288 
" style="fill:none;stroke:#ffffff;stroke-linecap:square;stroke-width:0.8;"/>
     </g>
     <g id="line2d_20">
      <g>
       <use style="fill:#555555;stroke:#555555;stroke-width:0.8;" x="33.2875" xlink:href="#m9c7abc3fe5" y="183.915288"/>
      </g>
     </g>
     <g id="text_10">
      <!-- 60 -->
      <defs>
       <path d="M 33.015625 40.375 
Q 26.375 40.375 22.484375 35.828125 
Q 18.609375 31.296875 18.609375 23.390625 
Q 18.609375 15.53125 22.484375 10.953125 
Q 26.375 6.390625 33.015625 6.390625 
Q 39.65625 6.390625 43.53125 10.953125 
Q 47.40625 15.53125 47.40625 23.390625 
Q 47.40625 31.296875 43.53125 35.828125 
Q 39.65625 40.375 33.015625 40.375 
M 52.59375 71.296875 
L 52.59375 62.3125 
Q 48.875 64.0625 45.09375 64.984375 
Q 41.3125 65.921875 37.59375 65.921875 
Q 27.828125 65.921875 22.671875 59.328125 
Q 17.53125 52.734375 16.796875 39.40625 
Q 19.671875 43.65625 24.015625 45.921875 
Q 28.375 48.1875 33.59375 48.1875 
Q 44.578125 48.1875 50.953125 41.515625 
Q 57.328125 34.859375 57.328125 23.390625 
Q 57.328125 12.15625 50.6875 5.359375 
Q 44.046875 -1.421875 33.015625 -1.421875 
Q 20.359375 -1.421875 13.671875 8.265625 
Q 6.984375 17.96875 6.984375 36.375 
Q 6.984375 53.65625 15.1875 63.9375 
Q 23.390625 74.21875 37.203125 74.21875 
Q 40.921875 74.21875 44.703125 73.484375 
Q 48.484375 72.75 52.59375 71.296875 
" id="DejaVuSans-36"/>
      </defs>
      <g style="fill:#555555;" transform="translate(13.5625 187.714507)scale(0.1 -0.1)">
       <use xlink:href="#DejaVuSans-36"/>
       <use x="63.623047" xlink:href="#DejaVuSans-30"/>
      </g>
     </g>
    </g>
    <g id="ytick_5">
     <g id="line2d_21">
      <path clip-path="url(#p74c9333555)" d="M 33.2875 148.469135 
L 390.4075 148.469135 
" style="fill:none;stroke:#ffffff;stroke-linecap:square;stroke-width:0.8;"/>
     </g>
     <g id="line2d_22">
      <g>
       <use style="fill:#555555;stroke:#555555;stroke-width:0.8;" x="33.2875" xlink:href="#m9c7abc3fe5" y="148.469135"/>
      </g>
     </g>
     <g id="text_11">
      <!-- 80 -->
      <defs>
       <path d="M 31.78125 34.625 
Q 24.75 34.625 20.71875 30.859375 
Q 16.703125 27.09375 16.703125 20.515625 
Q 16.703125 13.921875 20.71875 10.15625 
Q 24.75 6.390625 31.78125 6.390625 
Q 38.8125 6.390625 42.859375 10.171875 
Q 46.921875 13.96875 46.921875 20.515625 
Q 46.921875 27.09375 42.890625 30.859375 
Q 38.875 34.625 31.78125 34.625 
M 21.921875 38.8125 
Q 15.578125 40.375 12.03125 44.71875 
Q 8.5 49.078125 8.5 55.328125 
Q 8.5 64.0625 14.71875 69.140625 
Q 20.953125 74.21875 31.78125 74.21875 
Q 42.671875 74.21875 48.875 69.140625 
Q 55.078125 64.0625 55.078125 55.328125 
Q 55.078125 49.078125 51.53125 44.71875 
Q 48 40.375 41.703125 38.8125 
Q 48.828125 37.15625 52.796875 32.3125 
Q 56.78125 27.484375 56.78125 20.515625 
Q 56.78125 9.90625 50.3125 4.234375 
Q 43.84375 -1.421875 31.78125 -1.421875 
Q 19.734375 -1.421875 13.25 4.234375 
Q 6.78125 9.90625 6.78125 20.515625 
Q 6.78125 27.484375 10.78125 32.3125 
Q 14.796875 37.15625 21.921875 38.8125 
M 18.3125 54.390625 
Q 18.3125 48.734375 21.84375 45.5625 
Q 25.390625 42.390625 31.78125 42.390625 
Q 38.140625 42.390625 41.71875 45.5625 
Q 45.3125 48.734375 45.3125 54.390625 
Q 45.3125 60.0625 41.71875 63.234375 
Q 38.140625 66.40625 31.78125 66.40625 
Q 25.390625 66.40625 21.84375 63.234375 
Q 18.3125 60.0625 18.3125 54.390625 
" id="DejaVuSans-38"/>
      </defs>
      <g style="fill:#555555;" transform="translate(13.5625 152.268353)scale(0.1 -0.1)">
       <use xlink:href="#DejaVuSans-38"/>
       <use x="63.623047" xlink:href="#DejaVuSans-30"/>
      </g>
     </g>
    </g>
    <g id="ytick_6">
     <g id="line2d_23">
      <path clip-path="url(#p74c9333555)" d="M 33.2875 113.022981 
L 390.4075 113.022981 
" style="fill:none;stroke:#ffffff;stroke-linecap:square;stroke-width:0.8;"/>
     </g>
     <g id="line2d_24">
      <g>
       <use style="fill:#555555;stroke:#555555;stroke-width:0.8;" x="33.2875" xlink:href="#m9c7abc3fe5" y="113.022981"/>
      </g>
     </g>
     <g id="text_12">
      <!-- 100 -->
      <g style="fill:#555555;" transform="translate(7.2 116.8222)scale(0.1 -0.1)">
       <use xlink:href="#DejaVuSans-31"/>
       <use x="63.623047" xlink:href="#DejaVuSans-30"/>
       <use x="127.246094" xlink:href="#DejaVuSans-30"/>
      </g>
     </g>
    </g>
    <g id="ytick_7">
     <g id="line2d_25">
      <path clip-path="url(#p74c9333555)" d="M 33.2875 77.576827 
L 390.4075 77.576827 
" style="fill:none;stroke:#ffffff;stroke-linecap:square;stroke-width:0.8;"/>
     </g>
     <g id="line2d_26">
      <g>
       <use style="fill:#555555;stroke:#555555;stroke-width:0.8;" x="33.2875" xlink:href="#m9c7abc3fe5" y="77.576827"/>
      </g>
     </g>
     <g id="text_13">
      <!-- 120 -->
      <g style="fill:#555555;" transform="translate(7.2 81.376046)scale(0.1 -0.1)">
       <use xlink:href="#DejaVuSans-31"/>
       <use x="63.623047" xlink:href="#DejaVuSans-32"/>
       <use x="127.246094" xlink:href="#DejaVuSans-30"/>
      </g>
     </g>
    </g>
    <g id="ytick_8">
     <g id="line2d_27">
      <path clip-path="url(#p74c9333555)" d="M 33.2875 42.130673 
L 390.4075 42.130673 
" style="fill:none;stroke:#ffffff;stroke-linecap:square;stroke-width:0.8;"/>
     </g>
     <g id="line2d_28">
      <g>
       <use style="fill:#555555;stroke:#555555;stroke-width:0.8;" x="33.2875" xlink:href="#m9c7abc3fe5" y="42.130673"/>
      </g>
     </g>
     <g id="text_14">
      <!-- 140 -->
      <g style="fill:#555555;" transform="translate(7.2 45.929892)scale(0.1 -0.1)">
       <use xlink:href="#DejaVuSans-31"/>
       <use x="63.623047" xlink:href="#DejaVuSans-34"/>
       <use x="127.246094" xlink:href="#DejaVuSans-30"/>
      </g>
     </g>
    </g>
   </g>
   <g id="patch_3">
    <path clip-path="url(#p74c9333555)" d="M 126.199554 290.25375 
L 128.174258 290.25375 
L 128.174258 288.481442 
L 126.199554 288.481442 
z
" style="fill:#e24a33;opacity:0.5;"/>
   </g>
   <g id="patch_4">
    <path clip-path="url(#p74c9333555)" d="M 128.174258 290.25375 
L 130.148961 290.25375 
L 130.148961 290.25375 
L 128.174258 290.25375 
z
" style="fill:#e24a33;opacity:0.5;"/>
   </g>
   <g id="patch_5">
    <path clip-path="url(#p74c9333555)" d="M 130.148961 290.25375 
L 132.123665 290.25375 
L 132.123665 290.25375 
L 130.148961 290.25375 
z
" style="fill:#e24a33;opacity:0.5;"/>
   </g>
   <g id="patch_6">
    <path clip-path="url(#p74c9333555)" d="M 132.123665 290.25375 
L 134.098368 290.25375 
L 134.098368 290.25375 
L 132.123665 290.25375 
z
" style="fill:#e24a33;opacity:0.5;"/>
   </g>
   <g id="patch_7">
    <path clip-path="url(#p74c9333555)" d="M 134.098368 290.25375 
L 136.073072 290.25375 
L 136.073072 290.25375 
L 134.098368 290.25375 
z
" style="fill:#e24a33;opacity:0.5;"/>
   </g>
   <g id="patch_8">
    <path clip-path="url(#p74c9333555)" d="M 136.073072 290.25375 
L 138.047775 290.25375 
L 138.047775 286.709135 
L 136.073072 286.709135 
z
" style="fill:#e24a33;opacity:0.5;"/>
   </g>
   <g id="patch_9">
    <path clip-path="url(#p74c9333555)" d="M 138.047775 290.25375 
L 140.022478 290.25375 
L 140.022478 284.936827 
L 138.047775 284.936827 
z
" style="fill:#e24a33;opacity:0.5;"/>
   </g>
   <g id="patch_10">
    <path clip-path="url(#p74c9333555)" d="M 140.022478 290.25375 
L 141.997182 290.25375 
L 141.997182 286.709135 
L 140.022478 286.709135 
z
" style="fill:#e24a33;opacity:0.5;"/>
   </g>
   <g id="patch_11">
    <path clip-path="url(#p74c9333555)" d="M 141.997182 290.25375 
L 143.971885 290.25375 
L 143.971885 286.709135 
L 141.997182 286.709135 
z
" style="fill:#e24a33;opacity:0.5;"/>
   </g>
   <g id="patch_12">
    <path clip-path="url(#p74c9333555)" d="M 143.971885 290.25375 
L 145.946589 290.25375 
L 145.946589 283.164519 
L 143.971885 283.164519 
z
" style="fill:#e24a33;opacity:0.5;"/>
   </g>
   <g id="patch_13">
    <path clip-path="url(#p74c9333555)" d="M 145.946589 290.25375 
L 147.921292 290.25375 
L 147.921292 276.075288 
L 145.946589 276.075288 
z
" style="fill:#e24a33;opacity:0.5;"/>
   </g>
   <g id="patch_14">
    <path clip-path="url(#p74c9333555)" d="M 147.921292 290.25375 
L 149.895995 290.25375 
L 149.895995 268.986058 
L 147.921292 268.986058 
z
" style="fill:#e24a33;opacity:0.5;"/>
   </g>
   <g id="patch_15">
    <path clip-path="url(#p74c9333555)" d="M 149.895995 290.25375 
L 151.870699 290.25375 
L 151.870699 270.758365 
L 149.895995 270.758365 
z
" style="fill:#e24a33;opacity:0.5;"/>
   </g>
   <g id="patch_16">
    <path clip-path="url(#p74c9333555)" d="M 151.870699 290.25375 
L 153.845402 290.25375 
L 153.845402 254.807596 
L 151.870699 254.807596 
z
" style="fill:#e24a33;opacity:0.5;"/>
   </g>
   <g id="patch_17">
    <path clip-path="url(#p74c9333555)" d="M 153.845402 290.25375 
L 155.820106 290.25375 
L 155.820106 245.946058 
L 153.845402 245.946058 
z
" style="fill:#e24a33;opacity:0.5;"/>
   </g>
   <g id="patch_18">
    <path clip-path="url(#p74c9333555)" d="M 155.820106 290.25375 
L 157.794809 290.25375 
L 157.794809 245.946058 
L 155.820106 245.946058 
z
" style="fill:#e24a33;opacity:0.5;"/>
   </g>
   <g id="patch_19">
    <path clip-path="url(#p74c9333555)" d="M 157.794809 290.25375 
L 159.769512 290.25375 
L 159.769512 240.629135 
L 157.794809 240.629135 
z
" style="fill:#e24a33;opacity:0.5;"/>
   </g>
   <g id="patch_20">
    <path clip-path="url(#p74c9333555)" d="M 159.769512 290.25375 
L 161.744216 290.25375 
L 161.744216 233.539904 
L 159.769512 233.539904 
z
" style="fill:#e24a33;opacity:0.5;"/>
   </g>
   <g id="patch_21">
    <path clip-path="url(#p74c9333555)" d="M 161.744216 290.25375 
L 163.718919 290.25375 
L 163.718919 231.767596 
L 161.744216 231.767596 
z
" style="fill:#e24a33;opacity:0.5;"/>
   </g>
   <g id="patch_22">
    <path clip-path="url(#p74c9333555)" d="M 163.718919 290.25375 
L 165.693623 290.25375 
L 165.693623 208.727596 
L 163.718919 208.727596 
z
" style="fill:#e24a33;opacity:0.5;"/>
   </g>
   <g id="patch_23">
    <path clip-path="url(#p74c9333555)" d="M 165.693623 290.25375 
L 167.668326 290.25375 
L 167.668326 222.906058 
L 165.693623 222.906058 
z
" style="fill:#e24a33;opacity:0.5;"/>
   </g>
   <g id="patch_24">
    <path clip-path="url(#p74c9333555)" d="M 167.668326 290.25375 
L 169.643029 290.25375 
L 169.643029 196.321442 
L 167.668326 196.321442 
z
" style="fill:#e24a33;opacity:0.5;"/>
   </g>
   <g id="patch_25">
    <path clip-path="url(#p74c9333555)" d="M 169.643029 290.25375 
L 171.617733 290.25375 
L 171.617733 180.370673 
L 169.643029 180.370673 
z
" style="fill:#e24a33;opacity:0.5;"/>
   </g>
   <g id="patch_26">
    <path clip-path="url(#p74c9333555)" d="M 171.617733 290.25375 
L 173.592436 290.25375 
L 173.592436 196.321442 
L 171.617733 196.321442 
z
" style="fill:#e24a33;opacity:0.5;"/>
   </g>
   <g id="patch_27">
    <path clip-path="url(#p74c9333555)" d="M 173.592436 290.25375 
L 175.56714 290.25375 
L 175.56714 167.964519 
L 173.592436 167.964519 
z
" style="fill:#e24a33;opacity:0.5;"/>
   </g>
   <g id="patch_28">
    <path clip-path="url(#p74c9333555)" d="M 175.56714 290.25375 
L 177.541843 290.25375 
L 177.541843 217.589135 
L 175.56714 217.589135 
z
" style="fill:#e24a33;opacity:0.5;"/>
   </g>
   <g id="patch_29">
    <path clip-path="url(#p74c9333555)" d="M 177.541843 290.25375 
L 179.516547 290.25375 
L 179.516547 180.370673 
L 177.541843 180.370673 
z
" style="fill:#e24a33;opacity:0.5;"/>
   </g>
   <g id="patch_30">
    <path clip-path="url(#p74c9333555)" d="M 179.516547 290.25375 
L 181.49125 290.25375 
L 181.49125 164.419904 
L 179.516547 164.419904 
z
" style="fill:#e24a33;opacity:0.5;"/>
   </g>
   <g id="patch_31">
    <path clip-path="url(#p74c9333555)" d="M 181.49125 290.25375 
L 183.465953 290.25375 
L 183.465953 185.687596 
L 181.49125 185.687596 
z
" style="fill:#e24a33;opacity:0.5;"/>
   </g>
   <g id="patch_32">
    <path clip-path="url(#p74c9333555)" d="M 183.465953 290.25375 
L 185.440657 290.25375 
L 185.440657 201.638365 
L 183.465953 201.638365 
z
" style="fill:#e24a33;opacity:0.5;"/>
   </g>
   <g id="patch_33">
    <path clip-path="url(#p74c9333555)" d="M 185.440657 290.25375 
L 187.41536 290.25375 
L 187.41536 206.955288 
L 185.440657 206.955288 
z
" style="fill:#e24a33;opacity:0.5;"/>
   </g>
   <g id="patch_34">
    <path clip-path="url(#p74c9333555)" d="M 187.41536 290.25375 
L 189.390064 290.25375 
L 189.390064 217.589135 
L 187.41536 217.589135 
z
" style="fill:#e24a33;opacity:0.5;"/>
   </g>
   <g id="patch_35">
    <path clip-path="url(#p74c9333555)" d="M 189.390064 290.25375 
L 191.364767 290.25375 
L 191.364767 228.222981 
L 189.390064 228.222981 
z
" style="fill:#e24a33;opacity:0.5;"/>
   </g>
   <g id="patch_36">
    <path clip-path="url(#p74c9333555)" d="M 191.364767 290.25375 
L 193.33947 290.25375 
L 193.33947 260.124519 
L 191.364767 260.124519 
z
" style="fill:#e24a33;opacity:0.5;"/>
   </g>
   <g id="patch_37">
    <path clip-path="url(#p74c9333555)" d="M 193.33947 290.25375 
L 195.314174 290.25375 
L 195.314174 263.669135 
L 193.33947 263.669135 
z
" style="fill:#e24a33;opacity:0.5;"/>
   </g>
   <g id="patch_38">
    <path clip-path="url(#p74c9333555)" d="M 195.314174 290.25375 
L 197.288877 290.25375 
L 197.288877 272.530673 
L 195.314174 272.530673 
z
" style="fill:#e24a33;opacity:0.5;"/>
   </g>
   <g id="patch_39">
    <path clip-path="url(#p74c9333555)" d="M 197.288877 290.25375 
L 199.263581 290.25375 
L 199.263581 265.441442 
L 197.288877 265.441442 
z
" style="fill:#e24a33;opacity:0.5;"/>
   </g>
   <g id="patch_40">
    <path clip-path="url(#p74c9333555)" d="M 199.263581 290.25375 
L 201.238284 290.25375 
L 201.238284 284.936827 
L 199.263581 284.936827 
z
" style="fill:#e24a33;opacity:0.5;"/>
   </g>
   <g id="patch_41">
    <path clip-path="url(#p74c9333555)" d="M 201.238284 290.25375 
L 203.212987 290.25375 
L 203.212987 284.936827 
L 201.238284 284.936827 
z
" style="fill:#e24a33;opacity:0.5;"/>
   </g>
   <g id="patch_42">
    <path clip-path="url(#p74c9333555)" d="M 203.212987 290.25375 
L 205.187691 290.25375 
L 205.187691 283.164519 
L 203.212987 283.164519 
z
" style="fill:#e24a33;opacity:0.5;"/>
   </g>
   <g id="patch_43">
    <path clip-path="url(#p74c9333555)" d="M 205.187691 290.25375 
L 207.162394 290.25375 
L 207.162394 290.25375 
L 205.187691 290.25375 
z
" style="fill:#e24a33;opacity:0.5;"/>
   </g>
   <g id="patch_44">
    <path clip-path="url(#p74c9333555)" d="M 207.162394 290.25375 
L 209.137098 290.25375 
L 209.137098 288.481442 
L 207.162394 288.481442 
z
" style="fill:#e24a33;opacity:0.5;"/>
   </g>
   <g id="patch_45">
    <path clip-path="url(#p74c9333555)" d="M 209.137098 290.25375 
L 211.111801 290.25375 
L 211.111801 290.25375 
L 209.137098 290.25375 
z
" style="fill:#e24a33;opacity:0.5;"/>
   </g>
   <g id="patch_46">
    <path clip-path="url(#p74c9333555)" d="M 211.111801 290.25375 
L 213.086504 290.25375 
L 213.086504 290.25375 
L 211.111801 290.25375 
z
" style="fill:#e24a33;opacity:0.5;"/>
   </g>
   <g id="patch_47">
    <path clip-path="url(#p74c9333555)" d="M 213.086504 290.25375 
L 215.061208 290.25375 
L 215.061208 290.25375 
L 213.086504 290.25375 
z
" style="fill:#e24a33;opacity:0.5;"/>
   </g>
   <g id="patch_48">
    <path clip-path="url(#p74c9333555)" d="M 215.061208 290.25375 
L 217.035911 290.25375 
L 217.035911 290.25375 
L 215.061208 290.25375 
z
" style="fill:#e24a33;opacity:0.5;"/>
   </g>
   <g id="patch_49">
    <path clip-path="url(#p74c9333555)" d="M 217.035911 290.25375 
L 219.010615 290.25375 
L 219.010615 290.25375 
L 217.035911 290.25375 
z
" style="fill:#e24a33;opacity:0.5;"/>
   </g>
   <g id="patch_50">
    <path clip-path="url(#p74c9333555)" d="M 219.010615 290.25375 
L 220.985318 290.25375 
L 220.985318 290.25375 
L 219.010615 290.25375 
z
" style="fill:#e24a33;opacity:0.5;"/>
   </g>
   <g id="patch_51">
    <path clip-path="url(#p74c9333555)" d="M 220.985318 290.25375 
L 222.960022 290.25375 
L 222.960022 290.25375 
L 220.985318 290.25375 
z
" style="fill:#e24a33;opacity:0.5;"/>
   </g>
   <g id="patch_52">
    <path clip-path="url(#p74c9333555)" d="M 222.960022 290.25375 
L 224.934725 290.25375 
L 224.934725 288.481442 
L 222.960022 288.481442 
z
" style="fill:#e24a33;opacity:0.5;"/>
   </g>
   <g id="patch_53">
    <path clip-path="url(#p74c9333555)" d="M 49.520227 290.25375 
L 53.585313 290.25375 
L 53.585313 288.481442 
L 49.520227 288.481442 
z
" style="fill:#348abd;opacity:0.5;"/>
   </g>
   <g id="patch_54">
    <path clip-path="url(#p74c9333555)" d="M 53.585313 290.25375 
L 57.6504 290.25375 
L 57.6504 290.25375 
L 53.585313 290.25375 
z
" style="fill:#348abd;opacity:0.5;"/>
   </g>
   <g id="patch_55">
    <path clip-path="url(#p74c9333555)" d="M 57.6504 290.25375 
L 61.715486 290.25375 
L 61.715486 290.25375 
L 57.6504 290.25375 
z
" style="fill:#348abd;opacity:0.5;"/>
   </g>
   <g id="patch_56">
    <path clip-path="url(#p74c9333555)" d="M 61.715486 290.25375 
L 65.780572 290.25375 
L 65.780572 290.25375 
L 61.715486 290.25375 
z
" style="fill:#348abd;opacity:0.5;"/>
   </g>
   <g id="patch_57">
    <path clip-path="url(#p74c9333555)" d="M 65.780572 290.25375 
L 69.845658 290.25375 
L 69.845658 290.25375 
L 65.780572 290.25375 
z
" style="fill:#348abd;opacity:0.5;"/>
   </g>
   <g id="patch_58">
    <path clip-path="url(#p74c9333555)" d="M 69.845658 290.25375 
L 73.910744 290.25375 
L 73.910744 288.481442 
L 69.845658 288.481442 
z
" style="fill:#348abd;opacity:0.5;"/>
   </g>
   <g id="patch_59">
    <path clip-path="url(#p74c9333555)" d="M 73.910744 290.25375 
L 77.97583 290.25375 
L 77.97583 290.25375 
L 73.910744 290.25375 
z
" style="fill:#348abd;opacity:0.5;"/>
   </g>
   <g id="patch_60">
    <path clip-path="url(#p74c9333555)" d="M 77.97583 290.25375 
L 82.040917 290.25375 
L 82.040917 290.25375 
L 77.97583 290.25375 
z
" style="fill:#348abd;opacity:0.5;"/>
   </g>
   <g id="patch_61">
    <path clip-path="url(#p74c9333555)" d="M 82.040917 290.25375 
L 86.106003 290.25375 
L 86.106003 286.709135 
L 82.040917 286.709135 
z
" style="fill:#348abd;opacity:0.5;"/>
   </g>
   <g id="patch_62">
    <path clip-path="url(#p74c9333555)" d="M 86.106003 290.25375 
L 90.171089 290.25375 
L 90.171089 290.25375 
L 86.106003 290.25375 
z
" style="fill:#348abd;opacity:0.5;"/>
   </g>
   <g id="patch_63">
    <path clip-path="url(#p74c9333555)" d="M 90.171089 290.25375 
L 94.236175 290.25375 
L 94.236175 288.481442 
L 90.171089 288.481442 
z
" style="fill:#348abd;opacity:0.5;"/>
   </g>
   <g id="patch_64">
    <path clip-path="url(#p74c9333555)" d="M 94.236175 290.25375 
L 98.301261 290.25375 
L 98.301261 290.25375 
L 94.236175 290.25375 
z
" style="fill:#348abd;opacity:0.5;"/>
   </g>
   <g id="patch_65">
    <path clip-path="url(#p74c9333555)" d="M 98.301261 290.25375 
L 102.366347 290.25375 
L 102.366347 288.481442 
L 98.301261 288.481442 
z
" style="fill:#348abd;opacity:0.5;"/>
   </g>
   <g id="patch_66">
    <path clip-path="url(#p74c9333555)" d="M 102.366347 290.25375 
L 106.431434 290.25375 
L 106.431434 286.709135 
L 102.366347 286.709135 
z
" style="fill:#348abd;opacity:0.5;"/>
   </g>
   <g id="patch_67">
    <path clip-path="url(#p74c9333555)" d="M 106.431434 290.25375 
L 110.49652 290.25375 
L 110.49652 290.25375 
L 106.431434 290.25375 
z
" style="fill:#348abd;opacity:0.5;"/>
   </g>
   <g id="patch_68">
    <path clip-path="url(#p74c9333555)" d="M 110.49652 290.25375 
L 114.561606 290.25375 
L 114.561606 290.25375 
L 110.49652 290.25375 
z
" style="fill:#348abd;opacity:0.5;"/>
   </g>
   <g id="patch_69">
    <path clip-path="url(#p74c9333555)" d="M 114.561606 290.25375 
L 118.626692 290.25375 
L 118.626692 288.481442 
L 114.561606 288.481442 
z
" style="fill:#348abd;opacity:0.5;"/>
   </g>
   <g id="patch_70">
    <path clip-path="url(#p74c9333555)" d="M 118.626692 290.25375 
L 122.691778 290.25375 
L 122.691778 288.481442 
L 118.626692 288.481442 
z
" style="fill:#348abd;opacity:0.5;"/>
   </g>
   <g id="patch_71">
    <path clip-path="url(#p74c9333555)" d="M 122.691778 290.25375 
L 126.756864 290.25375 
L 126.756864 286.709135 
L 122.691778 286.709135 
z
" style="fill:#348abd;opacity:0.5;"/>
   </g>
   <g id="patch_72">
    <path clip-path="url(#p74c9333555)" d="M 126.756864 290.25375 
L 130.821951 290.25375 
L 130.821951 284.936827 
L 126.756864 284.936827 
z
" style="fill:#348abd;opacity:0.5;"/>
   </g>
   <g id="patch_73">
    <path clip-path="url(#p74c9333555)" d="M 130.821951 290.25375 
L 134.887037 290.25375 
L 134.887037 277.847596 
L 130.821951 277.847596 
z
" style="fill:#348abd;opacity:0.5;"/>
   </g>
   <g id="patch_74">
    <path clip-path="url(#p74c9333555)" d="M 134.887037 290.25375 
L 138.952123 290.25375 
L 138.952123 268.986058 
L 134.887037 268.986058 
z
" style="fill:#348abd;opacity:0.5;"/>
   </g>
   <g id="patch_75">
    <path clip-path="url(#p74c9333555)" d="M 138.952123 290.25375 
L 143.017209 290.25375 
L 143.017209 281.392212 
L 138.952123 281.392212 
z
" style="fill:#348abd;opacity:0.5;"/>
   </g>
   <g id="patch_76">
    <path clip-path="url(#p74c9333555)" d="M 143.017209 290.25375 
L 147.082295 290.25375 
L 147.082295 265.441442 
L 143.017209 265.441442 
z
" style="fill:#348abd;opacity:0.5;"/>
   </g>
   <g id="patch_77">
    <path clip-path="url(#p74c9333555)" d="M 147.082295 290.25375 
L 151.147381 290.25375 
L 151.147381 249.490673 
L 147.082295 249.490673 
z
" style="fill:#348abd;opacity:0.5;"/>
   </g>
   <g id="patch_78">
    <path clip-path="url(#p74c9333555)" d="M 151.147381 290.25375 
L 155.212468 290.25375 
L 155.212468 245.946058 
L 151.147381 245.946058 
z
" style="fill:#348abd;opacity:0.5;"/>
   </g>
   <g id="patch_79">
    <path clip-path="url(#p74c9333555)" d="M 155.212468 290.25375 
L 159.277554 290.25375 
L 159.277554 192.776827 
L 155.212468 192.776827 
z
" style="fill:#348abd;opacity:0.5;"/>
   </g>
   <g id="patch_80">
    <path clip-path="url(#p74c9333555)" d="M 159.277554 290.25375 
L 163.34264 290.25375 
L 163.34264 143.152212 
L 159.277554 143.152212 
z
" style="fill:#348abd;opacity:0.5;"/>
   </g>
   <g id="patch_81">
    <path clip-path="url(#p74c9333555)" d="M 163.34264 290.25375 
L 167.407726 290.25375 
L 167.407726 180.370673 
L 163.34264 180.370673 
z
" style="fill:#348abd;opacity:0.5;"/>
   </g>
   <g id="patch_82">
    <path clip-path="url(#p74c9333555)" d="M 167.407726 290.25375 
L 171.472812 290.25375 
L 171.472812 128.97375 
L 167.407726 128.97375 
z
" style="fill:#348abd;opacity:0.5;"/>
   </g>
   <g id="patch_83">
    <path clip-path="url(#p74c9333555)" d="M 171.472812 290.25375 
L 175.537898 290.25375 
L 175.537898 139.607596 
L 171.472812 139.607596 
z
" style="fill:#348abd;opacity:0.5;"/>
   </g>
   <g id="patch_84">
    <path clip-path="url(#p74c9333555)" d="M 175.537898 290.25375 
L 179.602985 290.25375 
L 179.602985 144.924519 
L 175.537898 144.924519 
z
" style="fill:#348abd;opacity:0.5;"/>
   </g>
   <g id="patch_85">
    <path clip-path="url(#p74c9333555)" d="M 179.602985 290.25375 
L 183.668071 290.25375 
L 183.668071 91.755288 
L 179.602985 91.755288 
z
" style="fill:#348abd;opacity:0.5;"/>
   </g>
   <g id="patch_86">
    <path clip-path="url(#p74c9333555)" d="M 183.668071 290.25375 
L 187.733157 290.25375 
L 187.733157 141.379904 
L 183.668071 141.379904 
z
" style="fill:#348abd;opacity:0.5;"/>
   </g>
   <g id="patch_87">
    <path clip-path="url(#p74c9333555)" d="M 187.733157 290.25375 
L 191.798243 290.25375 
L 191.798243 116.567596 
L 187.733157 116.567596 
z
" style="fill:#348abd;opacity:0.5;"/>
   </g>
   <g id="patch_88">
    <path clip-path="url(#p74c9333555)" d="M 191.798243 290.25375 
L 195.863329 290.25375 
L 195.863329 199.866058 
L 191.798243 199.866058 
z
" style="fill:#348abd;opacity:0.5;"/>
   </g>
   <g id="patch_89">
    <path clip-path="url(#p74c9333555)" d="M 195.863329 290.25375 
L 199.928415 290.25375 
L 199.928415 251.262981 
L 195.863329 251.262981 
z
" style="fill:#348abd;opacity:0.5;"/>
   </g>
   <g id="patch_90">
    <path clip-path="url(#p74c9333555)" d="M 199.928415 290.25375 
L 203.993502 290.25375 
L 203.993502 238.856827 
L 199.928415 238.856827 
z
" style="fill:#348abd;opacity:0.5;"/>
   </g>
   <g id="patch_91">
    <path clip-path="url(#p74c9333555)" d="M 203.993502 290.25375 
L 208.058588 290.25375 
L 208.058588 261.896827 
L 203.993502 261.896827 
z
" style="fill:#348abd;opacity:0.5;"/>
   </g>
   <g id="patch_92">
    <path clip-path="url(#p74c9333555)" d="M 208.058588 290.25375 
L 212.123674 290.25375 
L 212.123674 274.302981 
L 208.058588 274.302981 
z
" style="fill:#348abd;opacity:0.5;"/>
   </g>
   <g id="patch_93">
    <path clip-path="url(#p74c9333555)" d="M 212.123674 290.25375 
L 216.18876 290.25375 
L 216.18876 277.847596 
L 212.123674 277.847596 
z
" style="fill:#348abd;opacity:0.5;"/>
   </g>
   <g id="patch_94">
    <path clip-path="url(#p74c9333555)" d="M 216.18876 290.25375 
L 220.253846 290.25375 
L 220.253846 284.936827 
L 216.18876 284.936827 
z
" style="fill:#348abd;opacity:0.5;"/>
   </g>
   <g id="patch_95">
    <path clip-path="url(#p74c9333555)" d="M 220.253846 290.25375 
L 224.318932 290.25375 
L 224.318932 281.392212 
L 220.253846 281.392212 
z
" style="fill:#348abd;opacity:0.5;"/>
   </g>
   <g id="patch_96">
    <path clip-path="url(#p74c9333555)" d="M 224.318932 290.25375 
L 228.384019 290.25375 
L 228.384019 286.709135 
L 224.318932 286.709135 
z
" style="fill:#348abd;opacity:0.5;"/>
   </g>
   <g id="patch_97">
    <path clip-path="url(#p74c9333555)" d="M 228.384019 290.25375 
L 232.449105 290.25375 
L 232.449105 288.481442 
L 228.384019 288.481442 
z
" style="fill:#348abd;opacity:0.5;"/>
   </g>
   <g id="patch_98">
    <path clip-path="url(#p74c9333555)" d="M 232.449105 290.25375 
L 236.514191 290.25375 
L 236.514191 286.709135 
L 232.449105 286.709135 
z
" style="fill:#348abd;opacity:0.5;"/>
   </g>
   <g id="patch_99">
    <path clip-path="url(#p74c9333555)" d="M 236.514191 290.25375 
L 240.579277 290.25375 
L 240.579277 286.709135 
L 236.514191 286.709135 
z
" style="fill:#348abd;opacity:0.5;"/>
   </g>
   <g id="patch_100">
    <path clip-path="url(#p74c9333555)" d="M 240.579277 290.25375 
L 244.644363 290.25375 
L 244.644363 290.25375 
L 240.579277 290.25375 
z
" style="fill:#348abd;opacity:0.5;"/>
   </g>
   <g id="patch_101">
    <path clip-path="url(#p74c9333555)" d="M 244.644363 290.25375 
L 248.709449 290.25375 
L 248.709449 290.25375 
L 244.644363 290.25375 
z
" style="fill:#348abd;opacity:0.5;"/>
   </g>
   <g id="patch_102">
    <path clip-path="url(#p74c9333555)" d="M 248.709449 290.25375 
L 252.774536 290.25375 
L 252.774536 288.481442 
L 248.709449 288.481442 
z
" style="fill:#348abd;opacity:0.5;"/>
   </g>
   <g id="patch_103">
    <path clip-path="url(#p74c9333555)" d="M 175.075665 290.25375 
L 179.057647 290.25375 
L 179.057647 286.709135 
L 175.075665 286.709135 
z
" style="fill:#988ed5;opacity:0.5;"/>
   </g>
   <g id="patch_104">
    <path clip-path="url(#p74c9333555)" d="M 179.057647 290.25375 
L 183.03963 290.25375 
L 183.03963 290.25375 
L 179.057647 290.25375 
z
" style="fill:#988ed5;opacity:0.5;"/>
   </g>
   <g id="patch_105">
    <path clip-path="url(#p74c9333555)" d="M 183.03963 290.25375 
L 187.021612 290.25375 
L 187.021612 290.25375 
L 183.03963 290.25375 
z
" style="fill:#988ed5;opacity:0.5;"/>
   </g>
   <g id="patch_106">
    <path clip-path="url(#p74c9333555)" d="M 187.021612 290.25375 
L 191.003594 290.25375 
L 191.003594 260.124519 
L 187.021612 260.124519 
z
" style="fill:#988ed5;opacity:0.5;"/>
   </g>
   <g id="patch_107">
    <path clip-path="url(#p74c9333555)" d="M 191.003594 290.25375 
L 194.985576 290.25375 
L 194.985576 183.915288 
L 191.003594 183.915288 
z
" style="fill:#988ed5;opacity:0.5;"/>
   </g>
   <g id="patch_108">
    <path clip-path="url(#p74c9333555)" d="M 194.985576 290.25375 
L 198.967558 290.25375 
L 198.967558 134.290673 
L 194.985576 134.290673 
z
" style="fill:#988ed5;opacity:0.5;"/>
   </g>
   <g id="patch_109">
    <path clip-path="url(#p74c9333555)" d="M 198.967558 290.25375 
L 202.94954 290.25375 
L 202.94954 104.161442 
L 198.967558 104.161442 
z
" style="fill:#988ed5;opacity:0.5;"/>
   </g>
   <g id="patch_110">
    <path clip-path="url(#p74c9333555)" d="M 202.94954 290.25375 
L 206.931522 290.25375 
L 206.931522 75.804519 
L 202.94954 75.804519 
z
" style="fill:#988ed5;opacity:0.5;"/>
   </g>
   <g id="patch_111">
    <path clip-path="url(#p74c9333555)" d="M 206.931522 290.25375 
L 210.913505 290.25375 
L 210.913505 36.81375 
L 206.931522 36.81375 
z
" style="fill:#988ed5;opacity:0.5;"/>
   </g>
   <g id="patch_112">
    <path clip-path="url(#p74c9333555)" d="M 210.913505 290.25375 
L 214.895487 290.25375 
L 214.895487 111.250673 
L 210.913505 111.250673 
z
" style="fill:#988ed5;opacity:0.5;"/>
   </g>
   <g id="patch_113">
    <path clip-path="url(#p74c9333555)" d="M 214.895487 290.25375 
L 218.877469 290.25375 
L 218.877469 143.152212 
L 214.895487 143.152212 
z
" style="fill:#988ed5;opacity:0.5;"/>
   </g>
   <g id="patch_114">
    <path clip-path="url(#p74c9333555)" d="M 218.877469 290.25375 
L 222.859451 290.25375 
L 222.859451 185.687596 
L 218.877469 185.687596 
z
" style="fill:#988ed5;opacity:0.5;"/>
   </g>
   <g id="patch_115">
    <path clip-path="url(#p74c9333555)" d="M 222.859451 290.25375 
L 226.841433 290.25375 
L 226.841433 212.272212 
L 222.859451 212.272212 
z
" style="fill:#988ed5;opacity:0.5;"/>
   </g>
   <g id="patch_116">
    <path clip-path="url(#p74c9333555)" d="M 226.841433 290.25375 
L 230.823415 290.25375 
L 230.823415 221.13375 
L 226.841433 221.13375 
z
" style="fill:#988ed5;opacity:0.5;"/>
   </g>
   <g id="patch_117">
    <path clip-path="url(#p74c9333555)" d="M 230.823415 290.25375 
L 234.805398 290.25375 
L 234.805398 245.946058 
L 230.823415 245.946058 
z
" style="fill:#988ed5;opacity:0.5;"/>
   </g>
   <g id="patch_118">
    <path clip-path="url(#p74c9333555)" d="M 234.805398 290.25375 
L 238.78738 290.25375 
L 238.78738 253.035288 
L 234.805398 253.035288 
z
" style="fill:#988ed5;opacity:0.5;"/>
   </g>
   <g id="patch_119">
    <path clip-path="url(#p74c9333555)" d="M 238.78738 290.25375 
L 242.769362 290.25375 
L 242.769362 249.490673 
L 238.78738 249.490673 
z
" style="fill:#988ed5;opacity:0.5;"/>
   </g>
   <g id="patch_120">
    <path clip-path="url(#p74c9333555)" d="M 242.769362 290.25375 
L 246.751344 290.25375 
L 246.751344 267.21375 
L 242.769362 267.21375 
z
" style="fill:#988ed5;opacity:0.5;"/>
   </g>
   <g id="patch_121">
    <path clip-path="url(#p74c9333555)" d="M 246.751344 290.25375 
L 250.733326 290.25375 
L 250.733326 270.758365 
L 246.751344 270.758365 
z
" style="fill:#988ed5;opacity:0.5;"/>
   </g>
   <g id="patch_122">
    <path clip-path="url(#p74c9333555)" d="M 250.733326 290.25375 
L 254.715308 290.25375 
L 254.715308 283.164519 
L 250.733326 283.164519 
z
" style="fill:#988ed5;opacity:0.5;"/>
   </g>
   <g id="patch_123">
    <path clip-path="url(#p74c9333555)" d="M 254.715308 290.25375 
L 258.69729 290.25375 
L 258.69729 274.302981 
L 254.715308 274.302981 
z
" style="fill:#988ed5;opacity:0.5;"/>
   </g>
   <g id="patch_124">
    <path clip-path="url(#p74c9333555)" d="M 258.69729 290.25375 
L 262.679273 290.25375 
L 262.679273 281.392212 
L 258.69729 281.392212 
z
" style="fill:#988ed5;opacity:0.5;"/>
   </g>
   <g id="patch_125">
    <path clip-path="url(#p74c9333555)" d="M 262.679273 290.25375 
L 266.661255 290.25375 
L 266.661255 281.392212 
L 262.679273 281.392212 
z
" style="fill:#988ed5;opacity:0.5;"/>
   </g>
   <g id="patch_126">
    <path clip-path="url(#p74c9333555)" d="M 266.661255 290.25375 
L 270.643237 290.25375 
L 270.643237 281.392212 
L 266.661255 281.392212 
z
" style="fill:#988ed5;opacity:0.5;"/>
   </g>
   <g id="patch_127">
    <path clip-path="url(#p74c9333555)" d="M 270.643237 290.25375 
L 274.625219 290.25375 
L 274.625219 286.709135 
L 270.643237 286.709135 
z
" style="fill:#988ed5;opacity:0.5;"/>
   </g>
   <g id="patch_128">
    <path clip-path="url(#p74c9333555)" d="M 274.625219 290.25375 
L 278.607201 290.25375 
L 278.607201 286.709135 
L 274.625219 286.709135 
z
" style="fill:#988ed5;opacity:0.5;"/>
   </g>
   <g id="patch_129">
    <path clip-path="url(#p74c9333555)" d="M 278.607201 290.25375 
L 282.589183 290.25375 
L 282.589183 290.25375 
L 278.607201 290.25375 
z
" style="fill:#988ed5;opacity:0.5;"/>
   </g>
   <g id="patch_130">
    <path clip-path="url(#p74c9333555)" d="M 282.589183 290.25375 
L 286.571165 290.25375 
L 286.571165 290.25375 
L 282.589183 290.25375 
z
" style="fill:#988ed5;opacity:0.5;"/>
   </g>
   <g id="patch_131">
    <path clip-path="url(#p74c9333555)" d="M 286.571165 290.25375 
L 290.553148 290.25375 
L 290.553148 286.709135 
L 286.571165 286.709135 
z
" style="fill:#988ed5;opacity:0.5;"/>
   </g>
   <g id="patch_132">
    <path clip-path="url(#p74c9333555)" d="M 290.553148 290.25375 
L 294.53513 290.25375 
L 294.53513 284.936827 
L 290.553148 284.936827 
z
" style="fill:#988ed5;opacity:0.5;"/>
   </g>
   <g id="patch_133">
    <path clip-path="url(#p74c9333555)" d="M 294.53513 290.25375 
L 298.517112 290.25375 
L 298.517112 290.25375 
L 294.53513 290.25375 
z
" style="fill:#988ed5;opacity:0.5;"/>
   </g>
   <g id="patch_134">
    <path clip-path="url(#p74c9333555)" d="M 298.517112 290.25375 
L 302.499094 290.25375 
L 302.499094 286.709135 
L 298.517112 286.709135 
z
" style="fill:#988ed5;opacity:0.5;"/>
   </g>
   <g id="patch_135">
    <path clip-path="url(#p74c9333555)" d="M 302.499094 290.25375 
L 306.481076 290.25375 
L 306.481076 288.481442 
L 302.499094 288.481442 
z
" style="fill:#988ed5;opacity:0.5;"/>
   </g>
   <g id="patch_136">
    <path clip-path="url(#p74c9333555)" d="M 306.481076 290.25375 
L 310.463058 290.25375 
L 310.463058 290.25375 
L 306.481076 290.25375 
z
" style="fill:#988ed5;opacity:0.5;"/>
   </g>
   <g id="patch_137">
    <path clip-path="url(#p74c9333555)" d="M 310.463058 290.25375 
L 314.44504 290.25375 
L 314.44504 288.481442 
L 310.463058 288.481442 
z
" style="fill:#988ed5;opacity:0.5;"/>
   </g>
   <g id="patch_138">
    <path clip-path="url(#p74c9333555)" d="M 314.44504 290.25375 
L 318.427023 290.25375 
L 318.427023 286.709135 
L 314.44504 286.709135 
z
" style="fill:#988ed5;opacity:0.5;"/>
   </g>
   <g id="patch_139">
    <path clip-path="url(#p74c9333555)" d="M 318.427023 290.25375 
L 322.409005 290.25375 
L 322.409005 288.481442 
L 318.427023 288.481442 
z
" style="fill:#988ed5;opacity:0.5;"/>
   </g>
   <g id="patch_140">
    <path clip-path="url(#p74c9333555)" d="M 322.409005 290.25375 
L 326.390987 290.25375 
L 326.390987 290.25375 
L 322.409005 290.25375 
z
" style="fill:#988ed5;opacity:0.5;"/>
   </g>
   <g id="patch_141">
    <path clip-path="url(#p74c9333555)" d="M 326.390987 290.25375 
L 330.372969 290.25375 
L 330.372969 290.25375 
L 326.390987 290.25375 
z
" style="fill:#988ed5;opacity:0.5;"/>
   </g>
   <g id="patch_142">
    <path clip-path="url(#p74c9333555)" d="M 330.372969 290.25375 
L 334.354951 290.25375 
L 334.354951 290.25375 
L 330.372969 290.25375 
z
" style="fill:#988ed5;opacity:0.5;"/>
   </g>
   <g id="patch_143">
    <path clip-path="url(#p74c9333555)" d="M 334.354951 290.25375 
L 338.336933 290.25375 
L 338.336933 290.25375 
L 334.354951 290.25375 
z
" style="fill:#988ed5;opacity:0.5;"/>
   </g>
   <g id="patch_144">
    <path clip-path="url(#p74c9333555)" d="M 338.336933 290.25375 
L 342.318916 290.25375 
L 342.318916 290.25375 
L 338.336933 290.25375 
z
" style="fill:#988ed5;opacity:0.5;"/>
   </g>
   <g id="patch_145">
    <path clip-path="url(#p74c9333555)" d="M 342.318916 290.25375 
L 346.300898 290.25375 
L 346.300898 288.481442 
L 342.318916 288.481442 
z
" style="fill:#988ed5;opacity:0.5;"/>
   </g>
   <g id="patch_146">
    <path clip-path="url(#p74c9333555)" d="M 346.300898 290.25375 
L 350.28288 290.25375 
L 350.28288 290.25375 
L 346.300898 290.25375 
z
" style="fill:#988ed5;opacity:0.5;"/>
   </g>
   <g id="patch_147">
    <path clip-path="url(#p74c9333555)" d="M 350.28288 290.25375 
L 354.264862 290.25375 
L 354.264862 290.25375 
L 350.28288 290.25375 
z
" style="fill:#988ed5;opacity:0.5;"/>
   </g>
   <g id="patch_148">
    <path clip-path="url(#p74c9333555)" d="M 354.264862 290.25375 
L 358.246844 290.25375 
L 358.246844 290.25375 
L 354.264862 290.25375 
z
" style="fill:#988ed5;opacity:0.5;"/>
   </g>
   <g id="patch_149">
    <path clip-path="url(#p74c9333555)" d="M 358.246844 290.25375 
L 362.228826 290.25375 
L 362.228826 290.25375 
L 358.246844 290.25375 
z
" style="fill:#988ed5;opacity:0.5;"/>
   </g>
   <g id="patch_150">
    <path clip-path="url(#p74c9333555)" d="M 362.228826 290.25375 
L 366.210808 290.25375 
L 366.210808 290.25375 
L 362.228826 290.25375 
z
" style="fill:#988ed5;opacity:0.5;"/>
   </g>
   <g id="patch_151">
    <path clip-path="url(#p74c9333555)" d="M 366.210808 290.25375 
L 370.192791 290.25375 
L 370.192791 288.481442 
L 366.210808 288.481442 
z
" style="fill:#988ed5;opacity:0.5;"/>
   </g>
   <g id="patch_152">
    <path clip-path="url(#p74c9333555)" d="M 370.192791 290.25375 
L 374.174773 290.25375 
L 374.174773 286.709135 
L 370.192791 286.709135 
z
" style="fill:#988ed5;opacity:0.5;"/>
   </g>
   <g id="patch_153">
    <path d="M 33.2875 290.25375 
L 33.2875 24.14175 
" style="fill:none;stroke:#ffffff;stroke-linecap:square;stroke-linejoin:miter;"/>
   </g>
   <g id="patch_154">
    <path d="M 390.4075 290.25375 
L 390.4075 24.14175 
" style="fill:none;stroke:#ffffff;stroke-linecap:square;stroke-linejoin:miter;"/>
   </g>
   <g id="patch_155">
    <path d="M 33.2875 290.25375 
L 390.4075 290.25375 
" style="fill:none;stroke:#ffffff;stroke-linecap:square;stroke-linejoin:miter;"/>
   </g>
   <g id="patch_156">
    <path d="M 33.2875 24.14175 
L 390.4075 24.14175 
" style="fill:none;stroke:#ffffff;stroke-linecap:square;stroke-linejoin:miter;"/>
   </g>
   <g id="text_15">
    <!-- Histogram of Daily Returns -->
    <defs>
     <path d="M 9.8125 72.90625 
L 19.671875 72.90625 
L 19.671875 43.015625 
L 55.515625 43.015625 
L 55.515625 72.90625 
L 65.375 72.90625 
L 65.375 0 
L 55.515625 0 
L 55.515625 34.71875 
L 19.671875 34.71875 
L 19.671875 0 
L 9.8125 0 
z
" id="DejaVuSans-48"/>
     <path d="M 9.421875 54.6875 
L 18.40625 54.6875 
L 18.40625 0 
L 9.421875 0 
z
M 9.421875 75.984375 
L 18.40625 75.984375 
L 18.40625 64.59375 
L 9.421875 64.59375 
z
" id="DejaVuSans-69"/>
     <path d="M 44.28125 53.078125 
L 44.28125 44.578125 
Q 40.484375 46.53125 36.375 47.5 
Q 32.28125 48.484375 27.875 48.484375 
Q 21.1875 48.484375 17.84375 46.4375 
Q 14.5 44.390625 14.5 40.28125 
Q 14.5 37.15625 16.890625 35.375 
Q 19.28125 33.59375 26.515625 31.984375 
L 29.59375 31.296875 
Q 39.15625 29.25 43.1875 25.515625 
Q 47.21875 21.78125 47.21875 15.09375 
Q 47.21875 7.46875 41.1875 3.015625 
Q 35.15625 -1.421875 24.609375 -1.421875 
Q 20.21875 -1.421875 15.453125 -0.5625 
Q 10.6875 0.296875 5.421875 2 
L 5.421875 11.28125 
Q 10.40625 8.6875 15.234375 7.390625 
Q 20.0625 6.109375 24.8125 6.109375 
Q 31.15625 6.109375 34.5625 8.28125 
Q 37.984375 10.453125 37.984375 14.40625 
Q 37.984375 18.0625 35.515625 20.015625 
Q 33.0625 21.96875 24.703125 23.78125 
L 21.578125 24.515625 
Q 13.234375 26.265625 9.515625 29.90625 
Q 5.8125 33.546875 5.8125 39.890625 
Q 5.8125 47.609375 11.28125 51.796875 
Q 16.75 56 26.8125 56 
Q 31.78125 56 36.171875 55.265625 
Q 40.578125 54.546875 44.28125 53.078125 
" id="DejaVuSans-73"/>
     <path d="M 18.3125 70.21875 
L 18.3125 54.6875 
L 36.8125 54.6875 
L 36.8125 47.703125 
L 18.3125 47.703125 
L 18.3125 18.015625 
Q 18.3125 11.328125 20.140625 9.421875 
Q 21.96875 7.515625 27.59375 7.515625 
L 36.8125 7.515625 
L 36.8125 0 
L 27.59375 0 
Q 17.1875 0 13.234375 3.875 
Q 9.28125 7.765625 9.28125 18.015625 
L 9.28125 47.703125 
L 2.6875 47.703125 
L 2.6875 54.6875 
L 9.28125 54.6875 
L 9.28125 70.21875 
z
" id="DejaVuSans-74"/>
     <path d="M 30.609375 48.390625 
Q 23.390625 48.390625 19.1875 42.75 
Q 14.984375 37.109375 14.984375 27.296875 
Q 14.984375 17.484375 19.15625 11.84375 
Q 23.34375 6.203125 30.609375 6.203125 
Q 37.796875 6.203125 41.984375 11.859375 
Q 46.1875 17.53125 46.1875 27.296875 
Q 46.1875 37.015625 41.984375 42.703125 
Q 37.796875 48.390625 30.609375 48.390625 
M 30.609375 56 
Q 42.328125 56 49.015625 48.375 
Q 55.71875 40.765625 55.71875 27.296875 
Q 55.71875 13.875 49.015625 6.21875 
Q 42.328125 -1.421875 30.609375 -1.421875 
Q 18.84375 -1.421875 12.171875 6.21875 
Q 5.515625 13.875 5.515625 27.296875 
Q 5.515625 40.765625 12.171875 48.375 
Q 18.84375 56 30.609375 56 
" id="DejaVuSans-6f"/>
     <path d="M 45.40625 27.984375 
Q 45.40625 37.75 41.375 43.109375 
Q 37.359375 48.484375 30.078125 48.484375 
Q 22.859375 48.484375 18.828125 43.109375 
Q 14.796875 37.75 14.796875 27.984375 
Q 14.796875 18.265625 18.828125 12.890625 
Q 22.859375 7.515625 30.078125 7.515625 
Q 37.359375 7.515625 41.375 12.890625 
Q 45.40625 18.265625 45.40625 27.984375 
M 54.390625 6.78125 
Q 54.390625 -7.171875 48.1875 -13.984375 
Q 42 -20.796875 29.203125 -20.796875 
Q 24.46875 -20.796875 20.265625 -20.09375 
Q 16.0625 -19.390625 12.109375 -17.921875 
L 12.109375 -9.1875 
Q 16.0625 -11.328125 19.921875 -12.34375 
Q 23.78125 -13.375 27.78125 -13.375 
Q 36.625 -13.375 41.015625 -8.765625 
Q 45.40625 -4.15625 45.40625 5.171875 
L 45.40625 9.625 
Q 42.625 4.78125 38.28125 2.390625 
Q 33.9375 0 27.875 0 
Q 17.828125 0 11.671875 7.65625 
Q 5.515625 15.328125 5.515625 27.984375 
Q 5.515625 40.671875 11.671875 48.328125 
Q 17.828125 56 27.875 56 
Q 33.9375 56 38.28125 53.609375 
Q 42.625 51.21875 45.40625 46.390625 
L 45.40625 54.6875 
L 54.390625 54.6875 
z
" id="DejaVuSans-67"/>
     <path d="M 41.109375 46.296875 
Q 39.59375 47.171875 37.8125 47.578125 
Q 36.03125 48 33.890625 48 
Q 26.265625 48 22.1875 43.046875 
Q 18.109375 38.09375 18.109375 28.8125 
L 18.109375 0 
L 9.078125 0 
L 9.078125 54.6875 
L 18.109375 54.6875 
L 18.109375 46.1875 
Q 20.953125 51.171875 25.484375 53.578125 
Q 30.03125 56 36.53125 56 
Q 37.453125 56 38.578125 55.875 
Q 39.703125 55.765625 41.0625 55.515625 
z
" id="DejaVuSans-72"/>
     <path d="M 34.28125 27.484375 
Q 23.390625 27.484375 19.1875 25 
Q 14.984375 22.515625 14.984375 16.5 
Q 14.984375 11.71875 18.140625 8.90625 
Q 21.296875 6.109375 26.703125 6.109375 
Q 34.1875 6.109375 38.703125 11.40625 
Q 43.21875 16.703125 43.21875 25.484375 
L 43.21875 27.484375 
z
M 52.203125 31.203125 
L 52.203125 0 
L 43.21875 0 
L 43.21875 8.296875 
Q 40.140625 3.328125 35.546875 0.953125 
Q 30.953125 -1.421875 24.3125 -1.421875 
Q 15.921875 -1.421875 10.953125 3.296875 
Q 6 8.015625 6 15.921875 
Q 6 25.140625 12.171875 29.828125 
Q 18.359375 34.515625 30.609375 34.515625 
L 43.21875 34.515625 
L 43.21875 35.40625 
Q 43.21875 41.609375 39.140625 45 
Q 35.0625 48.390625 27.6875 48.390625 
Q 23 48.390625 18.546875 47.265625 
Q 14.109375 46.140625 10.015625 43.890625 
L 10.015625 52.203125 
Q 14.9375 54.109375 19.578125 55.046875 
Q 24.21875 56 28.609375 56 
Q 40.484375 56 46.34375 49.84375 
Q 52.203125 43.703125 52.203125 31.203125 
" id="DejaVuSans-61"/>
     <path d="M 52 44.1875 
Q 55.375 50.25 60.0625 53.125 
Q 64.75 56 71.09375 56 
Q 79.640625 56 84.28125 50.015625 
Q 88.921875 44.046875 88.921875 33.015625 
L 88.921875 0 
L 79.890625 0 
L 79.890625 32.71875 
Q 79.890625 40.578125 77.09375 44.375 
Q 74.3125 48.1875 68.609375 48.1875 
Q 61.625 48.1875 57.5625 43.546875 
Q 53.515625 38.921875 53.515625 30.90625 
L 53.515625 0 
L 44.484375 0 
L 44.484375 32.71875 
Q 44.484375 40.625 41.703125 44.40625 
Q 38.921875 48.1875 33.109375 48.1875 
Q 26.21875 48.1875 22.15625 43.53125 
Q 18.109375 38.875 18.109375 30.90625 
L 18.109375 0 
L 9.078125 0 
L 9.078125 54.6875 
L 18.109375 54.6875 
L 18.109375 46.1875 
Q 21.1875 51.21875 25.484375 53.609375 
Q 29.78125 56 35.6875 56 
Q 41.65625 56 45.828125 52.96875 
Q 50 49.953125 52 44.1875 
" id="DejaVuSans-6d"/>
     <path id="DejaVuSans-20"/>
     <path d="M 37.109375 75.984375 
L 37.109375 68.5 
L 28.515625 68.5 
Q 23.6875 68.5 21.796875 66.546875 
Q 19.921875 64.59375 19.921875 59.515625 
L 19.921875 54.6875 
L 34.71875 54.6875 
L 34.71875 47.703125 
L 19.921875 47.703125 
L 19.921875 0 
L 10.890625 0 
L 10.890625 47.703125 
L 2.296875 47.703125 
L 2.296875 54.6875 
L 10.890625 54.6875 
L 10.890625 58.5 
Q 10.890625 67.625 15.140625 71.796875 
Q 19.390625 75.984375 28.609375 75.984375 
z
" id="DejaVuSans-66"/>
     <path d="M 19.671875 64.796875 
L 19.671875 8.109375 
L 31.59375 8.109375 
Q 46.6875 8.109375 53.6875 14.9375 
Q 60.6875 21.78125 60.6875 36.53125 
Q 60.6875 51.171875 53.6875 57.984375 
Q 46.6875 64.796875 31.59375 64.796875 
z
M 9.8125 72.90625 
L 30.078125 72.90625 
Q 51.265625 72.90625 61.171875 64.09375 
Q 71.09375 55.28125 71.09375 36.53125 
Q 71.09375 17.671875 61.125 8.828125 
Q 51.171875 0 30.078125 0 
L 9.8125 0 
z
" id="DejaVuSans-44"/>
     <path d="M 9.421875 75.984375 
L 18.40625 75.984375 
L 18.40625 0 
L 9.421875 0 
z
" id="DejaVuSans-6c"/>
     <path d="M 32.171875 -5.078125 
Q 28.375 -14.84375 24.75 -17.8125 
Q 21.140625 -20.796875 15.09375 -20.796875 
L 7.90625 -20.796875 
L 7.90625 -13.28125 
L 13.1875 -13.28125 
Q 16.890625 -13.28125 18.9375 -11.515625 
Q 21 -9.765625 23.484375 -3.21875 
L 25.09375 0.875 
L 2.984375 54.6875 
L 12.5 54.6875 
L 29.59375 11.921875 
L 46.6875 54.6875 
L 56.203125 54.6875 
z
" id="DejaVuSans-79"/>
     <path d="M 44.390625 34.1875 
Q 47.5625 33.109375 50.5625 29.59375 
Q 53.5625 26.078125 56.59375 19.921875 
L 66.609375 0 
L 56 0 
L 46.6875 18.703125 
Q 43.0625 26.03125 39.671875 28.421875 
Q 36.28125 30.8125 30.421875 30.8125 
L 19.671875 30.8125 
L 19.671875 0 
L 9.8125 0 
L 9.8125 72.90625 
L 32.078125 72.90625 
Q 44.578125 72.90625 50.734375 67.671875 
Q 56.890625 62.453125 56.890625 51.90625 
Q 56.890625 45.015625 53.6875 40.46875 
Q 50.484375 35.9375 44.390625 34.1875 
M 19.671875 64.796875 
L 19.671875 38.921875 
L 32.078125 38.921875 
Q 39.203125 38.921875 42.84375 42.21875 
Q 46.484375 45.515625 46.484375 51.90625 
Q 46.484375 58.296875 42.84375 61.546875 
Q 39.203125 64.796875 32.078125 64.796875 
z
" id="DejaVuSans-52"/>
     <path d="M 56.203125 29.59375 
L 56.203125 25.203125 
L 14.890625 25.203125 
Q 15.484375 15.921875 20.484375 11.0625 
Q 25.484375 6.203125 34.421875 6.203125 
Q 39.59375 6.203125 44.453125 7.46875 
Q 49.3125 8.734375 54.109375 11.28125 
L 54.109375 2.78125 
Q 49.265625 0.734375 44.1875 -0.34375 
Q 39.109375 -1.421875 33.890625 -1.421875 
Q 20.796875 -1.421875 13.15625 6.1875 
Q 5.515625 13.8125 5.515625 26.8125 
Q 5.515625 40.234375 12.765625 48.109375 
Q 20.015625 56 32.328125 56 
Q 43.359375 56 49.78125 48.890625 
Q 56.203125 41.796875 56.203125 29.59375 
M 47.21875 32.234375 
Q 47.125 39.59375 43.09375 43.984375 
Q 39.0625 48.390625 32.421875 48.390625 
Q 24.90625 48.390625 20.390625 44.140625 
Q 15.875 39.890625 15.1875 32.171875 
z
" id="DejaVuSans-65"/>
     <path d="M 8.5 21.578125 
L 8.5 54.6875 
L 17.484375 54.6875 
L 17.484375 21.921875 
Q 17.484375 14.15625 20.5 10.265625 
Q 23.53125 6.390625 29.59375 6.390625 
Q 36.859375 6.390625 41.078125 11.03125 
Q 45.3125 15.671875 45.3125 23.6875 
L 45.3125 54.6875 
L 54.296875 54.6875 
L 54.296875 0 
L 45.3125 0 
L 45.3125 8.40625 
Q 42.046875 3.421875 37.71875 1 
Q 33.40625 -1.421875 27.6875 -1.421875 
Q 18.265625 -1.421875 13.375 4.4375 
Q 8.5 10.296875 8.5 21.578125 
M 31.109375 56 
z
" id="DejaVuSans-75"/>
     <path d="M 54.890625 33.015625 
L 54.890625 0 
L 45.90625 0 
L 45.90625 32.71875 
Q 45.90625 40.484375 42.875 44.328125 
Q 39.84375 48.1875 33.796875 48.1875 
Q 26.515625 48.1875 22.3125 43.546875 
Q 18.109375 38.921875 18.109375 30.90625 
L 18.109375 0 
L 9.078125 0 
L 9.078125 54.6875 
L 18.109375 54.6875 
L 18.109375 46.1875 
Q 21.34375 51.125 25.703125 53.5625 
Q 30.078125 56 35.796875 56 
Q 45.21875 56 50.046875 50.171875 
Q 54.890625 44.34375 54.890625 33.015625 
" id="DejaVuSans-6e"/>
    </defs>
    <g transform="translate(114.387625 18.14175)scale(0.144 -0.144)">
     <use xlink:href="#DejaVuSans-48"/>
     <use x="75.195312" xlink:href="#DejaVuSans-69"/>
     <use x="102.978516" xlink:href="#DejaVuSans-73"/>
     <use x="155.078125" xlink:href="#DejaVuSans-74"/>
     <use x="194.287109" xlink:href="#DejaVuSans-6f"/>
     <use x="255.46875" xlink:href="#DejaVuSans-67"/>
     <use x="318.945312" xlink:href="#DejaVuSans-72"/>
     <use x="360.058594" xlink:href="#DejaVuSans-61"/>
     <use x="421.337891" xlink:href="#DejaVuSans-6d"/>
     <use x="518.75" xlink:href="#DejaVuSans-20"/>
     <use x="550.537109" xlink:href="#DejaVuSans-6f"/>
     <use x="611.71875" xlink:href="#DejaVuSans-66"/>
     <use x="646.923828" xlink:href="#DejaVuSans-20"/>
     <use x="678.710938" xlink:href="#DejaVuSans-44"/>
     <use x="755.712891" xlink:href="#DejaVuSans-61"/>
     <use x="816.992188" xlink:href="#DejaVuSans-69"/>
     <use x="844.775391" xlink:href="#DejaVuSans-6c"/>
     <use x="872.558594" xlink:href="#DejaVuSans-79"/>
     <use x="931.738281" xlink:href="#DejaVuSans-20"/>
     <use x="963.525391" xlink:href="#DejaVuSans-52"/>
     <use x="1032.945312" xlink:href="#DejaVuSans-65"/>
     <use x="1094.46875" xlink:href="#DejaVuSans-74"/>
     <use x="1133.677734" xlink:href="#DejaVuSans-75"/>
     <use x="1197.056641" xlink:href="#DejaVuSans-72"/>
     <use x="1238.154297" xlink:href="#DejaVuSans-6e"/>
     <use x="1301.533203" xlink:href="#DejaVuSans-73"/>
    </g>
   </g>
   <g id="legend_1">
    <g id="patch_157">
     <path d="M 293.921562 76.176125 
L 383.4075 76.176125 
Q 385.4075 76.176125 385.4075 74.176125 
L 385.4075 31.14175 
Q 385.4075 29.14175 383.4075 29.14175 
L 293.921562 29.14175 
Q 291.921562 29.14175 291.921562 31.14175 
L 291.921562 74.176125 
Q 291.921562 76.176125 293.921562 76.176125 
z
" style="fill:#e5e5e5;opacity:0.8;stroke:#cccccc;stroke-linejoin:miter;stroke-width:0.5;"/>
    </g>
    <g id="patch_158">
     <path d="M 295.921562 40.740187 
L 315.921562 40.740187 
L 315.921562 33.740187 
L 295.921562 33.740187 
z
" style="fill:#e24a33;opacity:0.5;"/>
    </g>
    <g id="text_16">
     <!-- Market -->
     <defs>
      <path d="M 9.8125 72.90625 
L 24.515625 72.90625 
L 43.109375 23.296875 
L 61.8125 72.90625 
L 76.515625 72.90625 
L 76.515625 0 
L 66.890625 0 
L 66.890625 64.015625 
L 48.09375 14.015625 
L 38.1875 14.015625 
L 19.390625 64.015625 
L 19.390625 0 
L 9.8125 0 
z
" id="DejaVuSans-4d"/>
      <path d="M 9.078125 75.984375 
L 18.109375 75.984375 
L 18.109375 31.109375 
L 44.921875 54.6875 
L 56.390625 54.6875 
L 27.390625 29.109375 
L 57.625 0 
L 45.90625 0 
L 18.109375 26.703125 
L 18.109375 0 
L 9.078125 0 
z
" id="DejaVuSans-6b"/>
     </defs>
     <g transform="translate(323.921562 40.740187)scale(0.1 -0.1)">
      <use xlink:href="#DejaVuSans-4d"/>
      <use x="86.279297" xlink:href="#DejaVuSans-61"/>
      <use x="147.558594" xlink:href="#DejaVuSans-72"/>
      <use x="188.671875" xlink:href="#DejaVuSans-6b"/>
      <use x="246.535156" xlink:href="#DejaVuSans-65"/>
      <use x="308.058594" xlink:href="#DejaVuSans-74"/>
     </g>
    </g>
    <g id="patch_159">
     <path d="M 295.921562 55.418312 
L 315.921562 55.418312 
L 315.921562 48.418312 
L 295.921562 48.418312 
z
" style="fill:#348abd;opacity:0.5;"/>
    </g>
    <g id="text_17">
     <!-- Model A -->
     <defs>
      <path d="M 45.40625 46.390625 
L 45.40625 75.984375 
L 54.390625 75.984375 
L 54.390625 0 
L 45.40625 0 
L 45.40625 8.203125 
Q 42.578125 3.328125 38.25 0.953125 
Q 33.9375 -1.421875 27.875 -1.421875 
Q 17.96875 -1.421875 11.734375 6.484375 
Q 5.515625 14.40625 5.515625 27.296875 
Q 5.515625 40.1875 11.734375 48.09375 
Q 17.96875 56 27.875 56 
Q 33.9375 56 38.25 53.625 
Q 42.578125 51.265625 45.40625 46.390625 
M 14.796875 27.296875 
Q 14.796875 17.390625 18.875 11.75 
Q 22.953125 6.109375 30.078125 6.109375 
Q 37.203125 6.109375 41.296875 11.75 
Q 45.40625 17.390625 45.40625 27.296875 
Q 45.40625 37.203125 41.296875 42.84375 
Q 37.203125 48.484375 30.078125 48.484375 
Q 22.953125 48.484375 18.875 42.84375 
Q 14.796875 37.203125 14.796875 27.296875 
" id="DejaVuSans-64"/>
      <path d="M 34.1875 63.1875 
L 20.796875 26.90625 
L 47.609375 26.90625 
z
M 28.609375 72.90625 
L 39.796875 72.90625 
L 67.578125 0 
L 57.328125 0 
L 50.6875 18.703125 
L 17.828125 18.703125 
L 11.1875 0 
L 0.78125 0 
z
" id="DejaVuSans-41"/>
     </defs>
     <g transform="translate(323.921562 55.418312)scale(0.1 -0.1)">
      <use xlink:href="#DejaVuSans-4d"/>
      <use x="86.279297" xlink:href="#DejaVuSans-6f"/>
      <use x="147.460938" xlink:href="#DejaVuSans-64"/>
      <use x="210.9375" xlink:href="#DejaVuSans-65"/>
      <use x="272.460938" xlink:href="#DejaVuSans-6c"/>
      <use x="300.244141" xlink:href="#DejaVuSans-20"/>
      <use x="332.03125" xlink:href="#DejaVuSans-41"/>
     </g>
    </g>
    <g id="patch_160">
     <path d="M 295.921562 70.096437 
L 315.921562 70.096437 
L 315.921562 63.096437 
L 295.921562 63.096437 
z
" style="fill:#988ed5;opacity:0.5;"/>
    </g>
    <g id="text_18">
     <!-- Perfect Info -->
     <defs>
      <path d="M 19.671875 64.796875 
L 19.671875 37.40625 
L 32.078125 37.40625 
Q 38.96875 37.40625 42.71875 40.96875 
Q 46.484375 44.53125 46.484375 51.125 
Q 46.484375 57.671875 42.71875 61.234375 
Q 38.96875 64.796875 32.078125 64.796875 
z
M 9.8125 72.90625 
L 32.078125 72.90625 
Q 44.34375 72.90625 50.609375 67.359375 
Q 56.890625 61.8125 56.890625 51.125 
Q 56.890625 40.328125 50.609375 34.8125 
Q 44.34375 29.296875 32.078125 29.296875 
L 19.671875 29.296875 
L 19.671875 0 
L 9.8125 0 
z
" id="DejaVuSans-50"/>
      <path d="M 48.78125 52.59375 
L 48.78125 44.1875 
Q 44.96875 46.296875 41.140625 47.34375 
Q 37.3125 48.390625 33.40625 48.390625 
Q 24.65625 48.390625 19.8125 42.84375 
Q 14.984375 37.3125 14.984375 27.296875 
Q 14.984375 17.28125 19.8125 11.734375 
Q 24.65625 6.203125 33.40625 6.203125 
Q 37.3125 6.203125 41.140625 7.25 
Q 44.96875 8.296875 48.78125 10.40625 
L 48.78125 2.09375 
Q 45.015625 0.34375 40.984375 -0.53125 
Q 36.96875 -1.421875 32.421875 -1.421875 
Q 20.0625 -1.421875 12.78125 6.34375 
Q 5.515625 14.109375 5.515625 27.296875 
Q 5.515625 40.671875 12.859375 48.328125 
Q 20.21875 56 33.015625 56 
Q 37.15625 56 41.109375 55.140625 
Q 45.0625 54.296875 48.78125 52.59375 
" id="DejaVuSans-63"/>
      <path d="M 9.8125 72.90625 
L 19.671875 72.90625 
L 19.671875 0 
L 9.8125 0 
z
" id="DejaVuSans-49"/>
     </defs>
     <g transform="translate(323.921562 70.096437)scale(0.1 -0.1)">
      <use xlink:href="#DejaVuSans-50"/>
      <use x="60.255859" xlink:href="#DejaVuSans-65"/>
      <use x="121.779297" xlink:href="#DejaVuSans-72"/>
      <use x="162.892578" xlink:href="#DejaVuSans-66"/>
      <use x="198.097656" xlink:href="#DejaVuSans-65"/>
      <use x="259.621094" xlink:href="#DejaVuSans-63"/>
      <use x="314.601562" xlink:href="#DejaVuSans-74"/>
      <use x="353.810547" xlink:href="#DejaVuSans-20"/>
      <use x="385.597656" xlink:href="#DejaVuSans-49"/>
      <use x="415.089844" xlink:href="#DejaVuSans-6e"/>
      <use x="478.46875" xlink:href="#DejaVuSans-66"/>
      <use x="513.673828" xlink:href="#DejaVuSans-6f"/>
     </g>
    </g>
   </g>
  </g>
 </g>
 <defs>
  <clipPath id="p74c9333555">
   <rect height="266.112" width="357.12" x="33.2875" y="24.14175"/>
  </clipPath>
 </defs>
</svg>
