<?xml version="1.0" encoding="utf-8" standalone="no"?>
<!DOCTYPE svg PUBLIC "-//W3C//DTD SVG 1.1//EN"
  "http://www.w3.org/Graphics/SVG/1.1/DTD/svg11.dtd">
<!-- Created with matplotlib (http://matplotlib.org/) -->
<svg height="314pt" version="1.1" viewBox="0 0 401 314" width="401pt" xmlns="http://www.w3.org/2000/svg" xmlns:xlink="http://www.w3.org/1999/xlink">
 <defs>
  <style type="text/css">
*{stroke-linecap:butt;stroke-linejoin:round;}
  </style>
 </defs>
 <g id="figure_1">
  <g id="patch_1">
   <path d="M 0 314.131875 
L 401.1075 314.131875 
L 401.1075 0 
L 0 0 
z
" style="fill:#ffffff;"/>
  </g>
  <g id="axes_1">
   <g id="patch_2">
    <path d="M 33.2875 290.25375 
L 390.4075 290.25375 
L 390.4075 24.14175 
L 33.2875 24.14175 
z
" style="fill:#e5e5e5;"/>
   </g>
   <g id="matplotlib.axis_1">
    <g id="xtick_1">
     <g id="line2d_1">
      <path clip-path="url(#pa7caeb4521)" d="M 58.734686 290.25375 
L 58.734686 24.14175 
" style="fill:none;stroke:#ffffff;stroke-linecap:square;stroke-width:0.8;"/>
     </g>
     <g id="line2d_2">
      <defs>
       <path d="M 0 0 
L 0 3.5 
" id="mfe3480f38f" style="stroke:#555555;stroke-width:0.8;"/>
      </defs>
      <g>
       <use style="fill:#555555;stroke:#555555;stroke-width:0.8;" x="58.734686" xlink:href="#mfe3480f38f" y="290.25375"/>
      </g>
     </g>
     <g id="text_1">
      <!-- −0.100 -->
      <defs>
       <path d="M 10.59375 35.5 
L 73.1875 35.5 
L 73.1875 27.203125 
L 10.59375 27.203125 
z
" id="DejaVuSans-2212"/>
       <path d="M 31.78125 66.40625 
Q 24.171875 66.40625 20.328125 58.90625 
Q 16.5 51.421875 16.5 36.375 
Q 16.5 21.390625 20.328125 13.890625 
Q 24.171875 6.390625 31.78125 6.390625 
Q 39.453125 6.390625 43.28125 13.890625 
Q 47.125 21.390625 47.125 36.375 
Q 47.125 51.421875 43.28125 58.90625 
Q 39.453125 66.40625 31.78125 66.40625 
M 31.78125 74.21875 
Q 44.046875 74.21875 50.515625 64.515625 
Q 56.984375 54.828125 56.984375 36.375 
Q 56.984375 17.96875 50.515625 8.265625 
Q 44.046875 -1.421875 31.78125 -1.421875 
Q 19.53125 -1.421875 13.0625 8.265625 
Q 6.59375 17.96875 6.59375 36.375 
Q 6.59375 54.828125 13.0625 64.515625 
Q 19.53125 74.21875 31.78125 74.21875 
" id="DejaVuSans-30"/>
       <path d="M 10.6875 12.40625 
L 21 12.40625 
L 21 0 
L 10.6875 0 
z
" id="DejaVuSans-2e"/>
       <path d="M 12.40625 8.296875 
L 28.515625 8.296875 
L 28.515625 63.921875 
L 10.984375 60.40625 
L 10.984375 69.390625 
L 28.421875 72.90625 
L 38.28125 72.90625 
L 38.28125 8.296875 
L 54.390625 8.296875 
L 54.390625 0 
L 12.40625 0 
z
" id="DejaVuSans-31"/>
      </defs>
      <g style="fill:#555555;" transform="translate(40.23078 304.852187)scale(0.1 -0.1)">
       <use xlink:href="#DejaVuSans-2212"/>
       <use x="83.789062" xlink:href="#DejaVuSans-30"/>
       <use x="147.412109" xlink:href="#DejaVuSans-2e"/>
       <use x="179.199219" xlink:href="#DejaVuSans-31"/>
       <use x="242.822266" xlink:href="#DejaVuSans-30"/>
       <use x="306.445312" xlink:href="#DejaVuSans-30"/>
      </g>
     </g>
    </g>
    <g id="xtick_2">
     <g id="line2d_3">
      <path clip-path="url(#pa7caeb4521)" d="M 106.567947 290.25375 
L 106.567947 24.14175 
" style="fill:none;stroke:#ffffff;stroke-linecap:square;stroke-width:0.8;"/>
     </g>
     <g id="line2d_4">
      <g>
       <use style="fill:#555555;stroke:#555555;stroke-width:0.8;" x="106.567947" xlink:href="#mfe3480f38f" y="290.25375"/>
      </g>
     </g>
     <g id="text_2">
      <!-- −0.075 -->
      <defs>
       <path d="M 8.203125 72.90625 
L 55.078125 72.90625 
L 55.078125 68.703125 
L 28.609375 0 
L 18.3125 0 
L 43.21875 64.59375 
L 8.203125 64.59375 
z
" id="DejaVuSans-37"/>
       <path d="M 10.796875 72.90625 
L 49.515625 72.90625 
L 49.515625 64.59375 
L 19.828125 64.59375 
L 19.828125 46.734375 
Q 21.96875 47.46875 24.109375 47.828125 
Q 26.265625 48.1875 28.421875 48.1875 
Q 40.625 48.1875 47.75 41.5 
Q 54.890625 34.8125 54.890625 23.390625 
Q 54.890625 11.625 47.5625 5.09375 
Q 40.234375 -1.421875 26.90625 -1.421875 
Q 22.3125 -1.421875 17.546875 -0.640625 
Q 12.796875 0.140625 7.71875 1.703125 
L 7.71875 11.625 
Q 12.109375 9.234375 16.796875 8.0625 
Q 21.484375 6.890625 26.703125 6.890625 
Q 35.15625 6.890625 40.078125 11.328125 
Q 45.015625 15.765625 45.015625 23.390625 
Q 45.015625 31 40.078125 35.4375 
Q 35.15625 39.890625 26.703125 39.890625 
Q 22.75 39.890625 18.8125 39.015625 
Q 14.890625 38.140625 10.796875 36.28125 
z
" id="DejaVuSans-35"/>
      </defs>
      <g style="fill:#555555;" transform="translate(88.06404 304.852187)scale(0.1 -0.1)">
       <use xlink:href="#DejaVuSans-2212"/>
       <use x="83.789062" xlink:href="#DejaVuSans-30"/>
       <use x="147.412109" xlink:href="#DejaVuSans-2e"/>
       <use x="179.199219" xlink:href="#DejaVuSans-30"/>
       <use x="242.822266" xlink:href="#DejaVuSans-37"/>
       <use x="306.445312" xlink:href="#DejaVuSans-35"/>
      </g>
     </g>
    </g>
    <g id="xtick_3">
     <g id="line2d_5">
      <path clip-path="url(#pa7caeb4521)" d="M 154.401207 290.25375 
L 154.401207 24.14175 
" style="fill:none;stroke:#ffffff;stroke-linecap:square;stroke-width:0.8;"/>
     </g>
     <g id="line2d_6">
      <g>
       <use style="fill:#555555;stroke:#555555;stroke-width:0.8;" x="154.401207" xlink:href="#mfe3480f38f" y="290.25375"/>
      </g>
     </g>
     <g id="text_3">
      <!-- −0.050 -->
      <g style="fill:#555555;" transform="translate(135.897301 304.852187)scale(0.1 -0.1)">
       <use xlink:href="#DejaVuSans-2212"/>
       <use x="83.789062" xlink:href="#DejaVuSans-30"/>
       <use x="147.412109" xlink:href="#DejaVuSans-2e"/>
       <use x="179.199219" xlink:href="#DejaVuSans-30"/>
       <use x="242.822266" xlink:href="#DejaVuSans-35"/>
       <use x="306.445312" xlink:href="#DejaVuSans-30"/>
      </g>
     </g>
    </g>
    <g id="xtick_4">
     <g id="line2d_7">
      <path clip-path="url(#pa7caeb4521)" d="M 202.234468 290.25375 
L 202.234468 24.14175 
" style="fill:none;stroke:#ffffff;stroke-linecap:square;stroke-width:0.8;"/>
     </g>
     <g id="line2d_8">
      <g>
       <use style="fill:#555555;stroke:#555555;stroke-width:0.8;" x="202.234468" xlink:href="#mfe3480f38f" y="290.25375"/>
      </g>
     </g>
     <g id="text_4">
      <!-- −0.025 -->
      <defs>
       <path d="M 19.1875 8.296875 
L 53.609375 8.296875 
L 53.609375 0 
L 7.328125 0 
L 7.328125 8.296875 
Q 12.9375 14.109375 22.625 23.890625 
Q 32.328125 33.6875 34.8125 36.53125 
Q 39.546875 41.84375 41.421875 45.53125 
Q 43.3125 49.21875 43.3125 52.78125 
Q 43.3125 58.59375 39.234375 62.25 
Q 35.15625 65.921875 28.609375 65.921875 
Q 23.96875 65.921875 18.8125 64.3125 
Q 13.671875 62.703125 7.8125 59.421875 
L 7.8125 69.390625 
Q 13.765625 71.78125 18.9375 73 
Q 24.125 74.21875 28.421875 74.21875 
Q 39.75 74.21875 46.484375 68.546875 
Q 53.21875 62.890625 53.21875 53.421875 
Q 53.21875 48.921875 51.53125 44.890625 
Q 49.859375 40.875 45.40625 35.40625 
Q 44.1875 33.984375 37.640625 27.21875 
Q 31.109375 20.453125 19.1875 8.296875 
" id="DejaVuSans-32"/>
      </defs>
      <g style="fill:#555555;" transform="translate(183.730562 304.852187)scale(0.1 -0.1)">
       <use xlink:href="#DejaVuSans-2212"/>
       <use x="83.789062" xlink:href="#DejaVuSans-30"/>
       <use x="147.412109" xlink:href="#DejaVuSans-2e"/>
       <use x="179.199219" xlink:href="#DejaVuSans-30"/>
       <use x="242.822266" xlink:href="#DejaVuSans-32"/>
       <use x="306.445312" xlink:href="#DejaVuSans-35"/>
      </g>
     </g>
    </g>
    <g id="xtick_5">
     <g id="line2d_9">
      <path clip-path="url(#pa7caeb4521)" d="M 250.067729 290.25375 
L 250.067729 24.14175 
" style="fill:none;stroke:#ffffff;stroke-linecap:square;stroke-width:0.8;"/>
     </g>
     <g id="line2d_10">
      <g>
       <use style="fill:#555555;stroke:#555555;stroke-width:0.8;" x="250.067729" xlink:href="#mfe3480f38f" y="290.25375"/>
      </g>
     </g>
     <g id="text_5">
      <!-- 0.000 -->
      <g style="fill:#555555;" transform="translate(235.753666 304.852187)scale(0.1 -0.1)">
       <use xlink:href="#DejaVuSans-30"/>
       <use x="63.623047" xlink:href="#DejaVuSans-2e"/>
       <use x="95.410156" xlink:href="#DejaVuSans-30"/>
       <use x="159.033203" xlink:href="#DejaVuSans-30"/>
       <use x="222.65625" xlink:href="#DejaVuSans-30"/>
      </g>
     </g>
    </g>
    <g id="xtick_6">
     <g id="line2d_11">
      <path clip-path="url(#pa7caeb4521)" d="M 297.900989 290.25375 
L 297.900989 24.14175 
" style="fill:none;stroke:#ffffff;stroke-linecap:square;stroke-width:0.8;"/>
     </g>
     <g id="line2d_12">
      <g>
       <use style="fill:#555555;stroke:#555555;stroke-width:0.8;" x="297.900989" xlink:href="#mfe3480f38f" y="290.25375"/>
      </g>
     </g>
     <g id="text_6">
      <!-- 0.025 -->
      <g style="fill:#555555;" transform="translate(283.586927 304.852187)scale(0.1 -0.1)">
       <use xlink:href="#DejaVuSans-30"/>
       <use x="63.623047" xlink:href="#DejaVuSans-2e"/>
       <use x="95.410156" xlink:href="#DejaVuSans-30"/>
       <use x="159.033203" xlink:href="#DejaVuSans-32"/>
       <use x="222.65625" xlink:href="#DejaVuSans-35"/>
      </g>
     </g>
    </g>
    <g id="xtick_7">
     <g id="line2d_13">
      <path clip-path="url(#pa7caeb4521)" d="M 345.73425 290.25375 
L 345.73425 24.14175 
" style="fill:none;stroke:#ffffff;stroke-linecap:square;stroke-width:0.8;"/>
     </g>
     <g id="line2d_14">
      <g>
       <use style="fill:#555555;stroke:#555555;stroke-width:0.8;" x="345.73425" xlink:href="#mfe3480f38f" y="290.25375"/>
      </g>
     </g>
     <g id="text_7">
      <!-- 0.050 -->
      <g style="fill:#555555;" transform="translate(331.420187 304.852187)scale(0.1 -0.1)">
       <use xlink:href="#DejaVuSans-30"/>
       <use x="63.623047" xlink:href="#DejaVuSans-2e"/>
       <use x="95.410156" xlink:href="#DejaVuSans-30"/>
       <use x="159.033203" xlink:href="#DejaVuSans-35"/>
       <use x="222.65625" xlink:href="#DejaVuSans-30"/>
      </g>
     </g>
    </g>
   </g>
   <g id="matplotlib.axis_2">
    <g id="ytick_1">
     <g id="line2d_15">
      <path clip-path="url(#pa7caeb4521)" d="M 33.2875 290.25375 
L 390.4075 290.25375 
" style="fill:none;stroke:#ffffff;stroke-linecap:square;stroke-width:0.8;"/>
     </g>
     <g id="line2d_16">
      <defs>
       <path d="M 0 0 
L -3.5 0 
" id="md3aabebf21" style="stroke:#555555;stroke-width:0.8;"/>
      </defs>
      <g>
       <use style="fill:#555555;stroke:#555555;stroke-width:0.8;" x="33.2875" xlink:href="#md3aabebf21" y="290.25375"/>
      </g>
     </g>
     <g id="text_8">
      <!-- 0 -->
      <g style="fill:#555555;" transform="translate(19.925 294.052969)scale(0.1 -0.1)">
       <use xlink:href="#DejaVuSans-30"/>
      </g>
     </g>
    </g>
    <g id="ytick_2">
     <g id="line2d_17">
      <path clip-path="url(#pa7caeb4521)" d="M 33.2875 244.996607 
L 390.4075 244.996607 
" style="fill:none;stroke:#ffffff;stroke-linecap:square;stroke-width:0.8;"/>
     </g>
     <g id="line2d_18">
      <g>
       <use style="fill:#555555;stroke:#555555;stroke-width:0.8;" x="33.2875" xlink:href="#md3aabebf21" y="244.996607"/>
      </g>
     </g>
     <g id="text_9">
      <!-- 20 -->
      <g style="fill:#555555;" transform="translate(13.5625 248.795826)scale(0.1 -0.1)">
       <use xlink:href="#DejaVuSans-32"/>
       <use x="63.623047" xlink:href="#DejaVuSans-30"/>
      </g>
     </g>
    </g>
    <g id="ytick_3">
     <g id="line2d_19">
      <path clip-path="url(#pa7caeb4521)" d="M 33.2875 199.739464 
L 390.4075 199.739464 
" style="fill:none;stroke:#ffffff;stroke-linecap:square;stroke-width:0.8;"/>
     </g>
     <g id="line2d_20">
      <g>
       <use style="fill:#555555;stroke:#555555;stroke-width:0.8;" x="33.2875" xlink:href="#md3aabebf21" y="199.739464"/>
      </g>
     </g>
     <g id="text_10">
      <!-- 40 -->
      <defs>
       <path d="M 37.796875 64.3125 
L 12.890625 25.390625 
L 37.796875 25.390625 
z
M 35.203125 72.90625 
L 47.609375 72.90625 
L 47.609375 25.390625 
L 58.015625 25.390625 
L 58.015625 17.1875 
L 47.609375 17.1875 
L 47.609375 0 
L 37.796875 0 
L 37.796875 17.1875 
L 4.890625 17.1875 
L 4.890625 26.703125 
z
" id="DejaVuSans-34"/>
      </defs>
      <g style="fill:#555555;" transform="translate(13.5625 203.538683)scale(0.1 -0.1)">
       <use xlink:href="#DejaVuSans-34"/>
       <use x="63.623047" xlink:href="#DejaVuSans-30"/>
      </g>
     </g>
    </g>
    <g id="ytick_4">
     <g id="line2d_21">
      <path clip-path="url(#pa7caeb4521)" d="M 33.2875 154.482321 
L 390.4075 154.482321 
" style="fill:none;stroke:#ffffff;stroke-linecap:square;stroke-width:0.8;"/>
     </g>
     <g id="line2d_22">
      <g>
       <use style="fill:#555555;stroke:#555555;stroke-width:0.8;" x="33.2875" xlink:href="#md3aabebf21" y="154.482321"/>
      </g>
     </g>
     <g id="text_11">
      <!-- 60 -->
      <defs>
       <path d="M 33.015625 40.375 
Q 26.375 40.375 22.484375 35.828125 
Q 18.609375 31.296875 18.609375 23.390625 
Q 18.609375 15.53125 22.484375 10.953125 
Q 26.375 6.390625 33.015625 6.390625 
Q 39.65625 6.390625 43.53125 10.953125 
Q 47.40625 15.53125 47.40625 23.390625 
Q 47.40625 31.296875 43.53125 35.828125 
Q 39.65625 40.375 33.015625 40.375 
M 52.59375 71.296875 
L 52.59375 62.3125 
Q 48.875 64.0625 45.09375 64.984375 
Q 41.3125 65.921875 37.59375 65.921875 
Q 27.828125 65.921875 22.671875 59.328125 
Q 17.53125 52.734375 16.796875 39.40625 
Q 19.671875 43.65625 24.015625 45.921875 
Q 28.375 48.1875 33.59375 48.1875 
Q 44.578125 48.1875 50.953125 41.515625 
Q 57.328125 34.859375 57.328125 23.390625 
Q 57.328125 12.15625 50.6875 5.359375 
Q 44.046875 -1.421875 33.015625 -1.421875 
Q 20.359375 -1.421875 13.671875 8.265625 
Q 6.984375 17.96875 6.984375 36.375 
Q 6.984375 53.65625 15.1875 63.9375 
Q 23.390625 74.21875 37.203125 74.21875 
Q 40.921875 74.21875 44.703125 73.484375 
Q 48.484375 72.75 52.59375 71.296875 
" id="DejaVuSans-36"/>
      </defs>
      <g style="fill:#555555;" transform="translate(13.5625 158.28154)scale(0.1 -0.1)">
       <use xlink:href="#DejaVuSans-36"/>
       <use x="63.623047" xlink:href="#DejaVuSans-30"/>
      </g>
     </g>
    </g>
    <g id="ytick_5">
     <g id="line2d_23">
      <path clip-path="url(#pa7caeb4521)" d="M 33.2875 109.225179 
L 390.4075 109.225179 
" style="fill:none;stroke:#ffffff;stroke-linecap:square;stroke-width:0.8;"/>
     </g>
     <g id="line2d_24">
      <g>
       <use style="fill:#555555;stroke:#555555;stroke-width:0.8;" x="33.2875" xlink:href="#md3aabebf21" y="109.225179"/>
      </g>
     </g>
     <g id="text_12">
      <!-- 80 -->
      <defs>
       <path d="M 31.78125 34.625 
Q 24.75 34.625 20.71875 30.859375 
Q 16.703125 27.09375 16.703125 20.515625 
Q 16.703125 13.921875 20.71875 10.15625 
Q 24.75 6.390625 31.78125 6.390625 
Q 38.8125 6.390625 42.859375 10.171875 
Q 46.921875 13.96875 46.921875 20.515625 
Q 46.921875 27.09375 42.890625 30.859375 
Q 38.875 34.625 31.78125 34.625 
M 21.921875 38.8125 
Q 15.578125 40.375 12.03125 44.71875 
Q 8.5 49.078125 8.5 55.328125 
Q 8.5 64.0625 14.71875 69.140625 
Q 20.953125 74.21875 31.78125 74.21875 
Q 42.671875 74.21875 48.875 69.140625 
Q 55.078125 64.0625 55.078125 55.328125 
Q 55.078125 49.078125 51.53125 44.71875 
Q 48 40.375 41.703125 38.8125 
Q 48.828125 37.15625 52.796875 32.3125 
Q 56.78125 27.484375 56.78125 20.515625 
Q 56.78125 9.90625 50.3125 4.234375 
Q 43.84375 -1.421875 31.78125 -1.421875 
Q 19.734375 -1.421875 13.25 4.234375 
Q 6.78125 9.90625 6.78125 20.515625 
Q 6.78125 27.484375 10.78125 32.3125 
Q 14.796875 37.15625 21.921875 38.8125 
M 18.3125 54.390625 
Q 18.3125 48.734375 21.84375 45.5625 
Q 25.390625 42.390625 31.78125 42.390625 
Q 38.140625 42.390625 41.71875 45.5625 
Q 45.3125 48.734375 45.3125 54.390625 
Q 45.3125 60.0625 41.71875 63.234375 
Q 38.140625 66.40625 31.78125 66.40625 
Q 25.390625 66.40625 21.84375 63.234375 
Q 18.3125 60.0625 18.3125 54.390625 
" id="DejaVuSans-38"/>
      </defs>
      <g style="fill:#555555;" transform="translate(13.5625 113.024397)scale(0.1 -0.1)">
       <use xlink:href="#DejaVuSans-38"/>
       <use x="63.623047" xlink:href="#DejaVuSans-30"/>
      </g>
     </g>
    </g>
    <g id="ytick_6">
     <g id="line2d_25">
      <path clip-path="url(#pa7caeb4521)" d="M 33.2875 63.968036 
L 390.4075 63.968036 
" style="fill:none;stroke:#ffffff;stroke-linecap:square;stroke-width:0.8;"/>
     </g>
     <g id="line2d_26">
      <g>
       <use style="fill:#555555;stroke:#555555;stroke-width:0.8;" x="33.2875" xlink:href="#md3aabebf21" y="63.968036"/>
      </g>
     </g>
     <g id="text_13">
      <!-- 100 -->
      <g style="fill:#555555;" transform="translate(7.2 67.767254)scale(0.1 -0.1)">
       <use xlink:href="#DejaVuSans-31"/>
       <use x="63.623047" xlink:href="#DejaVuSans-30"/>
       <use x="127.246094" xlink:href="#DejaVuSans-30"/>
      </g>
     </g>
    </g>
   </g>
   <g id="patch_3">
    <path clip-path="url(#pa7caeb4521)" d="M 171.998773 290.25375 
L 175.152932 290.25375 
L 175.152932 287.990893 
L 171.998773 287.990893 
z
" style="fill:#e24a33;opacity:0.5;"/>
   </g>
   <g id="patch_4">
    <path clip-path="url(#pa7caeb4521)" d="M 175.152932 290.25375 
L 178.307091 290.25375 
L 178.307091 290.25375 
L 175.152932 290.25375 
z
" style="fill:#e24a33;opacity:0.5;"/>
   </g>
   <g id="patch_5">
    <path clip-path="url(#pa7caeb4521)" d="M 178.307091 290.25375 
L 181.461251 290.25375 
L 181.461251 290.25375 
L 178.307091 290.25375 
z
" style="fill:#e24a33;opacity:0.5;"/>
   </g>
   <g id="patch_6">
    <path clip-path="url(#pa7caeb4521)" d="M 181.461251 290.25375 
L 184.61541 290.25375 
L 184.61541 290.25375 
L 181.461251 290.25375 
z
" style="fill:#e24a33;opacity:0.5;"/>
   </g>
   <g id="patch_7">
    <path clip-path="url(#pa7caeb4521)" d="M 184.61541 290.25375 
L 187.769569 290.25375 
L 187.769569 290.25375 
L 184.61541 290.25375 
z
" style="fill:#e24a33;opacity:0.5;"/>
   </g>
   <g id="patch_8">
    <path clip-path="url(#pa7caeb4521)" d="M 187.769569 290.25375 
L 190.923728 290.25375 
L 190.923728 285.728036 
L 187.769569 285.728036 
z
" style="fill:#e24a33;opacity:0.5;"/>
   </g>
   <g id="patch_9">
    <path clip-path="url(#pa7caeb4521)" d="M 190.923728 290.25375 
L 194.077887 290.25375 
L 194.077887 283.465179 
L 190.923728 283.465179 
z
" style="fill:#e24a33;opacity:0.5;"/>
   </g>
   <g id="patch_10">
    <path clip-path="url(#pa7caeb4521)" d="M 194.077887 290.25375 
L 197.232046 290.25375 
L 197.232046 285.728036 
L 194.077887 285.728036 
z
" style="fill:#e24a33;opacity:0.5;"/>
   </g>
   <g id="patch_11">
    <path clip-path="url(#pa7caeb4521)" d="M 197.232046 290.25375 
L 200.386206 290.25375 
L 200.386206 285.728036 
L 197.232046 285.728036 
z
" style="fill:#e24a33;opacity:0.5;"/>
   </g>
   <g id="patch_12">
    <path clip-path="url(#pa7caeb4521)" d="M 200.386206 290.25375 
L 203.540365 290.25375 
L 203.540365 281.202321 
L 200.386206 281.202321 
z
" style="fill:#e24a33;opacity:0.5;"/>
   </g>
   <g id="patch_13">
    <path clip-path="url(#pa7caeb4521)" d="M 203.540365 290.25375 
L 206.694524 290.25375 
L 206.694524 272.150893 
L 203.540365 272.150893 
z
" style="fill:#e24a33;opacity:0.5;"/>
   </g>
   <g id="patch_14">
    <path clip-path="url(#pa7caeb4521)" d="M 206.694524 290.25375 
L 209.848683 290.25375 
L 209.848683 263.099464 
L 206.694524 263.099464 
z
" style="fill:#e24a33;opacity:0.5;"/>
   </g>
   <g id="patch_15">
    <path clip-path="url(#pa7caeb4521)" d="M 209.848683 290.25375 
L 213.002842 290.25375 
L 213.002842 265.362321 
L 209.848683 265.362321 
z
" style="fill:#e24a33;opacity:0.5;"/>
   </g>
   <g id="patch_16">
    <path clip-path="url(#pa7caeb4521)" d="M 213.002842 290.25375 
L 216.157001 290.25375 
L 216.157001 244.996607 
L 213.002842 244.996607 
z
" style="fill:#e24a33;opacity:0.5;"/>
   </g>
   <g id="patch_17">
    <path clip-path="url(#pa7caeb4521)" d="M 216.157001 290.25375 
L 219.31116 290.25375 
L 219.31116 233.682321 
L 216.157001 233.682321 
z
" style="fill:#e24a33;opacity:0.5;"/>
   </g>
   <g id="patch_18">
    <path clip-path="url(#pa7caeb4521)" d="M 219.31116 290.25375 
L 222.46532 290.25375 
L 222.46532 233.682321 
L 219.31116 233.682321 
z
" style="fill:#e24a33;opacity:0.5;"/>
   </g>
   <g id="patch_19">
    <path clip-path="url(#pa7caeb4521)" d="M 222.46532 290.25375 
L 225.619479 290.25375 
L 225.619479 226.89375 
L 222.46532 226.89375 
z
" style="fill:#e24a33;opacity:0.5;"/>
   </g>
   <g id="patch_20">
    <path clip-path="url(#pa7caeb4521)" d="M 225.619479 290.25375 
L 228.773638 290.25375 
L 228.773638 217.842321 
L 225.619479 217.842321 
z
" style="fill:#e24a33;opacity:0.5;"/>
   </g>
   <g id="patch_21">
    <path clip-path="url(#pa7caeb4521)" d="M 228.773638 290.25375 
L 231.927797 290.25375 
L 231.927797 215.579464 
L 228.773638 215.579464 
z
" style="fill:#e24a33;opacity:0.5;"/>
   </g>
   <g id="patch_22">
    <path clip-path="url(#pa7caeb4521)" d="M 231.927797 290.25375 
L 235.081956 290.25375 
L 235.081956 186.162321 
L 231.927797 186.162321 
z
" style="fill:#e24a33;opacity:0.5;"/>
   </g>
   <g id="patch_23">
    <path clip-path="url(#pa7caeb4521)" d="M 235.081956 290.25375 
L 238.236115 290.25375 
L 238.236115 204.265179 
L 235.081956 204.265179 
z
" style="fill:#e24a33;opacity:0.5;"/>
   </g>
   <g id="patch_24">
    <path clip-path="url(#pa7caeb4521)" d="M 238.236115 290.25375 
L 241.390275 290.25375 
L 241.390275 170.322321 
L 238.236115 170.322321 
z
" style="fill:#e24a33;opacity:0.5;"/>
   </g>
   <g id="patch_25">
    <path clip-path="url(#pa7caeb4521)" d="M 241.390275 290.25375 
L 244.544434 290.25375 
L 244.544434 149.956607 
L 241.390275 149.956607 
z
" style="fill:#e24a33;opacity:0.5;"/>
   </g>
   <g id="patch_26">
    <path clip-path="url(#pa7caeb4521)" d="M 244.544434 290.25375 
L 247.698593 290.25375 
L 247.698593 170.322321 
L 244.544434 170.322321 
z
" style="fill:#e24a33;opacity:0.5;"/>
   </g>
   <g id="patch_27">
    <path clip-path="url(#pa7caeb4521)" d="M 247.698593 290.25375 
L 250.852752 290.25375 
L 250.852752 134.116607 
L 247.698593 134.116607 
z
" style="fill:#e24a33;opacity:0.5;"/>
   </g>
   <g id="patch_28">
    <path clip-path="url(#pa7caeb4521)" d="M 250.852752 290.25375 
L 254.006911 290.25375 
L 254.006911 197.476607 
L 250.852752 197.476607 
z
" style="fill:#e24a33;opacity:0.5;"/>
   </g>
   <g id="patch_29">
    <path clip-path="url(#pa7caeb4521)" d="M 254.006911 290.25375 
L 257.16107 290.25375 
L 257.16107 149.956607 
L 254.006911 149.956607 
z
" style="fill:#e24a33;opacity:0.5;"/>
   </g>
   <g id="patch_30">
    <path clip-path="url(#pa7caeb4521)" d="M 257.16107 290.25375 
L 260.315229 290.25375 
L 260.315229 129.590893 
L 257.16107 129.590893 
z
" style="fill:#e24a33;opacity:0.5;"/>
   </g>
   <g id="patch_31">
    <path clip-path="url(#pa7caeb4521)" d="M 260.315229 290.25375 
L 263.469389 290.25375 
L 263.469389 156.745179 
L 260.315229 156.745179 
z
" style="fill:#e24a33;opacity:0.5;"/>
   </g>
   <g id="patch_32">
    <path clip-path="url(#pa7caeb4521)" d="M 263.469389 290.25375 
L 266.623548 290.25375 
L 266.623548 177.110893 
L 263.469389 177.110893 
z
" style="fill:#e24a33;opacity:0.5;"/>
   </g>
   <g id="patch_33">
    <path clip-path="url(#pa7caeb4521)" d="M 266.623548 290.25375 
L 269.777707 290.25375 
L 269.777707 183.899464 
L 266.623548 183.899464 
z
" style="fill:#e24a33;opacity:0.5;"/>
   </g>
   <g id="patch_34">
    <path clip-path="url(#pa7caeb4521)" d="M 269.777707 290.25375 
L 272.931866 290.25375 
L 272.931866 197.476607 
L 269.777707 197.476607 
z
" style="fill:#e24a33;opacity:0.5;"/>
   </g>
   <g id="patch_35">
    <path clip-path="url(#pa7caeb4521)" d="M 272.931866 290.25375 
L 276.086025 290.25375 
L 276.086025 211.05375 
L 272.931866 211.05375 
z
" style="fill:#e24a33;opacity:0.5;"/>
   </g>
   <g id="patch_36">
    <path clip-path="url(#pa7caeb4521)" d="M 276.086025 290.25375 
L 279.240184 290.25375 
L 279.240184 251.785179 
L 276.086025 251.785179 
z
" style="fill:#e24a33;opacity:0.5;"/>
   </g>
   <g id="patch_37">
    <path clip-path="url(#pa7caeb4521)" d="M 279.240184 290.25375 
L 282.394344 290.25375 
L 282.394344 256.310893 
L 279.240184 256.310893 
z
" style="fill:#e24a33;opacity:0.5;"/>
   </g>
   <g id="patch_38">
    <path clip-path="url(#pa7caeb4521)" d="M 282.394344 290.25375 
L 285.548503 290.25375 
L 285.548503 267.625179 
L 282.394344 267.625179 
z
" style="fill:#e24a33;opacity:0.5;"/>
   </g>
   <g id="patch_39">
    <path clip-path="url(#pa7caeb4521)" d="M 285.548503 290.25375 
L 288.702662 290.25375 
L 288.702662 258.57375 
L 285.548503 258.57375 
z
" style="fill:#e24a33;opacity:0.5;"/>
   </g>
   <g id="patch_40">
    <path clip-path="url(#pa7caeb4521)" d="M 288.702662 290.25375 
L 291.856821 290.25375 
L 291.856821 283.465179 
L 288.702662 283.465179 
z
" style="fill:#e24a33;opacity:0.5;"/>
   </g>
   <g id="patch_41">
    <path clip-path="url(#pa7caeb4521)" d="M 291.856821 290.25375 
L 295.01098 290.25375 
L 295.01098 283.465179 
L 291.856821 283.465179 
z
" style="fill:#e24a33;opacity:0.5;"/>
   </g>
   <g id="patch_42">
    <path clip-path="url(#pa7caeb4521)" d="M 295.01098 290.25375 
L 298.165139 290.25375 
L 298.165139 281.202321 
L 295.01098 281.202321 
z
" style="fill:#e24a33;opacity:0.5;"/>
   </g>
   <g id="patch_43">
    <path clip-path="url(#pa7caeb4521)" d="M 298.165139 290.25375 
L 301.319299 290.25375 
L 301.319299 290.25375 
L 298.165139 290.25375 
z
" style="fill:#e24a33;opacity:0.5;"/>
   </g>
   <g id="patch_44">
    <path clip-path="url(#pa7caeb4521)" d="M 301.319299 290.25375 
L 304.473458 290.25375 
L 304.473458 287.990893 
L 301.319299 287.990893 
z
" style="fill:#e24a33;opacity:0.5;"/>
   </g>
   <g id="patch_45">
    <path clip-path="url(#pa7caeb4521)" d="M 304.473458 290.25375 
L 307.627617 290.25375 
L 307.627617 290.25375 
L 304.473458 290.25375 
z
" style="fill:#e24a33;opacity:0.5;"/>
   </g>
   <g id="patch_46">
    <path clip-path="url(#pa7caeb4521)" d="M 307.627617 290.25375 
L 310.781776 290.25375 
L 310.781776 290.25375 
L 307.627617 290.25375 
z
" style="fill:#e24a33;opacity:0.5;"/>
   </g>
   <g id="patch_47">
    <path clip-path="url(#pa7caeb4521)" d="M 310.781776 290.25375 
L 313.935935 290.25375 
L 313.935935 290.25375 
L 310.781776 290.25375 
z
" style="fill:#e24a33;opacity:0.5;"/>
   </g>
   <g id="patch_48">
    <path clip-path="url(#pa7caeb4521)" d="M 313.935935 290.25375 
L 317.090094 290.25375 
L 317.090094 290.25375 
L 313.935935 290.25375 
z
" style="fill:#e24a33;opacity:0.5;"/>
   </g>
   <g id="patch_49">
    <path clip-path="url(#pa7caeb4521)" d="M 317.090094 290.25375 
L 320.244253 290.25375 
L 320.244253 290.25375 
L 317.090094 290.25375 
z
" style="fill:#e24a33;opacity:0.5;"/>
   </g>
   <g id="patch_50">
    <path clip-path="url(#pa7caeb4521)" d="M 320.244253 290.25375 
L 323.398413 290.25375 
L 323.398413 290.25375 
L 320.244253 290.25375 
z
" style="fill:#e24a33;opacity:0.5;"/>
   </g>
   <g id="patch_51">
    <path clip-path="url(#pa7caeb4521)" d="M 323.398413 290.25375 
L 326.552572 290.25375 
L 326.552572 290.25375 
L 323.398413 290.25375 
z
" style="fill:#e24a33;opacity:0.5;"/>
   </g>
   <g id="patch_52">
    <path clip-path="url(#pa7caeb4521)" d="M 326.552572 290.25375 
L 329.706731 290.25375 
L 329.706731 287.990893 
L 326.552572 287.990893 
z
" style="fill:#e24a33;opacity:0.5;"/>
   </g>
   <g id="patch_53">
    <path clip-path="url(#pa7caeb4521)" d="M 49.520227 290.25375 
L 56.013318 290.25375 
L 56.013318 287.990893 
L 49.520227 287.990893 
z
" style="fill:#348abd;opacity:0.5;"/>
   </g>
   <g id="patch_54">
    <path clip-path="url(#pa7caeb4521)" d="M 56.013318 290.25375 
L 62.506409 290.25375 
L 62.506409 290.25375 
L 56.013318 290.25375 
z
" style="fill:#348abd;opacity:0.5;"/>
   </g>
   <g id="patch_55">
    <path clip-path="url(#pa7caeb4521)" d="M 62.506409 290.25375 
L 68.9995 290.25375 
L 68.9995 290.25375 
L 62.506409 290.25375 
z
" style="fill:#348abd;opacity:0.5;"/>
   </g>
   <g id="patch_56">
    <path clip-path="url(#pa7caeb4521)" d="M 68.9995 290.25375 
L 75.492591 290.25375 
L 75.492591 290.25375 
L 68.9995 290.25375 
z
" style="fill:#348abd;opacity:0.5;"/>
   </g>
   <g id="patch_57">
    <path clip-path="url(#pa7caeb4521)" d="M 75.492591 290.25375 
L 81.985682 290.25375 
L 81.985682 290.25375 
L 75.492591 290.25375 
z
" style="fill:#348abd;opacity:0.5;"/>
   </g>
   <g id="patch_58">
    <path clip-path="url(#pa7caeb4521)" d="M 81.985682 290.25375 
L 88.478773 290.25375 
L 88.478773 287.990893 
L 81.985682 287.990893 
z
" style="fill:#348abd;opacity:0.5;"/>
   </g>
   <g id="patch_59">
    <path clip-path="url(#pa7caeb4521)" d="M 88.478773 290.25375 
L 94.971864 290.25375 
L 94.971864 290.25375 
L 88.478773 290.25375 
z
" style="fill:#348abd;opacity:0.5;"/>
   </g>
   <g id="patch_60">
    <path clip-path="url(#pa7caeb4521)" d="M 94.971864 290.25375 
L 101.464955 290.25375 
L 101.464955 290.25375 
L 94.971864 290.25375 
z
" style="fill:#348abd;opacity:0.5;"/>
   </g>
   <g id="patch_61">
    <path clip-path="url(#pa7caeb4521)" d="M 101.464955 290.25375 
L 107.958045 290.25375 
L 107.958045 285.728036 
L 101.464955 285.728036 
z
" style="fill:#348abd;opacity:0.5;"/>
   </g>
   <g id="patch_62">
    <path clip-path="url(#pa7caeb4521)" d="M 107.958045 290.25375 
L 114.451136 290.25375 
L 114.451136 290.25375 
L 107.958045 290.25375 
z
" style="fill:#348abd;opacity:0.5;"/>
   </g>
   <g id="patch_63">
    <path clip-path="url(#pa7caeb4521)" d="M 114.451136 290.25375 
L 120.944227 290.25375 
L 120.944227 287.990893 
L 114.451136 287.990893 
z
" style="fill:#348abd;opacity:0.5;"/>
   </g>
   <g id="patch_64">
    <path clip-path="url(#pa7caeb4521)" d="M 120.944227 290.25375 
L 127.437318 290.25375 
L 127.437318 290.25375 
L 120.944227 290.25375 
z
" style="fill:#348abd;opacity:0.5;"/>
   </g>
   <g id="patch_65">
    <path clip-path="url(#pa7caeb4521)" d="M 127.437318 290.25375 
L 133.930409 290.25375 
L 133.930409 287.990893 
L 127.437318 287.990893 
z
" style="fill:#348abd;opacity:0.5;"/>
   </g>
   <g id="patch_66">
    <path clip-path="url(#pa7caeb4521)" d="M 133.930409 290.25375 
L 140.4235 290.25375 
L 140.4235 285.728036 
L 133.930409 285.728036 
z
" style="fill:#348abd;opacity:0.5;"/>
   </g>
   <g id="patch_67">
    <path clip-path="url(#pa7caeb4521)" d="M 140.4235 290.25375 
L 146.916591 290.25375 
L 146.916591 290.25375 
L 140.4235 290.25375 
z
" style="fill:#348abd;opacity:0.5;"/>
   </g>
   <g id="patch_68">
    <path clip-path="url(#pa7caeb4521)" d="M 146.916591 290.25375 
L 153.409682 290.25375 
L 153.409682 290.25375 
L 146.916591 290.25375 
z
" style="fill:#348abd;opacity:0.5;"/>
   </g>
   <g id="patch_69">
    <path clip-path="url(#pa7caeb4521)" d="M 153.409682 290.25375 
L 159.902773 290.25375 
L 159.902773 287.990893 
L 153.409682 287.990893 
z
" style="fill:#348abd;opacity:0.5;"/>
   </g>
   <g id="patch_70">
    <path clip-path="url(#pa7caeb4521)" d="M 159.902773 290.25375 
L 166.395864 290.25375 
L 166.395864 287.990893 
L 159.902773 287.990893 
z
" style="fill:#348abd;opacity:0.5;"/>
   </g>
   <g id="patch_71">
    <path clip-path="url(#pa7caeb4521)" d="M 166.395864 290.25375 
L 172.888955 290.25375 
L 172.888955 285.728036 
L 166.395864 285.728036 
z
" style="fill:#348abd;opacity:0.5;"/>
   </g>
   <g id="patch_72">
    <path clip-path="url(#pa7caeb4521)" d="M 172.888955 290.25375 
L 179.382045 290.25375 
L 179.382045 283.465179 
L 172.888955 283.465179 
z
" style="fill:#348abd;opacity:0.5;"/>
   </g>
   <g id="patch_73">
    <path clip-path="url(#pa7caeb4521)" d="M 179.382045 290.25375 
L 185.875136 290.25375 
L 185.875136 274.41375 
L 179.382045 274.41375 
z
" style="fill:#348abd;opacity:0.5;"/>
   </g>
   <g id="patch_74">
    <path clip-path="url(#pa7caeb4521)" d="M 185.875136 290.25375 
L 192.368227 290.25375 
L 192.368227 263.099464 
L 185.875136 263.099464 
z
" style="fill:#348abd;opacity:0.5;"/>
   </g>
   <g id="patch_75">
    <path clip-path="url(#pa7caeb4521)" d="M 192.368227 290.25375 
L 198.861318 290.25375 
L 198.861318 278.939464 
L 192.368227 278.939464 
z
" style="fill:#348abd;opacity:0.5;"/>
   </g>
   <g id="patch_76">
    <path clip-path="url(#pa7caeb4521)" d="M 198.861318 290.25375 
L 205.354409 290.25375 
L 205.354409 258.57375 
L 198.861318 258.57375 
z
" style="fill:#348abd;opacity:0.5;"/>
   </g>
   <g id="patch_77">
    <path clip-path="url(#pa7caeb4521)" d="M 205.354409 290.25375 
L 211.8475 290.25375 
L 211.8475 238.208036 
L 205.354409 238.208036 
z
" style="fill:#348abd;opacity:0.5;"/>
   </g>
   <g id="patch_78">
    <path clip-path="url(#pa7caeb4521)" d="M 211.8475 290.25375 
L 218.340591 290.25375 
L 218.340591 233.682321 
L 211.8475 233.682321 
z
" style="fill:#348abd;opacity:0.5;"/>
   </g>
   <g id="patch_79">
    <path clip-path="url(#pa7caeb4521)" d="M 218.340591 290.25375 
L 224.833682 290.25375 
L 224.833682 165.796607 
L 218.340591 165.796607 
z
" style="fill:#348abd;opacity:0.5;"/>
   </g>
   <g id="patch_80">
    <path clip-path="url(#pa7caeb4521)" d="M 224.833682 290.25375 
L 231.326773 290.25375 
L 231.326773 102.436607 
L 224.833682 102.436607 
z
" style="fill:#348abd;opacity:0.5;"/>
   </g>
   <g id="patch_81">
    <path clip-path="url(#pa7caeb4521)" d="M 231.326773 290.25375 
L 237.819864 290.25375 
L 237.819864 149.956607 
L 231.326773 149.956607 
z
" style="fill:#348abd;opacity:0.5;"/>
   </g>
   <g id="patch_82">
    <path clip-path="url(#pa7caeb4521)" d="M 237.819864 290.25375 
L 244.312955 290.25375 
L 244.312955 84.33375 
L 237.819864 84.33375 
z
" style="fill:#348abd;opacity:0.5;"/>
   </g>
   <g id="patch_83">
    <path clip-path="url(#pa7caeb4521)" d="M 244.312955 290.25375 
L 250.806045 290.25375 
L 250.806045 97.910893 
L 244.312955 97.910893 
z
" style="fill:#348abd;opacity:0.5;"/>
   </g>
   <g id="patch_84">
    <path clip-path="url(#pa7caeb4521)" d="M 250.806045 290.25375 
L 257.299136 290.25375 
L 257.299136 104.699464 
L 250.806045 104.699464 
z
" style="fill:#348abd;opacity:0.5;"/>
   </g>
   <g id="patch_85">
    <path clip-path="url(#pa7caeb4521)" d="M 257.299136 290.25375 
L 263.792227 290.25375 
L 263.792227 36.81375 
L 257.299136 36.81375 
z
" style="fill:#348abd;opacity:0.5;"/>
   </g>
   <g id="patch_86">
    <path clip-path="url(#pa7caeb4521)" d="M 263.792227 290.25375 
L 270.285318 290.25375 
L 270.285318 100.17375 
L 263.792227 100.17375 
z
" style="fill:#348abd;opacity:0.5;"/>
   </g>
   <g id="patch_87">
    <path clip-path="url(#pa7caeb4521)" d="M 270.285318 290.25375 
L 276.778409 290.25375 
L 276.778409 68.49375 
L 270.285318 68.49375 
z
" style="fill:#348abd;opacity:0.5;"/>
   </g>
   <g id="patch_88">
    <path clip-path="url(#pa7caeb4521)" d="M 276.778409 290.25375 
L 283.2715 290.25375 
L 283.2715 174.848036 
L 276.778409 174.848036 
z
" style="fill:#348abd;opacity:0.5;"/>
   </g>
   <g id="patch_89">
    <path clip-path="url(#pa7caeb4521)" d="M 283.2715 290.25375 
L 289.764591 290.25375 
L 289.764591 240.470893 
L 283.2715 240.470893 
z
" style="fill:#348abd;opacity:0.5;"/>
   </g>
   <g id="patch_90">
    <path clip-path="url(#pa7caeb4521)" d="M 289.764591 290.25375 
L 296.257682 290.25375 
L 296.257682 224.630893 
L 289.764591 224.630893 
z
" style="fill:#348abd;opacity:0.5;"/>
   </g>
   <g id="patch_91">
    <path clip-path="url(#pa7caeb4521)" d="M 296.257682 290.25375 
L 302.750773 290.25375 
L 302.750773 254.048036 
L 296.257682 254.048036 
z
" style="fill:#348abd;opacity:0.5;"/>
   </g>
   <g id="patch_92">
    <path clip-path="url(#pa7caeb4521)" d="M 302.750773 290.25375 
L 309.243864 290.25375 
L 309.243864 269.888036 
L 302.750773 269.888036 
z
" style="fill:#348abd;opacity:0.5;"/>
   </g>
   <g id="patch_93">
    <path clip-path="url(#pa7caeb4521)" d="M 309.243864 290.25375 
L 315.736955 290.25375 
L 315.736955 274.41375 
L 309.243864 274.41375 
z
" style="fill:#348abd;opacity:0.5;"/>
   </g>
   <g id="patch_94">
    <path clip-path="url(#pa7caeb4521)" d="M 315.736955 290.25375 
L 322.230045 290.25375 
L 322.230045 283.465179 
L 315.736955 283.465179 
z
" style="fill:#348abd;opacity:0.5;"/>
   </g>
   <g id="patch_95">
    <path clip-path="url(#pa7caeb4521)" d="M 322.230045 290.25375 
L 328.723136 290.25375 
L 328.723136 278.939464 
L 322.230045 278.939464 
z
" style="fill:#348abd;opacity:0.5;"/>
   </g>
   <g id="patch_96">
    <path clip-path="url(#pa7caeb4521)" d="M 328.723136 290.25375 
L 335.216227 290.25375 
L 335.216227 285.728036 
L 328.723136 285.728036 
z
" style="fill:#348abd;opacity:0.5;"/>
   </g>
   <g id="patch_97">
    <path clip-path="url(#pa7caeb4521)" d="M 335.216227 290.25375 
L 341.709318 290.25375 
L 341.709318 287.990893 
L 335.216227 287.990893 
z
" style="fill:#348abd;opacity:0.5;"/>
   </g>
   <g id="patch_98">
    <path clip-path="url(#pa7caeb4521)" d="M 341.709318 290.25375 
L 348.202409 290.25375 
L 348.202409 285.728036 
L 341.709318 285.728036 
z
" style="fill:#348abd;opacity:0.5;"/>
   </g>
   <g id="patch_99">
    <path clip-path="url(#pa7caeb4521)" d="M 348.202409 290.25375 
L 354.6955 290.25375 
L 354.6955 285.728036 
L 348.202409 285.728036 
z
" style="fill:#348abd;opacity:0.5;"/>
   </g>
   <g id="patch_100">
    <path clip-path="url(#pa7caeb4521)" d="M 354.6955 290.25375 
L 361.188591 290.25375 
L 361.188591 290.25375 
L 354.6955 290.25375 
z
" style="fill:#348abd;opacity:0.5;"/>
   </g>
   <g id="patch_101">
    <path clip-path="url(#pa7caeb4521)" d="M 361.188591 290.25375 
L 367.681682 290.25375 
L 367.681682 290.25375 
L 361.188591 290.25375 
z
" style="fill:#348abd;opacity:0.5;"/>
   </g>
   <g id="patch_102">
    <path clip-path="url(#pa7caeb4521)" d="M 367.681682 290.25375 
L 374.174773 290.25375 
L 374.174773 287.990893 
L 367.681682 287.990893 
z
" style="fill:#348abd;opacity:0.5;"/>
   </g>
   <g id="patch_103">
    <path d="M 33.2875 290.25375 
L 33.2875 24.14175 
" style="fill:none;stroke:#ffffff;stroke-linecap:square;stroke-linejoin:miter;"/>
   </g>
   <g id="patch_104">
    <path d="M 390.4075 290.25375 
L 390.4075 24.14175 
" style="fill:none;stroke:#ffffff;stroke-linecap:square;stroke-linejoin:miter;"/>
   </g>
   <g id="patch_105">
    <path d="M 33.2875 290.25375 
L 390.4075 290.25375 
" style="fill:none;stroke:#ffffff;stroke-linecap:square;stroke-linejoin:miter;"/>
   </g>
   <g id="patch_106">
    <path d="M 33.2875 24.14175 
L 390.4075 24.14175 
" style="fill:none;stroke:#ffffff;stroke-linecap:square;stroke-linejoin:miter;"/>
   </g>
   <g id="text_14">
    <!-- Histogram of Daily Returns -->
    <defs>
     <path d="M 9.8125 72.90625 
L 19.671875 72.90625 
L 19.671875 43.015625 
L 55.515625 43.015625 
L 55.515625 72.90625 
L 65.375 72.90625 
L 65.375 0 
L 55.515625 0 
L 55.515625 34.71875 
L 19.671875 34.71875 
L 19.671875 0 
L 9.8125 0 
z
" id="DejaVuSans-48"/>
     <path d="M 9.421875 54.6875 
L 18.40625 54.6875 
L 18.40625 0 
L 9.421875 0 
z
M 9.421875 75.984375 
L 18.40625 75.984375 
L 18.40625 64.59375 
L 9.421875 64.59375 
z
" id="DejaVuSans-69"/>
     <path d="M 44.28125 53.078125 
L 44.28125 44.578125 
Q 40.484375 46.53125 36.375 47.5 
Q 32.28125 48.484375 27.875 48.484375 
Q 21.1875 48.484375 17.84375 46.4375 
Q 14.5 44.390625 14.5 40.28125 
Q 14.5 37.15625 16.890625 35.375 
Q 19.28125 33.59375 26.515625 31.984375 
L 29.59375 31.296875 
Q 39.15625 29.25 43.1875 25.515625 
Q 47.21875 21.78125 47.21875 15.09375 
Q 47.21875 7.46875 41.1875 3.015625 
Q 35.15625 -1.421875 24.609375 -1.421875 
Q 20.21875 -1.421875 15.453125 -0.5625 
Q 10.6875 0.296875 5.421875 2 
L 5.421875 11.28125 
Q 10.40625 8.6875 15.234375 7.390625 
Q 20.0625 6.109375 24.8125 6.109375 
Q 31.15625 6.109375 34.5625 8.28125 
Q 37.984375 10.453125 37.984375 14.40625 
Q 37.984375 18.0625 35.515625 20.015625 
Q 33.0625 21.96875 24.703125 23.78125 
L 21.578125 24.515625 
Q 13.234375 26.265625 9.515625 29.90625 
Q 5.8125 33.546875 5.8125 39.890625 
Q 5.8125 47.609375 11.28125 51.796875 
Q 16.75 56 26.8125 56 
Q 31.78125 56 36.171875 55.265625 
Q 40.578125 54.546875 44.28125 53.078125 
" id="DejaVuSans-73"/>
     <path d="M 18.3125 70.21875 
L 18.3125 54.6875 
L 36.8125 54.6875 
L 36.8125 47.703125 
L 18.3125 47.703125 
L 18.3125 18.015625 
Q 18.3125 11.328125 20.140625 9.421875 
Q 21.96875 7.515625 27.59375 7.515625 
L 36.8125 7.515625 
L 36.8125 0 
L 27.59375 0 
Q 17.1875 0 13.234375 3.875 
Q 9.28125 7.765625 9.28125 18.015625 
L 9.28125 47.703125 
L 2.6875 47.703125 
L 2.6875 54.6875 
L 9.28125 54.6875 
L 9.28125 70.21875 
z
" id="DejaVuSans-74"/>
     <path d="M 30.609375 48.390625 
Q 23.390625 48.390625 19.1875 42.75 
Q 14.984375 37.109375 14.984375 27.296875 
Q 14.984375 17.484375 19.15625 11.84375 
Q 23.34375 6.203125 30.609375 6.203125 
Q 37.796875 6.203125 41.984375 11.859375 
Q 46.1875 17.53125 46.1875 27.296875 
Q 46.1875 37.015625 41.984375 42.703125 
Q 37.796875 48.390625 30.609375 48.390625 
M 30.609375 56 
Q 42.328125 56 49.015625 48.375 
Q 55.71875 40.765625 55.71875 27.296875 
Q 55.71875 13.875 49.015625 6.21875 
Q 42.328125 -1.421875 30.609375 -1.421875 
Q 18.84375 -1.421875 12.171875 6.21875 
Q 5.515625 13.875 5.515625 27.296875 
Q 5.515625 40.765625 12.171875 48.375 
Q 18.84375 56 30.609375 56 
" id="DejaVuSans-6f"/>
     <path d="M 45.40625 27.984375 
Q 45.40625 37.75 41.375 43.109375 
Q 37.359375 48.484375 30.078125 48.484375 
Q 22.859375 48.484375 18.828125 43.109375 
Q 14.796875 37.75 14.796875 27.984375 
Q 14.796875 18.265625 18.828125 12.890625 
Q 22.859375 7.515625 30.078125 7.515625 
Q 37.359375 7.515625 41.375 12.890625 
Q 45.40625 18.265625 45.40625 27.984375 
M 54.390625 6.78125 
Q 54.390625 -7.171875 48.1875 -13.984375 
Q 42 -20.796875 29.203125 -20.796875 
Q 24.46875 -20.796875 20.265625 -20.09375 
Q 16.0625 -19.390625 12.109375 -17.921875 
L 12.109375 -9.1875 
Q 16.0625 -11.328125 19.921875 -12.34375 
Q 23.78125 -13.375 27.78125 -13.375 
Q 36.625 -13.375 41.015625 -8.765625 
Q 45.40625 -4.15625 45.40625 5.171875 
L 45.40625 9.625 
Q 42.625 4.78125 38.28125 2.390625 
Q 33.9375 0 27.875 0 
Q 17.828125 0 11.671875 7.65625 
Q 5.515625 15.328125 5.515625 27.984375 
Q 5.515625 40.671875 11.671875 48.328125 
Q 17.828125 56 27.875 56 
Q 33.9375 56 38.28125 53.609375 
Q 42.625 51.21875 45.40625 46.390625 
L 45.40625 54.6875 
L 54.390625 54.6875 
z
" id="DejaVuSans-67"/>
     <path d="M 41.109375 46.296875 
Q 39.59375 47.171875 37.8125 47.578125 
Q 36.03125 48 33.890625 48 
Q 26.265625 48 22.1875 43.046875 
Q 18.109375 38.09375 18.109375 28.8125 
L 18.109375 0 
L 9.078125 0 
L 9.078125 54.6875 
L 18.109375 54.6875 
L 18.109375 46.1875 
Q 20.953125 51.171875 25.484375 53.578125 
Q 30.03125 56 36.53125 56 
Q 37.453125 56 38.578125 55.875 
Q 39.703125 55.765625 41.0625 55.515625 
z
" id="DejaVuSans-72"/>
     <path d="M 34.28125 27.484375 
Q 23.390625 27.484375 19.1875 25 
Q 14.984375 22.515625 14.984375 16.5 
Q 14.984375 11.71875 18.140625 8.90625 
Q 21.296875 6.109375 26.703125 6.109375 
Q 34.1875 6.109375 38.703125 11.40625 
Q 43.21875 16.703125 43.21875 25.484375 
L 43.21875 27.484375 
z
M 52.203125 31.203125 
L 52.203125 0 
L 43.21875 0 
L 43.21875 8.296875 
Q 40.140625 3.328125 35.546875 0.953125 
Q 30.953125 -1.421875 24.3125 -1.421875 
Q 15.921875 -1.421875 10.953125 3.296875 
Q 6 8.015625 6 15.921875 
Q 6 25.140625 12.171875 29.828125 
Q 18.359375 34.515625 30.609375 34.515625 
L 43.21875 34.515625 
L 43.21875 35.40625 
Q 43.21875 41.609375 39.140625 45 
Q 35.0625 48.390625 27.6875 48.390625 
Q 23 48.390625 18.546875 47.265625 
Q 14.109375 46.140625 10.015625 43.890625 
L 10.015625 52.203125 
Q 14.9375 54.109375 19.578125 55.046875 
Q 24.21875 56 28.609375 56 
Q 40.484375 56 46.34375 49.84375 
Q 52.203125 43.703125 52.203125 31.203125 
" id="DejaVuSans-61"/>
     <path d="M 52 44.1875 
Q 55.375 50.25 60.0625 53.125 
Q 64.75 56 71.09375 56 
Q 79.640625 56 84.28125 50.015625 
Q 88.921875 44.046875 88.921875 33.015625 
L 88.921875 0 
L 79.890625 0 
L 79.890625 32.71875 
Q 79.890625 40.578125 77.09375 44.375 
Q 74.3125 48.1875 68.609375 48.1875 
Q 61.625 48.1875 57.5625 43.546875 
Q 53.515625 38.921875 53.515625 30.90625 
L 53.515625 0 
L 44.484375 0 
L 44.484375 32.71875 
Q 44.484375 40.625 41.703125 44.40625 
Q 38.921875 48.1875 33.109375 48.1875 
Q 26.21875 48.1875 22.15625 43.53125 
Q 18.109375 38.875 18.109375 30.90625 
L 18.109375 0 
L 9.078125 0 
L 9.078125 54.6875 
L 18.109375 54.6875 
L 18.109375 46.1875 
Q 21.1875 51.21875 25.484375 53.609375 
Q 29.78125 56 35.6875 56 
Q 41.65625 56 45.828125 52.96875 
Q 50 49.953125 52 44.1875 
" id="DejaVuSans-6d"/>
     <path id="DejaVuSans-20"/>
     <path d="M 37.109375 75.984375 
L 37.109375 68.5 
L 28.515625 68.5 
Q 23.6875 68.5 21.796875 66.546875 
Q 19.921875 64.59375 19.921875 59.515625 
L 19.921875 54.6875 
L 34.71875 54.6875 
L 34.71875 47.703125 
L 19.921875 47.703125 
L 19.921875 0 
L 10.890625 0 
L 10.890625 47.703125 
L 2.296875 47.703125 
L 2.296875 54.6875 
L 10.890625 54.6875 
L 10.890625 58.5 
Q 10.890625 67.625 15.140625 71.796875 
Q 19.390625 75.984375 28.609375 75.984375 
z
" id="DejaVuSans-66"/>
     <path d="M 19.671875 64.796875 
L 19.671875 8.109375 
L 31.59375 8.109375 
Q 46.6875 8.109375 53.6875 14.9375 
Q 60.6875 21.78125 60.6875 36.53125 
Q 60.6875 51.171875 53.6875 57.984375 
Q 46.6875 64.796875 31.59375 64.796875 
z
M 9.8125 72.90625 
L 30.078125 72.90625 
Q 51.265625 72.90625 61.171875 64.09375 
Q 71.09375 55.28125 71.09375 36.53125 
Q 71.09375 17.671875 61.125 8.828125 
Q 51.171875 0 30.078125 0 
L 9.8125 0 
z
" id="DejaVuSans-44"/>
     <path d="M 9.421875 75.984375 
L 18.40625 75.984375 
L 18.40625 0 
L 9.421875 0 
z
" id="DejaVuSans-6c"/>
     <path d="M 32.171875 -5.078125 
Q 28.375 -14.84375 24.75 -17.8125 
Q 21.140625 -20.796875 15.09375 -20.796875 
L 7.90625 -20.796875 
L 7.90625 -13.28125 
L 13.1875 -13.28125 
Q 16.890625 -13.28125 18.9375 -11.515625 
Q 21 -9.765625 23.484375 -3.21875 
L 25.09375 0.875 
L 2.984375 54.6875 
L 12.5 54.6875 
L 29.59375 11.921875 
L 46.6875 54.6875 
L 56.203125 54.6875 
z
" id="DejaVuSans-79"/>
     <path d="M 44.390625 34.1875 
Q 47.5625 33.109375 50.5625 29.59375 
Q 53.5625 26.078125 56.59375 19.921875 
L 66.609375 0 
L 56 0 
L 46.6875 18.703125 
Q 43.0625 26.03125 39.671875 28.421875 
Q 36.28125 30.8125 30.421875 30.8125 
L 19.671875 30.8125 
L 19.671875 0 
L 9.8125 0 
L 9.8125 72.90625 
L 32.078125 72.90625 
Q 44.578125 72.90625 50.734375 67.671875 
Q 56.890625 62.453125 56.890625 51.90625 
Q 56.890625 45.015625 53.6875 40.46875 
Q 50.484375 35.9375 44.390625 34.1875 
M 19.671875 64.796875 
L 19.671875 38.921875 
L 32.078125 38.921875 
Q 39.203125 38.921875 42.84375 42.21875 
Q 46.484375 45.515625 46.484375 51.90625 
Q 46.484375 58.296875 42.84375 61.546875 
Q 39.203125 64.796875 32.078125 64.796875 
z
" id="DejaVuSans-52"/>
     <path d="M 56.203125 29.59375 
L 56.203125 25.203125 
L 14.890625 25.203125 
Q 15.484375 15.921875 20.484375 11.0625 
Q 25.484375 6.203125 34.421875 6.203125 
Q 39.59375 6.203125 44.453125 7.46875 
Q 49.3125 8.734375 54.109375 11.28125 
L 54.109375 2.78125 
Q 49.265625 0.734375 44.1875 -0.34375 
Q 39.109375 -1.421875 33.890625 -1.421875 
Q 20.796875 -1.421875 13.15625 6.1875 
Q 5.515625 13.8125 5.515625 26.8125 
Q 5.515625 40.234375 12.765625 48.109375 
Q 20.015625 56 32.328125 56 
Q 43.359375 56 49.78125 48.890625 
Q 56.203125 41.796875 56.203125 29.59375 
M 47.21875 32.234375 
Q 47.125 39.59375 43.09375 43.984375 
Q 39.0625 48.390625 32.421875 48.390625 
Q 24.90625 48.390625 20.390625 44.140625 
Q 15.875 39.890625 15.1875 32.171875 
z
" id="DejaVuSans-65"/>
     <path d="M 8.5 21.578125 
L 8.5 54.6875 
L 17.484375 54.6875 
L 17.484375 21.921875 
Q 17.484375 14.15625 20.5 10.265625 
Q 23.53125 6.390625 29.59375 6.390625 
Q 36.859375 6.390625 41.078125 11.03125 
Q 45.3125 15.671875 45.3125 23.6875 
L 45.3125 54.6875 
L 54.296875 54.6875 
L 54.296875 0 
L 45.3125 0 
L 45.3125 8.40625 
Q 42.046875 3.421875 37.71875 1 
Q 33.40625 -1.421875 27.6875 -1.421875 
Q 18.265625 -1.421875 13.375 4.4375 
Q 8.5 10.296875 8.5 21.578125 
M 31.109375 56 
z
" id="DejaVuSans-75"/>
     <path d="M 54.890625 33.015625 
L 54.890625 0 
L 45.90625 0 
L 45.90625 32.71875 
Q 45.90625 40.484375 42.875 44.328125 
Q 39.84375 48.1875 33.796875 48.1875 
Q 26.515625 48.1875 22.3125 43.546875 
Q 18.109375 38.921875 18.109375 30.90625 
L 18.109375 0 
L 9.078125 0 
L 9.078125 54.6875 
L 18.109375 54.6875 
L 18.109375 46.1875 
Q 21.34375 51.125 25.703125 53.5625 
Q 30.078125 56 35.796875 56 
Q 45.21875 56 50.046875 50.171875 
Q 54.890625 44.34375 54.890625 33.015625 
" id="DejaVuSans-6e"/>
    </defs>
    <g transform="translate(114.387625 18.14175)scale(0.144 -0.144)">
     <use xlink:href="#DejaVuSans-48"/>
     <use x="75.195312" xlink:href="#DejaVuSans-69"/>
     <use x="102.978516" xlink:href="#DejaVuSans-73"/>
     <use x="155.078125" xlink:href="#DejaVuSans-74"/>
     <use x="194.287109" xlink:href="#DejaVuSans-6f"/>
     <use x="255.46875" xlink:href="#DejaVuSans-67"/>
     <use x="318.945312" xlink:href="#DejaVuSans-72"/>
     <use x="360.058594" xlink:href="#DejaVuSans-61"/>
     <use x="421.337891" xlink:href="#DejaVuSans-6d"/>
     <use x="518.75" xlink:href="#DejaVuSans-20"/>
     <use x="550.537109" xlink:href="#DejaVuSans-6f"/>
     <use x="611.71875" xlink:href="#DejaVuSans-66"/>
     <use x="646.923828" xlink:href="#DejaVuSans-20"/>
     <use x="678.710938" xlink:href="#DejaVuSans-44"/>
     <use x="755.712891" xlink:href="#DejaVuSans-61"/>
     <use x="816.992188" xlink:href="#DejaVuSans-69"/>
     <use x="844.775391" xlink:href="#DejaVuSans-6c"/>
     <use x="872.558594" xlink:href="#DejaVuSans-79"/>
     <use x="931.738281" xlink:href="#DejaVuSans-20"/>
     <use x="963.525391" xlink:href="#DejaVuSans-52"/>
     <use x="1032.945312" xlink:href="#DejaVuSans-65"/>
     <use x="1094.46875" xlink:href="#DejaVuSans-74"/>
     <use x="1133.677734" xlink:href="#DejaVuSans-75"/>
     <use x="1197.056641" xlink:href="#DejaVuSans-72"/>
     <use x="1238.154297" xlink:href="#DejaVuSans-6e"/>
     <use x="1301.533203" xlink:href="#DejaVuSans-73"/>
    </g>
   </g>
   <g id="legend_1">
    <g id="patch_107">
     <path d="M 311.362188 61.498 
L 383.4075 61.498 
Q 385.4075 61.498 385.4075 59.498 
L 385.4075 31.14175 
Q 385.4075 29.14175 383.4075 29.14175 
L 311.362188 29.14175 
Q 309.362188 29.14175 309.362188 31.14175 
L 309.362188 59.498 
Q 309.362188 61.498 311.362188 61.498 
z
" style="fill:#e5e5e5;opacity:0.8;stroke:#cccccc;stroke-linejoin:miter;stroke-width:0.5;"/>
    </g>
    <g id="patch_108">
     <path d="M 313.362188 40.740187 
L 333.362188 40.740187 
L 333.362188 33.740187 
L 313.362188 33.740187 
z
" style="fill:#e24a33;opacity:0.5;"/>
    </g>
    <g id="text_15">
     <!-- Market -->
     <defs>
      <path d="M 9.8125 72.90625 
L 24.515625 72.90625 
L 43.109375 23.296875 
L 61.8125 72.90625 
L 76.515625 72.90625 
L 76.515625 0 
L 66.890625 0 
L 66.890625 64.015625 
L 48.09375 14.015625 
L 38.1875 14.015625 
L 19.390625 64.015625 
L 19.390625 0 
L 9.8125 0 
z
" id="DejaVuSans-4d"/>
      <path d="M 9.078125 75.984375 
L 18.109375 75.984375 
L 18.109375 31.109375 
L 44.921875 54.6875 
L 56.390625 54.6875 
L 27.390625 29.109375 
L 57.625 0 
L 45.90625 0 
L 18.109375 26.703125 
L 18.109375 0 
L 9.078125 0 
z
" id="DejaVuSans-6b"/>
     </defs>
     <g transform="translate(341.362188 40.740187)scale(0.1 -0.1)">
      <use xlink:href="#DejaVuSans-4d"/>
      <use x="86.279297" xlink:href="#DejaVuSans-61"/>
      <use x="147.558594" xlink:href="#DejaVuSans-72"/>
      <use x="188.671875" xlink:href="#DejaVuSans-6b"/>
      <use x="246.535156" xlink:href="#DejaVuSans-65"/>
      <use x="308.058594" xlink:href="#DejaVuSans-74"/>
     </g>
    </g>
    <g id="patch_109">
     <path d="M 313.362188 55.418312 
L 333.362188 55.418312 
L 333.362188 48.418312 
L 313.362188 48.418312 
z
" style="fill:#348abd;opacity:0.5;"/>
    </g>
    <g id="text_16">
     <!-- Model A -->
     <defs>
      <path d="M 45.40625 46.390625 
L 45.40625 75.984375 
L 54.390625 75.984375 
L 54.390625 0 
L 45.40625 0 
L 45.40625 8.203125 
Q 42.578125 3.328125 38.25 0.953125 
Q 33.9375 -1.421875 27.875 -1.421875 
Q 17.96875 -1.421875 11.734375 6.484375 
Q 5.515625 14.40625 5.515625 27.296875 
Q 5.515625 40.1875 11.734375 48.09375 
Q 17.96875 56 27.875 56 
Q 33.9375 56 38.25 53.625 
Q 42.578125 51.265625 45.40625 46.390625 
M 14.796875 27.296875 
Q 14.796875 17.390625 18.875 11.75 
Q 22.953125 6.109375 30.078125 6.109375 
Q 37.203125 6.109375 41.296875 11.75 
Q 45.40625 17.390625 45.40625 27.296875 
Q 45.40625 37.203125 41.296875 42.84375 
Q 37.203125 48.484375 30.078125 48.484375 
Q 22.953125 48.484375 18.875 42.84375 
Q 14.796875 37.203125 14.796875 27.296875 
" id="DejaVuSans-64"/>
      <path d="M 34.1875 63.1875 
L 20.796875 26.90625 
L 47.609375 26.90625 
z
M 28.609375 72.90625 
L 39.796875 72.90625 
L 67.578125 0 
L 57.328125 0 
L 50.6875 18.703125 
L 17.828125 18.703125 
L 11.1875 0 
L 0.78125 0 
z
" id="DejaVuSans-41"/>
     </defs>
     <g transform="translate(341.362188 55.418312)scale(0.1 -0.1)">
      <use xlink:href="#DejaVuSans-4d"/>
      <use x="86.279297" xlink:href="#DejaVuSans-6f"/>
      <use x="147.460938" xlink:href="#DejaVuSans-64"/>
      <use x="210.9375" xlink:href="#DejaVuSans-65"/>
      <use x="272.460938" xlink:href="#DejaVuSans-6c"/>
      <use x="300.244141" xlink:href="#DejaVuSans-20"/>
      <use x="332.03125" xlink:href="#DejaVuSans-41"/>
     </g>
    </g>
   </g>
  </g>
 </g>
 <defs>
  <clipPath id="pa7caeb4521">
   <rect height="266.112" width="357.12" x="33.2875" y="24.14175"/>
  </clipPath>
 </defs>
</svg>
