<?xml version="1.0" encoding="utf-8" standalone="no"?>
<!DOCTYPE svg PUBLIC "-//W3C//DTD SVG 1.1//EN"
  "http://www.w3.org/Graphics/SVG/1.1/DTD/svg11.dtd">
<!-- Created with matplotlib (http://matplotlib.org/) -->
<svg height="314pt" version="1.1" viewBox="0 0 399 314" width="399pt" xmlns="http://www.w3.org/2000/svg" xmlns:xlink="http://www.w3.org/1999/xlink">
 <defs>
  <style type="text/css">
*{stroke-linecap:butt;stroke-linejoin:round;}
  </style>
 </defs>
 <g id="figure_1">
  <g id="patch_1">
   <path d="M 0 314.131875 
L 399.210388 314.131875 
L 399.210388 0 
L 0 0 
z
" style="fill:#ffffff;"/>
  </g>
  <g id="axes_1">
   <g id="patch_2">
    <path d="M 26.925 290.25375 
L 384.045 290.25375 
L 384.045 24.14175 
L 26.925 24.14175 
z
" style="fill:#e5e5e5;"/>
   </g>
   <g id="matplotlib.axis_1">
    <g id="xtick_1">
     <g id="line2d_1">
      <path clip-path="url(#p50503f922f)" d="M 31.777487 290.25375 
L 31.777487 24.14175 
" style="fill:none;stroke:#ffffff;stroke-linecap:square;stroke-width:0.8;"/>
     </g>
     <g id="line2d_2">
      <defs>
       <path d="M 0 0 
L 0 3.5 
" id="m5af3d8f915" style="stroke:#555555;stroke-width:0.8;"/>
      </defs>
      <g>
       <use style="fill:#555555;stroke:#555555;stroke-width:0.8;" x="31.777487" xlink:href="#m5af3d8f915" y="290.25375"/>
      </g>
     </g>
     <g id="text_1">
      <!-- −0.05 -->
      <defs>
       <path d="M 10.59375 35.5 
L 73.1875 35.5 
L 73.1875 27.203125 
L 10.59375 27.203125 
z
" id="DejaVuSans-2212"/>
       <path d="M 31.78125 66.40625 
Q 24.171875 66.40625 20.328125 58.90625 
Q 16.5 51.421875 16.5 36.375 
Q 16.5 21.390625 20.328125 13.890625 
Q 24.171875 6.390625 31.78125 6.390625 
Q 39.453125 6.390625 43.28125 13.890625 
Q 47.125 21.390625 47.125 36.375 
Q 47.125 51.421875 43.28125 58.90625 
Q 39.453125 66.40625 31.78125 66.40625 
M 31.78125 74.21875 
Q 44.046875 74.21875 50.515625 64.515625 
Q 56.984375 54.828125 56.984375 36.375 
Q 56.984375 17.96875 50.515625 8.265625 
Q 44.046875 -1.421875 31.78125 -1.421875 
Q 19.53125 -1.421875 13.0625 8.265625 
Q 6.59375 17.96875 6.59375 36.375 
Q 6.59375 54.828125 13.0625 64.515625 
Q 19.53125 74.21875 31.78125 74.21875 
" id="DejaVuSans-30"/>
       <path d="M 10.6875 12.40625 
L 21 12.40625 
L 21 0 
L 10.6875 0 
z
" id="DejaVuSans-2e"/>
       <path d="M 10.796875 72.90625 
L 49.515625 72.90625 
L 49.515625 64.59375 
L 19.828125 64.59375 
L 19.828125 46.734375 
Q 21.96875 47.46875 24.109375 47.828125 
Q 26.265625 48.1875 28.421875 48.1875 
Q 40.625 48.1875 47.75 41.5 
Q 54.890625 34.8125 54.890625 23.390625 
Q 54.890625 11.625 47.5625 5.09375 
Q 40.234375 -1.421875 26.90625 -1.421875 
Q 22.3125 -1.421875 17.546875 -0.640625 
Q 12.796875 0.140625 7.71875 1.703125 
L 7.71875 11.625 
Q 12.109375 9.234375 16.796875 8.0625 
Q 21.484375 6.890625 26.703125 6.890625 
Q 35.15625 6.890625 40.078125 11.328125 
Q 45.015625 15.765625 45.015625 23.390625 
Q 45.015625 31 40.078125 35.4375 
Q 35.15625 39.890625 26.703125 39.890625 
Q 22.75 39.890625 18.8125 39.015625 
Q 14.890625 38.140625 10.796875 36.28125 
z
" id="DejaVuSans-35"/>
      </defs>
      <g style="fill:#555555;" transform="translate(16.454831 304.852187)scale(0.1 -0.1)">
       <use xlink:href="#DejaVuSans-2212"/>
       <use x="83.789062" xlink:href="#DejaVuSans-30"/>
       <use x="147.412109" xlink:href="#DejaVuSans-2e"/>
       <use x="179.199219" xlink:href="#DejaVuSans-30"/>
       <use x="242.822266" xlink:href="#DejaVuSans-35"/>
      </g>
     </g>
    </g>
    <g id="xtick_2">
     <g id="line2d_3">
      <path clip-path="url(#p50503f922f)" d="M 89.960835 290.25375 
L 89.960835 24.14175 
" style="fill:none;stroke:#ffffff;stroke-linecap:square;stroke-width:0.8;"/>
     </g>
     <g id="line2d_4">
      <g>
       <use style="fill:#555555;stroke:#555555;stroke-width:0.8;" x="89.960835" xlink:href="#m5af3d8f915" y="290.25375"/>
      </g>
     </g>
     <g id="text_2">
      <!-- 0.00 -->
      <g style="fill:#555555;" transform="translate(78.828023 304.852187)scale(0.1 -0.1)">
       <use xlink:href="#DejaVuSans-30"/>
       <use x="63.623047" xlink:href="#DejaVuSans-2e"/>
       <use x="95.410156" xlink:href="#DejaVuSans-30"/>
       <use x="159.033203" xlink:href="#DejaVuSans-30"/>
      </g>
     </g>
    </g>
    <g id="xtick_3">
     <g id="line2d_5">
      <path clip-path="url(#p50503f922f)" d="M 148.144183 290.25375 
L 148.144183 24.14175 
" style="fill:none;stroke:#ffffff;stroke-linecap:square;stroke-width:0.8;"/>
     </g>
     <g id="line2d_6">
      <g>
       <use style="fill:#555555;stroke:#555555;stroke-width:0.8;" x="148.144183" xlink:href="#m5af3d8f915" y="290.25375"/>
      </g>
     </g>
     <g id="text_3">
      <!-- 0.05 -->
      <g style="fill:#555555;" transform="translate(137.011371 304.852187)scale(0.1 -0.1)">
       <use xlink:href="#DejaVuSans-30"/>
       <use x="63.623047" xlink:href="#DejaVuSans-2e"/>
       <use x="95.410156" xlink:href="#DejaVuSans-30"/>
       <use x="159.033203" xlink:href="#DejaVuSans-35"/>
      </g>
     </g>
    </g>
    <g id="xtick_4">
     <g id="line2d_7">
      <path clip-path="url(#p50503f922f)" d="M 206.327531 290.25375 
L 206.327531 24.14175 
" style="fill:none;stroke:#ffffff;stroke-linecap:square;stroke-width:0.8;"/>
     </g>
     <g id="line2d_8">
      <g>
       <use style="fill:#555555;stroke:#555555;stroke-width:0.8;" x="206.327531" xlink:href="#m5af3d8f915" y="290.25375"/>
      </g>
     </g>
     <g id="text_4">
      <!-- 0.10 -->
      <defs>
       <path d="M 12.40625 8.296875 
L 28.515625 8.296875 
L 28.515625 63.921875 
L 10.984375 60.40625 
L 10.984375 69.390625 
L 28.421875 72.90625 
L 38.28125 72.90625 
L 38.28125 8.296875 
L 54.390625 8.296875 
L 54.390625 0 
L 12.40625 0 
z
" id="DejaVuSans-31"/>
      </defs>
      <g style="fill:#555555;" transform="translate(195.194719 304.852187)scale(0.1 -0.1)">
       <use xlink:href="#DejaVuSans-30"/>
       <use x="63.623047" xlink:href="#DejaVuSans-2e"/>
       <use x="95.410156" xlink:href="#DejaVuSans-31"/>
       <use x="159.033203" xlink:href="#DejaVuSans-30"/>
      </g>
     </g>
    </g>
    <g id="xtick_5">
     <g id="line2d_9">
      <path clip-path="url(#p50503f922f)" d="M 264.510879 290.25375 
L 264.510879 24.14175 
" style="fill:none;stroke:#ffffff;stroke-linecap:square;stroke-width:0.8;"/>
     </g>
     <g id="line2d_10">
      <g>
       <use style="fill:#555555;stroke:#555555;stroke-width:0.8;" x="264.510879" xlink:href="#m5af3d8f915" y="290.25375"/>
      </g>
     </g>
     <g id="text_5">
      <!-- 0.15 -->
      <g style="fill:#555555;" transform="translate(253.378067 304.852187)scale(0.1 -0.1)">
       <use xlink:href="#DejaVuSans-30"/>
       <use x="63.623047" xlink:href="#DejaVuSans-2e"/>
       <use x="95.410156" xlink:href="#DejaVuSans-31"/>
       <use x="159.033203" xlink:href="#DejaVuSans-35"/>
      </g>
     </g>
    </g>
    <g id="xtick_6">
     <g id="line2d_11">
      <path clip-path="url(#p50503f922f)" d="M 322.694227 290.25375 
L 322.694227 24.14175 
" style="fill:none;stroke:#ffffff;stroke-linecap:square;stroke-width:0.8;"/>
     </g>
     <g id="line2d_12">
      <g>
       <use style="fill:#555555;stroke:#555555;stroke-width:0.8;" x="322.694227" xlink:href="#m5af3d8f915" y="290.25375"/>
      </g>
     </g>
     <g id="text_6">
      <!-- 0.20 -->
      <defs>
       <path d="M 19.1875 8.296875 
L 53.609375 8.296875 
L 53.609375 0 
L 7.328125 0 
L 7.328125 8.296875 
Q 12.9375 14.109375 22.625 23.890625 
Q 32.328125 33.6875 34.8125 36.53125 
Q 39.546875 41.84375 41.421875 45.53125 
Q 43.3125 49.21875 43.3125 52.78125 
Q 43.3125 58.59375 39.234375 62.25 
Q 35.15625 65.921875 28.609375 65.921875 
Q 23.96875 65.921875 18.8125 64.3125 
Q 13.671875 62.703125 7.8125 59.421875 
L 7.8125 69.390625 
Q 13.765625 71.78125 18.9375 73 
Q 24.125 74.21875 28.421875 74.21875 
Q 39.75 74.21875 46.484375 68.546875 
Q 53.21875 62.890625 53.21875 53.421875 
Q 53.21875 48.921875 51.53125 44.890625 
Q 49.859375 40.875 45.40625 35.40625 
Q 44.1875 33.984375 37.640625 27.21875 
Q 31.109375 20.453125 19.1875 8.296875 
" id="DejaVuSans-32"/>
      </defs>
      <g style="fill:#555555;" transform="translate(311.561415 304.852187)scale(0.1 -0.1)">
       <use xlink:href="#DejaVuSans-30"/>
       <use x="63.623047" xlink:href="#DejaVuSans-2e"/>
       <use x="95.410156" xlink:href="#DejaVuSans-32"/>
       <use x="159.033203" xlink:href="#DejaVuSans-30"/>
      </g>
     </g>
    </g>
    <g id="xtick_7">
     <g id="line2d_13">
      <path clip-path="url(#p50503f922f)" d="M 380.877575 290.25375 
L 380.877575 24.14175 
" style="fill:none;stroke:#ffffff;stroke-linecap:square;stroke-width:0.8;"/>
     </g>
     <g id="line2d_14">
      <g>
       <use style="fill:#555555;stroke:#555555;stroke-width:0.8;" x="380.877575" xlink:href="#m5af3d8f915" y="290.25375"/>
      </g>
     </g>
     <g id="text_7">
      <!-- 0.25 -->
      <g style="fill:#555555;" transform="translate(369.744763 304.852187)scale(0.1 -0.1)">
       <use xlink:href="#DejaVuSans-30"/>
       <use x="63.623047" xlink:href="#DejaVuSans-2e"/>
       <use x="95.410156" xlink:href="#DejaVuSans-32"/>
       <use x="159.033203" xlink:href="#DejaVuSans-35"/>
      </g>
     </g>
    </g>
   </g>
   <g id="matplotlib.axis_2">
    <g id="ytick_1">
     <g id="line2d_15">
      <path clip-path="url(#p50503f922f)" d="M 26.925 290.25375 
L 384.045 290.25375 
" style="fill:none;stroke:#ffffff;stroke-linecap:square;stroke-width:0.8;"/>
     </g>
     <g id="line2d_16">
      <defs>
       <path d="M 0 0 
L -3.5 0 
" id="md27dc401c5" style="stroke:#555555;stroke-width:0.8;"/>
      </defs>
      <g>
       <use style="fill:#555555;stroke:#555555;stroke-width:0.8;" x="26.925" xlink:href="#md27dc401c5" y="290.25375"/>
      </g>
     </g>
     <g id="text_8">
      <!-- 0 -->
      <g style="fill:#555555;" transform="translate(13.5625 294.052969)scale(0.1 -0.1)">
       <use xlink:href="#DejaVuSans-30"/>
      </g>
     </g>
    </g>
    <g id="ytick_2">
     <g id="line2d_17">
      <path clip-path="url(#p50503f922f)" d="M 26.925 248.01375 
L 384.045 248.01375 
" style="fill:none;stroke:#ffffff;stroke-linecap:square;stroke-width:0.8;"/>
     </g>
     <g id="line2d_18">
      <g>
       <use style="fill:#555555;stroke:#555555;stroke-width:0.8;" x="26.925" xlink:href="#md27dc401c5" y="248.01375"/>
      </g>
     </g>
     <g id="text_9">
      <!-- 2 -->
      <g style="fill:#555555;" transform="translate(13.5625 251.812969)scale(0.1 -0.1)">
       <use xlink:href="#DejaVuSans-32"/>
      </g>
     </g>
    </g>
    <g id="ytick_3">
     <g id="line2d_19">
      <path clip-path="url(#p50503f922f)" d="M 26.925 205.77375 
L 384.045 205.77375 
" style="fill:none;stroke:#ffffff;stroke-linecap:square;stroke-width:0.8;"/>
     </g>
     <g id="line2d_20">
      <g>
       <use style="fill:#555555;stroke:#555555;stroke-width:0.8;" x="26.925" xlink:href="#md27dc401c5" y="205.77375"/>
      </g>
     </g>
     <g id="text_10">
      <!-- 4 -->
      <defs>
       <path d="M 37.796875 64.3125 
L 12.890625 25.390625 
L 37.796875 25.390625 
z
M 35.203125 72.90625 
L 47.609375 72.90625 
L 47.609375 25.390625 
L 58.015625 25.390625 
L 58.015625 17.1875 
L 47.609375 17.1875 
L 47.609375 0 
L 37.796875 0 
L 37.796875 17.1875 
L 4.890625 17.1875 
L 4.890625 26.703125 
z
" id="DejaVuSans-34"/>
      </defs>
      <g style="fill:#555555;" transform="translate(13.5625 209.572969)scale(0.1 -0.1)">
       <use xlink:href="#DejaVuSans-34"/>
      </g>
     </g>
    </g>
    <g id="ytick_4">
     <g id="line2d_21">
      <path clip-path="url(#p50503f922f)" d="M 26.925 163.53375 
L 384.045 163.53375 
" style="fill:none;stroke:#ffffff;stroke-linecap:square;stroke-width:0.8;"/>
     </g>
     <g id="line2d_22">
      <g>
       <use style="fill:#555555;stroke:#555555;stroke-width:0.8;" x="26.925" xlink:href="#md27dc401c5" y="163.53375"/>
      </g>
     </g>
     <g id="text_11">
      <!-- 6 -->
      <defs>
       <path d="M 33.015625 40.375 
Q 26.375 40.375 22.484375 35.828125 
Q 18.609375 31.296875 18.609375 23.390625 
Q 18.609375 15.53125 22.484375 10.953125 
Q 26.375 6.390625 33.015625 6.390625 
Q 39.65625 6.390625 43.53125 10.953125 
Q 47.40625 15.53125 47.40625 23.390625 
Q 47.40625 31.296875 43.53125 35.828125 
Q 39.65625 40.375 33.015625 40.375 
M 52.59375 71.296875 
L 52.59375 62.3125 
Q 48.875 64.0625 45.09375 64.984375 
Q 41.3125 65.921875 37.59375 65.921875 
Q 27.828125 65.921875 22.671875 59.328125 
Q 17.53125 52.734375 16.796875 39.40625 
Q 19.671875 43.65625 24.015625 45.921875 
Q 28.375 48.1875 33.59375 48.1875 
Q 44.578125 48.1875 50.953125 41.515625 
Q 57.328125 34.859375 57.328125 23.390625 
Q 57.328125 12.15625 50.6875 5.359375 
Q 44.046875 -1.421875 33.015625 -1.421875 
Q 20.359375 -1.421875 13.671875 8.265625 
Q 6.984375 17.96875 6.984375 36.375 
Q 6.984375 53.65625 15.1875 63.9375 
Q 23.390625 74.21875 37.203125 74.21875 
Q 40.921875 74.21875 44.703125 73.484375 
Q 48.484375 72.75 52.59375 71.296875 
" id="DejaVuSans-36"/>
      </defs>
      <g style="fill:#555555;" transform="translate(13.5625 167.332969)scale(0.1 -0.1)">
       <use xlink:href="#DejaVuSans-36"/>
      </g>
     </g>
    </g>
    <g id="ytick_5">
     <g id="line2d_23">
      <path clip-path="url(#p50503f922f)" d="M 26.925 121.29375 
L 384.045 121.29375 
" style="fill:none;stroke:#ffffff;stroke-linecap:square;stroke-width:0.8;"/>
     </g>
     <g id="line2d_24">
      <g>
       <use style="fill:#555555;stroke:#555555;stroke-width:0.8;" x="26.925" xlink:href="#md27dc401c5" y="121.29375"/>
      </g>
     </g>
     <g id="text_12">
      <!-- 8 -->
      <defs>
       <path d="M 31.78125 34.625 
Q 24.75 34.625 20.71875 30.859375 
Q 16.703125 27.09375 16.703125 20.515625 
Q 16.703125 13.921875 20.71875 10.15625 
Q 24.75 6.390625 31.78125 6.390625 
Q 38.8125 6.390625 42.859375 10.171875 
Q 46.921875 13.96875 46.921875 20.515625 
Q 46.921875 27.09375 42.890625 30.859375 
Q 38.875 34.625 31.78125 34.625 
M 21.921875 38.8125 
Q 15.578125 40.375 12.03125 44.71875 
Q 8.5 49.078125 8.5 55.328125 
Q 8.5 64.0625 14.71875 69.140625 
Q 20.953125 74.21875 31.78125 74.21875 
Q 42.671875 74.21875 48.875 69.140625 
Q 55.078125 64.0625 55.078125 55.328125 
Q 55.078125 49.078125 51.53125 44.71875 
Q 48 40.375 41.703125 38.8125 
Q 48.828125 37.15625 52.796875 32.3125 
Q 56.78125 27.484375 56.78125 20.515625 
Q 56.78125 9.90625 50.3125 4.234375 
Q 43.84375 -1.421875 31.78125 -1.421875 
Q 19.734375 -1.421875 13.25 4.234375 
Q 6.78125 9.90625 6.78125 20.515625 
Q 6.78125 27.484375 10.78125 32.3125 
Q 14.796875 37.15625 21.921875 38.8125 
M 18.3125 54.390625 
Q 18.3125 48.734375 21.84375 45.5625 
Q 25.390625 42.390625 31.78125 42.390625 
Q 38.140625 42.390625 41.71875 45.5625 
Q 45.3125 48.734375 45.3125 54.390625 
Q 45.3125 60.0625 41.71875 63.234375 
Q 38.140625 66.40625 31.78125 66.40625 
Q 25.390625 66.40625 21.84375 63.234375 
Q 18.3125 60.0625 18.3125 54.390625 
" id="DejaVuSans-38"/>
      </defs>
      <g style="fill:#555555;" transform="translate(13.5625 125.092969)scale(0.1 -0.1)">
       <use xlink:href="#DejaVuSans-38"/>
      </g>
     </g>
    </g>
    <g id="ytick_6">
     <g id="line2d_25">
      <path clip-path="url(#p50503f922f)" d="M 26.925 79.05375 
L 384.045 79.05375 
" style="fill:none;stroke:#ffffff;stroke-linecap:square;stroke-width:0.8;"/>
     </g>
     <g id="line2d_26">
      <g>
       <use style="fill:#555555;stroke:#555555;stroke-width:0.8;" x="26.925" xlink:href="#md27dc401c5" y="79.05375"/>
      </g>
     </g>
     <g id="text_13">
      <!-- 10 -->
      <g style="fill:#555555;" transform="translate(7.2 82.852969)scale(0.1 -0.1)">
       <use xlink:href="#DejaVuSans-31"/>
       <use x="63.623047" xlink:href="#DejaVuSans-30"/>
      </g>
     </g>
    </g>
    <g id="ytick_7">
     <g id="line2d_27">
      <path clip-path="url(#p50503f922f)" d="M 26.925 36.81375 
L 384.045 36.81375 
" style="fill:none;stroke:#ffffff;stroke-linecap:square;stroke-width:0.8;"/>
     </g>
     <g id="line2d_28">
      <g>
       <use style="fill:#555555;stroke:#555555;stroke-width:0.8;" x="26.925" xlink:href="#md27dc401c5" y="36.81375"/>
      </g>
     </g>
     <g id="text_14">
      <!-- 12 -->
      <g style="fill:#555555;" transform="translate(7.2 40.612969)scale(0.1 -0.1)">
       <use xlink:href="#DejaVuSans-31"/>
       <use x="63.623047" xlink:href="#DejaVuSans-32"/>
      </g>
     </g>
    </g>
   </g>
   <g id="patch_3">
    <path clip-path="url(#p50503f922f)" d="M 43.157727 290.25375 
L 49.650818 290.25375 
L 49.650818 269.13375 
L 43.157727 269.13375 
z
" style="fill:#e24a33;"/>
   </g>
   <g id="patch_4">
    <path clip-path="url(#p50503f922f)" d="M 49.650818 290.25375 
L 56.143909 290.25375 
L 56.143909 290.25375 
L 49.650818 290.25375 
z
" style="fill:#e24a33;"/>
   </g>
   <g id="patch_5">
    <path clip-path="url(#p50503f922f)" d="M 56.143909 290.25375 
L 62.637 290.25375 
L 62.637 248.01375 
L 56.143909 248.01375 
z
" style="fill:#e24a33;"/>
   </g>
   <g id="patch_6">
    <path clip-path="url(#p50503f922f)" d="M 62.637 290.25375 
L 69.130091 290.25375 
L 69.130091 248.01375 
L 62.637 248.01375 
z
" style="fill:#e24a33;"/>
   </g>
   <g id="patch_7">
    <path clip-path="url(#p50503f922f)" d="M 69.130091 290.25375 
L 75.623182 290.25375 
L 75.623182 248.01375 
L 69.130091 248.01375 
z
" style="fill:#e24a33;"/>
   </g>
   <g id="patch_8">
    <path clip-path="url(#p50503f922f)" d="M 75.623182 290.25375 
L 82.116273 290.25375 
L 82.116273 142.41375 
L 75.623182 142.41375 
z
" style="fill:#e24a33;"/>
   </g>
   <g id="patch_9">
    <path clip-path="url(#p50503f922f)" d="M 82.116273 290.25375 
L 88.609364 290.25375 
L 88.609364 36.81375 
L 82.116273 36.81375 
z
" style="fill:#e24a33;"/>
   </g>
   <g id="patch_10">
    <path clip-path="url(#p50503f922f)" d="M 88.609364 290.25375 
L 95.102455 290.25375 
L 95.102455 36.81375 
L 88.609364 36.81375 
z
" style="fill:#e24a33;"/>
   </g>
   <g id="patch_11">
    <path clip-path="url(#p50503f922f)" d="M 95.102455 290.25375 
L 101.595545 290.25375 
L 101.595545 184.65375 
L 95.102455 184.65375 
z
" style="fill:#e24a33;"/>
   </g>
   <g id="patch_12">
    <path clip-path="url(#p50503f922f)" d="M 101.595545 290.25375 
L 108.088636 290.25375 
L 108.088636 226.89375 
L 101.595545 226.89375 
z
" style="fill:#e24a33;"/>
   </g>
   <g id="patch_13">
    <path clip-path="url(#p50503f922f)" d="M 108.088636 290.25375 
L 114.581727 290.25375 
L 114.581727 205.77375 
L 108.088636 205.77375 
z
" style="fill:#e24a33;"/>
   </g>
   <g id="patch_14">
    <path clip-path="url(#p50503f922f)" d="M 114.581727 290.25375 
L 121.074818 290.25375 
L 121.074818 205.77375 
L 114.581727 205.77375 
z
" style="fill:#e24a33;"/>
   </g>
   <g id="patch_15">
    <path clip-path="url(#p50503f922f)" d="M 121.074818 290.25375 
L 127.567909 290.25375 
L 127.567909 205.77375 
L 121.074818 205.77375 
z
" style="fill:#e24a33;"/>
   </g>
   <g id="patch_16">
    <path clip-path="url(#p50503f922f)" d="M 127.567909 290.25375 
L 134.061 290.25375 
L 134.061 226.89375 
L 127.567909 226.89375 
z
" style="fill:#e24a33;"/>
   </g>
   <g id="patch_17">
    <path clip-path="url(#p50503f922f)" d="M 134.061 290.25375 
L 140.554091 290.25375 
L 140.554091 163.53375 
L 134.061 163.53375 
z
" style="fill:#e24a33;"/>
   </g>
   <g id="patch_18">
    <path clip-path="url(#p50503f922f)" d="M 140.554091 290.25375 
L 147.047182 290.25375 
L 147.047182 248.01375 
L 140.554091 248.01375 
z
" style="fill:#e24a33;"/>
   </g>
   <g id="patch_19">
    <path clip-path="url(#p50503f922f)" d="M 147.047182 290.25375 
L 153.540273 290.25375 
L 153.540273 205.77375 
L 147.047182 205.77375 
z
" style="fill:#e24a33;"/>
   </g>
   <g id="patch_20">
    <path clip-path="url(#p50503f922f)" d="M 153.540273 290.25375 
L 160.033364 290.25375 
L 160.033364 269.13375 
L 153.540273 269.13375 
z
" style="fill:#e24a33;"/>
   </g>
   <g id="patch_21">
    <path clip-path="url(#p50503f922f)" d="M 160.033364 290.25375 
L 166.526455 290.25375 
L 166.526455 269.13375 
L 160.033364 269.13375 
z
" style="fill:#e24a33;"/>
   </g>
   <g id="patch_22">
    <path clip-path="url(#p50503f922f)" d="M 166.526455 290.25375 
L 173.019545 290.25375 
L 173.019545 269.13375 
L 166.526455 269.13375 
z
" style="fill:#e24a33;"/>
   </g>
   <g id="patch_23">
    <path clip-path="url(#p50503f922f)" d="M 173.019545 290.25375 
L 179.512636 290.25375 
L 179.512636 290.25375 
L 173.019545 290.25375 
z
" style="fill:#e24a33;"/>
   </g>
   <g id="patch_24">
    <path clip-path="url(#p50503f922f)" d="M 179.512636 290.25375 
L 186.005727 290.25375 
L 186.005727 226.89375 
L 179.512636 226.89375 
z
" style="fill:#e24a33;"/>
   </g>
   <g id="patch_25">
    <path clip-path="url(#p50503f922f)" d="M 186.005727 290.25375 
L 192.498818 290.25375 
L 192.498818 269.13375 
L 186.005727 269.13375 
z
" style="fill:#e24a33;"/>
   </g>
   <g id="patch_26">
    <path clip-path="url(#p50503f922f)" d="M 192.498818 290.25375 
L 198.991909 290.25375 
L 198.991909 269.13375 
L 192.498818 269.13375 
z
" style="fill:#e24a33;"/>
   </g>
   <g id="patch_27">
    <path clip-path="url(#p50503f922f)" d="M 198.991909 290.25375 
L 205.485 290.25375 
L 205.485 290.25375 
L 198.991909 290.25375 
z
" style="fill:#e24a33;"/>
   </g>
   <g id="patch_28">
    <path clip-path="url(#p50503f922f)" d="M 205.485 290.25375 
L 211.978091 290.25375 
L 211.978091 248.01375 
L 205.485 248.01375 
z
" style="fill:#e24a33;"/>
   </g>
   <g id="patch_29">
    <path clip-path="url(#p50503f922f)" d="M 211.978091 290.25375 
L 218.471182 290.25375 
L 218.471182 290.25375 
L 211.978091 290.25375 
z
" style="fill:#e24a33;"/>
   </g>
   <g id="patch_30">
    <path clip-path="url(#p50503f922f)" d="M 218.471182 290.25375 
L 224.964273 290.25375 
L 224.964273 269.13375 
L 218.471182 269.13375 
z
" style="fill:#e24a33;"/>
   </g>
   <g id="patch_31">
    <path clip-path="url(#p50503f922f)" d="M 224.964273 290.25375 
L 231.457364 290.25375 
L 231.457364 226.89375 
L 224.964273 226.89375 
z
" style="fill:#e24a33;"/>
   </g>
   <g id="patch_32">
    <path clip-path="url(#p50503f922f)" d="M 231.457364 290.25375 
L 237.950455 290.25375 
L 237.950455 290.25375 
L 231.457364 290.25375 
z
" style="fill:#e24a33;"/>
   </g>
   <g id="patch_33">
    <path clip-path="url(#p50503f922f)" d="M 237.950455 290.25375 
L 244.443545 290.25375 
L 244.443545 269.13375 
L 237.950455 269.13375 
z
" style="fill:#e24a33;"/>
   </g>
   <g id="patch_34">
    <path clip-path="url(#p50503f922f)" d="M 244.443545 290.25375 
L 250.936636 290.25375 
L 250.936636 248.01375 
L 244.443545 248.01375 
z
" style="fill:#e24a33;"/>
   </g>
   <g id="patch_35">
    <path clip-path="url(#p50503f922f)" d="M 250.936636 290.25375 
L 257.429727 290.25375 
L 257.429727 269.13375 
L 250.936636 269.13375 
z
" style="fill:#e24a33;"/>
   </g>
   <g id="patch_36">
    <path clip-path="url(#p50503f922f)" d="M 257.429727 290.25375 
L 263.922818 290.25375 
L 263.922818 269.13375 
L 257.429727 269.13375 
z
" style="fill:#e24a33;"/>
   </g>
   <g id="patch_37">
    <path clip-path="url(#p50503f922f)" d="M 263.922818 290.25375 
L 270.415909 290.25375 
L 270.415909 290.25375 
L 263.922818 290.25375 
z
" style="fill:#e24a33;"/>
   </g>
   <g id="patch_38">
    <path clip-path="url(#p50503f922f)" d="M 270.415909 290.25375 
L 276.909 290.25375 
L 276.909 290.25375 
L 270.415909 290.25375 
z
" style="fill:#e24a33;"/>
   </g>
   <g id="patch_39">
    <path clip-path="url(#p50503f922f)" d="M 276.909 290.25375 
L 283.402091 290.25375 
L 283.402091 269.13375 
L 276.909 269.13375 
z
" style="fill:#e24a33;"/>
   </g>
   <g id="patch_40">
    <path clip-path="url(#p50503f922f)" d="M 283.402091 290.25375 
L 289.895182 290.25375 
L 289.895182 290.25375 
L 283.402091 290.25375 
z
" style="fill:#e24a33;"/>
   </g>
   <g id="patch_41">
    <path clip-path="url(#p50503f922f)" d="M 289.895182 290.25375 
L 296.388273 290.25375 
L 296.388273 269.13375 
L 289.895182 269.13375 
z
" style="fill:#e24a33;"/>
   </g>
   <g id="patch_42">
    <path clip-path="url(#p50503f922f)" d="M 296.388273 290.25375 
L 302.881364 290.25375 
L 302.881364 269.13375 
L 296.388273 269.13375 
z
" style="fill:#e24a33;"/>
   </g>
   <g id="patch_43">
    <path clip-path="url(#p50503f922f)" d="M 302.881364 290.25375 
L 309.374455 290.25375 
L 309.374455 248.01375 
L 302.881364 248.01375 
z
" style="fill:#e24a33;"/>
   </g>
   <g id="patch_44">
    <path clip-path="url(#p50503f922f)" d="M 309.374455 290.25375 
L 315.867545 290.25375 
L 315.867545 290.25375 
L 309.374455 290.25375 
z
" style="fill:#e24a33;"/>
   </g>
   <g id="patch_45">
    <path clip-path="url(#p50503f922f)" d="M 315.867545 290.25375 
L 322.360636 290.25375 
L 322.360636 290.25375 
L 315.867545 290.25375 
z
" style="fill:#e24a33;"/>
   </g>
   <g id="patch_46">
    <path clip-path="url(#p50503f922f)" d="M 322.360636 290.25375 
L 328.853727 290.25375 
L 328.853727 290.25375 
L 322.360636 290.25375 
z
" style="fill:#e24a33;"/>
   </g>
   <g id="patch_47">
    <path clip-path="url(#p50503f922f)" d="M 328.853727 290.25375 
L 335.346818 290.25375 
L 335.346818 269.13375 
L 328.853727 269.13375 
z
" style="fill:#e24a33;"/>
   </g>
   <g id="patch_48">
    <path clip-path="url(#p50503f922f)" d="M 335.346818 290.25375 
L 341.839909 290.25375 
L 341.839909 290.25375 
L 335.346818 290.25375 
z
" style="fill:#e24a33;"/>
   </g>
   <g id="patch_49">
    <path clip-path="url(#p50503f922f)" d="M 341.839909 290.25375 
L 348.333 290.25375 
L 348.333 290.25375 
L 341.839909 290.25375 
z
" style="fill:#e24a33;"/>
   </g>
   <g id="patch_50">
    <path clip-path="url(#p50503f922f)" d="M 348.333 290.25375 
L 354.826091 290.25375 
L 354.826091 269.13375 
L 348.333 269.13375 
z
" style="fill:#e24a33;"/>
   </g>
   <g id="patch_51">
    <path clip-path="url(#p50503f922f)" d="M 354.826091 290.25375 
L 361.319182 290.25375 
L 361.319182 290.25375 
L 354.826091 290.25375 
z
" style="fill:#e24a33;"/>
   </g>
   <g id="patch_52">
    <path clip-path="url(#p50503f922f)" d="M 361.319182 290.25375 
L 367.812273 290.25375 
L 367.812273 269.13375 
L 361.319182 269.13375 
z
" style="fill:#e24a33;"/>
   </g>
   <g id="patch_53">
    <path d="M 26.925 290.25375 
L 26.925 24.14175 
" style="fill:none;stroke:#ffffff;stroke-linecap:square;stroke-linejoin:miter;"/>
   </g>
   <g id="patch_54">
    <path d="M 384.045 290.25375 
L 384.045 24.14175 
" style="fill:none;stroke:#ffffff;stroke-linecap:square;stroke-linejoin:miter;"/>
   </g>
   <g id="patch_55">
    <path d="M 26.925 290.25375 
L 384.045 290.25375 
" style="fill:none;stroke:#ffffff;stroke-linecap:square;stroke-linejoin:miter;"/>
   </g>
   <g id="patch_56">
    <path d="M 26.925 24.14175 
L 384.045 24.14175 
" style="fill:none;stroke:#ffffff;stroke-linecap:square;stroke-linejoin:miter;"/>
   </g>
   <g id="text_15">
    <!-- Prediction Fitness $R^2$ -->
    <defs>
     <path d="M 19.671875 64.796875 
L 19.671875 37.40625 
L 32.078125 37.40625 
Q 38.96875 37.40625 42.71875 40.96875 
Q 46.484375 44.53125 46.484375 51.125 
Q 46.484375 57.671875 42.71875 61.234375 
Q 38.96875 64.796875 32.078125 64.796875 
z
M 9.8125 72.90625 
L 32.078125 72.90625 
Q 44.34375 72.90625 50.609375 67.359375 
Q 56.890625 61.8125 56.890625 51.125 
Q 56.890625 40.328125 50.609375 34.8125 
Q 44.34375 29.296875 32.078125 29.296875 
L 19.671875 29.296875 
L 19.671875 0 
L 9.8125 0 
z
" id="DejaVuSans-50"/>
     <path d="M 41.109375 46.296875 
Q 39.59375 47.171875 37.8125 47.578125 
Q 36.03125 48 33.890625 48 
Q 26.265625 48 22.1875 43.046875 
Q 18.109375 38.09375 18.109375 28.8125 
L 18.109375 0 
L 9.078125 0 
L 9.078125 54.6875 
L 18.109375 54.6875 
L 18.109375 46.1875 
Q 20.953125 51.171875 25.484375 53.578125 
Q 30.03125 56 36.53125 56 
Q 37.453125 56 38.578125 55.875 
Q 39.703125 55.765625 41.0625 55.515625 
z
" id="DejaVuSans-72"/>
     <path d="M 56.203125 29.59375 
L 56.203125 25.203125 
L 14.890625 25.203125 
Q 15.484375 15.921875 20.484375 11.0625 
Q 25.484375 6.203125 34.421875 6.203125 
Q 39.59375 6.203125 44.453125 7.46875 
Q 49.3125 8.734375 54.109375 11.28125 
L 54.109375 2.78125 
Q 49.265625 0.734375 44.1875 -0.34375 
Q 39.109375 -1.421875 33.890625 -1.421875 
Q 20.796875 -1.421875 13.15625 6.1875 
Q 5.515625 13.8125 5.515625 26.8125 
Q 5.515625 40.234375 12.765625 48.109375 
Q 20.015625 56 32.328125 56 
Q 43.359375 56 49.78125 48.890625 
Q 56.203125 41.796875 56.203125 29.59375 
M 47.21875 32.234375 
Q 47.125 39.59375 43.09375 43.984375 
Q 39.0625 48.390625 32.421875 48.390625 
Q 24.90625 48.390625 20.390625 44.140625 
Q 15.875 39.890625 15.1875 32.171875 
z
" id="DejaVuSans-65"/>
     <path d="M 45.40625 46.390625 
L 45.40625 75.984375 
L 54.390625 75.984375 
L 54.390625 0 
L 45.40625 0 
L 45.40625 8.203125 
Q 42.578125 3.328125 38.25 0.953125 
Q 33.9375 -1.421875 27.875 -1.421875 
Q 17.96875 -1.421875 11.734375 6.484375 
Q 5.515625 14.40625 5.515625 27.296875 
Q 5.515625 40.1875 11.734375 48.09375 
Q 17.96875 56 27.875 56 
Q 33.9375 56 38.25 53.625 
Q 42.578125 51.265625 45.40625 46.390625 
M 14.796875 27.296875 
Q 14.796875 17.390625 18.875 11.75 
Q 22.953125 6.109375 30.078125 6.109375 
Q 37.203125 6.109375 41.296875 11.75 
Q 45.40625 17.390625 45.40625 27.296875 
Q 45.40625 37.203125 41.296875 42.84375 
Q 37.203125 48.484375 30.078125 48.484375 
Q 22.953125 48.484375 18.875 42.84375 
Q 14.796875 37.203125 14.796875 27.296875 
" id="DejaVuSans-64"/>
     <path d="M 9.421875 54.6875 
L 18.40625 54.6875 
L 18.40625 0 
L 9.421875 0 
z
M 9.421875 75.984375 
L 18.40625 75.984375 
L 18.40625 64.59375 
L 9.421875 64.59375 
z
" id="DejaVuSans-69"/>
     <path d="M 48.78125 52.59375 
L 48.78125 44.1875 
Q 44.96875 46.296875 41.140625 47.34375 
Q 37.3125 48.390625 33.40625 48.390625 
Q 24.65625 48.390625 19.8125 42.84375 
Q 14.984375 37.3125 14.984375 27.296875 
Q 14.984375 17.28125 19.8125 11.734375 
Q 24.65625 6.203125 33.40625 6.203125 
Q 37.3125 6.203125 41.140625 7.25 
Q 44.96875 8.296875 48.78125 10.40625 
L 48.78125 2.09375 
Q 45.015625 0.34375 40.984375 -0.53125 
Q 36.96875 -1.421875 32.421875 -1.421875 
Q 20.0625 -1.421875 12.78125 6.34375 
Q 5.515625 14.109375 5.515625 27.296875 
Q 5.515625 40.671875 12.859375 48.328125 
Q 20.21875 56 33.015625 56 
Q 37.15625 56 41.109375 55.140625 
Q 45.0625 54.296875 48.78125 52.59375 
" id="DejaVuSans-63"/>
     <path d="M 18.3125 70.21875 
L 18.3125 54.6875 
L 36.8125 54.6875 
L 36.8125 47.703125 
L 18.3125 47.703125 
L 18.3125 18.015625 
Q 18.3125 11.328125 20.140625 9.421875 
Q 21.96875 7.515625 27.59375 7.515625 
L 36.8125 7.515625 
L 36.8125 0 
L 27.59375 0 
Q 17.1875 0 13.234375 3.875 
Q 9.28125 7.765625 9.28125 18.015625 
L 9.28125 47.703125 
L 2.6875 47.703125 
L 2.6875 54.6875 
L 9.28125 54.6875 
L 9.28125 70.21875 
z
" id="DejaVuSans-74"/>
     <path d="M 30.609375 48.390625 
Q 23.390625 48.390625 19.1875 42.75 
Q 14.984375 37.109375 14.984375 27.296875 
Q 14.984375 17.484375 19.15625 11.84375 
Q 23.34375 6.203125 30.609375 6.203125 
Q 37.796875 6.203125 41.984375 11.859375 
Q 46.1875 17.53125 46.1875 27.296875 
Q 46.1875 37.015625 41.984375 42.703125 
Q 37.796875 48.390625 30.609375 48.390625 
M 30.609375 56 
Q 42.328125 56 49.015625 48.375 
Q 55.71875 40.765625 55.71875 27.296875 
Q 55.71875 13.875 49.015625 6.21875 
Q 42.328125 -1.421875 30.609375 -1.421875 
Q 18.84375 -1.421875 12.171875 6.21875 
Q 5.515625 13.875 5.515625 27.296875 
Q 5.515625 40.765625 12.171875 48.375 
Q 18.84375 56 30.609375 56 
" id="DejaVuSans-6f"/>
     <path d="M 54.890625 33.015625 
L 54.890625 0 
L 45.90625 0 
L 45.90625 32.71875 
Q 45.90625 40.484375 42.875 44.328125 
Q 39.84375 48.1875 33.796875 48.1875 
Q 26.515625 48.1875 22.3125 43.546875 
Q 18.109375 38.921875 18.109375 30.90625 
L 18.109375 0 
L 9.078125 0 
L 9.078125 54.6875 
L 18.109375 54.6875 
L 18.109375 46.1875 
Q 21.34375 51.125 25.703125 53.5625 
Q 30.078125 56 35.796875 56 
Q 45.21875 56 50.046875 50.171875 
Q 54.890625 44.34375 54.890625 33.015625 
" id="DejaVuSans-6e"/>
     <path id="DejaVuSans-20"/>
     <path d="M 9.8125 72.90625 
L 51.703125 72.90625 
L 51.703125 64.59375 
L 19.671875 64.59375 
L 19.671875 43.109375 
L 48.578125 43.109375 
L 48.578125 34.8125 
L 19.671875 34.8125 
L 19.671875 0 
L 9.8125 0 
z
" id="DejaVuSans-46"/>
     <path d="M 44.28125 53.078125 
L 44.28125 44.578125 
Q 40.484375 46.53125 36.375 47.5 
Q 32.28125 48.484375 27.875 48.484375 
Q 21.1875 48.484375 17.84375 46.4375 
Q 14.5 44.390625 14.5 40.28125 
Q 14.5 37.15625 16.890625 35.375 
Q 19.28125 33.59375 26.515625 31.984375 
L 29.59375 31.296875 
Q 39.15625 29.25 43.1875 25.515625 
Q 47.21875 21.78125 47.21875 15.09375 
Q 47.21875 7.46875 41.1875 3.015625 
Q 35.15625 -1.421875 24.609375 -1.421875 
Q 20.21875 -1.421875 15.453125 -0.5625 
Q 10.6875 0.296875 5.421875 2 
L 5.421875 11.28125 
Q 10.40625 8.6875 15.234375 7.390625 
Q 20.0625 6.109375 24.8125 6.109375 
Q 31.15625 6.109375 34.5625 8.28125 
Q 37.984375 10.453125 37.984375 14.40625 
Q 37.984375 18.0625 35.515625 20.015625 
Q 33.0625 21.96875 24.703125 23.78125 
L 21.578125 24.515625 
Q 13.234375 26.265625 9.515625 29.90625 
Q 5.8125 33.546875 5.8125 39.890625 
Q 5.8125 47.609375 11.28125 51.796875 
Q 16.75 56 26.8125 56 
Q 31.78125 56 36.171875 55.265625 
Q 40.578125 54.546875 44.28125 53.078125 
" id="DejaVuSans-73"/>
     <path d="M 25.203125 64.796875 
L 20.21875 38.921875 
L 32.90625 38.921875 
Q 40.375 38.921875 44.984375 43.046875 
Q 49.609375 47.171875 49.609375 53.8125 
Q 49.609375 59.125 46.5 61.953125 
Q 43.40625 64.796875 37.59375 64.796875 
z
M 43.3125 35.015625 
Q 46.4375 34.28125 48.515625 31.390625 
Q 50.59375 28.515625 53.328125 19.921875 
L 59.515625 0 
L 49.125 0 
L 43.40625 18.703125 
Q 41.21875 25.921875 38.328125 28.359375 
Q 35.453125 30.8125 29.5 30.8125 
L 18.609375 30.8125 
L 12.59375 0 
L 2.6875 0 
L 16.890625 72.90625 
L 39.109375 72.90625 
Q 49.21875 72.90625 54.609375 68.328125 
Q 60.015625 63.765625 60.015625 55.171875 
Q 60.015625 47.5625 55.421875 41.984375 
Q 50.828125 36.421875 43.3125 35.015625 
" id="DejaVuSans-Oblique-52"/>
    </defs>
    <g transform="translate(130.461 18.14175)scale(0.144 -0.144)">
     <use transform="translate(0 0.765625)" xlink:href="#DejaVuSans-50"/>
     <use transform="translate(60.302734 0.765625)" xlink:href="#DejaVuSans-72"/>
     <use transform="translate(101.416016 0.765625)" xlink:href="#DejaVuSans-65"/>
     <use transform="translate(162.939453 0.765625)" xlink:href="#DejaVuSans-64"/>
     <use transform="translate(226.416016 0.765625)" xlink:href="#DejaVuSans-69"/>
     <use transform="translate(254.199219 0.765625)" xlink:href="#DejaVuSans-63"/>
     <use transform="translate(309.179688 0.765625)" xlink:href="#DejaVuSans-74"/>
     <use transform="translate(348.388672 0.765625)" xlink:href="#DejaVuSans-69"/>
     <use transform="translate(376.171875 0.765625)" xlink:href="#DejaVuSans-6f"/>
     <use transform="translate(437.353516 0.765625)" xlink:href="#DejaVuSans-6e"/>
     <use transform="translate(500.732422 0.765625)" xlink:href="#DejaVuSans-20"/>
     <use transform="translate(532.519531 0.765625)" xlink:href="#DejaVuSans-46"/>
     <use transform="translate(590.039062 0.765625)" xlink:href="#DejaVuSans-69"/>
     <use transform="translate(617.822266 0.765625)" xlink:href="#DejaVuSans-74"/>
     <use transform="translate(657.03125 0.765625)" xlink:href="#DejaVuSans-6e"/>
     <use transform="translate(720.410156 0.765625)" xlink:href="#DejaVuSans-65"/>
     <use transform="translate(781.933594 0.765625)" xlink:href="#DejaVuSans-73"/>
     <use transform="translate(834.033203 0.765625)" xlink:href="#DejaVuSans-73"/>
     <use transform="translate(886.132812 0.765625)" xlink:href="#DejaVuSans-20"/>
     <use transform="translate(917.919922 0.765625)" xlink:href="#DejaVuSans-Oblique-52"/>
     <use transform="translate(994.419115 39.046875)scale(0.7)" xlink:href="#DejaVuSans-32"/>
    </g>
   </g>
  </g>
 </g>
 <defs>
  <clipPath id="p50503f922f">
   <rect height="266.112" width="357.12" x="26.925" y="24.14175"/>
  </clipPath>
 </defs>
</svg>
