<?xml version="1.0" encoding="utf-8" standalone="no"?>
<!DOCTYPE svg PUBLIC "-//W3C//DTD SVG 1.1//EN"
  "http://www.w3.org/Graphics/SVG/1.1/DTD/svg11.dtd">
<!-- Created with matplotlib (http://matplotlib.org/) -->
<svg height="340pt" version="1.1" viewBox="0 0 394 340" width="394pt" xmlns="http://www.w3.org/2000/svg" xmlns:xlink="http://www.w3.org/1999/xlink">
 <defs>
  <style type="text/css">
*{stroke-linecap:butt;stroke-linejoin:round;}
  </style>
 </defs>
 <g id="figure_1">
  <g id="patch_1">
   <path d="M 0 340.842128 
L 394.745 340.842128 
L 394.745 0 
L 0 0 
z
" style="fill:#ffffff;"/>
  </g>
  <g id="axes_1">
   <g id="patch_2">
    <path d="M 26.925 290.25375 
L 384.045 290.25375 
L 384.045 24.14175 
L 26.925 24.14175 
z
" style="fill:#e5e5e5;"/>
   </g>
   <g id="matplotlib.axis_1">
    <g id="xtick_1">
     <g id="line2d_1">
      <path clip-path="url(#p071ba0dd87)" d="M 35.581712 290.25375 
L 35.581712 24.14175 
" style="fill:none;stroke:#ffffff;stroke-linecap:square;stroke-width:0.8;"/>
     </g>
     <g id="line2d_2">
      <defs>
       <path d="M 0 0 
L 0 3.5 
" id="m433d57f85f" style="stroke:#555555;stroke-width:0.8;"/>
      </defs>
      <g>
       <use style="fill:#555555;stroke:#555555;stroke-width:0.8;" x="35.581712" xlink:href="#m433d57f85f" y="290.25375"/>
      </g>
     </g>
     <g id="text_1">
      <!-- 1999-12 -->
      <defs>
       <path d="M 12.40625 8.296875 
L 28.515625 8.296875 
L 28.515625 63.921875 
L 10.984375 60.40625 
L 10.984375 69.390625 
L 28.421875 72.90625 
L 38.28125 72.90625 
L 38.28125 8.296875 
L 54.390625 8.296875 
L 54.390625 0 
L 12.40625 0 
z
" id="DejaVuSans-31"/>
       <path d="M 10.984375 1.515625 
L 10.984375 10.5 
Q 14.703125 8.734375 18.5 7.8125 
Q 22.3125 6.890625 25.984375 6.890625 
Q 35.75 6.890625 40.890625 13.453125 
Q 46.046875 20.015625 46.78125 33.40625 
Q 43.953125 29.203125 39.59375 26.953125 
Q 35.25 24.703125 29.984375 24.703125 
Q 19.046875 24.703125 12.671875 31.3125 
Q 6.296875 37.9375 6.296875 49.421875 
Q 6.296875 60.640625 12.9375 67.421875 
Q 19.578125 74.21875 30.609375 74.21875 
Q 43.265625 74.21875 49.921875 64.515625 
Q 56.59375 54.828125 56.59375 36.375 
Q 56.59375 19.140625 48.40625 8.859375 
Q 40.234375 -1.421875 26.421875 -1.421875 
Q 22.703125 -1.421875 18.890625 -0.6875 
Q 15.09375 0.046875 10.984375 1.515625 
M 30.609375 32.421875 
Q 37.25 32.421875 41.125 36.953125 
Q 45.015625 41.5 45.015625 49.421875 
Q 45.015625 57.28125 41.125 61.84375 
Q 37.25 66.40625 30.609375 66.40625 
Q 23.96875 66.40625 20.09375 61.84375 
Q 16.21875 57.28125 16.21875 49.421875 
Q 16.21875 41.5 20.09375 36.953125 
Q 23.96875 32.421875 30.609375 32.421875 
" id="DejaVuSans-39"/>
       <path d="M 4.890625 31.390625 
L 31.203125 31.390625 
L 31.203125 23.390625 
L 4.890625 23.390625 
z
" id="DejaVuSans-2d"/>
       <path d="M 19.1875 8.296875 
L 53.609375 8.296875 
L 53.609375 0 
L 7.328125 0 
L 7.328125 8.296875 
Q 12.9375 14.109375 22.625 23.890625 
Q 32.328125 33.6875 34.8125 36.53125 
Q 39.546875 41.84375 41.421875 45.53125 
Q 43.3125 49.21875 43.3125 52.78125 
Q 43.3125 58.59375 39.234375 62.25 
Q 35.15625 65.921875 28.609375 65.921875 
Q 23.96875 65.921875 18.8125 64.3125 
Q 13.671875 62.703125 7.8125 59.421875 
L 7.8125 69.390625 
Q 13.765625 71.78125 18.9375 73 
Q 24.125 74.21875 28.421875 74.21875 
Q 39.75 74.21875 46.484375 68.546875 
Q 53.21875 62.890625 53.21875 53.421875 
Q 53.21875 48.921875 51.53125 44.890625 
Q 49.859375 40.875 45.40625 35.40625 
Q 44.1875 33.984375 37.640625 27.21875 
Q 31.109375 20.453125 19.1875 8.296875 
" id="DejaVuSans-32"/>
      </defs>
      <g style="fill:#555555;" transform="translate(22.76043 332.171567)rotate(-45)scale(0.1 -0.1)">
       <use xlink:href="#DejaVuSans-31"/>
       <use x="63.623047" xlink:href="#DejaVuSans-39"/>
       <use x="127.246094" xlink:href="#DejaVuSans-39"/>
       <use x="190.869141" xlink:href="#DejaVuSans-39"/>
       <use x="254.492188" xlink:href="#DejaVuSans-2d"/>
       <use x="290.576172" xlink:href="#DejaVuSans-31"/>
       <use x="354.199219" xlink:href="#DejaVuSans-32"/>
      </g>
     </g>
    </g>
    <g id="xtick_2">
     <g id="line2d_3">
      <path clip-path="url(#p071ba0dd87)" d="M 76.358501 290.25375 
L 76.358501 24.14175 
" style="fill:none;stroke:#ffffff;stroke-linecap:square;stroke-width:0.8;"/>
     </g>
     <g id="line2d_4">
      <g>
       <use style="fill:#555555;stroke:#555555;stroke-width:0.8;" x="76.358501" xlink:href="#m433d57f85f" y="290.25375"/>
      </g>
     </g>
     <g id="text_2">
      <!-- 2000-06 -->
      <defs>
       <path d="M 31.78125 66.40625 
Q 24.171875 66.40625 20.328125 58.90625 
Q 16.5 51.421875 16.5 36.375 
Q 16.5 21.390625 20.328125 13.890625 
Q 24.171875 6.390625 31.78125 6.390625 
Q 39.453125 6.390625 43.28125 13.890625 
Q 47.125 21.390625 47.125 36.375 
Q 47.125 51.421875 43.28125 58.90625 
Q 39.453125 66.40625 31.78125 66.40625 
M 31.78125 74.21875 
Q 44.046875 74.21875 50.515625 64.515625 
Q 56.984375 54.828125 56.984375 36.375 
Q 56.984375 17.96875 50.515625 8.265625 
Q 44.046875 -1.421875 31.78125 -1.421875 
Q 19.53125 -1.421875 13.0625 8.265625 
Q 6.59375 17.96875 6.59375 36.375 
Q 6.59375 54.828125 13.0625 64.515625 
Q 19.53125 74.21875 31.78125 74.21875 
" id="DejaVuSans-30"/>
       <path d="M 33.015625 40.375 
Q 26.375 40.375 22.484375 35.828125 
Q 18.609375 31.296875 18.609375 23.390625 
Q 18.609375 15.53125 22.484375 10.953125 
Q 26.375 6.390625 33.015625 6.390625 
Q 39.65625 6.390625 43.53125 10.953125 
Q 47.40625 15.53125 47.40625 23.390625 
Q 47.40625 31.296875 43.53125 35.828125 
Q 39.65625 40.375 33.015625 40.375 
M 52.59375 71.296875 
L 52.59375 62.3125 
Q 48.875 64.0625 45.09375 64.984375 
Q 41.3125 65.921875 37.59375 65.921875 
Q 27.828125 65.921875 22.671875 59.328125 
Q 17.53125 52.734375 16.796875 39.40625 
Q 19.671875 43.65625 24.015625 45.921875 
Q 28.375 48.1875 33.59375 48.1875 
Q 44.578125 48.1875 50.953125 41.515625 
Q 57.328125 34.859375 57.328125 23.390625 
Q 57.328125 12.15625 50.6875 5.359375 
Q 44.046875 -1.421875 33.015625 -1.421875 
Q 20.359375 -1.421875 13.671875 8.265625 
Q 6.984375 17.96875 6.984375 36.375 
Q 6.984375 53.65625 15.1875 63.9375 
Q 23.390625 74.21875 37.203125 74.21875 
Q 40.921875 74.21875 44.703125 73.484375 
Q 48.484375 72.75 52.59375 71.296875 
" id="DejaVuSans-36"/>
      </defs>
      <g style="fill:#555555;" transform="translate(63.537219 332.171567)rotate(-45)scale(0.1 -0.1)">
       <use xlink:href="#DejaVuSans-32"/>
       <use x="63.623047" xlink:href="#DejaVuSans-30"/>
       <use x="127.246094" xlink:href="#DejaVuSans-30"/>
       <use x="190.869141" xlink:href="#DejaVuSans-30"/>
       <use x="254.492188" xlink:href="#DejaVuSans-2d"/>
       <use x="290.576172" xlink:href="#DejaVuSans-30"/>
       <use x="354.199219" xlink:href="#DejaVuSans-36"/>
      </g>
     </g>
    </g>
    <g id="xtick_3">
     <g id="line2d_5">
      <path clip-path="url(#p071ba0dd87)" d="M 117.13529 290.25375 
L 117.13529 24.14175 
" style="fill:none;stroke:#ffffff;stroke-linecap:square;stroke-width:0.8;"/>
     </g>
     <g id="line2d_6">
      <g>
       <use style="fill:#555555;stroke:#555555;stroke-width:0.8;" x="117.13529" xlink:href="#m433d57f85f" y="290.25375"/>
      </g>
     </g>
     <g id="text_3">
      <!-- 2000-12 -->
      <g style="fill:#555555;" transform="translate(104.314008 332.171567)rotate(-45)scale(0.1 -0.1)">
       <use xlink:href="#DejaVuSans-32"/>
       <use x="63.623047" xlink:href="#DejaVuSans-30"/>
       <use x="127.246094" xlink:href="#DejaVuSans-30"/>
       <use x="190.869141" xlink:href="#DejaVuSans-30"/>
       <use x="254.492188" xlink:href="#DejaVuSans-2d"/>
       <use x="290.576172" xlink:href="#DejaVuSans-31"/>
       <use x="354.199219" xlink:href="#DejaVuSans-32"/>
      </g>
     </g>
    </g>
    <g id="xtick_4">
     <g id="line2d_7">
      <path clip-path="url(#p071ba0dd87)" d="M 157.689255 290.25375 
L 157.689255 24.14175 
" style="fill:none;stroke:#ffffff;stroke-linecap:square;stroke-width:0.8;"/>
     </g>
     <g id="line2d_8">
      <g>
       <use style="fill:#555555;stroke:#555555;stroke-width:0.8;" x="157.689255" xlink:href="#m433d57f85f" y="290.25375"/>
      </g>
     </g>
     <g id="text_4">
      <!-- 2001-06 -->
      <g style="fill:#555555;" transform="translate(144.867973 332.171567)rotate(-45)scale(0.1 -0.1)">
       <use xlink:href="#DejaVuSans-32"/>
       <use x="63.623047" xlink:href="#DejaVuSans-30"/>
       <use x="127.246094" xlink:href="#DejaVuSans-30"/>
       <use x="190.869141" xlink:href="#DejaVuSans-31"/>
       <use x="254.492188" xlink:href="#DejaVuSans-2d"/>
       <use x="290.576172" xlink:href="#DejaVuSans-30"/>
       <use x="354.199219" xlink:href="#DejaVuSans-36"/>
      </g>
     </g>
    </g>
    <g id="xtick_5">
     <g id="line2d_9">
      <path clip-path="url(#p071ba0dd87)" d="M 198.466044 290.25375 
L 198.466044 24.14175 
" style="fill:none;stroke:#ffffff;stroke-linecap:square;stroke-width:0.8;"/>
     </g>
     <g id="line2d_10">
      <g>
       <use style="fill:#555555;stroke:#555555;stroke-width:0.8;" x="198.466044" xlink:href="#m433d57f85f" y="290.25375"/>
      </g>
     </g>
     <g id="text_5">
      <!-- 2001-12 -->
      <g style="fill:#555555;" transform="translate(185.644762 332.171567)rotate(-45)scale(0.1 -0.1)">
       <use xlink:href="#DejaVuSans-32"/>
       <use x="63.623047" xlink:href="#DejaVuSans-30"/>
       <use x="127.246094" xlink:href="#DejaVuSans-30"/>
       <use x="190.869141" xlink:href="#DejaVuSans-31"/>
       <use x="254.492188" xlink:href="#DejaVuSans-2d"/>
       <use x="290.576172" xlink:href="#DejaVuSans-31"/>
       <use x="354.199219" xlink:href="#DejaVuSans-32"/>
      </g>
     </g>
    </g>
    <g id="xtick_6">
     <g id="line2d_11">
      <path clip-path="url(#p071ba0dd87)" d="M 239.02001 290.25375 
L 239.02001 24.14175 
" style="fill:none;stroke:#ffffff;stroke-linecap:square;stroke-width:0.8;"/>
     </g>
     <g id="line2d_12">
      <g>
       <use style="fill:#555555;stroke:#555555;stroke-width:0.8;" x="239.02001" xlink:href="#m433d57f85f" y="290.25375"/>
      </g>
     </g>
     <g id="text_6">
      <!-- 2002-06 -->
      <g style="fill:#555555;" transform="translate(226.198727 332.171567)rotate(-45)scale(0.1 -0.1)">
       <use xlink:href="#DejaVuSans-32"/>
       <use x="63.623047" xlink:href="#DejaVuSans-30"/>
       <use x="127.246094" xlink:href="#DejaVuSans-30"/>
       <use x="190.869141" xlink:href="#DejaVuSans-32"/>
       <use x="254.492188" xlink:href="#DejaVuSans-2d"/>
       <use x="290.576172" xlink:href="#DejaVuSans-30"/>
       <use x="354.199219" xlink:href="#DejaVuSans-36"/>
      </g>
     </g>
    </g>
    <g id="xtick_7">
     <g id="line2d_13">
      <path clip-path="url(#p071ba0dd87)" d="M 279.796799 290.25375 
L 279.796799 24.14175 
" style="fill:none;stroke:#ffffff;stroke-linecap:square;stroke-width:0.8;"/>
     </g>
     <g id="line2d_14">
      <g>
       <use style="fill:#555555;stroke:#555555;stroke-width:0.8;" x="279.796799" xlink:href="#m433d57f85f" y="290.25375"/>
      </g>
     </g>
     <g id="text_7">
      <!-- 2002-12 -->
      <g style="fill:#555555;" transform="translate(266.975517 332.171567)rotate(-45)scale(0.1 -0.1)">
       <use xlink:href="#DejaVuSans-32"/>
       <use x="63.623047" xlink:href="#DejaVuSans-30"/>
       <use x="127.246094" xlink:href="#DejaVuSans-30"/>
       <use x="190.869141" xlink:href="#DejaVuSans-32"/>
       <use x="254.492188" xlink:href="#DejaVuSans-2d"/>
       <use x="290.576172" xlink:href="#DejaVuSans-31"/>
       <use x="354.199219" xlink:href="#DejaVuSans-32"/>
      </g>
     </g>
    </g>
    <g id="xtick_8">
     <g id="line2d_15">
      <path clip-path="url(#p071ba0dd87)" d="M 320.350764 290.25375 
L 320.350764 24.14175 
" style="fill:none;stroke:#ffffff;stroke-linecap:square;stroke-width:0.8;"/>
     </g>
     <g id="line2d_16">
      <g>
       <use style="fill:#555555;stroke:#555555;stroke-width:0.8;" x="320.350764" xlink:href="#m433d57f85f" y="290.25375"/>
      </g>
     </g>
     <g id="text_8">
      <!-- 2003-06 -->
      <defs>
       <path d="M 40.578125 39.3125 
Q 47.65625 37.796875 51.625 33 
Q 55.609375 28.21875 55.609375 21.1875 
Q 55.609375 10.40625 48.1875 4.484375 
Q 40.765625 -1.421875 27.09375 -1.421875 
Q 22.515625 -1.421875 17.65625 -0.515625 
Q 12.796875 0.390625 7.625 2.203125 
L 7.625 11.71875 
Q 11.71875 9.328125 16.59375 8.109375 
Q 21.484375 6.890625 26.8125 6.890625 
Q 36.078125 6.890625 40.9375 10.546875 
Q 45.796875 14.203125 45.796875 21.1875 
Q 45.796875 27.640625 41.28125 31.265625 
Q 36.765625 34.90625 28.71875 34.90625 
L 20.21875 34.90625 
L 20.21875 43.015625 
L 29.109375 43.015625 
Q 36.375 43.015625 40.234375 45.921875 
Q 44.09375 48.828125 44.09375 54.296875 
Q 44.09375 59.90625 40.109375 62.90625 
Q 36.140625 65.921875 28.71875 65.921875 
Q 24.65625 65.921875 20.015625 65.03125 
Q 15.375 64.15625 9.8125 62.3125 
L 9.8125 71.09375 
Q 15.4375 72.65625 20.34375 73.4375 
Q 25.25 74.21875 29.59375 74.21875 
Q 40.828125 74.21875 47.359375 69.109375 
Q 53.90625 64.015625 53.90625 55.328125 
Q 53.90625 49.265625 50.4375 45.09375 
Q 46.96875 40.921875 40.578125 39.3125 
" id="DejaVuSans-33"/>
      </defs>
      <g style="fill:#555555;" transform="translate(307.529482 332.171567)rotate(-45)scale(0.1 -0.1)">
       <use xlink:href="#DejaVuSans-32"/>
       <use x="63.623047" xlink:href="#DejaVuSans-30"/>
       <use x="127.246094" xlink:href="#DejaVuSans-30"/>
       <use x="190.869141" xlink:href="#DejaVuSans-33"/>
       <use x="254.492188" xlink:href="#DejaVuSans-2d"/>
       <use x="290.576172" xlink:href="#DejaVuSans-30"/>
       <use x="354.199219" xlink:href="#DejaVuSans-36"/>
      </g>
     </g>
    </g>
    <g id="xtick_9">
     <g id="line2d_17">
      <path clip-path="url(#p071ba0dd87)" d="M 361.127553 290.25375 
L 361.127553 24.14175 
" style="fill:none;stroke:#ffffff;stroke-linecap:square;stroke-width:0.8;"/>
     </g>
     <g id="line2d_18">
      <g>
       <use style="fill:#555555;stroke:#555555;stroke-width:0.8;" x="361.127553" xlink:href="#m433d57f85f" y="290.25375"/>
      </g>
     </g>
     <g id="text_9">
      <!-- 2003-12 -->
      <g style="fill:#555555;" transform="translate(348.306271 332.171567)rotate(-45)scale(0.1 -0.1)">
       <use xlink:href="#DejaVuSans-32"/>
       <use x="63.623047" xlink:href="#DejaVuSans-30"/>
       <use x="127.246094" xlink:href="#DejaVuSans-30"/>
       <use x="190.869141" xlink:href="#DejaVuSans-33"/>
       <use x="254.492188" xlink:href="#DejaVuSans-2d"/>
       <use x="290.576172" xlink:href="#DejaVuSans-31"/>
       <use x="354.199219" xlink:href="#DejaVuSans-32"/>
      </g>
     </g>
    </g>
   </g>
   <g id="matplotlib.axis_2">
    <g id="ytick_1">
     <g id="line2d_19">
      <path clip-path="url(#p071ba0dd87)" d="M 26.925 271.19204 
L 384.045 271.19204 
" style="fill:none;stroke:#ffffff;stroke-linecap:square;stroke-width:0.8;"/>
     </g>
     <g id="line2d_20">
      <defs>
       <path d="M 0 0 
L -3.5 0 
" id="m7b702a858c" style="stroke:#555555;stroke-width:0.8;"/>
      </defs>
      <g>
       <use style="fill:#555555;stroke:#555555;stroke-width:0.8;" x="26.925" xlink:href="#m7b702a858c" y="271.19204"/>
      </g>
     </g>
     <g id="text_10">
      <!-- 0 -->
      <g style="fill:#555555;" transform="translate(13.5625 274.991259)scale(0.1 -0.1)">
       <use xlink:href="#DejaVuSans-30"/>
      </g>
     </g>
    </g>
    <g id="ytick_2">
     <g id="line2d_21">
      <path clip-path="url(#p071ba0dd87)" d="M 26.925 235.08678 
L 384.045 235.08678 
" style="fill:none;stroke:#ffffff;stroke-linecap:square;stroke-width:0.8;"/>
     </g>
     <g id="line2d_22">
      <g>
       <use style="fill:#555555;stroke:#555555;stroke-width:0.8;" x="26.925" xlink:href="#m7b702a858c" y="235.08678"/>
      </g>
     </g>
     <g id="text_11">
      <!-- 5 -->
      <defs>
       <path d="M 10.796875 72.90625 
L 49.515625 72.90625 
L 49.515625 64.59375 
L 19.828125 64.59375 
L 19.828125 46.734375 
Q 21.96875 47.46875 24.109375 47.828125 
Q 26.265625 48.1875 28.421875 48.1875 
Q 40.625 48.1875 47.75 41.5 
Q 54.890625 34.8125 54.890625 23.390625 
Q 54.890625 11.625 47.5625 5.09375 
Q 40.234375 -1.421875 26.90625 -1.421875 
Q 22.3125 -1.421875 17.546875 -0.640625 
Q 12.796875 0.140625 7.71875 1.703125 
L 7.71875 11.625 
Q 12.109375 9.234375 16.796875 8.0625 
Q 21.484375 6.890625 26.703125 6.890625 
Q 35.15625 6.890625 40.078125 11.328125 
Q 45.015625 15.765625 45.015625 23.390625 
Q 45.015625 31 40.078125 35.4375 
Q 35.15625 39.890625 26.703125 39.890625 
Q 22.75 39.890625 18.8125 39.015625 
Q 14.890625 38.140625 10.796875 36.28125 
z
" id="DejaVuSans-35"/>
      </defs>
      <g style="fill:#555555;" transform="translate(13.5625 238.885998)scale(0.1 -0.1)">
       <use xlink:href="#DejaVuSans-35"/>
      </g>
     </g>
    </g>
    <g id="ytick_3">
     <g id="line2d_23">
      <path clip-path="url(#p071ba0dd87)" d="M 26.925 198.981519 
L 384.045 198.981519 
" style="fill:none;stroke:#ffffff;stroke-linecap:square;stroke-width:0.8;"/>
     </g>
     <g id="line2d_24">
      <g>
       <use style="fill:#555555;stroke:#555555;stroke-width:0.8;" x="26.925" xlink:href="#m7b702a858c" y="198.981519"/>
      </g>
     </g>
     <g id="text_12">
      <!-- 10 -->
      <g style="fill:#555555;" transform="translate(7.2 202.780738)scale(0.1 -0.1)">
       <use xlink:href="#DejaVuSans-31"/>
       <use x="63.623047" xlink:href="#DejaVuSans-30"/>
      </g>
     </g>
    </g>
    <g id="ytick_4">
     <g id="line2d_25">
      <path clip-path="url(#p071ba0dd87)" d="M 26.925 162.876258 
L 384.045 162.876258 
" style="fill:none;stroke:#ffffff;stroke-linecap:square;stroke-width:0.8;"/>
     </g>
     <g id="line2d_26">
      <g>
       <use style="fill:#555555;stroke:#555555;stroke-width:0.8;" x="26.925" xlink:href="#m7b702a858c" y="162.876258"/>
      </g>
     </g>
     <g id="text_13">
      <!-- 15 -->
      <g style="fill:#555555;" transform="translate(7.2 166.675477)scale(0.1 -0.1)">
       <use xlink:href="#DejaVuSans-31"/>
       <use x="63.623047" xlink:href="#DejaVuSans-35"/>
      </g>
     </g>
    </g>
    <g id="ytick_5">
     <g id="line2d_27">
      <path clip-path="url(#p071ba0dd87)" d="M 26.925 126.770998 
L 384.045 126.770998 
" style="fill:none;stroke:#ffffff;stroke-linecap:square;stroke-width:0.8;"/>
     </g>
     <g id="line2d_28">
      <g>
       <use style="fill:#555555;stroke:#555555;stroke-width:0.8;" x="26.925" xlink:href="#m7b702a858c" y="126.770998"/>
      </g>
     </g>
     <g id="text_14">
      <!-- 20 -->
      <g style="fill:#555555;" transform="translate(7.2 130.570216)scale(0.1 -0.1)">
       <use xlink:href="#DejaVuSans-32"/>
       <use x="63.623047" xlink:href="#DejaVuSans-30"/>
      </g>
     </g>
    </g>
    <g id="ytick_6">
     <g id="line2d_29">
      <path clip-path="url(#p071ba0dd87)" d="M 26.925 90.665737 
L 384.045 90.665737 
" style="fill:none;stroke:#ffffff;stroke-linecap:square;stroke-width:0.8;"/>
     </g>
     <g id="line2d_30">
      <g>
       <use style="fill:#555555;stroke:#555555;stroke-width:0.8;" x="26.925" xlink:href="#m7b702a858c" y="90.665737"/>
      </g>
     </g>
     <g id="text_15">
      <!-- 25 -->
      <g style="fill:#555555;" transform="translate(7.2 94.464956)scale(0.1 -0.1)">
       <use xlink:href="#DejaVuSans-32"/>
       <use x="63.623047" xlink:href="#DejaVuSans-35"/>
      </g>
     </g>
    </g>
    <g id="ytick_7">
     <g id="line2d_31">
      <path clip-path="url(#p071ba0dd87)" d="M 26.925 54.560476 
L 384.045 54.560476 
" style="fill:none;stroke:#ffffff;stroke-linecap:square;stroke-width:0.8;"/>
     </g>
     <g id="line2d_32">
      <g>
       <use style="fill:#555555;stroke:#555555;stroke-width:0.8;" x="26.925" xlink:href="#m7b702a858c" y="54.560476"/>
      </g>
     </g>
     <g id="text_16">
      <!-- 30 -->
      <g style="fill:#555555;" transform="translate(7.2 58.359695)scale(0.1 -0.1)">
       <use xlink:href="#DejaVuSans-33"/>
       <use x="63.623047" xlink:href="#DejaVuSans-30"/>
      </g>
     </g>
    </g>
   </g>
   <g id="line2d_33">
    <path clip-path="url(#p071ba0dd87)" d="M 43.157727 271.19204 
L 43.380551 271.201907 
L 43.603375 271.155516 
L 43.826199 271.066569 
L 45.385967 271.07639 
L 46.277263 271.074575 
L 46.945735 271.501045 
L 47.837031 271.59685 
L 48.282679 271.802899 
L 51.179391 271.467898 
L 51.625039 271.436085 
L 52.516335 271.393604 
L 53.184807 271.683609 
L 54.076103 271.622254 
L 54.744574 271.835448 
L 55.63587 271.714332 
L 55.858694 271.803734 
L 56.304342 271.744058 
L 58.755406 272.246384 
L 59.201054 272.254544 
L 59.423878 272.296594 
L 60.537998 272.059423 
L 60.983646 271.9477 
L 61.874942 272.025206 
L 62.543414 272.151823 
L 63.211886 272.297344 
L 64.103182 272.104011 
L 64.771654 272.036601 
L 65.440126 272.599575 
L 65.66295 272.479257 
L 68.114014 272.08428 
L 68.782485 271.713152 
L 69.896605 271.733403 
L 70.342253 271.552754 
L 71.010725 271.45654 
L 71.233549 271.605881 
L 71.902021 271.315036 
L 74.353085 271.238052 
L 74.575909 271.297255 
L 75.021557 271.095931 
L 77.918269 271.317378 
L 78.141093 271.445466 
L 79.032389 271.496744 
L 80.369333 271.763679 
L 80.814981 271.928451 
L 81.260629 271.942284 
L 82.374749 272.065085 
L 82.597573 272.190054 
L 82.820397 272.083319 
L 85.048636 272.240172 
L 85.717108 272.31874 
L 86.608404 272.37562 
L 86.831228 272.504774 
L 88.168172 272.503842 
L 89.059468 272.83792 
L 90.396412 272.898991 
L 90.619236 272.777718 
L 91.510532 272.841577 
L 91.733356 272.905924 
L 92.179004 272.708569 
L 93.0703 272.64978 
L 93.738772 272.443542 
L 95.075716 272.218849 
L 95.967012 272.122109 
L 96.635484 272.028509 
L 96.858308 271.9998 
L 99.532195 272.241779 
L 99.977843 272.455303 
L 101.314787 272.640518 
L 101.537611 272.739627 
L 102.874555 273.041444 
L 103.097379 273.191479 
L 104.211499 273.366779 
L 104.434323 273.525421 
L 105.325619 273.633306 
L 105.548443 273.684232 
L 105.771267 273.912455 
L 105.994091 273.769709 
L 106.216915 273.864324 
L 109.336451 274.578011 
L 110.227747 274.586685 
L 110.450571 274.721888 
L 114.90705 274.319731 
L 115.129874 274.202105 
L 115.575522 274.115287 
L 116.466818 274.245765 
L 117.13529 274.668829 
L 117.803762 274.637176 
L 118.24941 274.770081 
L 118.695058 274.595209 
L 119.586354 274.841923 
L 120.254826 275.100602 
L 121.59177 275.275379 
L 121.814594 275.163951 
L 122.70589 275.022147 
L 122.928714 274.862014 
L 123.151538 274.876205 
L 123.374362 275.094931 
L 124.265658 274.895076 
L 124.711306 275.259113 
L 127.608017 275.350517 
L 127.830841 275.453174 
L 128.944961 275.405877 
L 129.390609 275.505345 
L 129.613433 275.416287 
L 130.727553 275.426213 
L 130.950377 275.487388 
L 132.064497 275.313355 
L 132.510145 275.44609 
L 132.732969 275.273799 
L 134.292737 275.16944 
L 135.629681 275.369715 
L 135.852505 275.234404 
L 136.520977 275.298542 
L 136.966625 275.544905 
L 138.749217 275.368133 
L 138.972041 275.587743 
L 140.086161 275.754221 
L 140.308985 275.926493 
L 140.531809 275.800868 
L 141.423104 276.068285 
L 142.091576 276.429603 
L 143.651344 276.532202 
L 144.54264 276.819361 
L 144.765464 276.685125 
L 144.988288 276.78648 
L 145.879584 276.644005 
L 146.325232 276.763398 
L 146.548056 276.675308 
L 149.667592 276.226693 
L 149.890416 276.150162 
L 153.901248 275.532479 
L 154.56972 275.291471 
L 157.689255 275.056005 
L 159.249023 274.87224 
L 160.140319 274.922181 
L 160.585967 275.075165 
L 161.922911 275.163308 
L 162.368559 275.288484 
L 163.482679 275.368764 
L 163.928327 275.402284 
L 164.819623 275.321519 
L 166.379391 275.648566 
L 173.286934 275.676749 
L 176.183646 275.349191 
L 176.40647 275.311175 
L 179.080358 275.635771 
L 179.526006 275.825217 
L 180.194478 275.985266 
L 181.754246 276.104163 
L 182.199894 276.429336 
L 184.873781 276.637393 
L 185.096605 276.503222 
L 185.542253 276.609085 
L 185.765077 276.498374 
L 187.324845 276.326657 
L 187.993317 276.232939 
L 188.216141 276.435554 
L 188.661789 276.329624 
L 188.884613 276.211027 
L 189.775909 276.075248 
L 190.221557 275.861626 
L 190.444381 276.005267 
L 191.112853 276.111229 
L 192.672621 275.570489 
L 192.895445 275.500455 
L 193.118269 275.579522 
L 193.563917 275.445434 
L 194.678037 275.358633 
L 195.123685 275.305845 
L 196.237805 275.223508 
L 196.683453 275.142879 
L 198.243221 275.077744 
L 199.580164 274.94709 
L 200.694284 275.07551 
L 201.139932 275.116861 
L 202.254052 275.118471 
L 202.6997 275.246301 
L 202.922524 275.177085 
L 205.819236 274.997317 
L 206.04206 275.066573 
L 206.933356 275.132891 
L 210.49854 275.341081 
L 210.721364 275.316064 
L 213.395251 275.709022 
L 213.840899 275.503576 
L 216.291963 275.366307 
L 216.737611 275.519474 
L 217.628907 275.430825 
L 218.297379 275.532423 
L 218.520203 275.494667 
L 220.748443 275.66376 
L 222.753859 275.509598 
L 223.867979 275.535249 
L 224.536451 275.340095 
L 226.096219 275.296166 
L 226.319043 275.20278 
L 227.433162 275.292022 
L 233.672234 275.661513 
L 233.895058 275.791734 
L 234.117882 275.705309 
L 235.67765 275.695122 
L 236.568946 275.765458 
L 237.014594 275.616006 
L 239.688482 275.667861 
L 239.911306 275.784875 
L 240.356954 275.739619 
L 241.471074 275.921582 
L 241.916721 275.848197 
L 242.808017 275.905124 
L 244.813433 276.175386 
L 245.036257 276.293028 
L 245.927553 276.441214 
L 246.150377 276.271577 
L 247.264497 276.439851 
L 247.487321 276.6577 
L 247.932969 276.82783 
L 248.155793 276.907791 
L 249.047089 277.084192 
L 249.715561 277.537781 
L 250.384033 277.718541 
L 250.606857 277.424065 
L 250.829681 277.591358 
L 251.052505 277.597446 
L 251.275329 277.446903 
L 252.166625 277.576571 
L 252.835097 278.140192 
L 253.726393 278.012697 
L 254.394865 277.69444 
L 255.063337 277.727574 
L 255.508985 277.469436 
L 255.954632 277.218154 
L 256.845928 277.11726 
L 257.5144 276.899556 
L 258.405696 277.061808 
L 258.851344 276.931631 
L 259.074168 277.070898 
L 261.525232 276.763305 
L 261.748056 276.839453 
L 262.193704 276.721076 
L 266.42736 277.617549 
L 266.873008 277.931203 
L 267.54148 277.991879 
L 267.764304 278.15775 
L 268.432776 278.008627 
L 269.324072 278.066077 
L 269.76972 278.033695 
L 269.992544 277.942332 
L 270.661015 277.97376 
L 271.106663 277.794659 
L 271.329487 277.682302 
L 271.552311 277.807483 
L 274.449023 277.660006 
L 274.671847 277.777113 
L 275.563143 277.593479 
L 276.231615 277.386399 
L 276.900087 277.391172 
L 277.345735 277.187485 
L 277.791383 277.038516 
L 278.459855 277.047269 
L 278.905503 276.911005 
L 279.351151 277.001983 
L 280.910919 276.997516 
L 287.818462 276.243748 
L 288.26411 276.322772 
L 288.486934 276.305248 
L 288.709758 276.402766 
L 289.601054 276.404971 
L 290.269526 276.7064 
L 291.383646 276.810107 
L 291.829294 277.017468 
L 294.503182 277.079033 
L 294.726006 277.183058 
L 294.94883 277.129233 
L 296.285774 277.06308 
L 296.508598 276.979417 
L 299.182485 277.108197 
L 302.079197 277.421303 
L 304.084613 277.22858 
L 304.307437 277.336425 
L 305.867205 277.287389 
L 307.204149 277.32405 
L 307.426973 277.427986 
L 308.986741 277.453837 
L 311.437805 277.219177 
L 311.883453 277.308139 
L 312.106277 277.223595 
L 313.220397 277.24156 
L 313.666044 277.170685 
L 318.122524 277.165507 
L 318.345348 277.09761 
L 320.573588 277.097618 
L 321.019236 276.959075 
L 321.464884 277.113712 
L 323.915948 276.970133 
L 324.58442 277.135629 
L 328.595251 276.933176 
L 328.818075 277.026152 
L 329.263723 277.010108 
L 330.155019 277.181989 
L 330.377843 277.267647 
L 330.823491 277.283023 
L 333.943027 277.142087 
L 335.502795 277.054051 
L 341.073395 276.533459 
L 342.855986 276.679828 
L 343.970106 276.545398 
L 345.529874 276.589174 
L 346.42117 276.923292 
L 347.312466 276.91816 
L 347.980938 276.829696 
L 350.654826 276.869891 
L 351.100474 276.921977 
L 353.328714 276.796209 
L 353.774362 276.833101 
L 354.22001 276.771878 
L 355.556954 276.831142 
L 355.779778 276.899315 
L 357.339545 276.984851 
L 358.676489 277.113368 
L 358.899313 277.030799 
L 361.127553 276.949925 
L 361.573201 277.041624 
L 365.138385 277.229194 
L 367.812273 277.017588 
L 367.812273 277.017588 
" style="fill:none;stroke:#e24a33;stroke-linecap:square;stroke-width:1.5;"/>
   </g>
   <g id="line2d_34">
    <path clip-path="url(#p071ba0dd87)" d="M 43.157727 271.19204 
L 43.826199 270.24639 
L 44.717495 269.932491 
L 45.385967 269.311984 
L 46.277263 269.066152 
L 46.945735 268.262461 
L 47.837031 267.756084 
L 48.505503 266.972697 
L 49.173975 266.747858 
L 50.065271 265.86606 
L 50.956567 265.340159 
L 51.625039 264.611871 
L 52.293511 264.440556 
L 53.184807 263.550171 
L 54.076103 263.295409 
L 54.298926 262.920561 
L 54.52175 261.8131 
L 54.744574 261.44794 
L 55.413046 261.108095 
L 56.304342 259.795671 
L 56.972814 259.382032 
L 57.418462 258.488447 
L 57.86411 257.950758 
L 58.532582 257.509514 
L 58.97823 256.56976 
L 59.423878 255.956474 
L 60.09235 255.64709 
L 60.983646 254.376547 
L 61.652118 254.148534 
L 61.874942 253.857987 
L 62.097766 253.029635 
L 62.543414 252.438385 
L 63.43471 251.772205 
L 64.103182 250.922982 
L 64.771654 250.640618 
L 65.217302 250.041367 
L 65.66295 248.453595 
L 66.331422 248.108497 
L 66.77707 247.460316 
L 66.999894 247.234457 
L 67.89119 246.857225 
L 68.782485 245.416418 
L 69.673781 244.88062 
L 70.342253 244.189966 
L 71.010725 243.964098 
L 71.902021 242.997087 
L 72.570493 242.647725 
L 73.461789 241.513377 
L 74.353085 240.972047 
L 74.798733 240.335343 
L 75.021557 240.039434 
L 75.912853 239.815416 
L 76.581325 238.929079 
L 77.249797 238.695454 
L 77.472621 238.407507 
L 77.918269 237.628598 
L 78.141093 237.412783 
L 79.255213 236.672558 
L 79.700861 236.196577 
L 80.369333 235.783649 
L 81.260629 234.7825 
L 81.929101 234.546022 
L 82.374749 233.806772 
L 82.820397 233.212881 
L 83.488868 232.937839 
L 84.15734 232.354156 
L 84.380164 232.079856 
L 85.27146 231.629768 
L 85.717108 231.167517 
L 85.939932 230.95821 
L 86.608404 230.771126 
L 87.4997 229.913437 
L 88.390996 229.486362 
L 88.836644 228.942244 
L 89.059468 228.509603 
L 89.72794 228.361282 
L 90.173588 227.922041 
L 90.619236 227.410533 
L 91.287708 227.26169 
L 92.179004 226.371144 
L 92.847476 226.1854 
L 93.738772 225.282672 
L 94.407244 225.141784 
L 95.29854 224.298255 
L 96.189836 223.919838 
L 96.858308 223.259298 
L 97.749603 223.095533 
L 98.418075 222.47084 
L 99.532195 221.846191 
L 99.977843 221.366846 
L 100.646315 221.102179 
L 101.314787 220.251757 
L 101.537611 219.946406 
L 102.206083 219.712905 
L 102.874555 218.798884 
L 103.765851 218.082429 
L 103.988675 217.348624 
L 104.211499 217.147096 
L 104.434323 216.352139 
L 105.548443 215.463486 
L 106.216915 214.243377 
L 106.885387 213.810526 
L 107.331035 213.009089 
L 107.776683 212.58414 
L 108.445155 212.337215 
L 110.227747 210.564686 
L 110.673395 210.267405 
L 110.896219 210.069368 
L 111.564691 209.859843 
L 112.455986 208.89599 
L 113.124458 208.66259 
L 113.79293 208.002631 
L 114.015754 207.523245 
L 114.684226 207.306897 
L 115.575522 206.582629 
L 116.243994 206.242456 
L 116.466818 205.967709 
L 116.912466 204.923374 
L 118.24941 203.732915 
L 118.695058 202.534944 
L 119.36353 202.314803 
L 119.809178 201.729043 
L 120.254826 201.181784 
L 120.923298 201.038704 
L 121.59177 200.088154 
L 121.814594 199.594031 
L 122.70589 199.27678 
L 123.151538 198.642515 
L 123.374362 197.962165 
L 124.488482 196.558057 
L 124.93413 195.82405 
L 125.602602 195.649866 
L 126.493897 193.910653 
L 127.385193 193.75803 
L 128.053665 192.852102 
L 129.390609 191.968826 
L 129.613433 191.648961 
L 130.281905 191.513762 
L 131.173201 190.501539 
L 131.841673 190.329997 
L 132.510145 189.586416 
L 132.732969 189.131706 
L 133.401441 188.922485 
L 133.847089 188.447461 
L 134.292737 187.942207 
L 135.184033 187.520511 
L 135.852505 186.701197 
L 136.743801 186.185726 
L 136.966625 185.974956 
L 137.412273 184.997053 
L 138.080745 184.819757 
L 138.303569 184.638545 
L 138.749217 184.030493 
L 138.972041 183.768327 
L 139.863337 183.274412 
L 140.531809 182.193585 
L 141.20028 181.820832 
L 141.423104 181.564109 
L 141.868752 180.864457 
L 142.091576 180.601407 
L 142.760048 180.408644 
L 143.205696 179.640019 
L 143.651344 178.969719 
L 144.319816 178.301564 
L 144.765464 177.151233 
L 145.211112 176.512064 
L 146.102408 175.95495 
L 146.548056 175.581135 
L 147.439352 175.362269 
L 147.662176 174.251957 
L 148.330648 173.604969 
L 148.99912 173.345235 
L 149.444768 172.774759 
L 149.890416 172.383946 
L 150.558888 172.209691 
L 151.450184 171.199872 
L 152.34148 170.866068 
L 153.009952 170.271286 
L 153.678424 170.055505 
L 154.124072 169.422488 
L 154.346896 169.30147 
L 154.56972 168.968011 
L 155.238191 168.754062 
L 155.906663 168.185666 
L 156.129487 167.948592 
L 157.243607 167.472304 
L 157.689255 166.896852 
L 158.580551 166.488476 
L 159.249023 165.901731 
L 159.917495 165.759798 
L 160.808791 164.901395 
L 161.477263 164.631143 
L 162.368559 163.577046 
L 163.037031 163.375265 
L 163.928327 162.309679 
L 164.819623 162.001441 
L 166.156567 161.415989 
L 166.602215 160.944997 
L 167.047863 160.57185 
L 167.716335 160.382965 
L 168.161983 159.82519 
L 168.607631 159.375824 
L 169.498926 159.058359 
L 170.167398 158.530833 
L 171.058694 158.145773 
L 171.727166 157.599037 
L 172.395638 157.415173 
L 173.286934 156.676146 
L 173.955406 156.464436 
L 174.846702 155.651114 
L 175.737998 155.340547 
L 176.40647 154.744556 
L 177.297766 154.404179 
L 177.743414 154.027331 
L 177.966238 153.844733 
L 178.857534 153.683385 
L 179.526006 152.695288 
L 180.194478 152.330474 
L 181.754246 152.033878 
L 181.97707 151.845774 
L 182.422718 150.870746 
L 182.645542 150.47876 
L 183.314014 150.175939 
L 184.205309 149.013379 
L 184.873781 148.826962 
L 185.319429 148.025144 
L 185.765077 147.5333 
L 186.433549 147.347329 
L 187.324845 146.345953 
L 187.993317 146.105044 
L 188.438965 145.513379 
L 188.884613 145.108826 
L 189.553085 144.917984 
L 189.775909 144.680523 
L 189.998733 144.129855 
L 190.444381 143.629501 
L 191.112853 143.415313 
L 192.004149 142.31915 
L 192.895445 141.961613 
L 193.563917 141.431231 
L 194.455213 141.058626 
L 194.900861 140.627465 
L 195.123685 140.457375 
L 196.014981 140.118455 
L 196.683453 139.698996 
L 197.351925 139.523259 
L 198.243221 138.728701 
L 198.911692 138.503015 
L 199.35734 138.06132 
L 199.802988 137.717468 
L 200.47146 137.587138 
L 201.139932 136.933745 
L 201.362756 136.724226 
L 202.254052 136.347257 
L 202.922524 135.737077 
L 204.036644 135.429497 
L 204.482292 135.10025 
L 205.150764 134.890241 
L 205.819236 134.438755 
L 206.04206 134.105498 
L 207.15618 133.522162 
L 208.493124 132.803442 
L 208.938772 132.547326 
L 209.161596 132.320886 
L 210.49854 131.85205 
L 210.721364 131.729814 
L 211.61266 131.29973 
L 212.281132 130.745239 
L 213.172427 130.42826 
L 213.840899 129.683022 
L 214.509371 129.539545 
L 215.400667 128.814924 
L 216.291963 128.612328 
L 216.737611 128.18906 
L 216.960435 127.986983 
L 217.628907 127.572041 
L 217.851731 127.219665 
L 218.297379 126.977499 
L 218.520203 126.247655 
L 219.188675 126.068756 
L 220.079971 125.353211 
L 220.748443 125.242226 
L 220.971267 124.297464 
L 222.976683 123.187493 
L 223.199507 122.995185 
L 224.090803 122.707718 
L 224.536451 122.417678 
L 225.427747 122.26809 
L 226.319043 121.639308 
L 226.987515 121.421788 
L 227.655986 120.754848 
L 227.87881 120.158601 
L 228.770106 119.894124 
L 230.329874 119.102158 
L 230.998346 118.398151 
L 231.666818 118.23893 
L 232.112466 117.792407 
L 232.558114 117.028419 
L 233.226586 116.864075 
L 233.672234 116.252306 
L 234.117882 115.799019 
L 235.454826 114.934388 
L 235.67765 114.783611 
L 236.346122 114.556502 
L 237.237418 113.831299 
L 238.351538 113.542962 
L 238.574362 113.384176 
L 238.797186 113.079968 
L 239.688482 112.770822 
L 240.356954 112.07698 
L 241.025426 111.900491 
L 241.471074 111.504996 
L 241.916721 111.103149 
L 242.585193 110.908415 
L 243.030841 110.531734 
L 243.253665 109.982894 
L 243.476489 109.741348 
L 244.144961 109.527824 
L 245.036257 108.29998 
L 245.704729 108.087761 
L 246.150377 107.529253 
L 247.264497 107.088662 
L 247.932969 106.479432 
L 248.155793 106.232177 
L 248.824265 105.872057 
L 249.715561 104.894918 
L 250.384033 104.421279 
L 250.606857 103.692451 
L 251.275329 102.887893 
L 251.943801 102.627828 
L 252.835097 101.262835 
L 253.503569 101.081224 
L 254.394865 100.191066 
L 255.063337 99.946745 
L 255.286161 99.505156 
L 255.731809 99.015383 
L 255.954632 98.741843 
L 256.623104 98.549039 
L 257.5144 97.680045 
L 258.182872 97.481111 
L 259.074168 96.639766 
L 259.965464 96.399918 
L 260.633936 95.778119 
L 261.525232 95.478285 
L 262.193704 94.960715 
L 263.085 94.524341 
L 263.753472 93.984221 
L 264.421944 93.649162 
L 264.867592 93.081538 
L 266.873008 91.099983 
L 267.54148 90.858299 
L 268.432776 89.666423 
L 269.324072 88.993883 
L 269.992544 88.280275 
L 270.661015 88.021981 
L 271.329487 86.900412 
L 271.552311 86.681995 
L 272.220783 86.433125 
L 272.443607 85.88968 
L 273.112079 85.242454 
L 273.780551 85.062011 
L 274.226199 84.536241 
L 274.671847 84.130469 
L 275.340319 83.969786 
L 276.231615 83.081389 
L 276.900087 82.880986 
L 277.791383 81.665449 
L 278.459855 81.492967 
L 278.905503 81.143244 
L 280.242447 80.596558 
L 280.910919 79.981408 
L 281.579391 79.827743 
L 282.470687 79.055721 
L 283.139159 78.918277 
L 283.807631 78.205948 
L 284.030455 77.877737 
L 284.698926 77.786359 
L 285.590222 77.273392 
L 286.258694 77.048959 
L 286.481518 76.798338 
L 288.26411 75.89957 
L 288.709758 75.446297 
L 289.37823 75.290465 
L 290.269526 74.544468 
L 291.383646 74.305257 
L 291.829294 73.8961 
L 292.497766 73.699194 
L 293.166238 73.089165 
L 293.389062 72.947094 
L 294.057534 72.852399 
L 294.94883 72.033581 
L 295.840126 71.76972 
L 296.508598 71.199882 
L 297.622718 70.955248 
L 298.068366 70.525094 
L 298.959662 70.211949 
L 299.628133 69.721265 
L 300.519429 69.445985 
L 301.187901 69.022182 
L 302.079197 68.831664 
L 302.747669 68.003491 
L 303.638965 67.67248 
L 304.307437 67.140084 
L 305.198733 66.885437 
L 305.867205 66.550387 
L 306.758501 66.3029 
L 307.426973 65.896901 
L 308.095445 65.782245 
L 308.541093 65.480396 
L 308.986741 65.200377 
L 309.878037 64.838622 
L 310.323685 64.498108 
L 311.214981 64.283089 
L 311.437805 63.937641 
L 311.883453 63.6997 
L 312.106277 63.50419 
L 312.997573 63.241712 
L 313.666044 62.744498 
L 314.780164 62.039611 
L 315.225812 61.786737 
L 315.894284 61.672155 
L 316.117108 61.346346 
L 317.454052 60.748057 
L 317.8997 60.300044 
L 318.345348 59.996617 
L 319.459468 59.773455 
L 319.905116 59.315052 
L 320.573588 59.172435 
L 321.019236 58.770485 
L 321.464884 58.423379 
L 322.35618 58.003391 
L 322.801828 57.721875 
L 323.024652 57.523052 
L 323.915948 57.218266 
L 324.361596 56.925902 
L 324.58442 56.683708 
L 325.475716 56.431267 
L 326.144188 56.036094 
L 327.035484 55.744225 
L 327.481132 55.459866 
L 328.372427 55.122795 
L 328.818075 54.722027 
L 329.263723 54.430573 
L 330.155019 54.180167 
L 330.823491 53.598533 
L 331.491963 53.487009 
L 332.383259 52.71182 
L 333.274555 52.463442 
L 333.720203 51.969931 
L 333.943027 51.832886 
L 334.611499 51.653393 
L 335.279971 51.165135 
L 335.502795 50.98434 
L 336.394091 50.743412 
L 337.062563 50.304626 
L 337.953859 49.983055 
L 338.399507 49.515927 
L 338.622331 49.411059 
L 339.513627 49.185751 
L 340.182099 48.766333 
L 341.073395 48.656938 
L 341.519043 48.311049 
L 341.741867 48.190129 
L 342.633162 47.90385 
L 343.301634 47.493343 
L 344.19293 47.229686 
L 344.861402 46.843555 
L 345.529874 46.744818 
L 345.752698 46.559011 
L 345.975522 46.22051 
L 346.198346 46.090118 
L 346.42117 45.779862 
L 347.089642 45.673566 
L 347.758114 45.166855 
L 347.980938 45.065263 
L 348.64941 44.886371 
L 349.540706 44.252441 
L 350.209178 44.125139 
L 350.87765 43.653663 
L 351.100474 43.516481 
L 351.99177 43.174894 
L 352.660242 42.787937 
L 353.328714 42.610614 
L 353.774362 42.128867 
L 354.22001 41.823929 
L 355.33413 41.495101 
L 355.779778 41.274824 
L 356.44825 41.15685 
L 357.339545 40.540645 
L 358.230841 40.300739 
L 358.899313 39.842972 
L 359.790609 39.604031 
L 360.459081 39.298288 
L 361.127553 39.21064 
L 361.796025 38.567059 
L 362.018849 38.428111 
L 362.910145 38.12192 
L 363.578617 37.563273 
L 364.469913 37.290821 
L 364.915561 36.987257 
L 365.138385 36.866509 
L 366.252505 36.574534 
L 366.698153 36.419747 
L 367.812273 36.23775 
L 367.812273 36.23775 
" style="fill:none;stroke:#348abd;stroke-linecap:square;stroke-width:1.5;"/>
   </g>
   <g id="line2d_35">
    <path clip-path="url(#p071ba0dd87)" d="M 43.157727 271.19204 
L 43.603375 271.052012 
L 43.826199 270.932796 
L 46.277263 270.835377 
L 46.722911 270.923165 
L 46.945735 271.132785 
L 48.282679 271.076299 
L 49.173975 270.862318 
L 50.065271 270.301494 
L 50.956567 270.090932 
L 51.402215 269.571103 
L 51.625039 269.41242 
L 52.739159 269.440743 
L 53.184807 269.378547 
L 54.298926 269.734545 
L 54.52175 267.760226 
L 54.744574 267.808822 
L 55.413046 267.755901 
L 55.63587 267.961713 
L 56.081518 267.726666 
L 56.304342 267.936278 
L 56.972814 267.657796 
L 57.195638 267.37104 
L 57.418462 267.364177 
L 57.641286 267.588318 
L 57.86411 267.482711 
L 58.532582 267.447473 
L 58.97823 267.214444 
L 59.201054 267.340495 
L 59.423878 267.310106 
L 60.09235 267.331758 
L 60.315174 267.199501 
L 60.537998 266.892941 
L 60.983646 266.651993 
L 61.874942 266.452683 
L 62.097766 266.400429 
L 62.32059 266.530461 
L 62.543414 266.296408 
L 63.43471 266.167995 
L 64.103182 265.344085 
L 65.217302 264.882144 
L 65.440126 265.03126 
L 65.66295 265.322787 
L 66.331422 265.21341 
L 66.77707 264.507365 
L 66.999894 264.361975 
L 67.89119 264.140353 
L 68.114014 263.858361 
L 68.336838 263.77531 
L 68.559662 263.521253 
L 68.782485 263.632268 
L 69.673781 263.323385 
L 71.010725 262.823021 
L 71.456373 262.777645 
L 71.902021 262.468689 
L 72.570493 262.21733 
L 72.793317 261.884885 
L 74.130261 261.496572 
L 74.575909 261.487219 
L 75.021557 261.09978 
L 77.472621 260.89507 
L 77.695445 260.656953 
L 79.255213 260.552068 
L 79.700861 260.650746 
L 80.369333 260.638443 
L 80.592157 260.507308 
L 81.037805 260.482938 
L 81.260629 260.436679 
L 82.597573 260.644399 
L 82.820397 260.389531 
L 83.934516 260.393332 
L 84.380164 260.577391 
L 85.048636 260.626542 
L 85.494284 260.519729 
L 85.939932 260.486835 
L 86.831228 260.50557 
L 87.054052 260.540184 
L 87.4997 260.325193 
L 89.059468 260.634893 
L 90.396412 260.605053 
L 90.619236 260.388064 
L 91.95618 260.301535 
L 92.179004 260.173811 
L 93.0703 259.960395 
L 93.515948 259.713824 
L 93.738772 259.645654 
L 95.075716 259.412385 
L 95.29854 259.263126 
L 96.41266 259.111115 
L 96.635484 258.694201 
L 96.858308 258.619218 
L 97.972427 258.652402 
L 98.418075 258.59911 
L 99.086547 258.615393 
L 99.532195 258.443598 
L 99.977843 258.483344 
L 101.314787 258.622726 
L 101.537611 258.384753 
L 102.651731 258.536166 
L 102.874555 258.283171 
L 103.097379 258.334197 
L 103.988675 258.386784 
L 104.434323 258.554858 
L 104.657147 258.438772 
L 105.548443 258.646932 
L 105.771267 258.629766 
L 105.994091 258.392672 
L 106.216915 258.483821 
L 106.885387 258.299454 
L 107.108211 257.891379 
L 107.776683 258.306025 
L 108.667979 258.36941 
L 108.890803 258.492138 
L 109.336451 258.168714 
L 110.450571 258.284003 
L 110.896219 257.911939 
L 112.010338 257.766265 
L 112.455986 257.940374 
L 113.347282 257.891391 
L 113.79293 257.674396 
L 114.015754 257.149299 
L 115.129874 256.737427 
L 115.575522 256.420661 
L 116.466818 256.126605 
L 116.912466 256.332849 
L 117.13529 256.412182 
L 118.472234 256.070656 
L 118.695058 255.417837 
L 119.36353 255.459834 
L 119.586354 255.139172 
L 120.254826 255.079772 
L 121.368946 255.430929 
L 121.814594 254.892504 
L 123.151538 254.712869 
L 123.374362 254.344593 
L 124.265658 254.076166 
L 124.488482 254.15106 
L 124.93413 253.936291 
L 126.04825 254.089522 
L 126.271074 253.81931 
L 126.493897 253.747986 
L 129.613433 254.044154 
L 130.281905 253.960386 
L 130.504729 254.053 
L 130.950377 253.868126 
L 131.173201 254.218343 
L 131.841673 254.42248 
L 132.510145 254.136408 
L 132.732969 253.898274 
L 133.847089 253.657667 
L 134.292737 253.303498 
L 135.629681 253.148111 
L 135.852505 252.799996 
L 136.520977 252.73696 
L 136.743801 252.913261 
L 137.189449 253.006705 
L 137.412273 252.622423 
L 138.303569 252.479575 
L 138.526393 252.137507 
L 138.749217 252.096468 
L 138.972041 252.256423 
L 140.308985 252.235272 
L 140.531809 252.027545 
L 141.423104 251.973405 
L 141.645928 252.135708 
L 141.868752 252.107808 
L 142.091576 252.225463 
L 142.982872 252.279978 
L 143.205696 252.214603 
L 143.42852 252.381113 
L 143.651344 252.184029 
L 144.319816 252.293014 
L 144.54264 251.556279 
L 144.765464 251.368988 
L 144.988288 251.44701 
L 145.211112 251.341479 
L 147.439352 251.047756 
L 148.107824 251.618954 
L 148.330648 251.51567 
L 148.99912 251.389661 
L 149.444768 251.058961 
L 150.781712 250.584536 
L 151.450184 249.968104 
L 152.564304 249.808722 
L 152.787128 249.918329 
L 153.009952 249.667785 
L 154.56972 249.330306 
L 155.683839 249.149094 
L 156.129487 248.96021 
L 157.243607 248.902055 
L 157.689255 248.632504 
L 161.477263 248.155478 
L 161.922911 248.182984 
L 164.596799 248.124489 
L 164.819623 248.021039 
L 165.488095 248.08717 
L 166.379391 248.085368 
L 166.602215 248.213307 
L 167.047863 248.100302 
L 169.498926 248.10804 
L 169.944574 248.075292 
L 170.167398 247.94947 
L 173.06411 247.309167 
L 173.286934 247.202922 
L 173.955406 247.066618 
L 174.846702 246.437087 
L 175.960822 246.2506 
L 176.40647 246.072225 
L 177.074942 246.040811 
L 177.297766 245.916163 
L 177.52059 246.025637 
L 177.966238 245.8367 
L 179.080358 245.934147 
L 179.526006 245.969829 
L 181.754246 246.024107 
L 181.97707 246.146212 
L 182.645542 245.784405 
L 183.982485 245.989747 
L 184.205309 245.597326 
L 185.765077 245.32703 
L 187.102021 245.152317 
L 187.324845 244.890877 
L 188.661789 244.519923 
L 188.884613 244.40067 
L 190.221557 244.062922 
L 190.444381 243.866734 
L 191.112853 243.809588 
L 192.004149 243.21055 
L 199.134516 241.825459 
L 199.580164 241.798923 
L 199.802988 241.719112 
L 201.362756 241.853677 
L 204.259468 241.354071 
L 204.482292 241.219958 
L 207.379004 241.211087 
L 207.601828 241.047857 
L 208.715948 241.129464 
L 209.161596 240.956359 
L 211.61266 240.775835 
L 211.835484 241.073838 
L 212.281132 240.94328 
L 213.395251 240.86069 
L 213.618075 240.593296 
L 213.840899 240.515163 
L 214.732195 240.33893 
L 215.177843 240.171126 
L 216.291963 239.992456 
L 216.960435 240.127219 
L 217.851731 239.935372 
L 218.074555 240.044676 
L 218.297379 239.989336 
L 218.520203 240.077451 
L 219.411499 240.092374 
L 219.634323 239.948055 
L 220.079971 240.000735 
L 221.194091 239.884672 
L 221.639739 239.694922 
L 222.753859 239.527258 
L 223.199507 239.359436 
L 224.313627 239.218335 
L 224.536451 239.117019 
L 225.650571 239.017544 
L 226.319043 238.704077 
L 227.87881 238.512078 
L 229.438578 238.501226 
L 230.329874 238.433134 
L 230.998346 237.973765 
L 232.112466 237.955302 
L 232.558114 237.866678 
L 235.232002 237.66008 
L 235.67765 237.556199 
L 236.568946 237.522033 
L 237.237418 237.240044 
L 238.574362 237.061893 
L 238.797186 236.991897 
L 239.911306 237.064252 
L 240.13413 237.25954 
L 241.916721 237.084868 
L 243.030841 236.927668 
L 244.144961 237.033703 
L 244.590609 236.923596 
L 245.036257 236.984734 
L 245.704729 237.108454 
L 246.150377 236.764393 
L 246.596025 236.600771 
L 247.710145 236.788928 
L 247.932969 236.924174 
L 248.155793 236.900682 
L 249.269913 237.01556 
L 249.715561 237.275284 
L 250.384033 237.279874 
L 250.606857 236.987273 
L 251.275329 236.785624 
L 252.389449 236.866576 
L 252.612273 236.936403 
L 252.835097 236.734465 
L 253.503569 236.720557 
L 254.172041 236.238459 
L 254.394865 236.042444 
L 255.063337 235.911444 
L 255.508985 235.595346 
L 256.845928 235.17189 
L 257.5144 234.854932 
L 258.405696 234.769321 
L 259.074168 234.328471 
L 260.188288 234.065141 
L 260.633936 233.834644 
L 261.525232 233.646943 
L 261.97088 234.102776 
L 262.193704 234.014166 
L 263.307824 233.884956 
L 263.530648 233.97472 
L 263.753472 233.817984 
L 265.090416 233.801299 
L 265.31324 233.880239 
L 266.204536 234.108641 
L 266.873008 234.468254 
L 267.764304 234.690681 
L 268.209952 234.697263 
L 268.432776 234.568883 
L 269.992544 234.156229 
L 270.883839 234.039849 
L 271.552311 233.535425 
L 272.443607 233.491468 
L 272.889255 233.151904 
L 273.112079 233.096364 
L 274.226199 233.00557 
L 274.671847 232.726193 
L 275.340319 232.656351 
L 276.231615 232.028138 
L 276.900087 231.932469 
L 277.122911 231.775047 
L 277.345735 231.788936 
L 277.791383 231.490785 
L 278.459855 231.403883 
L 278.905503 231.078101 
L 279.351151 231.105421 
L 280.242447 230.88239 
L 280.910919 230.480603 
L 282.025039 230.263886 
L 282.470687 230.083304 
L 283.139159 230.028113 
L 283.584807 229.793199 
L 283.807631 229.831703 
L 284.030455 229.488648 
L 284.92175 229.357616 
L 287.14999 228.899888 
L 288.26411 229.030194 
L 288.709758 228.850626 
L 289.601054 228.721855 
L 290.269526 228.815648 
L 292.497766 228.867533 
L 292.72059 228.780088 
L 293.166238 228.844932 
L 293.389062 228.770443 
L 294.503182 228.682863 
L 294.94883 228.473915 
L 300.296605 227.860511 
L 300.965077 227.893641 
L 301.856373 227.873636 
L 302.302021 227.972538 
L 306.535677 227.555231 
L 306.981325 227.616024 
L 307.204149 227.457372 
L 307.426973 227.504589 
L 308.763917 227.417602 
L 308.986741 227.299197 
L 310.323685 227.071638 
L 311.883453 227.087389 
L 312.106277 227.018179 
L 312.997573 226.936757 
L 313.666044 226.856022 
L 314.334516 226.759989 
L 314.55734 226.600798 
L 315.225812 226.56177 
L 316.562756 226.500418 
L 318.345348 226.367071 
L 320.573588 226.35051 
L 321.019236 226.240724 
L 321.24206 226.281599 
L 321.464884 226.18786 
L 322.579004 225.88374 
L 323.024652 225.657071 
L 324.138772 225.692429 
L 324.361596 225.73069 
L 324.58442 225.637647 
L 325.475716 225.497434 
L 325.921364 225.342835 
L 327.035484 225.278013 
L 327.481132 225.194761 
L 329.040899 225.44156 
L 329.263723 225.388491 
L 330.600667 225.507329 
L 330.823491 225.604104 
L 331.714787 225.588408 
L 332.160435 225.375983 
L 332.383259 225.347606 
L 333.497379 225.365835 
L 333.943027 225.237505 
L 336.616915 224.82016 
L 339.513627 224.579636 
L 340.182099 224.400377 
L 341.296219 224.512581 
L 341.519043 224.560364 
L 341.741867 224.486282 
L 343.301634 224.470231 
L 344.415754 224.380376 
L 344.861402 224.423465 
L 345.529874 224.35054 
L 345.752698 224.585292 
L 346.42117 224.618985 
L 347.312466 224.553448 
L 347.758114 224.464472 
L 347.980938 224.397929 
L 349.095058 224.380312 
L 351.768946 224.278244 
L 352.214594 224.291189 
L 352.660242 224.126012 
L 353.328714 224.136124 
L 353.551538 223.804124 
L 354.22001 223.504615 
L 356.893897 223.470028 
L 357.339545 223.553801 
L 358.230841 223.618509 
L 358.676489 223.498919 
L 358.899313 223.42168 
L 361.573201 222.933816 
L 362.018849 222.840347 
L 363.132969 222.964747 
L 363.355793 222.90713 
L 363.578617 223.039381 
L 365.138385 223.029541 
L 367.812273 222.664639 
L 367.812273 222.664639 
" style="fill:none;stroke:#988ed5;stroke-linecap:square;stroke-width:1.5;"/>
   </g>
   <g id="patch_3">
    <path d="M 26.925 290.25375 
L 26.925 24.14175 
" style="fill:none;stroke:#ffffff;stroke-linecap:square;stroke-linejoin:miter;"/>
   </g>
   <g id="patch_4">
    <path d="M 384.045 290.25375 
L 384.045 24.14175 
" style="fill:none;stroke:#ffffff;stroke-linecap:square;stroke-linejoin:miter;"/>
   </g>
   <g id="patch_5">
    <path d="M 26.925 290.25375 
L 384.045 290.25375 
" style="fill:none;stroke:#ffffff;stroke-linecap:square;stroke-linejoin:miter;"/>
   </g>
   <g id="patch_6">
    <path d="M 26.925 24.14175 
L 384.045 24.14175 
" style="fill:none;stroke:#ffffff;stroke-linecap:square;stroke-linejoin:miter;"/>
   </g>
   <g id="text_17">
    <!-- Cumulative Return (Log) -->
    <defs>
     <path d="M 64.40625 67.28125 
L 64.40625 56.890625 
Q 59.421875 61.53125 53.78125 63.8125 
Q 48.140625 66.109375 41.796875 66.109375 
Q 29.296875 66.109375 22.65625 58.46875 
Q 16.015625 50.828125 16.015625 36.375 
Q 16.015625 21.96875 22.65625 14.328125 
Q 29.296875 6.6875 41.796875 6.6875 
Q 48.140625 6.6875 53.78125 8.984375 
Q 59.421875 11.28125 64.40625 15.921875 
L 64.40625 5.609375 
Q 59.234375 2.09375 53.4375 0.328125 
Q 47.65625 -1.421875 41.21875 -1.421875 
Q 24.65625 -1.421875 15.125 8.703125 
Q 5.609375 18.84375 5.609375 36.375 
Q 5.609375 53.953125 15.125 64.078125 
Q 24.65625 74.21875 41.21875 74.21875 
Q 47.75 74.21875 53.53125 72.484375 
Q 59.328125 70.75 64.40625 67.28125 
" id="DejaVuSans-43"/>
     <path d="M 8.5 21.578125 
L 8.5 54.6875 
L 17.484375 54.6875 
L 17.484375 21.921875 
Q 17.484375 14.15625 20.5 10.265625 
Q 23.53125 6.390625 29.59375 6.390625 
Q 36.859375 6.390625 41.078125 11.03125 
Q 45.3125 15.671875 45.3125 23.6875 
L 45.3125 54.6875 
L 54.296875 54.6875 
L 54.296875 0 
L 45.3125 0 
L 45.3125 8.40625 
Q 42.046875 3.421875 37.71875 1 
Q 33.40625 -1.421875 27.6875 -1.421875 
Q 18.265625 -1.421875 13.375 4.4375 
Q 8.5 10.296875 8.5 21.578125 
M 31.109375 56 
z
" id="DejaVuSans-75"/>
     <path d="M 52 44.1875 
Q 55.375 50.25 60.0625 53.125 
Q 64.75 56 71.09375 56 
Q 79.640625 56 84.28125 50.015625 
Q 88.921875 44.046875 88.921875 33.015625 
L 88.921875 0 
L 79.890625 0 
L 79.890625 32.71875 
Q 79.890625 40.578125 77.09375 44.375 
Q 74.3125 48.1875 68.609375 48.1875 
Q 61.625 48.1875 57.5625 43.546875 
Q 53.515625 38.921875 53.515625 30.90625 
L 53.515625 0 
L 44.484375 0 
L 44.484375 32.71875 
Q 44.484375 40.625 41.703125 44.40625 
Q 38.921875 48.1875 33.109375 48.1875 
Q 26.21875 48.1875 22.15625 43.53125 
Q 18.109375 38.875 18.109375 30.90625 
L 18.109375 0 
L 9.078125 0 
L 9.078125 54.6875 
L 18.109375 54.6875 
L 18.109375 46.1875 
Q 21.1875 51.21875 25.484375 53.609375 
Q 29.78125 56 35.6875 56 
Q 41.65625 56 45.828125 52.96875 
Q 50 49.953125 52 44.1875 
" id="DejaVuSans-6d"/>
     <path d="M 9.421875 75.984375 
L 18.40625 75.984375 
L 18.40625 0 
L 9.421875 0 
z
" id="DejaVuSans-6c"/>
     <path d="M 34.28125 27.484375 
Q 23.390625 27.484375 19.1875 25 
Q 14.984375 22.515625 14.984375 16.5 
Q 14.984375 11.71875 18.140625 8.90625 
Q 21.296875 6.109375 26.703125 6.109375 
Q 34.1875 6.109375 38.703125 11.40625 
Q 43.21875 16.703125 43.21875 25.484375 
L 43.21875 27.484375 
z
M 52.203125 31.203125 
L 52.203125 0 
L 43.21875 0 
L 43.21875 8.296875 
Q 40.140625 3.328125 35.546875 0.953125 
Q 30.953125 -1.421875 24.3125 -1.421875 
Q 15.921875 -1.421875 10.953125 3.296875 
Q 6 8.015625 6 15.921875 
Q 6 25.140625 12.171875 29.828125 
Q 18.359375 34.515625 30.609375 34.515625 
L 43.21875 34.515625 
L 43.21875 35.40625 
Q 43.21875 41.609375 39.140625 45 
Q 35.0625 48.390625 27.6875 48.390625 
Q 23 48.390625 18.546875 47.265625 
Q 14.109375 46.140625 10.015625 43.890625 
L 10.015625 52.203125 
Q 14.9375 54.109375 19.578125 55.046875 
Q 24.21875 56 28.609375 56 
Q 40.484375 56 46.34375 49.84375 
Q 52.203125 43.703125 52.203125 31.203125 
" id="DejaVuSans-61"/>
     <path d="M 18.3125 70.21875 
L 18.3125 54.6875 
L 36.8125 54.6875 
L 36.8125 47.703125 
L 18.3125 47.703125 
L 18.3125 18.015625 
Q 18.3125 11.328125 20.140625 9.421875 
Q 21.96875 7.515625 27.59375 7.515625 
L 36.8125 7.515625 
L 36.8125 0 
L 27.59375 0 
Q 17.1875 0 13.234375 3.875 
Q 9.28125 7.765625 9.28125 18.015625 
L 9.28125 47.703125 
L 2.6875 47.703125 
L 2.6875 54.6875 
L 9.28125 54.6875 
L 9.28125 70.21875 
z
" id="DejaVuSans-74"/>
     <path d="M 9.421875 54.6875 
L 18.40625 54.6875 
L 18.40625 0 
L 9.421875 0 
z
M 9.421875 75.984375 
L 18.40625 75.984375 
L 18.40625 64.59375 
L 9.421875 64.59375 
z
" id="DejaVuSans-69"/>
     <path d="M 2.984375 54.6875 
L 12.5 54.6875 
L 29.59375 8.796875 
L 46.6875 54.6875 
L 56.203125 54.6875 
L 35.6875 0 
L 23.484375 0 
z
" id="DejaVuSans-76"/>
     <path d="M 56.203125 29.59375 
L 56.203125 25.203125 
L 14.890625 25.203125 
Q 15.484375 15.921875 20.484375 11.0625 
Q 25.484375 6.203125 34.421875 6.203125 
Q 39.59375 6.203125 44.453125 7.46875 
Q 49.3125 8.734375 54.109375 11.28125 
L 54.109375 2.78125 
Q 49.265625 0.734375 44.1875 -0.34375 
Q 39.109375 -1.421875 33.890625 -1.421875 
Q 20.796875 -1.421875 13.15625 6.1875 
Q 5.515625 13.8125 5.515625 26.8125 
Q 5.515625 40.234375 12.765625 48.109375 
Q 20.015625 56 32.328125 56 
Q 43.359375 56 49.78125 48.890625 
Q 56.203125 41.796875 56.203125 29.59375 
M 47.21875 32.234375 
Q 47.125 39.59375 43.09375 43.984375 
Q 39.0625 48.390625 32.421875 48.390625 
Q 24.90625 48.390625 20.390625 44.140625 
Q 15.875 39.890625 15.1875 32.171875 
z
" id="DejaVuSans-65"/>
     <path id="DejaVuSans-20"/>
     <path d="M 44.390625 34.1875 
Q 47.5625 33.109375 50.5625 29.59375 
Q 53.5625 26.078125 56.59375 19.921875 
L 66.609375 0 
L 56 0 
L 46.6875 18.703125 
Q 43.0625 26.03125 39.671875 28.421875 
Q 36.28125 30.8125 30.421875 30.8125 
L 19.671875 30.8125 
L 19.671875 0 
L 9.8125 0 
L 9.8125 72.90625 
L 32.078125 72.90625 
Q 44.578125 72.90625 50.734375 67.671875 
Q 56.890625 62.453125 56.890625 51.90625 
Q 56.890625 45.015625 53.6875 40.46875 
Q 50.484375 35.9375 44.390625 34.1875 
M 19.671875 64.796875 
L 19.671875 38.921875 
L 32.078125 38.921875 
Q 39.203125 38.921875 42.84375 42.21875 
Q 46.484375 45.515625 46.484375 51.90625 
Q 46.484375 58.296875 42.84375 61.546875 
Q 39.203125 64.796875 32.078125 64.796875 
z
" id="DejaVuSans-52"/>
     <path d="M 41.109375 46.296875 
Q 39.59375 47.171875 37.8125 47.578125 
Q 36.03125 48 33.890625 48 
Q 26.265625 48 22.1875 43.046875 
Q 18.109375 38.09375 18.109375 28.8125 
L 18.109375 0 
L 9.078125 0 
L 9.078125 54.6875 
L 18.109375 54.6875 
L 18.109375 46.1875 
Q 20.953125 51.171875 25.484375 53.578125 
Q 30.03125 56 36.53125 56 
Q 37.453125 56 38.578125 55.875 
Q 39.703125 55.765625 41.0625 55.515625 
z
" id="DejaVuSans-72"/>
     <path d="M 54.890625 33.015625 
L 54.890625 0 
L 45.90625 0 
L 45.90625 32.71875 
Q 45.90625 40.484375 42.875 44.328125 
Q 39.84375 48.1875 33.796875 48.1875 
Q 26.515625 48.1875 22.3125 43.546875 
Q 18.109375 38.921875 18.109375 30.90625 
L 18.109375 0 
L 9.078125 0 
L 9.078125 54.6875 
L 18.109375 54.6875 
L 18.109375 46.1875 
Q 21.34375 51.125 25.703125 53.5625 
Q 30.078125 56 35.796875 56 
Q 45.21875 56 50.046875 50.171875 
Q 54.890625 44.34375 54.890625 33.015625 
" id="DejaVuSans-6e"/>
     <path d="M 31 75.875 
Q 24.46875 64.65625 21.28125 53.65625 
Q 18.109375 42.671875 18.109375 31.390625 
Q 18.109375 20.125 21.3125 9.0625 
Q 24.515625 -2 31 -13.1875 
L 23.1875 -13.1875 
Q 15.875 -1.703125 12.234375 9.375 
Q 8.59375 20.453125 8.59375 31.390625 
Q 8.59375 42.28125 12.203125 53.3125 
Q 15.828125 64.359375 23.1875 75.875 
z
" id="DejaVuSans-28"/>
     <path d="M 9.8125 72.90625 
L 19.671875 72.90625 
L 19.671875 8.296875 
L 55.171875 8.296875 
L 55.171875 0 
L 9.8125 0 
z
" id="DejaVuSans-4c"/>
     <path d="M 30.609375 48.390625 
Q 23.390625 48.390625 19.1875 42.75 
Q 14.984375 37.109375 14.984375 27.296875 
Q 14.984375 17.484375 19.15625 11.84375 
Q 23.34375 6.203125 30.609375 6.203125 
Q 37.796875 6.203125 41.984375 11.859375 
Q 46.1875 17.53125 46.1875 27.296875 
Q 46.1875 37.015625 41.984375 42.703125 
Q 37.796875 48.390625 30.609375 48.390625 
M 30.609375 56 
Q 42.328125 56 49.015625 48.375 
Q 55.71875 40.765625 55.71875 27.296875 
Q 55.71875 13.875 49.015625 6.21875 
Q 42.328125 -1.421875 30.609375 -1.421875 
Q 18.84375 -1.421875 12.171875 6.21875 
Q 5.515625 13.875 5.515625 27.296875 
Q 5.515625 40.765625 12.171875 48.375 
Q 18.84375 56 30.609375 56 
" id="DejaVuSans-6f"/>
     <path d="M 45.40625 27.984375 
Q 45.40625 37.75 41.375 43.109375 
Q 37.359375 48.484375 30.078125 48.484375 
Q 22.859375 48.484375 18.828125 43.109375 
Q 14.796875 37.75 14.796875 27.984375 
Q 14.796875 18.265625 18.828125 12.890625 
Q 22.859375 7.515625 30.078125 7.515625 
Q 37.359375 7.515625 41.375 12.890625 
Q 45.40625 18.265625 45.40625 27.984375 
M 54.390625 6.78125 
Q 54.390625 -7.171875 48.1875 -13.984375 
Q 42 -20.796875 29.203125 -20.796875 
Q 24.46875 -20.796875 20.265625 -20.09375 
Q 16.0625 -19.390625 12.109375 -17.921875 
L 12.109375 -9.1875 
Q 16.0625 -11.328125 19.921875 -12.34375 
Q 23.78125 -13.375 27.78125 -13.375 
Q 36.625 -13.375 41.015625 -8.765625 
Q 45.40625 -4.15625 45.40625 5.171875 
L 45.40625 9.625 
Q 42.625 4.78125 38.28125 2.390625 
Q 33.9375 0 27.875 0 
Q 17.828125 0 11.671875 7.65625 
Q 5.515625 15.328125 5.515625 27.984375 
Q 5.515625 40.671875 11.671875 48.328125 
Q 17.828125 56 27.875 56 
Q 33.9375 56 38.28125 53.609375 
Q 42.625 51.21875 45.40625 46.390625 
L 45.40625 54.6875 
L 54.390625 54.6875 
z
" id="DejaVuSans-67"/>
     <path d="M 8.015625 75.875 
L 15.828125 75.875 
Q 23.140625 64.359375 26.78125 53.3125 
Q 30.421875 42.28125 30.421875 31.390625 
Q 30.421875 20.453125 26.78125 9.375 
Q 23.140625 -1.703125 15.828125 -13.1875 
L 8.015625 -13.1875 
Q 14.5 -2 17.703125 9.0625 
Q 20.90625 20.125 20.90625 31.390625 
Q 20.90625 42.671875 17.703125 53.65625 
Q 14.5 64.65625 8.015625 75.875 
" id="DejaVuSans-29"/>
    </defs>
    <g transform="translate(116.87325 18.14175)scale(0.144 -0.144)">
     <use xlink:href="#DejaVuSans-43"/>
     <use x="69.824219" xlink:href="#DejaVuSans-75"/>
     <use x="133.203125" xlink:href="#DejaVuSans-6d"/>
     <use x="230.615234" xlink:href="#DejaVuSans-75"/>
     <use x="293.994141" xlink:href="#DejaVuSans-6c"/>
     <use x="321.777344" xlink:href="#DejaVuSans-61"/>
     <use x="383.056641" xlink:href="#DejaVuSans-74"/>
     <use x="422.265625" xlink:href="#DejaVuSans-69"/>
     <use x="450.048828" xlink:href="#DejaVuSans-76"/>
     <use x="509.228516" xlink:href="#DejaVuSans-65"/>
     <use x="570.751953" xlink:href="#DejaVuSans-20"/>
     <use x="602.539062" xlink:href="#DejaVuSans-52"/>
     <use x="671.958984" xlink:href="#DejaVuSans-65"/>
     <use x="733.482422" xlink:href="#DejaVuSans-74"/>
     <use x="772.691406" xlink:href="#DejaVuSans-75"/>
     <use x="836.070312" xlink:href="#DejaVuSans-72"/>
     <use x="877.167969" xlink:href="#DejaVuSans-6e"/>
     <use x="940.546875" xlink:href="#DejaVuSans-20"/>
     <use x="972.333984" xlink:href="#DejaVuSans-28"/>
     <use x="1011.347656" xlink:href="#DejaVuSans-4c"/>
     <use x="1067.044922" xlink:href="#DejaVuSans-6f"/>
     <use x="1128.226562" xlink:href="#DejaVuSans-67"/>
     <use x="1191.703125" xlink:href="#DejaVuSans-29"/>
    </g>
   </g>
   <g id="legend_1">
    <g id="patch_7">
     <path d="M 33.925 76.176125 
L 123.410938 76.176125 
Q 125.410938 76.176125 125.410938 74.176125 
L 125.410938 31.14175 
Q 125.410938 29.14175 123.410938 29.14175 
L 33.925 29.14175 
Q 31.925 29.14175 31.925 31.14175 
L 31.925 74.176125 
Q 31.925 76.176125 33.925 76.176125 
z
" style="fill:#e5e5e5;opacity:0.8;stroke:#cccccc;stroke-linejoin:miter;stroke-width:0.5;"/>
    </g>
    <g id="line2d_36">
     <path d="M 35.925 37.240187 
L 55.925 37.240187 
" style="fill:none;stroke:#e24a33;stroke-linecap:square;stroke-width:1.5;"/>
    </g>
    <g id="line2d_37"/>
    <g id="text_18">
     <!-- Market -->
     <defs>
      <path d="M 9.8125 72.90625 
L 24.515625 72.90625 
L 43.109375 23.296875 
L 61.8125 72.90625 
L 76.515625 72.90625 
L 76.515625 0 
L 66.890625 0 
L 66.890625 64.015625 
L 48.09375 14.015625 
L 38.1875 14.015625 
L 19.390625 64.015625 
L 19.390625 0 
L 9.8125 0 
z
" id="DejaVuSans-4d"/>
      <path d="M 9.078125 75.984375 
L 18.109375 75.984375 
L 18.109375 31.109375 
L 44.921875 54.6875 
L 56.390625 54.6875 
L 27.390625 29.109375 
L 57.625 0 
L 45.90625 0 
L 18.109375 26.703125 
L 18.109375 0 
L 9.078125 0 
z
" id="DejaVuSans-6b"/>
     </defs>
     <g transform="translate(63.925 40.740187)scale(0.1 -0.1)">
      <use xlink:href="#DejaVuSans-4d"/>
      <use x="86.279297" xlink:href="#DejaVuSans-61"/>
      <use x="147.558594" xlink:href="#DejaVuSans-72"/>
      <use x="188.671875" xlink:href="#DejaVuSans-6b"/>
      <use x="246.535156" xlink:href="#DejaVuSans-65"/>
      <use x="308.058594" xlink:href="#DejaVuSans-74"/>
     </g>
    </g>
    <g id="line2d_38">
     <path d="M 35.925 51.918312 
L 55.925 51.918312 
" style="fill:none;stroke:#348abd;stroke-linecap:square;stroke-width:1.5;"/>
    </g>
    <g id="line2d_39"/>
    <g id="text_19">
     <!-- Perfect Info -->
     <defs>
      <path d="M 19.671875 64.796875 
L 19.671875 37.40625 
L 32.078125 37.40625 
Q 38.96875 37.40625 42.71875 40.96875 
Q 46.484375 44.53125 46.484375 51.125 
Q 46.484375 57.671875 42.71875 61.234375 
Q 38.96875 64.796875 32.078125 64.796875 
z
M 9.8125 72.90625 
L 32.078125 72.90625 
Q 44.34375 72.90625 50.609375 67.359375 
Q 56.890625 61.8125 56.890625 51.125 
Q 56.890625 40.328125 50.609375 34.8125 
Q 44.34375 29.296875 32.078125 29.296875 
L 19.671875 29.296875 
L 19.671875 0 
L 9.8125 0 
z
" id="DejaVuSans-50"/>
      <path d="M 37.109375 75.984375 
L 37.109375 68.5 
L 28.515625 68.5 
Q 23.6875 68.5 21.796875 66.546875 
Q 19.921875 64.59375 19.921875 59.515625 
L 19.921875 54.6875 
L 34.71875 54.6875 
L 34.71875 47.703125 
L 19.921875 47.703125 
L 19.921875 0 
L 10.890625 0 
L 10.890625 47.703125 
L 2.296875 47.703125 
L 2.296875 54.6875 
L 10.890625 54.6875 
L 10.890625 58.5 
Q 10.890625 67.625 15.140625 71.796875 
Q 19.390625 75.984375 28.609375 75.984375 
z
" id="DejaVuSans-66"/>
      <path d="M 48.78125 52.59375 
L 48.78125 44.1875 
Q 44.96875 46.296875 41.140625 47.34375 
Q 37.3125 48.390625 33.40625 48.390625 
Q 24.65625 48.390625 19.8125 42.84375 
Q 14.984375 37.3125 14.984375 27.296875 
Q 14.984375 17.28125 19.8125 11.734375 
Q 24.65625 6.203125 33.40625 6.203125 
Q 37.3125 6.203125 41.140625 7.25 
Q 44.96875 8.296875 48.78125 10.40625 
L 48.78125 2.09375 
Q 45.015625 0.34375 40.984375 -0.53125 
Q 36.96875 -1.421875 32.421875 -1.421875 
Q 20.0625 -1.421875 12.78125 6.34375 
Q 5.515625 14.109375 5.515625 27.296875 
Q 5.515625 40.671875 12.859375 48.328125 
Q 20.21875 56 33.015625 56 
Q 37.15625 56 41.109375 55.140625 
Q 45.0625 54.296875 48.78125 52.59375 
" id="DejaVuSans-63"/>
      <path d="M 9.8125 72.90625 
L 19.671875 72.90625 
L 19.671875 0 
L 9.8125 0 
z
" id="DejaVuSans-49"/>
     </defs>
     <g transform="translate(63.925 55.418312)scale(0.1 -0.1)">
      <use xlink:href="#DejaVuSans-50"/>
      <use x="60.255859" xlink:href="#DejaVuSans-65"/>
      <use x="121.779297" xlink:href="#DejaVuSans-72"/>
      <use x="162.892578" xlink:href="#DejaVuSans-66"/>
      <use x="198.097656" xlink:href="#DejaVuSans-65"/>
      <use x="259.621094" xlink:href="#DejaVuSans-63"/>
      <use x="314.601562" xlink:href="#DejaVuSans-74"/>
      <use x="353.810547" xlink:href="#DejaVuSans-20"/>
      <use x="385.597656" xlink:href="#DejaVuSans-49"/>
      <use x="415.089844" xlink:href="#DejaVuSans-6e"/>
      <use x="478.46875" xlink:href="#DejaVuSans-66"/>
      <use x="513.673828" xlink:href="#DejaVuSans-6f"/>
     </g>
    </g>
    <g id="line2d_40">
     <path d="M 35.925 66.596437 
L 55.925 66.596437 
" style="fill:none;stroke:#988ed5;stroke-linecap:square;stroke-width:1.5;"/>
    </g>
    <g id="line2d_41"/>
    <g id="text_20">
     <!-- Model B -->
     <defs>
      <path d="M 45.40625 46.390625 
L 45.40625 75.984375 
L 54.390625 75.984375 
L 54.390625 0 
L 45.40625 0 
L 45.40625 8.203125 
Q 42.578125 3.328125 38.25 0.953125 
Q 33.9375 -1.421875 27.875 -1.421875 
Q 17.96875 -1.421875 11.734375 6.484375 
Q 5.515625 14.40625 5.515625 27.296875 
Q 5.515625 40.1875 11.734375 48.09375 
Q 17.96875 56 27.875 56 
Q 33.9375 56 38.25 53.625 
Q 42.578125 51.265625 45.40625 46.390625 
M 14.796875 27.296875 
Q 14.796875 17.390625 18.875 11.75 
Q 22.953125 6.109375 30.078125 6.109375 
Q 37.203125 6.109375 41.296875 11.75 
Q 45.40625 17.390625 45.40625 27.296875 
Q 45.40625 37.203125 41.296875 42.84375 
Q 37.203125 48.484375 30.078125 48.484375 
Q 22.953125 48.484375 18.875 42.84375 
Q 14.796875 37.203125 14.796875 27.296875 
" id="DejaVuSans-64"/>
      <path d="M 19.671875 34.8125 
L 19.671875 8.109375 
L 35.5 8.109375 
Q 43.453125 8.109375 47.28125 11.40625 
Q 51.125 14.703125 51.125 21.484375 
Q 51.125 28.328125 47.28125 31.5625 
Q 43.453125 34.8125 35.5 34.8125 
z
M 19.671875 64.796875 
L 19.671875 42.828125 
L 34.28125 42.828125 
Q 41.5 42.828125 45.03125 45.53125 
Q 48.578125 48.25 48.578125 53.8125 
Q 48.578125 59.328125 45.03125 62.0625 
Q 41.5 64.796875 34.28125 64.796875 
z
M 9.8125 72.90625 
L 35.015625 72.90625 
Q 46.296875 72.90625 52.390625 68.21875 
Q 58.5 63.53125 58.5 54.890625 
Q 58.5 48.1875 55.375 44.234375 
Q 52.25 40.28125 46.1875 39.3125 
Q 53.46875 37.75 57.5 32.78125 
Q 61.53125 27.828125 61.53125 20.40625 
Q 61.53125 10.640625 54.890625 5.3125 
Q 48.25 0 35.984375 0 
L 9.8125 0 
z
" id="DejaVuSans-42"/>
     </defs>
     <g transform="translate(63.925 70.096437)scale(0.1 -0.1)">
      <use xlink:href="#DejaVuSans-4d"/>
      <use x="86.279297" xlink:href="#DejaVuSans-6f"/>
      <use x="147.460938" xlink:href="#DejaVuSans-64"/>
      <use x="210.9375" xlink:href="#DejaVuSans-65"/>
      <use x="272.460938" xlink:href="#DejaVuSans-6c"/>
      <use x="300.244141" xlink:href="#DejaVuSans-20"/>
      <use x="332.03125" xlink:href="#DejaVuSans-42"/>
     </g>
    </g>
   </g>
  </g>
 </g>
 <defs>
  <clipPath id="p071ba0dd87">
   <rect height="266.112" width="357.12" x="26.925" y="24.14175"/>
  </clipPath>
 </defs>
</svg>
