<?xml version="1.0" encoding="utf-8" standalone="no"?>
<!DOCTYPE svg PUBLIC "-//W3C//DTD SVG 1.1//EN"
  "http://www.w3.org/Graphics/SVG/1.1/DTD/svg11.dtd">
<!-- Created with matplotlib (http://matplotlib.org/) -->
<svg height="340pt" version="1.1" viewBox="0 0 396 340" width="396pt" xmlns="http://www.w3.org/2000/svg" xmlns:xlink="http://www.w3.org/1999/xlink">
 <defs>
  <style type="text/css">
*{stroke-linecap:butt;stroke-linejoin:round;}
  </style>
 </defs>
 <g id="figure_1">
  <g id="patch_1">
   <path d="M 0 340.842128 
L 396.762187 340.842128 
L 396.762187 0 
L 0 0 
z
" style="fill:#ffffff;"/>
  </g>
  <g id="axes_1">
   <g id="patch_2">
    <path d="M 28.942188 290.25375 
L 386.062188 290.25375 
L 386.062188 24.14175 
L 28.942188 24.14175 
z
" style="fill:#e5e5e5;"/>
   </g>
   <g id="matplotlib.axis_1">
    <g id="xtick_1">
     <g id="line2d_1">
      <path clip-path="url(#pb29b5b860d)" d="M 37.598899 290.25375 
L 37.598899 24.14175 
" style="fill:none;stroke:#ffffff;stroke-linecap:square;stroke-width:0.8;"/>
     </g>
     <g id="line2d_2">
      <defs>
       <path d="M 0 0 
L 0 3.5 
" id="ma80160d989" style="stroke:#555555;stroke-width:0.8;"/>
      </defs>
      <g>
       <use style="fill:#555555;stroke:#555555;stroke-width:0.8;" x="37.598899" xlink:href="#ma80160d989" y="290.25375"/>
      </g>
     </g>
     <g id="text_1">
      <!-- 1999-12 -->
      <defs>
       <path d="M 12.40625 8.296875 
L 28.515625 8.296875 
L 28.515625 63.921875 
L 10.984375 60.40625 
L 10.984375 69.390625 
L 28.421875 72.90625 
L 38.28125 72.90625 
L 38.28125 8.296875 
L 54.390625 8.296875 
L 54.390625 0 
L 12.40625 0 
z
" id="DejaVuSans-31"/>
       <path d="M 10.984375 1.515625 
L 10.984375 10.5 
Q 14.703125 8.734375 18.5 7.8125 
Q 22.3125 6.890625 25.984375 6.890625 
Q 35.75 6.890625 40.890625 13.453125 
Q 46.046875 20.015625 46.78125 33.40625 
Q 43.953125 29.203125 39.59375 26.953125 
Q 35.25 24.703125 29.984375 24.703125 
Q 19.046875 24.703125 12.671875 31.3125 
Q 6.296875 37.9375 6.296875 49.421875 
Q 6.296875 60.640625 12.9375 67.421875 
Q 19.578125 74.21875 30.609375 74.21875 
Q 43.265625 74.21875 49.921875 64.515625 
Q 56.59375 54.828125 56.59375 36.375 
Q 56.59375 19.140625 48.40625 8.859375 
Q 40.234375 -1.421875 26.421875 -1.421875 
Q 22.703125 -1.421875 18.890625 -0.6875 
Q 15.09375 0.046875 10.984375 1.515625 
M 30.609375 32.421875 
Q 37.25 32.421875 41.125 36.953125 
Q 45.015625 41.5 45.015625 49.421875 
Q 45.015625 57.28125 41.125 61.84375 
Q 37.25 66.40625 30.609375 66.40625 
Q 23.96875 66.40625 20.09375 61.84375 
Q 16.21875 57.28125 16.21875 49.421875 
Q 16.21875 41.5 20.09375 36.953125 
Q 23.96875 32.421875 30.609375 32.421875 
" id="DejaVuSans-39"/>
       <path d="M 4.890625 31.390625 
L 31.203125 31.390625 
L 31.203125 23.390625 
L 4.890625 23.390625 
z
" id="DejaVuSans-2d"/>
       <path d="M 19.1875 8.296875 
L 53.609375 8.296875 
L 53.609375 0 
L 7.328125 0 
L 7.328125 8.296875 
Q 12.9375 14.109375 22.625 23.890625 
Q 32.328125 33.6875 34.8125 36.53125 
Q 39.546875 41.84375 41.421875 45.53125 
Q 43.3125 49.21875 43.3125 52.78125 
Q 43.3125 58.59375 39.234375 62.25 
Q 35.15625 65.921875 28.609375 65.921875 
Q 23.96875 65.921875 18.8125 64.3125 
Q 13.671875 62.703125 7.8125 59.421875 
L 7.8125 69.390625 
Q 13.765625 71.78125 18.9375 73 
Q 24.125 74.21875 28.421875 74.21875 
Q 39.75 74.21875 46.484375 68.546875 
Q 53.21875 62.890625 53.21875 53.421875 
Q 53.21875 48.921875 51.53125 44.890625 
Q 49.859375 40.875 45.40625 35.40625 
Q 44.1875 33.984375 37.640625 27.21875 
Q 31.109375 20.453125 19.1875 8.296875 
" id="DejaVuSans-32"/>
      </defs>
      <g style="fill:#555555;" transform="translate(24.777617 332.171567)rotate(-45)scale(0.1 -0.1)">
       <use xlink:href="#DejaVuSans-31"/>
       <use x="63.623047" xlink:href="#DejaVuSans-39"/>
       <use x="127.246094" xlink:href="#DejaVuSans-39"/>
       <use x="190.869141" xlink:href="#DejaVuSans-39"/>
       <use x="254.492188" xlink:href="#DejaVuSans-2d"/>
       <use x="290.576172" xlink:href="#DejaVuSans-31"/>
       <use x="354.199219" xlink:href="#DejaVuSans-32"/>
      </g>
     </g>
    </g>
    <g id="xtick_2">
     <g id="line2d_3">
      <path clip-path="url(#pb29b5b860d)" d="M 78.375688 290.25375 
L 78.375688 24.14175 
" style="fill:none;stroke:#ffffff;stroke-linecap:square;stroke-width:0.8;"/>
     </g>
     <g id="line2d_4">
      <g>
       <use style="fill:#555555;stroke:#555555;stroke-width:0.8;" x="78.375688" xlink:href="#ma80160d989" y="290.25375"/>
      </g>
     </g>
     <g id="text_2">
      <!-- 2000-06 -->
      <defs>
       <path d="M 31.78125 66.40625 
Q 24.171875 66.40625 20.328125 58.90625 
Q 16.5 51.421875 16.5 36.375 
Q 16.5 21.390625 20.328125 13.890625 
Q 24.171875 6.390625 31.78125 6.390625 
Q 39.453125 6.390625 43.28125 13.890625 
Q 47.125 21.390625 47.125 36.375 
Q 47.125 51.421875 43.28125 58.90625 
Q 39.453125 66.40625 31.78125 66.40625 
M 31.78125 74.21875 
Q 44.046875 74.21875 50.515625 64.515625 
Q 56.984375 54.828125 56.984375 36.375 
Q 56.984375 17.96875 50.515625 8.265625 
Q 44.046875 -1.421875 31.78125 -1.421875 
Q 19.53125 -1.421875 13.0625 8.265625 
Q 6.59375 17.96875 6.59375 36.375 
Q 6.59375 54.828125 13.0625 64.515625 
Q 19.53125 74.21875 31.78125 74.21875 
" id="DejaVuSans-30"/>
       <path d="M 33.015625 40.375 
Q 26.375 40.375 22.484375 35.828125 
Q 18.609375 31.296875 18.609375 23.390625 
Q 18.609375 15.53125 22.484375 10.953125 
Q 26.375 6.390625 33.015625 6.390625 
Q 39.65625 6.390625 43.53125 10.953125 
Q 47.40625 15.53125 47.40625 23.390625 
Q 47.40625 31.296875 43.53125 35.828125 
Q 39.65625 40.375 33.015625 40.375 
M 52.59375 71.296875 
L 52.59375 62.3125 
Q 48.875 64.0625 45.09375 64.984375 
Q 41.3125 65.921875 37.59375 65.921875 
Q 27.828125 65.921875 22.671875 59.328125 
Q 17.53125 52.734375 16.796875 39.40625 
Q 19.671875 43.65625 24.015625 45.921875 
Q 28.375 48.1875 33.59375 48.1875 
Q 44.578125 48.1875 50.953125 41.515625 
Q 57.328125 34.859375 57.328125 23.390625 
Q 57.328125 12.15625 50.6875 5.359375 
Q 44.046875 -1.421875 33.015625 -1.421875 
Q 20.359375 -1.421875 13.671875 8.265625 
Q 6.984375 17.96875 6.984375 36.375 
Q 6.984375 53.65625 15.1875 63.9375 
Q 23.390625 74.21875 37.203125 74.21875 
Q 40.921875 74.21875 44.703125 73.484375 
Q 48.484375 72.75 52.59375 71.296875 
" id="DejaVuSans-36"/>
      </defs>
      <g style="fill:#555555;" transform="translate(65.554406 332.171567)rotate(-45)scale(0.1 -0.1)">
       <use xlink:href="#DejaVuSans-32"/>
       <use x="63.623047" xlink:href="#DejaVuSans-30"/>
       <use x="127.246094" xlink:href="#DejaVuSans-30"/>
       <use x="190.869141" xlink:href="#DejaVuSans-30"/>
       <use x="254.492188" xlink:href="#DejaVuSans-2d"/>
       <use x="290.576172" xlink:href="#DejaVuSans-30"/>
       <use x="354.199219" xlink:href="#DejaVuSans-36"/>
      </g>
     </g>
    </g>
    <g id="xtick_3">
     <g id="line2d_5">
      <path clip-path="url(#pb29b5b860d)" d="M 119.152478 290.25375 
L 119.152478 24.14175 
" style="fill:none;stroke:#ffffff;stroke-linecap:square;stroke-width:0.8;"/>
     </g>
     <g id="line2d_6">
      <g>
       <use style="fill:#555555;stroke:#555555;stroke-width:0.8;" x="119.152478" xlink:href="#ma80160d989" y="290.25375"/>
      </g>
     </g>
     <g id="text_3">
      <!-- 2000-12 -->
      <g style="fill:#555555;" transform="translate(106.331195 332.171567)rotate(-45)scale(0.1 -0.1)">
       <use xlink:href="#DejaVuSans-32"/>
       <use x="63.623047" xlink:href="#DejaVuSans-30"/>
       <use x="127.246094" xlink:href="#DejaVuSans-30"/>
       <use x="190.869141" xlink:href="#DejaVuSans-30"/>
       <use x="254.492188" xlink:href="#DejaVuSans-2d"/>
       <use x="290.576172" xlink:href="#DejaVuSans-31"/>
       <use x="354.199219" xlink:href="#DejaVuSans-32"/>
      </g>
     </g>
    </g>
    <g id="xtick_4">
     <g id="line2d_7">
      <path clip-path="url(#pb29b5b860d)" d="M 159.706443 290.25375 
L 159.706443 24.14175 
" style="fill:none;stroke:#ffffff;stroke-linecap:square;stroke-width:0.8;"/>
     </g>
     <g id="line2d_8">
      <g>
       <use style="fill:#555555;stroke:#555555;stroke-width:0.8;" x="159.706443" xlink:href="#ma80160d989" y="290.25375"/>
      </g>
     </g>
     <g id="text_4">
      <!-- 2001-06 -->
      <g style="fill:#555555;" transform="translate(146.885161 332.171567)rotate(-45)scale(0.1 -0.1)">
       <use xlink:href="#DejaVuSans-32"/>
       <use x="63.623047" xlink:href="#DejaVuSans-30"/>
       <use x="127.246094" xlink:href="#DejaVuSans-30"/>
       <use x="190.869141" xlink:href="#DejaVuSans-31"/>
       <use x="254.492188" xlink:href="#DejaVuSans-2d"/>
       <use x="290.576172" xlink:href="#DejaVuSans-30"/>
       <use x="354.199219" xlink:href="#DejaVuSans-36"/>
      </g>
     </g>
    </g>
    <g id="xtick_5">
     <g id="line2d_9">
      <path clip-path="url(#pb29b5b860d)" d="M 200.483232 290.25375 
L 200.483232 24.14175 
" style="fill:none;stroke:#ffffff;stroke-linecap:square;stroke-width:0.8;"/>
     </g>
     <g id="line2d_10">
      <g>
       <use style="fill:#555555;stroke:#555555;stroke-width:0.8;" x="200.483232" xlink:href="#ma80160d989" y="290.25375"/>
      </g>
     </g>
     <g id="text_5">
      <!-- 2001-12 -->
      <g style="fill:#555555;" transform="translate(187.66195 332.171567)rotate(-45)scale(0.1 -0.1)">
       <use xlink:href="#DejaVuSans-32"/>
       <use x="63.623047" xlink:href="#DejaVuSans-30"/>
       <use x="127.246094" xlink:href="#DejaVuSans-30"/>
       <use x="190.869141" xlink:href="#DejaVuSans-31"/>
       <use x="254.492188" xlink:href="#DejaVuSans-2d"/>
       <use x="290.576172" xlink:href="#DejaVuSans-31"/>
       <use x="354.199219" xlink:href="#DejaVuSans-32"/>
      </g>
     </g>
    </g>
    <g id="xtick_6">
     <g id="line2d_11">
      <path clip-path="url(#pb29b5b860d)" d="M 241.037197 290.25375 
L 241.037197 24.14175 
" style="fill:none;stroke:#ffffff;stroke-linecap:square;stroke-width:0.8;"/>
     </g>
     <g id="line2d_12">
      <g>
       <use style="fill:#555555;stroke:#555555;stroke-width:0.8;" x="241.037197" xlink:href="#ma80160d989" y="290.25375"/>
      </g>
     </g>
     <g id="text_6">
      <!-- 2002-06 -->
      <g style="fill:#555555;" transform="translate(228.215915 332.171567)rotate(-45)scale(0.1 -0.1)">
       <use xlink:href="#DejaVuSans-32"/>
       <use x="63.623047" xlink:href="#DejaVuSans-30"/>
       <use x="127.246094" xlink:href="#DejaVuSans-30"/>
       <use x="190.869141" xlink:href="#DejaVuSans-32"/>
       <use x="254.492188" xlink:href="#DejaVuSans-2d"/>
       <use x="290.576172" xlink:href="#DejaVuSans-30"/>
       <use x="354.199219" xlink:href="#DejaVuSans-36"/>
      </g>
     </g>
    </g>
    <g id="xtick_7">
     <g id="line2d_13">
      <path clip-path="url(#pb29b5b860d)" d="M 281.813986 290.25375 
L 281.813986 24.14175 
" style="fill:none;stroke:#ffffff;stroke-linecap:square;stroke-width:0.8;"/>
     </g>
     <g id="line2d_14">
      <g>
       <use style="fill:#555555;stroke:#555555;stroke-width:0.8;" x="281.813986" xlink:href="#ma80160d989" y="290.25375"/>
      </g>
     </g>
     <g id="text_7">
      <!-- 2002-12 -->
      <g style="fill:#555555;" transform="translate(268.992704 332.171567)rotate(-45)scale(0.1 -0.1)">
       <use xlink:href="#DejaVuSans-32"/>
       <use x="63.623047" xlink:href="#DejaVuSans-30"/>
       <use x="127.246094" xlink:href="#DejaVuSans-30"/>
       <use x="190.869141" xlink:href="#DejaVuSans-32"/>
       <use x="254.492188" xlink:href="#DejaVuSans-2d"/>
       <use x="290.576172" xlink:href="#DejaVuSans-31"/>
       <use x="354.199219" xlink:href="#DejaVuSans-32"/>
      </g>
     </g>
    </g>
    <g id="xtick_8">
     <g id="line2d_15">
      <path clip-path="url(#pb29b5b860d)" d="M 322.367952 290.25375 
L 322.367952 24.14175 
" style="fill:none;stroke:#ffffff;stroke-linecap:square;stroke-width:0.8;"/>
     </g>
     <g id="line2d_16">
      <g>
       <use style="fill:#555555;stroke:#555555;stroke-width:0.8;" x="322.367952" xlink:href="#ma80160d989" y="290.25375"/>
      </g>
     </g>
     <g id="text_8">
      <!-- 2003-06 -->
      <defs>
       <path d="M 40.578125 39.3125 
Q 47.65625 37.796875 51.625 33 
Q 55.609375 28.21875 55.609375 21.1875 
Q 55.609375 10.40625 48.1875 4.484375 
Q 40.765625 -1.421875 27.09375 -1.421875 
Q 22.515625 -1.421875 17.65625 -0.515625 
Q 12.796875 0.390625 7.625 2.203125 
L 7.625 11.71875 
Q 11.71875 9.328125 16.59375 8.109375 
Q 21.484375 6.890625 26.8125 6.890625 
Q 36.078125 6.890625 40.9375 10.546875 
Q 45.796875 14.203125 45.796875 21.1875 
Q 45.796875 27.640625 41.28125 31.265625 
Q 36.765625 34.90625 28.71875 34.90625 
L 20.21875 34.90625 
L 20.21875 43.015625 
L 29.109375 43.015625 
Q 36.375 43.015625 40.234375 45.921875 
Q 44.09375 48.828125 44.09375 54.296875 
Q 44.09375 59.90625 40.109375 62.90625 
Q 36.140625 65.921875 28.71875 65.921875 
Q 24.65625 65.921875 20.015625 65.03125 
Q 15.375 64.15625 9.8125 62.3125 
L 9.8125 71.09375 
Q 15.4375 72.65625 20.34375 73.4375 
Q 25.25 74.21875 29.59375 74.21875 
Q 40.828125 74.21875 47.359375 69.109375 
Q 53.90625 64.015625 53.90625 55.328125 
Q 53.90625 49.265625 50.4375 45.09375 
Q 46.96875 40.921875 40.578125 39.3125 
" id="DejaVuSans-33"/>
      </defs>
      <g style="fill:#555555;" transform="translate(309.546669 332.171567)rotate(-45)scale(0.1 -0.1)">
       <use xlink:href="#DejaVuSans-32"/>
       <use x="63.623047" xlink:href="#DejaVuSans-30"/>
       <use x="127.246094" xlink:href="#DejaVuSans-30"/>
       <use x="190.869141" xlink:href="#DejaVuSans-33"/>
       <use x="254.492188" xlink:href="#DejaVuSans-2d"/>
       <use x="290.576172" xlink:href="#DejaVuSans-30"/>
       <use x="354.199219" xlink:href="#DejaVuSans-36"/>
      </g>
     </g>
    </g>
    <g id="xtick_9">
     <g id="line2d_17">
      <path clip-path="url(#pb29b5b860d)" d="M 363.144741 290.25375 
L 363.144741 24.14175 
" style="fill:none;stroke:#ffffff;stroke-linecap:square;stroke-width:0.8;"/>
     </g>
     <g id="line2d_18">
      <g>
       <use style="fill:#555555;stroke:#555555;stroke-width:0.8;" x="363.144741" xlink:href="#ma80160d989" y="290.25375"/>
      </g>
     </g>
     <g id="text_9">
      <!-- 2003-12 -->
      <g style="fill:#555555;" transform="translate(350.323458 332.171567)rotate(-45)scale(0.1 -0.1)">
       <use xlink:href="#DejaVuSans-32"/>
       <use x="63.623047" xlink:href="#DejaVuSans-30"/>
       <use x="127.246094" xlink:href="#DejaVuSans-30"/>
       <use x="190.869141" xlink:href="#DejaVuSans-33"/>
       <use x="254.492188" xlink:href="#DejaVuSans-2d"/>
       <use x="290.576172" xlink:href="#DejaVuSans-31"/>
       <use x="354.199219" xlink:href="#DejaVuSans-32"/>
      </g>
     </g>
    </g>
   </g>
   <g id="matplotlib.axis_2">
    <g id="ytick_1">
     <g id="line2d_19">
      <path clip-path="url(#pb29b5b860d)" d="M 28.942188 279.239079 
L 386.062188 279.239079 
" style="fill:none;stroke:#ffffff;stroke-linecap:square;stroke-width:0.8;"/>
     </g>
     <g id="line2d_20">
      <defs>
       <path d="M 0 0 
L -3.5 0 
" id="m6f86053225" style="stroke:#555555;stroke-width:0.8;"/>
      </defs>
      <g>
       <use style="fill:#555555;stroke:#555555;stroke-width:0.8;" x="28.942188" xlink:href="#m6f86053225" y="279.239079"/>
      </g>
     </g>
     <g id="text_10">
      <!-- −1 -->
      <defs>
       <path d="M 10.59375 35.5 
L 73.1875 35.5 
L 73.1875 27.203125 
L 10.59375 27.203125 
z
" id="DejaVuSans-2212"/>
      </defs>
      <g style="fill:#555555;" transform="translate(7.2 283.038298)scale(0.1 -0.1)">
       <use xlink:href="#DejaVuSans-2212"/>
       <use x="83.789062" xlink:href="#DejaVuSans-31"/>
      </g>
     </g>
    </g>
    <g id="ytick_2">
     <g id="line2d_21">
      <path clip-path="url(#pb29b5b860d)" d="M 28.942188 248.659208 
L 386.062188 248.659208 
" style="fill:none;stroke:#ffffff;stroke-linecap:square;stroke-width:0.8;"/>
     </g>
     <g id="line2d_22">
      <g>
       <use style="fill:#555555;stroke:#555555;stroke-width:0.8;" x="28.942188" xlink:href="#m6f86053225" y="248.659208"/>
      </g>
     </g>
     <g id="text_11">
      <!-- 0 -->
      <g style="fill:#555555;" transform="translate(15.579688 252.458427)scale(0.1 -0.1)">
       <use xlink:href="#DejaVuSans-30"/>
      </g>
     </g>
    </g>
    <g id="ytick_3">
     <g id="line2d_23">
      <path clip-path="url(#pb29b5b860d)" d="M 28.942188 218.079337 
L 386.062188 218.079337 
" style="fill:none;stroke:#ffffff;stroke-linecap:square;stroke-width:0.8;"/>
     </g>
     <g id="line2d_24">
      <g>
       <use style="fill:#555555;stroke:#555555;stroke-width:0.8;" x="28.942188" xlink:href="#m6f86053225" y="218.079337"/>
      </g>
     </g>
     <g id="text_12">
      <!-- 1 -->
      <g style="fill:#555555;" transform="translate(15.579688 221.878556)scale(0.1 -0.1)">
       <use xlink:href="#DejaVuSans-31"/>
      </g>
     </g>
    </g>
    <g id="ytick_4">
     <g id="line2d_25">
      <path clip-path="url(#pb29b5b860d)" d="M 28.942188 187.499466 
L 386.062188 187.499466 
" style="fill:none;stroke:#ffffff;stroke-linecap:square;stroke-width:0.8;"/>
     </g>
     <g id="line2d_26">
      <g>
       <use style="fill:#555555;stroke:#555555;stroke-width:0.8;" x="28.942188" xlink:href="#m6f86053225" y="187.499466"/>
      </g>
     </g>
     <g id="text_13">
      <!-- 2 -->
      <g style="fill:#555555;" transform="translate(15.579688 191.298685)scale(0.1 -0.1)">
       <use xlink:href="#DejaVuSans-32"/>
      </g>
     </g>
    </g>
    <g id="ytick_5">
     <g id="line2d_27">
      <path clip-path="url(#pb29b5b860d)" d="M 28.942188 156.919595 
L 386.062188 156.919595 
" style="fill:none;stroke:#ffffff;stroke-linecap:square;stroke-width:0.8;"/>
     </g>
     <g id="line2d_28">
      <g>
       <use style="fill:#555555;stroke:#555555;stroke-width:0.8;" x="28.942188" xlink:href="#m6f86053225" y="156.919595"/>
      </g>
     </g>
     <g id="text_14">
      <!-- 3 -->
      <g style="fill:#555555;" transform="translate(15.579688 160.718813)scale(0.1 -0.1)">
       <use xlink:href="#DejaVuSans-33"/>
      </g>
     </g>
    </g>
    <g id="ytick_6">
     <g id="line2d_29">
      <path clip-path="url(#pb29b5b860d)" d="M 28.942188 126.339724 
L 386.062188 126.339724 
" style="fill:none;stroke:#ffffff;stroke-linecap:square;stroke-width:0.8;"/>
     </g>
     <g id="line2d_30">
      <g>
       <use style="fill:#555555;stroke:#555555;stroke-width:0.8;" x="28.942188" xlink:href="#m6f86053225" y="126.339724"/>
      </g>
     </g>
     <g id="text_15">
      <!-- 4 -->
      <defs>
       <path d="M 37.796875 64.3125 
L 12.890625 25.390625 
L 37.796875 25.390625 
z
M 35.203125 72.90625 
L 47.609375 72.90625 
L 47.609375 25.390625 
L 58.015625 25.390625 
L 58.015625 17.1875 
L 47.609375 17.1875 
L 47.609375 0 
L 37.796875 0 
L 37.796875 17.1875 
L 4.890625 17.1875 
L 4.890625 26.703125 
z
" id="DejaVuSans-34"/>
      </defs>
      <g style="fill:#555555;" transform="translate(15.579688 130.138942)scale(0.1 -0.1)">
       <use xlink:href="#DejaVuSans-34"/>
      </g>
     </g>
    </g>
    <g id="ytick_7">
     <g id="line2d_31">
      <path clip-path="url(#pb29b5b860d)" d="M 28.942188 95.759853 
L 386.062188 95.759853 
" style="fill:none;stroke:#ffffff;stroke-linecap:square;stroke-width:0.8;"/>
     </g>
     <g id="line2d_32">
      <g>
       <use style="fill:#555555;stroke:#555555;stroke-width:0.8;" x="28.942188" xlink:href="#m6f86053225" y="95.759853"/>
      </g>
     </g>
     <g id="text_16">
      <!-- 5 -->
      <defs>
       <path d="M 10.796875 72.90625 
L 49.515625 72.90625 
L 49.515625 64.59375 
L 19.828125 64.59375 
L 19.828125 46.734375 
Q 21.96875 47.46875 24.109375 47.828125 
Q 26.265625 48.1875 28.421875 48.1875 
Q 40.625 48.1875 47.75 41.5 
Q 54.890625 34.8125 54.890625 23.390625 
Q 54.890625 11.625 47.5625 5.09375 
Q 40.234375 -1.421875 26.90625 -1.421875 
Q 22.3125 -1.421875 17.546875 -0.640625 
Q 12.796875 0.140625 7.71875 1.703125 
L 7.71875 11.625 
Q 12.109375 9.234375 16.796875 8.0625 
Q 21.484375 6.890625 26.703125 6.890625 
Q 35.15625 6.890625 40.078125 11.328125 
Q 45.015625 15.765625 45.015625 23.390625 
Q 45.015625 31 40.078125 35.4375 
Q 35.15625 39.890625 26.703125 39.890625 
Q 22.75 39.890625 18.8125 39.015625 
Q 14.890625 38.140625 10.796875 36.28125 
z
" id="DejaVuSans-35"/>
      </defs>
      <g style="fill:#555555;" transform="translate(15.579688 99.559071)scale(0.1 -0.1)">
       <use xlink:href="#DejaVuSans-35"/>
      </g>
     </g>
    </g>
    <g id="ytick_8">
     <g id="line2d_33">
      <path clip-path="url(#pb29b5b860d)" d="M 28.942188 65.179981 
L 386.062188 65.179981 
" style="fill:none;stroke:#ffffff;stroke-linecap:square;stroke-width:0.8;"/>
     </g>
     <g id="line2d_34">
      <g>
       <use style="fill:#555555;stroke:#555555;stroke-width:0.8;" x="28.942188" xlink:href="#m6f86053225" y="65.179981"/>
      </g>
     </g>
     <g id="text_17">
      <!-- 6 -->
      <g style="fill:#555555;" transform="translate(15.579688 68.9792)scale(0.1 -0.1)">
       <use xlink:href="#DejaVuSans-36"/>
      </g>
     </g>
    </g>
    <g id="ytick_9">
     <g id="line2d_35">
      <path clip-path="url(#pb29b5b860d)" d="M 28.942188 34.60011 
L 386.062188 34.60011 
" style="fill:none;stroke:#ffffff;stroke-linecap:square;stroke-width:0.8;"/>
     </g>
     <g id="line2d_36">
      <g>
       <use style="fill:#555555;stroke:#555555;stroke-width:0.8;" x="28.942188" xlink:href="#m6f86053225" y="34.60011"/>
      </g>
     </g>
     <g id="text_18">
      <!-- 7 -->
      <defs>
       <path d="M 8.203125 72.90625 
L 55.078125 72.90625 
L 55.078125 68.703125 
L 28.609375 0 
L 18.3125 0 
L 43.21875 64.59375 
L 8.203125 64.59375 
z
" id="DejaVuSans-37"/>
      </defs>
      <g style="fill:#555555;" transform="translate(15.579688 38.399329)scale(0.1 -0.1)">
       <use xlink:href="#DejaVuSans-37"/>
      </g>
     </g>
    </g>
   </g>
   <g id="line2d_37">
    <path clip-path="url(#pb29b5b860d)" d="M 45.174915 248.659208 
L 45.397739 248.700992 
L 45.620563 248.504536 
L 45.843387 248.127859 
L 46.734683 248.357765 
L 46.957507 247.981967 
L 47.180331 248.320408 
L 47.403155 248.169452 
L 48.294451 248.161764 
L 48.962923 249.967788 
L 49.631394 249.968076 
L 50.299866 251.246088 
L 51.191162 250.582103 
L 51.413986 250.132146 
L 51.63681 250.049762 
L 51.859634 250.168217 
L 52.082458 249.830867 
L 52.75093 249.73016 
L 52.973754 250.029078 
L 53.196578 249.827416 
L 53.419402 249.95895 
L 53.642226 249.692693 
L 54.310698 249.428126 
L 54.533522 249.512795 
L 54.97917 250.879679 
L 55.201994 250.740913 
L 56.09329 250.481089 
L 56.538938 251.410951 
L 56.761762 251.383924 
L 57.430234 250.832709 
L 57.653058 250.871023 
L 57.875882 251.249621 
L 58.098706 250.990796 
L 58.32153 250.996904 
L 59.212826 252.047865 
L 59.43565 251.84554 
L 59.658474 252.309187 
L 59.881298 252.448425 
L 60.54977 253.139716 
L 60.772594 253.124167 
L 60.995418 252.987581 
L 61.441066 253.336798 
L 62.109538 253.001774 
L 63.000834 251.859293 
L 63.669305 251.779627 
L 64.114953 252.500079 
L 65.229073 253.339974 
L 65.451897 253.058331 
L 65.674721 252.497743 
L 65.897545 252.26928 
L 66.120369 252.521241 
L 66.788841 252.235773 
L 67.234489 253.345958 
L 67.457313 254.619867 
L 67.680137 254.110343 
L 68.571433 253.622005 
L 68.794257 253.148522 
L 69.017081 252.937803 
L 69.908377 252.339987 
L 70.131201 252.437685 
L 70.576849 251.289732 
L 70.799673 250.866025 
L 71.468145 250.96126 
L 71.690969 251.237432 
L 71.913793 250.951782 
L 72.136617 250.388398 
L 72.359441 250.186765 
L 73.027913 249.779319 
L 73.250737 250.411749 
L 73.919209 249.180075 
L 74.587681 249.039264 
L 75.033329 248.767121 
L 75.256153 248.601252 
L 76.147449 248.693903 
L 76.593097 249.104776 
L 76.815921 248.862072 
L 77.038745 248.252202 
L 77.93004 248.41824 
L 78.152864 248.303966 
L 78.598512 248.494953 
L 79.266984 248.786024 
L 79.489808 248.568096 
L 79.935456 249.189991 
L 80.15828 249.732422 
L 80.826752 249.622073 
L 81.718048 250.771036 
L 82.609344 251.213683 
L 82.832168 251.777778 
L 83.054992 251.962132 
L 83.277816 251.836359 
L 83.946288 252.11589 
L 84.169112 251.934094 
L 84.61476 252.885621 
L 84.837584 252.433615 
L 85.506056 252.772227 
L 85.951704 252.694453 
L 86.174528 252.904195 
L 87.288648 253.057926 
L 87.511472 253.435368 
L 87.95712 253.463445 
L 88.625592 253.671458 
L 88.848416 254.218401 
L 89.07124 254.142394 
L 89.294064 254.325606 
L 89.516888 254.230949 
L 90.18536 254.214454 
L 90.853832 255.531315 
L 91.076656 255.629218 
L 91.745128 255.782538 
L 92.190776 256.228385 
L 92.636423 255.374273 
L 93.304895 255.357556 
L 93.750543 255.917201 
L 94.196191 255.081438 
L 94.864663 255.031425 
L 95.087487 254.832475 
L 95.533135 254.147236 
L 95.755959 253.959096 
L 96.424431 253.719261 
L 96.870079 253.199223 
L 97.315727 252.785832 
L 98.429847 252.587848 
L 98.652671 252.201507 
L 98.875495 252.079927 
L 99.766791 252.320876 
L 99.989615 252.193284 
L 100.212439 252.291704 
L 100.435263 252.702897 
L 101.103735 253.071491 
L 101.326559 252.951752 
L 101.549383 253.104665 
L 101.772207 253.440765 
L 101.995031 254.008903 
L 102.886327 254.463603 
L 103.109151 254.751758 
L 103.331975 254.793254 
L 103.554799 255.212963 
L 104.891743 256.491104 
L 105.114567 257.126476 
L 106.005863 257.459368 
L 106.228687 257.868838 
L 106.451511 258.540663 
L 106.674335 258.545538 
L 107.56563 259.213198 
L 107.788454 260.17968 
L 108.011278 259.575176 
L 108.234102 259.975857 
L 109.571046 261.377875 
L 109.79387 261.845021 
L 110.685166 262.575292 
L 110.90799 263.015146 
L 111.130814 262.829119 
L 111.353638 262.998194 
L 112.02211 262.895461 
L 112.244934 263.034925 
L 112.467758 263.607485 
L 112.913406 263.354118 
L 113.581878 263.033688 
L 114.25035 263.218028 
L 114.473174 263.325063 
L 115.141646 263.052554 
L 115.36447 262.615166 
L 116.032942 262.09509 
L 116.924238 261.904421 
L 117.147062 261.406298 
L 117.59271 261.038638 
L 118.261182 261.243059 
L 118.484006 261.591191 
L 119.152478 263.38279 
L 119.82095 263.248745 
L 120.043774 263.787346 
L 120.266598 263.811575 
L 120.489422 263.298779 
L 120.712246 263.071025 
L 121.380717 263.573907 
L 122.049189 264.952857 
L 122.272013 265.211272 
L 122.940485 265.746467 
L 123.163309 266.382741 
L 123.386133 266.559427 
L 123.831781 265.479543 
L 124.723077 264.879031 
L 124.945901 264.200895 
L 125.168725 264.260992 
L 125.391549 265.187258 
L 126.282845 264.340907 
L 126.728493 265.882537 
L 126.951317 265.89478 
L 127.842613 266.110388 
L 128.065437 265.739569 
L 128.288261 265.997648 
L 128.511085 265.706177 
L 129.625205 266.269617 
L 129.848029 266.70435 
L 130.739325 266.280493 
L 131.407797 266.925287 
L 131.630621 266.54814 
L 132.299093 266.374719 
L 132.521917 266.607766 
L 132.744741 266.590177 
L 132.967565 266.849243 
L 133.190389 266.616087 
L 134.081685 266.112243 
L 134.304509 266.62563 
L 134.527333 266.674352 
L 134.750157 265.944732 
L 135.418629 265.728312 
L 135.641452 265.322471 
L 135.864276 265.449893 
L 136.0871 265.306867 
L 136.309924 265.502787 
L 137.20122 266.001331 
L 137.646868 266.350919 
L 137.869692 265.777902 
L 138.538164 266.049513 
L 138.983812 267.092815 
L 139.206636 267.009873 
L 139.42946 266.782193 
L 140.097932 266.512144 
L 140.320756 266.181104 
L 140.54358 266.086236 
L 140.766404 266.344218 
L 140.989228 267.274226 
L 141.6577 267.416637 
L 142.103348 267.979233 
L 142.326172 268.708772 
L 142.548996 268.176775 
L 143.217468 268.74121 
L 144.108764 270.839356 
L 144.777236 270.885273 
L 145.222884 271.275169 
L 145.445708 271.154259 
L 145.668532 271.273843 
L 146.559828 272.489909 
L 146.782652 271.921444 
L 147.005476 272.350667 
L 147.2283 272.07977 
L 147.896772 271.747307 
L 148.119596 272.259466 
L 148.34242 272.252919 
L 148.565244 271.879874 
L 149.45654 271.434897 
L 149.679364 270.949328 
L 149.902188 271.074566 
L 150.125011 271.370191 
L 151.016307 271.118776 
L 151.239131 270.51301 
L 151.461955 270.325188 
L 151.907603 269.655972 
L 153.021723 269.128478 
L 153.244547 268.441147 
L 154.135843 268.333541 
L 154.358667 268.132467 
L 154.581491 268.129102 
L 154.804315 268.342055 
L 155.027139 268.084749 
L 155.695611 267.785906 
L 155.918435 267.040195 
L 156.586907 266.019567 
L 157.255379 265.879654 
L 157.478203 266.177416 
L 158.146675 265.791252 
L 159.037971 265.951652 
L 159.706443 265.022413 
L 161.043387 264.196407 
L 162.157507 264.455689 
L 162.380331 264.919265 
L 162.603155 265.103552 
L 162.825979 265.108993 
L 163.717275 265.449137 
L 163.940099 265.476822 
L 164.162923 265.869602 
L 164.385746 266.00692 
L 165.054218 265.964153 
L 165.499866 266.346892 
L 165.945514 266.488843 
L 166.613986 266.330795 
L 166.83681 266.146817 
L 167.505282 266.773564 
L 168.396578 267.531804 
L 168.619402 267.550143 
L 168.842226 267.32663 
L 169.06505 267.360884 
L 169.733522 267.174647 
L 169.956346 267.533986 
L 170.17917 267.541489 
L 170.401994 267.292039 
L 171.29329 268.066537 
L 171.738938 267.983928 
L 172.184586 267.620481 
L 173.744354 268.393866 
L 174.63565 268.321219 
L 175.304122 267.651152 
L 176.195418 267.27001 
L 176.418242 267.005438 
L 176.641066 267.10213 
L 176.86389 266.802318 
L 177.755186 266.78268 
L 177.97801 266.645469 
L 178.200834 266.264001 
L 178.423658 266.10301 
L 179.314953 266.465404 
L 179.537777 266.807971 
L 179.760601 266.569306 
L 179.983425 266.611383 
L 180.874721 266.974031 
L 181.543193 268.279887 
L 182.211665 268.957668 
L 183.771433 269.461176 
L 184.217081 270.838226 
L 184.439905 270.942512 
L 184.662729 270.748317 
L 185.331201 270.987447 
L 185.554025 271.610372 
L 185.776849 271.834056 
L 185.999673 271.720972 
L 186.222497 271.821579 
L 186.890969 271.71931 
L 187.113793 271.151118 
L 187.559441 271.599429 
L 187.782265 271.130586 
L 188.450737 270.975179 
L 188.673561 270.708099 
L 188.896385 270.620619 
L 189.119209 270.797839 
L 189.342033 270.403396 
L 190.010505 270.006519 
L 190.233329 270.864557 
L 190.456153 270.778396 
L 190.901801 269.913723 
L 191.570273 269.741242 
L 192.238745 268.434072 
L 192.461569 269.042366 
L 193.13004 269.491096 
L 194.021336 267.716969 
L 194.912632 266.904577 
L 195.135456 267.239413 
L 195.581104 266.671573 
L 196.4724 266.15775 
L 196.918048 266.424773 
L 197.140872 266.080439 
L 198.032168 266.121524 
L 198.254992 265.731755 
L 198.70064 265.390307 
L 199.369112 265.42525 
L 199.591936 265.685621 
L 200.037584 265.259482 
L 200.92888 264.670477 
L 201.151704 264.375 
L 201.374528 264.621788 
L 201.820176 264.609883 
L 202.488648 264.782565 
L 202.934296 265.408761 
L 203.379944 265.230898 
L 204.048416 265.182619 
L 204.27124 265.286945 
L 204.494064 265.791345 
L 204.716888 265.82828 
L 204.939712 265.535164 
L 205.608184 265.31291 
L 206.49948 264.636487 
L 207.836423 264.77388 
L 208.059247 265.067164 
L 208.727719 264.998531 
L 208.950543 265.348011 
L 209.173367 265.431308 
L 209.396191 265.680045 
L 210.287487 265.870648 
L 210.510311 266.201797 
L 210.955959 265.930821 
L 211.178783 266.181408 
L 212.070079 266.134936 
L 212.292903 266.337686 
L 212.738551 266.123715 
L 213.407023 266.601044 
L 213.852671 266.601843 
L 214.075495 266.706771 
L 214.298319 267.197594 
L 214.966791 267.360477 
L 215.189615 267.778881 
L 215.412439 267.787822 
L 215.858087 266.917794 
L 216.526559 266.739791 
L 216.749383 266.390334 
L 216.972207 266.321198 
L 217.195031 266.383642 
L 217.417855 266.654634 
L 218.309151 266.336486 
L 218.531975 266.925386 
L 218.754799 266.985119 
L 218.977623 266.829217 
L 219.646095 266.609706 
L 219.868919 266.80451 
L 220.091743 267.176436 
L 220.537391 266.880067 
L 221.205863 267.191234 
L 221.428687 267.002316 
L 221.874335 267.489007 
L 222.097158 267.5789 
L 222.76563 267.596146 
L 224.325398 266.874009 
L 224.99387 267.012146 
L 225.216694 267.177426 
L 225.885166 267.051925 
L 226.553638 266.225483 
L 227.444934 266.198175 
L 227.667758 266.375174 
L 228.33623 265.643977 
L 229.004702 265.606067 
L 229.227526 265.441417 
L 229.45035 266.0219 
L 229.673174 266.078529 
L 229.895998 266.398285 
L 230.56447 266.341087 
L 231.010118 266.829494 
L 232.124238 266.779751 
L 232.347062 267.083402 
L 232.569886 266.869432 
L 233.015534 267.214632 
L 233.684006 267.104425 
L 233.90683 267.254456 
L 234.352478 266.951275 
L 234.575302 267.38749 
L 235.243774 267.559192 
L 235.466598 267.48526 
L 235.689422 267.586629 
L 235.912246 268.138092 
L 236.13507 267.772099 
L 237.249189 267.505369 
L 237.472013 267.545085 
L 237.694837 267.728959 
L 238.363309 268.116223 
L 238.586133 268.026821 
L 239.031781 267.393916 
L 240.145901 267.355289 
L 240.591549 267.086915 
L 240.814373 267.502705 
L 241.482845 267.695458 
L 241.705669 267.613513 
L 241.928493 268.109049 
L 242.374141 267.917395 
L 243.042613 268.611894 
L 243.711085 268.727421 
L 243.933909 268.377203 
L 244.602381 268.275953 
L 244.825205 268.618281 
L 245.270853 268.85803 
L 246.162149 269.657537 
L 246.384973 269.351906 
L 246.607797 269.443902 
L 247.721917 270.878153 
L 247.944741 270.888527 
L 248.167565 270.170142 
L 249.281685 270.882755 
L 249.504509 271.805303 
L 249.727333 271.979228 
L 250.172981 272.864395 
L 250.841452 273.132086 
L 251.2871 274.179828 
L 251.732748 275.532292 
L 252.40122 276.297779 
L 252.624044 275.050723 
L 252.846868 275.759181 
L 253.069692 275.784962 
L 253.292516 275.14744 
L 253.960988 275.280325 
L 254.183812 275.696558 
L 254.852284 278.083395 
L 255.520756 277.804102 
L 255.74358 277.543478 
L 256.412052 276.195716 
L 257.080524 276.336033 
L 257.303348 275.591128 
L 257.748996 274.746343 
L 257.97182 274.178727 
L 258.640292 274.109129 
L 259.531588 272.829522 
L 260.422884 273.516631 
L 260.868532 272.965354 
L 261.091356 273.555126 
L 261.982652 273.018369 
L 262.205476 273.081705 
L 262.651124 272.517115 
L 263.54242 272.252524 
L 263.765244 272.574995 
L 264.210892 272.07369 
L 265.325011 273.062002 
L 265.547835 273.572437 
L 265.770659 273.770696 
L 266.439131 274.012055 
L 266.884779 273.864796 
L 267.330427 274.941903 
L 267.998899 274.867745 
L 268.890195 277.198364 
L 269.558667 277.455317 
L 269.781491 278.15775 
L 270.449963 277.526239 
L 271.118435 277.422884 
L 271.341259 277.76953 
L 271.564083 277.845485 
L 271.786907 277.6324 
L 272.009731 277.245492 
L 272.678203 277.378586 
L 272.901027 276.759221 
L 273.123851 276.620125 
L 273.346675 276.144314 
L 273.569499 276.674432 
L 274.237971 276.523401 
L 274.460795 276.339118 
L 274.683619 276.360628 
L 274.906443 276.010856 
L 275.129267 276.171129 
L 276.020563 275.765677 
L 276.466211 276.049894 
L 276.689035 276.54582 
L 277.357507 276.227417 
L 278.025979 275.02245 
L 278.248803 274.891216 
L 278.917275 274.911429 
L 279.140099 274.282047 
L 279.585746 273.701132 
L 279.80857 273.417995 
L 280.477042 273.455062 
L 280.699866 272.90831 
L 280.92269 272.878008 
L 281.368338 273.263281 
L 282.259634 273.332645 
L 282.482458 273.495431 
L 282.705282 273.055127 
L 282.928106 273.244365 
L 283.596578 272.902495 
L 284.042226 272.406106 
L 284.26505 272.485877 
L 284.487874 271.986318 
L 285.37917 272.164427 
L 285.824818 271.911757 
L 286.047642 271.481618 
L 286.716114 271.334819 
L 286.938938 271.164589 
L 288.275882 270.841162 
L 288.498706 270.23583 
L 288.944354 270.084191 
L 289.167178 269.747256 
L 289.83565 270.052293 
L 290.058474 270.38191 
L 290.504122 270.312732 
L 290.726946 270.725703 
L 291.395418 270.550201 
L 291.618242 270.735044 
L 292.286714 272.011539 
L 293.400834 272.45072 
L 293.623658 273.054857 
L 293.846482 273.32886 
L 294.514953 273.318743 
L 294.737777 273.063236 
L 294.960601 273.632002 
L 295.406249 273.270467 
L 296.520369 273.589576 
L 296.743193 274.030103 
L 296.966017 273.802164 
L 298.080137 273.842902 
L 298.525785 273.16772 
L 299.417081 273.224062 
L 299.639905 273.423486 
L 299.862729 273.127677 
L 300.085553 273.584548 
L 300.754025 273.495243 
L 300.976849 273.69591 
L 301.422497 273.840761 
L 301.645321 274.216272 
L 302.536617 274.548217 
L 302.982265 274.337693 
L 303.205089 274.550682 
L 303.873561 274.820846 
L 304.096385 275.03903 
L 304.319209 274.928509 
L 304.542033 275.090598 
L 304.764857 274.493779 
L 305.656153 274.557164 
L 305.878977 274.175949 
L 306.101801 274.222879 
L 306.324625 274.679584 
L 307.661569 274.132697 
L 307.884393 274.471926 
L 308.775688 274.579451 
L 308.998512 274.6849 
L 309.221336 274.62718 
L 309.44416 275.06733 
L 310.112632 275.178184 
L 310.335456 275.571094 
L 310.55828 275.428131 
L 310.781104 275.578732 
L 311.003928 275.176806 
L 311.6724 274.829046 
L 311.895224 275.178532 
L 312.340872 274.634374 
L 313.454992 274.183059 
L 313.90064 274.559797 
L 314.123464 274.201769 
L 315.01476 274.427391 
L 315.237584 274.277848 
L 315.460408 273.952466 
L 316.574528 274.175908 
L 316.797352 274.327214 
L 317.243 273.810164 
L 318.35712 273.850407 
L 318.579944 273.935775 
L 318.802768 274.442624 
L 319.47124 274.511131 
L 319.694064 274.382325 
L 320.362536 273.668247 
L 321.476656 273.801775 
L 321.69948 273.588651 
L 321.922304 273.720187 
L 322.590776 273.668281 
L 322.813599 273.187168 
L 323.036423 273.081575 
L 323.259247 273.57099 
L 323.482071 273.736435 
L 324.150543 273.470815 
L 324.373367 273.096315 
L 324.596191 273.104288 
L 324.819015 273.316027 
L 325.041839 272.915624 
L 325.933135 273.128403 
L 326.155959 273.525284 
L 326.601607 273.829249 
L 327.492903 273.694846 
L 327.715727 273.433139 
L 327.938551 273.418451 
L 328.161375 273.687074 
L 328.829847 273.445559 
L 329.275495 272.961402 
L 329.498319 272.902484 
L 330.389615 272.854895 
L 330.612439 272.971896 
L 330.835263 273.365635 
L 331.058087 273.13853 
L 331.280911 273.297691 
L 331.949383 273.611774 
L 332.395031 274.388324 
L 332.617855 274.243219 
L 332.840679 274.453435 
L 333.731975 274.183347 
L 333.954799 274.30668 
L 334.400447 273.719643 
L 335.068919 273.83714 
L 335.291743 273.701027 
L 335.737391 273.94764 
L 335.960215 273.856598 
L 336.628687 273.882102 
L 336.851511 274.026672 
L 337.297158 273.771418 
L 337.519982 273.483781 
L 338.411278 273.073889 
L 339.07975 272.360043 
L 339.748222 272.20124 
L 340.19387 271.884198 
L 340.416694 272.462803 
L 341.530814 271.896952 
L 342.199286 271.213106 
L 343.313406 271.400261 
L 343.53623 271.637945 
L 343.759054 271.379166 
L 344.427526 271.601699 
L 344.65035 272.131417 
L 345.095998 271.707914 
L 345.318822 271.663296 
L 345.987294 271.329727 
L 346.210118 271.350934 
L 346.432942 271.220627 
L 346.87859 271.61847 
L 347.547062 271.51511 
L 348.215534 272.791218 
L 349.10683 273.230234 
L 349.552478 272.67728 
L 349.775302 272.725759 
L 349.998126 272.533677 
L 350.889422 272.49193 
L 351.112246 272.647147 
L 351.33507 272.628777 
L 351.557893 272.377444 
L 352.226365 272.377633 
L 352.449189 272.739491 
L 352.672013 272.703896 
L 352.894837 272.953299 
L 353.786133 272.896285 
L 354.008957 273.171476 
L 355.568725 272.2986 
L 355.791549 272.548098 
L 356.014373 272.595512 
L 356.237197 272.288828 
L 357.128493 272.220654 
L 357.351317 272.295444 
L 357.796965 272.8285 
L 358.465437 272.848968 
L 358.688261 272.622919 
L 358.911085 272.630528 
L 359.356733 273.190732 
L 360.248029 273.700216 
L 360.693677 273.734978 
L 360.916501 273.385314 
L 361.807797 273.118988 
L 362.030621 272.93426 
L 362.476269 272.816682 
L 363.144741 273.042824 
L 363.367565 273.409266 
L 363.813213 273.504403 
L 364.036037 273.318734 
L 364.704509 273.755253 
L 364.927333 274.111654 
L 365.150157 273.752966 
L 365.372981 273.658896 
L 365.595805 274.352526 
L 366.264276 274.258929 
L 366.4871 274.34251 
L 366.709924 274.188242 
L 366.932748 274.466443 
L 367.155572 274.225481 
L 368.269692 273.714695 
L 368.71534 273.410477 
L 369.606636 273.329368 
L 369.82946 273.329368 
L 369.82946 273.329368 
" style="fill:none;stroke:#e24a33;stroke-linecap:square;stroke-width:1.5;"/>
   </g>
   <g id="line2d_38">
    <path clip-path="url(#pb29b5b860d)" d="M 45.174915 248.659208 
L 45.397739 248.779825 
L 45.620563 249.131006 
L 45.843387 248.947356 
L 46.734683 248.68774 
L 46.957507 248.399138 
L 47.403155 249.304369 
L 48.294451 249.335132 
L 48.740099 249.913072 
L 48.962923 250.741918 
L 49.854218 251.255996 
L 50.077042 251.60695 
L 50.299866 251.467849 
L 50.52269 251.546619 
L 51.413986 250.987662 
L 51.63681 251.436738 
L 51.859634 251.373854 
L 52.082458 251.187078 
L 52.973754 251.085888 
L 53.419402 249.658151 
L 53.642226 249.220986 
L 54.310698 249.342657 
L 54.97917 250.432548 
L 55.201994 250.335924 
L 56.316114 251.005823 
L 56.538938 250.710706 
L 56.761762 251.746353 
L 57.430234 251.629804 
L 57.875882 253.351779 
L 58.098706 253.622956 
L 58.32153 254.610682 
L 58.990002 253.411931 
L 59.212826 252.627682 
L 59.43565 252.694243 
L 59.658474 254.226909 
L 60.772594 253.575137 
L 61.218242 254.218978 
L 61.441066 254.368129 
L 62.109538 254.522875 
L 62.555186 253.819792 
L 63.000834 252.921897 
L 63.892129 252.118269 
L 64.114953 252.760321 
L 64.337777 255.213863 
L 64.560601 255.227679 
L 65.229073 255.117497 
L 65.674721 254.410438 
L 66.120369 253.099833 
L 67.234489 252.136045 
L 67.457313 252.776255 
L 67.680137 253.921955 
L 68.348609 254.915644 
L 68.571433 253.600446 
L 68.794257 253.01911 
L 69.017081 252.797833 
L 69.908377 252.55704 
L 70.354025 250.952357 
L 70.576849 250.225928 
L 70.799673 251.207777 
L 71.468145 250.630482 
L 71.690969 250.225159 
L 71.913793 250.817175 
L 72.136617 250.333763 
L 72.359441 250.344805 
L 73.027913 249.962081 
L 73.250737 250.228174 
L 73.473561 250.09856 
L 73.919209 248.782092 
L 74.587681 248.355544 
L 74.810505 247.420434 
L 75.478977 246.680089 
L 76.147449 246.173959 
L 76.370273 246.573566 
L 76.593097 246.263736 
L 77.038745 245.020781 
L 78.152864 246.00949 
L 78.375688 246.405009 
L 78.598512 246.424979 
L 79.266984 246.660272 
L 79.712632 245.896736 
L 79.935456 246.019432 
L 80.15828 246.335247 
L 80.826752 246.902813 
L 81.049576 246.730554 
L 81.2724 247.209678 
L 81.718048 247.36271 
L 82.38652 247.604172 
L 82.609344 246.700869 
L 82.832168 247.106875 
L 83.054992 247.188864 
L 83.277816 247.587145 
L 84.169112 248.112965 
L 84.61476 248.7985 
L 84.837584 248.063893 
L 85.506056 247.794616 
L 85.951704 248.220566 
L 86.174528 249.23197 
L 86.397352 249.519697 
L 87.734296 250.708146 
L 87.95712 250.592274 
L 88.625592 250.393235 
L 89.07124 251.092916 
L 89.516888 250.222926 
L 90.408184 251.075932 
L 91.076656 252.165762 
L 91.745128 252.469581 
L 91.967952 252.76508 
L 92.190776 253.570759 
L 92.636423 252.246384 
L 93.304895 252.355288 
L 93.527719 252.203972 
L 93.750543 252.870191 
L 93.973367 252.633099 
L 94.196191 252.065726 
L 95.087487 251.54478 
L 95.310311 250.730618 
L 95.755959 250.197671 
L 96.424431 249.916356 
L 97.092903 249.110948 
L 97.315727 248.505043 
L 97.984199 248.117739 
L 98.429847 248.333777 
L 98.652671 247.894474 
L 98.875495 247.965066 
L 100.435263 248.629598 
L 101.326559 248.462167 
L 101.995031 249.346115 
L 102.886327 250.201627 
L 103.109151 251.111115 
L 103.331975 251.255261 
L 103.554799 250.801942 
L 104.446095 250.9827 
L 104.891743 252.047694 
L 105.114567 252.540083 
L 106.005863 252.356418 
L 106.228687 253.028226 
L 106.451511 253.205019 
L 106.674335 252.994054 
L 107.342806 253.73505 
L 107.56563 253.480254 
L 107.788454 252.686669 
L 108.234102 253.712052 
L 109.125398 252.357974 
L 109.79387 253.97086 
L 110.462342 253.925745 
L 110.685166 254.112862 
L 110.90799 254.455571 
L 111.130814 254.195986 
L 111.353638 253.688349 
L 112.244934 254.534866 
L 112.467758 255.495967 
L 112.690582 254.583426 
L 112.913406 254.749838 
L 113.581878 254.052494 
L 113.804702 254.439114 
L 114.027526 254.293804 
L 114.473174 254.477122 
L 115.141646 254.747846 
L 115.587294 254.232577 
L 115.810118 257.618561 
L 116.032942 256.332135 
L 117.147062 254.846078 
L 117.59271 253.639326 
L 118.261182 253.454384 
L 118.484006 253.173057 
L 118.70683 254.397405 
L 118.929654 254.603321 
L 119.152478 256.749871 
L 119.82095 256.915902 
L 120.043774 257.568047 
L 120.489422 257.259894 
L 120.712246 257.760013 
L 121.380717 260.169551 
L 121.603541 259.173915 
L 121.826365 259.430256 
L 122.049189 259.91768 
L 122.272013 259.865452 
L 122.940485 260.482213 
L 123.163309 260.527565 
L 123.386133 261.58216 
L 123.831781 261.529851 
L 124.945901 261.199329 
L 125.168725 261.519049 
L 125.391549 260.571099 
L 126.282845 261.522854 
L 126.505669 262.303303 
L 126.728493 262.081699 
L 126.951317 262.027583 
L 127.619789 262.396015 
L 127.842613 263.05001 
L 128.288261 261.780785 
L 128.511085 261.638826 
L 129.402381 262.359364 
L 129.848029 263.378553 
L 130.070853 263.799353 
L 130.739325 264.373991 
L 130.962149 264.231746 
L 131.184973 264.680128 
L 131.407797 267.391559 
L 131.630621 267.897191 
L 132.299093 267.762577 
L 132.521917 268.75804 
L 132.967565 268.754271 
L 133.190389 269.750363 
L 134.081685 271.254941 
L 134.304509 271.207376 
L 134.750157 270.08052 
L 135.418629 269.408191 
L 135.641452 269.016004 
L 135.864276 268.945941 
L 136.0871 268.592706 
L 136.309924 267.831173 
L 137.20122 268.596695 
L 137.424044 267.952271 
L 137.646868 268.116288 
L 137.869692 266.536744 
L 138.538164 266.198991 
L 138.760988 266.872425 
L 138.983812 266.489359 
L 139.206636 267.139391 
L 139.42946 265.645758 
L 140.097932 265.500122 
L 140.320756 265.252743 
L 140.54358 264.069173 
L 140.766404 264.172313 
L 140.989228 264.810258 
L 141.880524 265.455307 
L 142.103348 264.750778 
L 142.326172 265.333872 
L 142.548996 264.998421 
L 143.440292 266.066604 
L 143.663116 266.872406 
L 143.88594 266.774802 
L 144.108764 267.092257 
L 144.777236 267.510045 
L 145.00006 267.919734 
L 145.222884 267.380951 
L 145.668532 268.020471 
L 146.337004 269.385724 
L 146.559828 267.463856 
L 147.005476 268.966951 
L 147.2283 268.711199 
L 147.896772 269.493129 
L 148.34242 270.763242 
L 148.565244 270.383196 
L 149.45654 269.639622 
L 149.902188 271.344546 
L 150.125011 271.322695 
L 151.016307 270.661381 
L 151.239131 270.123242 
L 151.461955 269.254835 
L 151.684779 269.005625 
L 151.907603 268.52417 
L 152.798899 267.904998 
L 153.021723 268.053499 
L 153.244547 266.642872 
L 153.467371 266.122471 
L 154.581491 265.916027 
L 154.804315 266.561539 
L 155.027139 265.446656 
L 155.695611 265.092189 
L 155.918435 264.407866 
L 156.141259 264.482238 
L 156.364083 264.294822 
L 156.586907 263.863505 
L 157.701027 262.914134 
L 158.146675 262.25669 
L 159.260795 262.317823 
L 159.483619 261.910685 
L 160.597739 261.25036 
L 160.820563 261.42289 
L 161.043387 260.988758 
L 161.266211 260.850435 
L 161.934683 260.790044 
L 162.157507 260.535135 
L 162.380331 260.799371 
L 162.603155 260.79541 
L 162.825979 260.414787 
L 163.494451 259.977572 
L 163.940099 260.285172 
L 164.162923 260.339672 
L 164.385746 260.222489 
L 165.054218 260.481281 
L 165.277042 261.727407 
L 165.72269 262.570589 
L 165.945514 263.016519 
L 166.83681 262.491229 
L 167.282458 263.864784 
L 167.505282 264.021716 
L 168.173754 264.165331 
L 168.619402 265.637868 
L 168.842226 264.953989 
L 169.06505 264.904487 
L 169.733522 265.360868 
L 169.956346 266.643207 
L 170.17917 266.760438 
L 170.401994 266.543743 
L 170.624818 265.839993 
L 171.516114 267.160917 
L 171.738938 267.234211 
L 172.184586 266.5061 
L 172.853058 266.776218 
L 173.075882 267.214725 
L 173.744354 266.23021 
L 174.412826 266.04982 
L 174.63565 265.771041 
L 175.304122 264.453538 
L 175.972594 264.043051 
L 176.195418 263.528201 
L 176.418242 263.447376 
L 176.641066 263.222286 
L 176.86389 262.617675 
L 177.532362 262.311557 
L 177.755186 262.409295 
L 177.97801 261.92476 
L 178.200834 261.959684 
L 178.423658 261.780004 
L 179.092129 261.69499 
L 179.314953 261.223319 
L 179.537777 261.740537 
L 179.760601 261.448483 
L 179.983425 261.639395 
L 180.874721 261.956548 
L 181.097545 262.291332 
L 181.320369 262.327483 
L 181.543193 261.979856 
L 182.211665 261.893996 
L 183.771433 261.909667 
L 183.994257 262.488486 
L 184.217081 262.520328 
L 184.439905 262.315805 
L 184.662729 262.818043 
L 185.331201 263.263477 
L 185.776849 264.27026 
L 185.999673 265.024004 
L 186.222497 264.888464 
L 187.113793 265.04895 
L 187.336617 265.319359 
L 187.559441 264.811709 
L 187.782265 263.898686 
L 188.673561 263.345737 
L 188.896385 263.786313 
L 189.119209 263.912309 
L 189.342033 263.231607 
L 190.010505 262.828749 
L 190.233329 263.246027 
L 190.901801 261.991963 
L 191.570273 261.577922 
L 191.793097 261.157216 
L 192.238745 259.326114 
L 193.13004 259.208069 
L 193.575688 258.348106 
L 193.798512 258.109231 
L 194.021336 258.411626 
L 194.912632 257.721863 
L 195.135456 257.902754 
L 195.35828 257.7396 
L 195.581104 257.307587 
L 196.4724 257.270104 
L 196.918048 257.706869 
L 197.140872 257.632805 
L 197.809344 257.866012 
L 198.254992 257.172049 
L 198.70064 256.782511 
L 199.369112 256.464905 
L 199.591936 256.685376 
L 200.037584 256.492103 
L 200.260408 256.034583 
L 200.92888 255.880439 
L 201.151704 256.015841 
L 201.374528 256.360993 
L 201.597352 256.321709 
L 201.820176 256.037562 
L 202.488648 256.319109 
L 202.934296 257.042834 
L 203.379944 256.929697 
L 204.048416 256.723282 
L 204.494064 257.312761 
L 204.716888 257.452683 
L 204.939712 257.224241 
L 205.608184 257.04251 
L 206.053832 256.751869 
L 206.49948 256.078948 
L 207.613599 256.785097 
L 207.836423 256.774053 
L 208.059247 256.573069 
L 208.727719 256.802806 
L 209.173367 257.47476 
L 209.619015 256.873177 
L 210.287487 257.100179 
L 210.510311 257.51099 
L 210.733135 257.512961 
L 210.955959 257.098949 
L 211.178783 257.145555 
L 212.070079 257.074443 
L 212.292903 257.560557 
L 213.407023 257.039396 
L 213.629847 257.232951 
L 213.852671 258.371326 
L 214.075495 258.132731 
L 214.298319 258.211694 
L 214.966791 258.312271 
L 215.189615 258.830416 
L 215.412439 258.309956 
L 215.635263 257.389095 
L 215.858087 257.294788 
L 216.526559 257.151615 
L 216.749383 256.952732 
L 216.972207 256.308588 
L 217.417855 255.745979 
L 218.309151 255.400797 
L 218.754799 256.47053 
L 218.977623 256.847513 
L 219.646095 256.141341 
L 219.868919 256.181986 
L 220.537391 257.645193 
L 221.205863 258.538684 
L 221.428687 258.42353 
L 221.651511 257.556637 
L 221.874335 257.928286 
L 222.76563 257.960489 
L 223.211278 257.685701 
L 223.656926 257.486555 
L 224.325398 257.255978 
L 224.548222 256.919176 
L 224.771046 257.225252 
L 224.99387 257.292838 
L 225.216694 256.927571 
L 226.330814 256.491437 
L 226.553638 256.116762 
L 227.444934 256.155975 
L 227.667758 255.945515 
L 228.113406 255.322767 
L 228.33623 254.955699 
L 229.004702 254.742074 
L 229.45035 254.962704 
L 229.895998 255.656122 
L 230.56447 256.242591 
L 230.787294 256.707199 
L 231.010118 256.864034 
L 231.455766 256.182728 
L 232.124238 256.004647 
L 232.347062 255.671352 
L 232.569886 255.752508 
L 233.015534 254.415427 
L 233.90683 254.923187 
L 234.129654 255.188397 
L 234.352478 254.979785 
L 235.243774 254.744091 
L 235.466598 255.787508 
L 235.689422 255.965972 
L 235.912246 255.616034 
L 237.026365 256.199487 
L 237.249189 256.381974 
L 237.472013 256.367437 
L 237.694837 256.175971 
L 238.586133 255.796585 
L 239.031781 255.080284 
L 239.254605 254.929131 
L 240.145901 254.694424 
L 240.814373 253.887241 
L 241.705669 254.43307 
L 241.928493 254.892259 
L 242.151317 255.038964 
L 242.374141 254.758566 
L 243.265437 254.933244 
L 243.488261 254.699973 
L 243.933909 255.389623 
L 244.602381 255.223741 
L 244.825205 255.563349 
L 245.048029 255.375864 
L 245.270853 255.520091 
L 245.493677 256.389301 
L 246.162149 256.709297 
L 246.384973 256.346862 
L 246.607797 256.399151 
L 247.053445 257.250017 
L 247.721917 257.515021 
L 248.167565 255.842258 
L 248.613213 256.156462 
L 249.281685 256.193508 
L 249.504509 256.522694 
L 249.727333 256.575433 
L 249.950157 256.967665 
L 250.172981 256.953339 
L 250.841452 257.916773 
L 251.064276 257.92744 
L 251.732748 259.473363 
L 252.624044 260.001624 
L 252.846868 261.065588 
L 253.292516 261.607314 
L 253.960988 261.738529 
L 254.183812 262.064256 
L 254.406636 263.954152 
L 254.62946 264.252057 
L 254.852284 263.24845 
L 255.520756 263.558271 
L 256.189228 261.638085 
L 256.412052 261.046129 
L 257.303348 260.576129 
L 257.526172 260.5508 
L 257.97182 259.43304 
L 258.640292 259.148899 
L 259.308764 257.725769 
L 259.531588 257.287666 
L 260.20006 257.228137 
L 260.422884 256.953564 
L 260.868532 255.980759 
L 261.091356 255.502937 
L 261.982652 255.122666 
L 262.4283 254.50029 
L 262.651124 253.796111 
L 263.54242 253.068428 
L 263.988068 253.997187 
L 264.879364 253.646854 
L 265.325011 253.554456 
L 265.547835 253.893667 
L 265.770659 253.236427 
L 266.439131 253.05312 
L 266.884779 253.428034 
L 267.330427 254.331454 
L 267.998899 254.931627 
L 268.890195 259.03372 
L 269.558667 259.332454 
L 270.004315 259.962352 
L 270.227139 259.799595 
L 270.449963 259.136849 
L 271.118435 259.20922 
L 271.341259 259.548089 
L 271.564083 259.630571 
L 272.009731 259.230622 
L 272.678203 258.879979 
L 273.123851 257.007908 
L 273.346675 255.864624 
L 273.569499 255.54802 
L 274.237971 254.996192 
L 274.460795 256.947292 
L 274.906443 254.685382 
L 275.797739 255.080634 
L 276.020563 254.941372 
L 276.243387 255.246256 
L 276.689035 254.364767 
L 277.357507 254.70737 
L 277.580331 253.975968 
L 277.803155 253.999655 
L 278.025979 253.273614 
L 278.917275 253.285934 
L 279.80857 251.780857 
L 280.477042 251.597789 
L 280.92269 250.768013 
L 281.368338 250.456062 
L 282.03681 250.463289 
L 282.482458 250.048365 
L 282.705282 249.61183 
L 282.928106 250.050233 
L 283.596578 249.843471 
L 284.042226 248.918162 
L 284.487874 248.547567 
L 285.156346 248.447148 
L 285.37917 247.998849 
L 285.601994 247.926226 
L 285.824818 248.25604 
L 286.047642 246.702944 
L 286.938938 246.329588 
L 287.60741 245.609271 
L 289.167178 245.421664 
L 290.058474 245.795799 
L 290.281298 246.176019 
L 290.504122 245.413438 
L 291.395418 244.958686 
L 291.618242 244.506682 
L 292.286714 245.227849 
L 293.17801 245.458468 
L 293.623658 246.291609 
L 294.737777 246.224082 
L 294.960601 246.124798 
L 295.183425 246.458522 
L 295.406249 246.159674 
L 296.297545 246.282186 
L 296.966017 245.191441 
L 297.634489 245.030556 
L 297.857313 244.837091 
L 298.080137 244.374497 
L 298.302961 244.803208 
L 298.525785 244.637191 
L 299.417081 244.553906 
L 299.639905 244.343535 
L 299.862729 243.760638 
L 300.085553 243.964008 
L 300.754025 243.947372 
L 300.976849 243.589564 
L 301.422497 244.081689 
L 301.645321 243.833084 
L 302.313793 243.631562 
L 302.536617 244.082481 
L 302.759441 243.845351 
L 302.982265 243.833853 
L 303.205089 243.666323 
L 304.096385 244.136662 
L 304.319209 244.954102 
L 304.542033 245.106177 
L 304.764857 244.735641 
L 305.656153 245.213206 
L 305.878977 245.094593 
L 306.101801 245.558987 
L 306.324625 245.672777 
L 306.993097 245.520923 
L 307.438745 244.955551 
L 307.661569 244.646026 
L 307.884393 244.766516 
L 308.552864 244.656836 
L 308.775688 245.132559 
L 308.998512 245.272608 
L 309.221336 244.677965 
L 309.44416 244.618189 
L 310.112632 244.635578 
L 310.335456 245.010698 
L 310.55828 244.909826 
L 311.003928 244.169327 
L 311.6724 243.783181 
L 311.895224 244.127406 
L 312.118048 244.090775 
L 312.340872 243.701719 
L 313.232168 243.923914 
L 313.677816 244.783987 
L 313.90064 244.343521 
L 314.123464 244.510329 
L 315.460408 244.570629 
L 315.683232 244.837688 
L 316.351704 243.762575 
L 317.243 243.564072 
L 318.134296 243.700605 
L 318.802768 243.283475 
L 319.47124 243.017975 
L 319.694064 242.333275 
L 319.916888 242.04238 
L 320.139712 242.032083 
L 320.362536 242.349466 
L 321.253832 242.444104 
L 321.476656 242.195661 
L 321.922304 242.644829 
L 322.590776 242.454967 
L 322.813599 242.58304 
L 323.036423 242.569161 
L 323.259247 242.888438 
L 323.482071 242.808111 
L 324.150543 242.167005 
L 324.373367 241.373851 
L 324.819015 241.439751 
L 325.041839 241.212533 
L 325.933135 241.382027 
L 326.155959 241.693746 
L 326.378783 241.509899 
L 326.601607 240.967422 
L 327.270079 240.56885 
L 327.492903 240.598005 
L 327.938551 240.328028 
L 328.161375 240.665988 
L 328.829847 240.248226 
L 329.052671 240.467631 
L 329.275495 240.103946 
L 329.498319 240.469976 
L 330.389615 241.122652 
L 330.612439 241.055134 
L 330.835263 240.836426 
L 331.058087 241.124771 
L 331.280911 240.996122 
L 331.949383 241.122796 
L 332.395031 241.739858 
L 332.617855 241.530636 
L 332.840679 241.832173 
L 333.509151 241.922656 
L 333.954799 241.283681 
L 334.177623 240.884948 
L 334.400447 241.589189 
L 335.068919 241.624144 
L 335.291743 241.299986 
L 335.514567 241.751148 
L 335.737391 241.366923 
L 335.960215 241.318224 
L 336.628687 240.876332 
L 336.851511 241.152658 
L 337.297158 241.042415 
L 337.519982 240.643025 
L 338.188454 240.123074 
L 338.411278 239.763264 
L 338.856926 239.608433 
L 339.07975 239.675558 
L 339.748222 239.537369 
L 340.19387 239.132484 
L 340.416694 239.195215 
L 340.639518 238.912195 
L 341.30799 238.531395 
L 341.976462 237.454983 
L 342.199286 237.77543 
L 343.090582 238.330917 
L 343.313406 238.706821 
L 343.53623 238.811102 
L 343.759054 238.60836 
L 344.427526 238.754243 
L 344.65035 239.041412 
L 344.873174 239.096568 
L 346.210118 237.901934 
L 346.432942 238.141123 
L 346.655766 238.103211 
L 346.87859 238.264329 
L 347.547062 238.290267 
L 347.769886 239.108152 
L 347.99271 239.198915 
L 348.215534 239.692455 
L 348.438358 239.382278 
L 349.329654 239.889589 
L 349.552478 239.699132 
L 349.998126 240.106101 
L 350.666598 240.332177 
L 351.112246 240.971645 
L 351.33507 240.897886 
L 351.557893 241.04093 
L 352.226365 241.076349 
L 352.449189 241.209164 
L 352.672013 241.765877 
L 352.894837 241.318714 
L 353.117661 241.122887 
L 354.008957 241.300816 
L 354.231781 241.487934 
L 354.677429 241.019459 
L 355.345901 241.176133 
L 355.568725 239.945378 
L 355.791549 239.612038 
L 356.905669 239.246597 
L 357.351317 239.519849 
L 357.574141 239.662635 
L 357.796965 239.642667 
L 358.465437 239.397694 
L 358.911085 239.563588 
L 359.133909 240.00185 
L 359.356733 239.969662 
L 360.025205 240.149551 
L 360.248029 240.538002 
L 360.470853 240.149917 
L 360.916501 239.963996 
L 361.584973 239.681171 
L 362.030621 238.961738 
L 363.144741 239.011305 
L 363.590389 239.360508 
L 363.813213 239.370603 
L 364.036037 239.094702 
L 364.704509 239.243125 
L 365.150157 239.648965 
L 365.372981 239.340513 
L 365.595805 239.515851 
L 366.4871 240.000671 
L 366.709924 240.715366 
L 366.932748 240.917505 
L 367.155572 240.61148 
L 368.046868 240.061573 
L 368.71534 239.412056 
L 369.383812 239.233536 
L 369.606636 239.027488 
L 369.82946 239.027488 
L 369.82946 239.027488 
" style="fill:none;stroke:#348abd;stroke-linecap:square;stroke-width:1.5;"/>
   </g>
   <g id="line2d_39">
    <path clip-path="url(#pb29b5b860d)" d="M 45.174915 248.659208 
L 45.397739 248.558756 
L 45.843387 247.397277 
L 46.957507 247.052752 
L 47.180331 247.425773 
L 47.403155 247.451905 
L 48.294451 246.941806 
L 48.740099 247.395085 
L 48.962923 248.144401 
L 49.631394 248.124492 
L 50.077042 248.545534 
L 51.191162 247.532401 
L 51.413986 247.013254 
L 51.859634 246.628235 
L 52.082458 246.063121 
L 52.75093 245.702215 
L 52.973754 245.100578 
L 53.419402 242.959076 
L 53.642226 242.32146 
L 54.310698 242.156946 
L 54.533522 242.271132 
L 54.756346 242.24419 
L 54.97917 242.433259 
L 55.201994 242.082671 
L 56.09329 243.322394 
L 56.316114 243.191264 
L 56.538938 236.574231 
L 56.761762 236.885438 
L 57.430234 236.664866 
L 57.653058 238.103553 
L 58.098706 237.150758 
L 58.32153 238.152557 
L 58.990002 236.934396 
L 59.212826 235.539162 
L 59.43565 235.724102 
L 59.658474 236.634754 
L 59.881298 236.197003 
L 60.54977 235.959704 
L 60.772594 235.721969 
L 60.995418 235.273225 
L 61.218242 235.81153 
L 61.441066 235.275278 
L 62.109538 234.914004 
L 62.332362 234.372541 
L 62.555186 233.136757 
L 63.000834 232.062604 
L 63.669305 231.797553 
L 64.114953 230.904499 
L 64.337777 231.400148 
L 64.560601 230.516161 
L 65.229073 230.287384 
L 65.451897 229.789007 
L 66.120369 226.55082 
L 67.234489 224.723409 
L 67.457313 225.806422 
L 67.680137 225.509756 
L 68.348609 224.911326 
L 68.571433 222.874405 
L 69.017081 221.279616 
L 69.908377 220.339596 
L 70.576849 217.54438 
L 70.799673 217.928319 
L 71.468145 216.938602 
L 72.136617 215.040658 
L 72.359441 214.652376 
L 73.027913 214.159371 
L 73.250737 214.382697 
L 73.473561 214.155202 
L 73.919209 212.639108 
L 74.587681 211.391397 
L 74.810505 210.049478 
L 75.033329 209.967653 
L 75.256153 209.434817 
L 75.478977 209.364929 
L 76.147449 208.706143 
L 76.370273 208.799787 
L 76.593097 208.61768 
L 76.815921 208.005158 
L 77.038745 207.04807 
L 77.93004 206.880333 
L 78.152864 206.675642 
L 78.375688 206.721051 
L 78.598512 206.27531 
L 79.266984 206.658012 
L 79.489808 206.157137 
L 79.712632 205.13941 
L 79.935456 205.045877 
L 80.15828 205.133443 
L 80.826752 205.094429 
L 81.049576 204.633023 
L 81.2724 204.73657 
L 81.495224 205.276161 
L 81.718048 205.349485 
L 82.38652 205.282943 
L 82.609344 204.657704 
L 82.832168 204.797314 
L 83.277816 204.095651 
L 84.169112 204.454369 
L 84.391936 204.772402 
L 84.61476 204.860014 
L 84.837584 203.73506 
L 85.506056 203.56445 
L 86.174528 203.892667 
L 86.397352 204.378273 
L 87.065824 204.598929 
L 87.288648 204.243572 
L 87.734296 204.313642 
L 87.95712 204.045665 
L 88.625592 203.882928 
L 88.848416 204.18649 
L 89.07124 204.295449 
L 89.516888 203.490372 
L 90.18536 204.209362 
L 90.631008 204.881293 
L 90.853832 205.191811 
L 91.076656 204.965907 
L 91.745128 205.022366 
L 92.190776 205.609585 
L 92.413599 205.006891 
L 92.636423 204.075463 
L 93.527719 203.92958 
L 93.750543 204.224476 
L 94.196191 203.385071 
L 94.864663 202.901858 
L 95.755959 201.053088 
L 96.424431 200.765846 
L 97.092903 199.876733 
L 97.315727 199.239677 
L 98.207023 198.664023 
L 98.429847 198.669264 
L 98.652671 196.18161 
L 98.875495 195.961981 
L 99.766791 196.178388 
L 99.989615 196.031066 
L 100.212439 195.746684 
L 100.435263 195.700508 
L 101.103735 195.906216 
L 101.549383 195.308277 
L 101.995031 195.58335 
L 102.663503 195.843898 
L 102.886327 196.12235 
L 103.331975 196.329848 
L 103.554799 195.337323 
L 104.668919 195.883732 
L 104.891743 194.833848 
L 105.114567 195.06433 
L 106.005863 195.192495 
L 106.228687 195.662644 
L 106.451511 195.398507 
L 106.674335 194.871085 
L 107.342806 195.275069 
L 107.56563 194.962633 
L 107.788454 195.018523 
L 108.011278 194.860847 
L 108.234102 195.347017 
L 108.902574 194.505165 
L 109.125398 193.043604 
L 109.348222 193.952689 
L 109.571046 194.090192 
L 109.79387 194.782658 
L 110.462342 194.57981 
L 110.685166 194.722482 
L 110.90799 195.160278 
L 111.130814 194.593578 
L 111.353638 193.677285 
L 112.02211 193.98119 
L 112.244934 193.560967 
L 112.467758 193.997048 
L 112.913406 192.348105 
L 113.581878 191.604931 
L 113.804702 191.769322 
L 114.027526 191.558683 
L 114.25035 191.574665 
L 114.473174 192.000137 
L 115.141646 191.915469 
L 115.36447 191.694436 
L 115.810118 190.833197 
L 116.032942 188.192094 
L 116.701414 187.442449 
L 117.59271 184.593281 
L 118.261182 184.053034 
L 118.484006 183.566906 
L 118.70683 184.385172 
L 119.152478 184.575496 
L 120.489422 183.291651 
L 120.712246 181.011349 
L 121.380717 181.347965 
L 121.603541 180.086724 
L 121.826365 179.951492 
L 122.049189 180.020347 
L 122.272013 179.899829 
L 122.940485 180.642351 
L 123.163309 180.423488 
L 123.386133 181.429288 
L 123.608957 180.381182 
L 123.831781 178.065024 
L 124.723077 177.628382 
L 124.945901 177.205979 
L 125.168725 177.232857 
L 125.391549 175.829866 
L 126.282845 174.720909 
L 126.505669 175.070921 
L 126.951317 174.056776 
L 127.619789 174.343552 
L 127.842613 174.70845 
L 128.065437 174.561615 
L 128.288261 173.194004 
L 128.511085 172.893492 
L 129.625205 173.19102 
L 130.070853 173.744183 
L 130.739325 174.274187 
L 130.962149 173.840531 
L 131.184973 174.340872 
L 131.407797 174.461316 
L 131.630621 175.005714 
L 132.299093 174.664707 
L 132.521917 175.174404 
L 132.744741 174.909028 
L 132.967565 174.086456 
L 133.190389 175.027117 
L 133.858861 175.875537 
L 134.304509 175.489313 
L 134.750157 173.623611 
L 135.418629 173.141987 
L 135.641452 172.692052 
L 135.864276 172.663376 
L 136.0871 172.267662 
L 136.309924 171.250952 
L 137.20122 171.070463 
L 137.646868 170.550094 
L 137.869692 169.137537 
L 138.538164 168.858493 
L 138.760988 169.298624 
L 138.983812 169.196834 
L 139.206636 169.302141 
L 139.42946 167.683409 
L 140.097932 167.379258 
L 140.320756 166.984815 
L 140.54358 165.369151 
L 140.766404 165.015881 
L 140.989228 165.664877 
L 141.6577 165.422283 
L 141.880524 165.585355 
L 142.103348 165.305768 
L 142.326172 165.306995 
L 142.548996 164.424728 
L 143.440292 164.255677 
L 143.663116 164.474962 
L 144.108764 165.493735 
L 144.777236 165.876133 
L 145.00006 165.749651 
L 145.222884 164.162071 
L 145.445708 164.788473 
L 145.668532 163.939204 
L 146.337004 164.355477 
L 146.559828 161.260565 
L 146.782652 160.434226 
L 147.005476 160.421876 
L 147.2283 159.995271 
L 148.119596 159.579599 
L 148.34242 160.021387 
L 148.565244 159.395694 
L 149.45654 158.551149 
L 149.679364 159.245312 
L 149.902188 160.609578 
L 150.125011 160.750956 
L 150.347835 160.364294 
L 151.016307 159.8074 
L 151.461955 158.526082 
L 151.684779 158.189876 
L 151.907603 157.387202 
L 152.576075 156.926706 
L 152.798899 156.440609 
L 153.021723 155.53514 
L 153.244547 154.073267 
L 153.467371 153.548269 
L 154.581491 152.903899 
L 154.804315 153.312064 
L 155.027139 152.252892 
L 155.918435 151.116612 
L 156.364083 150.545358 
L 156.586907 150.057148 
L 157.478203 149.795171 
L 158.146675 148.548955 
L 159.037971 148.486149 
L 159.483619 147.390303 
L 159.706443 146.419346 
L 160.374915 146.049101 
L 160.597739 145.693278 
L 160.820563 145.906455 
L 161.043387 145.517963 
L 161.934683 145.330112 
L 162.157507 144.836912 
L 162.380331 145.179733 
L 162.603155 145.173719 
L 162.825979 144.531598 
L 163.717275 144.533811 
L 163.940099 144.354759 
L 164.162923 144.555329 
L 164.385746 144.586122 
L 165.054218 144.794774 
L 165.277042 144.435141 
L 165.72269 144.721321 
L 165.945514 144.636112 
L 166.613986 144.080538 
L 166.83681 143.684736 
L 167.282458 143.960264 
L 167.505282 143.838572 
L 168.396578 143.757247 
L 168.619402 144.275671 
L 169.06505 143.880554 
L 169.733522 143.813401 
L 169.956346 144.188087 
L 170.17917 144.205477 
L 170.624818 143.314442 
L 171.738938 144.079398 
L 172.184586 143.22325 
L 172.853058 143.145081 
L 173.075882 143.403909 
L 173.744354 142.447163 
L 174.412826 142.290336 
L 174.858474 141.447021 
L 175.304122 140.284707 
L 175.972594 139.800333 
L 176.86389 137.308741 
L 177.755186 136.966441 
L 178.423658 135.784301 
L 179.092129 135.674083 
L 179.314953 135.145945 
L 179.537777 135.70162 
L 179.983425 135.048214 
L 180.874721 135.111228 
L 181.320369 135.734586 
L 181.543193 135.20267 
L 182.211665 135.165798 
L 183.771433 135.328291 
L 183.994257 135.589501 
L 184.217081 134.698971 
L 184.439905 134.620547 
L 184.662729 134.682728 
L 185.331201 135.208599 
L 185.999673 136.025572 
L 186.222497 135.185616 
L 186.890969 134.934948 
L 187.113793 134.526032 
L 187.559441 134.411963 
L 187.782265 133.500744 
L 188.450737 133.153443 
L 188.673561 132.792243 
L 188.896385 132.993819 
L 189.119209 132.94884 
L 189.342033 131.846809 
L 190.233329 131.292068 
L 190.901801 129.814513 
L 191.570273 129.189344 
L 191.793097 128.683086 
L 192.238745 128.194549 
L 192.461569 127.337919 
L 193.13004 127.154701 
L 193.352864 126.632412 
L 193.798512 124.837745 
L 194.021336 124.496307 
L 194.689808 123.914862 
L 194.912632 123.521313 
L 195.135456 123.720363 
L 195.581104 122.929812 
L 196.249576 122.631797 
L 196.695224 121.890299 
L 196.918048 122.013425 
L 197.140872 121.624147 
L 197.809344 121.325823 
L 198.70064 120.179042 
L 199.591936 120.07381 
L 200.260408 119.385742 
L 200.92888 118.994209 
L 201.151704 118.99767 
L 201.374528 119.172648 
L 201.820176 118.435768 
L 202.711472 118.951468 
L 202.934296 119.123606 
L 203.15712 119.093502 
L 204.048416 118.461728 
L 204.716888 118.494561 
L 204.939712 118.111468 
L 205.608184 117.758936 
L 206.276656 116.846719 
L 206.49948 116.341049 
L 207.836423 116.567945 
L 208.059247 116.260713 
L 208.727719 116.02636 
L 209.173367 116.215752 
L 209.396191 116.076388 
L 209.619015 115.591519 
L 210.287487 115.698464 
L 210.510311 115.988818 
L 210.733135 115.834817 
L 210.955959 115.327303 
L 211.178783 115.097761 
L 212.070079 114.651943 
L 212.292903 114.728498 
L 212.738551 114.165658 
L 213.407023 114.108795 
L 213.629847 114.349017 
L 213.852671 114.37581 
L 214.075495 113.695494 
L 214.298319 113.783859 
L 214.966791 113.769768 
L 215.189615 114.191212 
L 215.412439 113.587451 
L 215.635263 112.509805 
L 215.858087 112.20081 
L 216.526559 111.825782 
L 217.195031 110.728388 
L 217.417855 110.403959 
L 218.309151 109.977786 
L 218.977623 110.97418 
L 219.646095 109.819392 
L 219.868919 109.90925 
L 220.091743 110.324658 
L 220.314567 110.09052 
L 220.537391 110.499996 
L 221.205863 110.782643 
L 221.428687 110.571738 
L 221.651511 109.7615 
L 221.874335 109.977452 
L 222.097158 109.872415 
L 222.76563 110.029513 
L 223.211278 109.557101 
L 223.434102 109.008694 
L 223.656926 108.875531 
L 224.325398 108.653376 
L 224.548222 108.208868 
L 224.771046 108.219253 
L 224.99387 107.983848 
L 225.216694 107.573872 
L 226.10799 107.132906 
L 226.553638 106.497515 
L 227.444934 106.251607 
L 227.667758 106.009603 
L 227.890582 105.423922 
L 228.33623 104.756922 
L 229.45035 104.055116 
L 229.673174 104.2818 
L 229.895998 104.22555 
L 230.56447 104.346036 
L 231.010118 104.713698 
L 231.455766 104.149931 
L 232.347062 103.770965 
L 232.79271 102.856495 
L 233.015534 102.087029 
L 233.90683 102.267706 
L 234.129654 102.029573 
L 234.352478 101.574828 
L 234.575302 101.634328 
L 235.243774 101.482258 
L 235.689422 101.709967 
L 236.13507 101.114554 
L 236.803541 100.932941 
L 237.026365 100.990832 
L 237.694837 100.171325 
L 238.363309 100.363259 
L 238.586133 100.164437 
L 239.254605 99.111084 
L 240.145901 98.808832 
L 240.591549 98.417453 
L 240.814373 98.316253 
L 241.705669 98.538664 
L 241.928493 98.295979 
L 242.151317 99.025694 
L 242.374141 98.883789 
L 243.265437 99.066905 
L 243.488261 98.71347 
L 243.711085 98.828516 
L 243.933909 98.51987 
L 244.602381 97.953083 
L 245.048029 97.924318 
L 245.270853 98.027548 
L 245.493677 98.369995 
L 246.162149 98.371466 
L 246.384973 97.934434 
L 246.607797 97.896911 
L 247.053445 98.410696 
L 247.721917 98.850581 
L 248.167565 97.33081 
L 248.613213 96.62944 
L 249.281685 96.985603 
L 249.504509 97.234249 
L 249.727333 97.212986 
L 249.950157 97.779529 
L 250.172981 97.807521 
L 251.2871 98.339676 
L 251.509924 98.631623 
L 251.732748 99.224393 
L 252.40122 99.145552 
L 252.846868 98.216937 
L 253.069692 98.336466 
L 253.292516 97.865788 
L 254.183812 97.940134 
L 254.406636 98.136236 
L 254.62946 98.668103 
L 254.852284 97.802474 
L 255.520756 97.760981 
L 255.966404 96.440409 
L 256.412052 94.908914 
L 257.080524 94.339698 
L 257.303348 93.468192 
L 257.97182 92.251796 
L 258.640292 91.689211 
L 259.531588 89.918816 
L 260.20006 89.611873 
L 260.868532 88.296372 
L 261.091356 87.34561 
L 261.982652 86.681701 
L 262.651124 85.300039 
L 263.54242 84.517749 
L 263.988068 85.982827 
L 264.210892 85.736353 
L 265.325011 85.127598 
L 265.547835 85.541439 
L 265.770659 84.894523 
L 266.439131 84.629619 
L 266.661955 84.779676 
L 266.884779 84.418161 
L 267.998899 85.525322 
L 268.444547 86.561335 
L 268.667371 86.771653 
L 268.890195 87.178317 
L 269.558667 87.596397 
L 269.781491 87.419141 
L 270.004315 87.404008 
L 270.227139 87.523775 
L 270.449963 87.060659 
L 271.341259 85.774666 
L 271.564083 85.692676 
L 271.786907 85.104701 
L 272.009731 85.116942 
L 272.678203 84.915374 
L 272.901027 84.606615 
L 273.569499 82.169498 
L 274.237971 81.823208 
L 274.460795 81.853369 
L 274.906443 80.414192 
L 275.129267 80.200072 
L 276.020563 79.87088 
L 276.689035 78.24428 
L 277.357507 77.959468 
L 278.248803 75.442501 
L 278.917275 75.012874 
L 279.80857 72.962719 
L 280.477042 72.672722 
L 280.699866 71.787308 
L 280.92269 71.363012 
L 281.368338 71.419759 
L 282.03681 71.13667 
L 282.482458 70.252084 
L 282.705282 69.486914 
L 282.928106 69.160629 
L 283.596578 68.89315 
L 284.042226 68.243668 
L 284.487874 67.330567 
L 285.156346 67.06637 
L 285.601994 66.072009 
L 285.824818 66.186699 
L 286.047642 64.57346 
L 286.716114 64.349431 
L 286.938938 64.017364 
L 287.384586 63.587014 
L 287.60741 63.191833 
L 288.275882 62.981271 
L 288.498706 62.690376 
L 289.167178 62.093468 
L 290.281298 62.719048 
L 290.504122 62.013144 
L 290.726946 61.964685 
L 291.395418 61.599558 
L 291.618242 61.274547 
L 292.06389 61.639437 
L 292.286714 61.609902 
L 293.400834 61.996138 
L 293.623658 62.291361 
L 294.514953 62.109153 
L 294.737777 61.757282 
L 294.960601 61.906664 
L 295.183425 61.820396 
L 295.406249 61.507318 
L 296.297545 61.4077 
L 296.966017 60.175234 
L 297.857313 59.586075 
L 298.080137 59.289503 
L 298.302961 59.53391 
L 298.525785 59.126426 
L 299.417081 59.041883 
L 299.639905 58.824409 
L 299.862729 58.437192 
L 300.085553 58.422081 
L 300.754025 58.109016 
L 300.976849 57.654948 
L 301.422497 58.197522 
L 301.645321 57.976385 
L 302.313793 57.732105 
L 302.536617 57.931574 
L 302.759441 57.716596 
L 302.982265 57.690826 
L 303.205089 57.522957 
L 303.873561 57.521617 
L 304.319209 57.960381 
L 304.542033 57.877833 
L 304.764857 57.508984 
L 305.656153 57.605449 
L 305.878977 57.322557 
L 306.101801 57.323124 
L 306.324625 57.018321 
L 306.993097 56.798671 
L 307.438745 56.10291 
L 307.661569 55.774491 
L 307.884393 55.889379 
L 308.552864 55.984378 
L 308.775688 56.277301 
L 308.998512 56.167207 
L 309.221336 55.530438 
L 309.44416 55.704865 
L 310.335456 55.636737 
L 311.003928 54.89248 
L 311.6724 54.569769 
L 311.895224 54.653053 
L 312.118048 54.404372 
L 312.340872 53.939164 
L 313.454992 54.352654 
L 313.677816 54.59205 
L 314.123464 53.883619 
L 314.791936 53.914323 
L 315.01476 53.78196 
L 315.460408 53.070435 
L 315.683232 53.08576 
L 316.351704 52.505252 
L 316.574528 51.804018 
L 316.797352 51.833245 
L 317.243 51.442334 
L 317.911472 51.581853 
L 318.134296 51.228681 
L 318.802768 50.950477 
L 319.47124 50.769653 
L 319.916888 50.343475 
L 320.139712 50.076316 
L 320.362536 50.267115 
L 321.922304 50.469954 
L 322.590776 50.318431 
L 323.036423 49.92936 
L 323.259247 50.224499 
L 323.482071 49.816427 
L 324.150543 49.270514 
L 324.373367 48.640026 
L 324.596191 48.610192 
L 325.041839 48.188331 
L 325.710311 48.157905 
L 325.933135 47.996496 
L 326.155959 48.280916 
L 326.378783 48.384638 
L 326.601607 48.028439 
L 327.492903 47.380444 
L 327.715727 46.982578 
L 327.938551 46.829937 
L 328.161375 46.846517 
L 329.052671 46.568093 
L 329.275495 46.166387 
L 329.498319 46.2678 
L 330.389615 47.004098 
L 330.612439 46.715965 
L 331.058087 47.249023 
L 331.280911 46.976635 
L 331.949383 47.140794 
L 332.172207 47.413141 
L 332.395031 47.476964 
L 332.617855 47.356201 
L 332.840679 47.601041 
L 333.509151 47.684145 
L 333.731975 47.498544 
L 334.177623 46.643647 
L 334.400447 46.73305 
L 335.068919 46.643089 
L 335.291743 46.363044 
L 335.514567 46.387783 
L 335.737391 45.935073 
L 335.960215 45.803458 
L 336.628687 45.207119 
L 336.851511 45.445781 
L 337.297158 45.124079 
L 337.519982 44.815796 
L 339.07975 43.775751 
L 339.748222 43.760366 
L 339.971046 43.59435 
L 340.416694 43.740334 
L 340.639518 43.485373 
L 341.30799 43.122639 
L 341.530814 42.86888 
L 341.976462 42.152704 
L 343.090582 42.241778 
L 343.313406 42.62595 
L 343.53623 42.674965 
L 343.759054 42.385489 
L 344.427526 42.564933 
L 344.65035 42.837034 
L 346.210118 41.716009 
L 346.432942 41.653869 
L 346.87859 41.885984 
L 347.547062 41.67396 
L 347.769886 42.74402 
L 348.215534 43.022672 
L 348.438358 42.882272 
L 349.10683 42.99298 
L 349.552478 42.19931 
L 349.775302 42.214589 
L 349.998126 41.915896 
L 350.666598 42.094071 
L 350.889422 41.762685 
L 351.112246 42.058043 
L 351.33507 41.896116 
L 351.557893 41.575599 
L 352.449189 41.665972 
L 352.672013 41.930033 
L 353.117661 41.616763 
L 353.786133 41.596087 
L 354.008957 41.807243 
L 354.231781 41.732731 
L 354.677429 41.068778 
L 355.345901 41.071929 
L 355.568725 39.588449 
L 355.791549 39.14868 
L 356.014373 38.965779 
L 356.237197 38.452654 
L 356.905669 38.348735 
L 357.574141 38.530022 
L 357.796965 38.331855 
L 358.688261 38.033676 
L 358.911085 38.124371 
L 359.133909 38.486858 
L 359.356733 38.43795 
L 360.025205 38.676595 
L 360.248029 39.074897 
L 360.470853 38.610142 
L 360.693677 38.50562 
L 360.916501 38.198642 
L 361.584973 37.780946 
L 362.030621 37.116974 
L 363.144741 37.388893 
L 363.590389 37.272971 
L 364.036037 36.752414 
L 364.927333 37.308729 
L 365.150157 37.24365 
L 365.372981 37.030739 
L 365.595805 37.571639 
L 366.4871 37.68033 
L 366.932748 38.176857 
L 367.155572 37.801879 
L 368.046868 37.168255 
L 368.71534 36.467694 
L 369.82946 36.23775 
L 369.82946 36.23775 
" style="fill:none;stroke:#988ed5;stroke-linecap:square;stroke-width:1.5;"/>
   </g>
   <g id="patch_3">
    <path d="M 28.942188 290.25375 
L 28.942188 24.14175 
" style="fill:none;stroke:#ffffff;stroke-linecap:square;stroke-linejoin:miter;"/>
   </g>
   <g id="patch_4">
    <path d="M 386.062188 290.25375 
L 386.062188 24.14175 
" style="fill:none;stroke:#ffffff;stroke-linecap:square;stroke-linejoin:miter;"/>
   </g>
   <g id="patch_5">
    <path d="M 28.942188 290.25375 
L 386.062188 290.25375 
" style="fill:none;stroke:#ffffff;stroke-linecap:square;stroke-linejoin:miter;"/>
   </g>
   <g id="patch_6">
    <path d="M 28.942188 24.14175 
L 386.062188 24.14175 
" style="fill:none;stroke:#ffffff;stroke-linecap:square;stroke-linejoin:miter;"/>
   </g>
   <g id="text_19">
    <!-- Cumulative Return (Log) -->
    <defs>
     <path d="M 64.40625 67.28125 
L 64.40625 56.890625 
Q 59.421875 61.53125 53.78125 63.8125 
Q 48.140625 66.109375 41.796875 66.109375 
Q 29.296875 66.109375 22.65625 58.46875 
Q 16.015625 50.828125 16.015625 36.375 
Q 16.015625 21.96875 22.65625 14.328125 
Q 29.296875 6.6875 41.796875 6.6875 
Q 48.140625 6.6875 53.78125 8.984375 
Q 59.421875 11.28125 64.40625 15.921875 
L 64.40625 5.609375 
Q 59.234375 2.09375 53.4375 0.328125 
Q 47.65625 -1.421875 41.21875 -1.421875 
Q 24.65625 -1.421875 15.125 8.703125 
Q 5.609375 18.84375 5.609375 36.375 
Q 5.609375 53.953125 15.125 64.078125 
Q 24.65625 74.21875 41.21875 74.21875 
Q 47.75 74.21875 53.53125 72.484375 
Q 59.328125 70.75 64.40625 67.28125 
" id="DejaVuSans-43"/>
     <path d="M 8.5 21.578125 
L 8.5 54.6875 
L 17.484375 54.6875 
L 17.484375 21.921875 
Q 17.484375 14.15625 20.5 10.265625 
Q 23.53125 6.390625 29.59375 6.390625 
Q 36.859375 6.390625 41.078125 11.03125 
Q 45.3125 15.671875 45.3125 23.6875 
L 45.3125 54.6875 
L 54.296875 54.6875 
L 54.296875 0 
L 45.3125 0 
L 45.3125 8.40625 
Q 42.046875 3.421875 37.71875 1 
Q 33.40625 -1.421875 27.6875 -1.421875 
Q 18.265625 -1.421875 13.375 4.4375 
Q 8.5 10.296875 8.5 21.578125 
M 31.109375 56 
z
" id="DejaVuSans-75"/>
     <path d="M 52 44.1875 
Q 55.375 50.25 60.0625 53.125 
Q 64.75 56 71.09375 56 
Q 79.640625 56 84.28125 50.015625 
Q 88.921875 44.046875 88.921875 33.015625 
L 88.921875 0 
L 79.890625 0 
L 79.890625 32.71875 
Q 79.890625 40.578125 77.09375 44.375 
Q 74.3125 48.1875 68.609375 48.1875 
Q 61.625 48.1875 57.5625 43.546875 
Q 53.515625 38.921875 53.515625 30.90625 
L 53.515625 0 
L 44.484375 0 
L 44.484375 32.71875 
Q 44.484375 40.625 41.703125 44.40625 
Q 38.921875 48.1875 33.109375 48.1875 
Q 26.21875 48.1875 22.15625 43.53125 
Q 18.109375 38.875 18.109375 30.90625 
L 18.109375 0 
L 9.078125 0 
L 9.078125 54.6875 
L 18.109375 54.6875 
L 18.109375 46.1875 
Q 21.1875 51.21875 25.484375 53.609375 
Q 29.78125 56 35.6875 56 
Q 41.65625 56 45.828125 52.96875 
Q 50 49.953125 52 44.1875 
" id="DejaVuSans-6d"/>
     <path d="M 9.421875 75.984375 
L 18.40625 75.984375 
L 18.40625 0 
L 9.421875 0 
z
" id="DejaVuSans-6c"/>
     <path d="M 34.28125 27.484375 
Q 23.390625 27.484375 19.1875 25 
Q 14.984375 22.515625 14.984375 16.5 
Q 14.984375 11.71875 18.140625 8.90625 
Q 21.296875 6.109375 26.703125 6.109375 
Q 34.1875 6.109375 38.703125 11.40625 
Q 43.21875 16.703125 43.21875 25.484375 
L 43.21875 27.484375 
z
M 52.203125 31.203125 
L 52.203125 0 
L 43.21875 0 
L 43.21875 8.296875 
Q 40.140625 3.328125 35.546875 0.953125 
Q 30.953125 -1.421875 24.3125 -1.421875 
Q 15.921875 -1.421875 10.953125 3.296875 
Q 6 8.015625 6 15.921875 
Q 6 25.140625 12.171875 29.828125 
Q 18.359375 34.515625 30.609375 34.515625 
L 43.21875 34.515625 
L 43.21875 35.40625 
Q 43.21875 41.609375 39.140625 45 
Q 35.0625 48.390625 27.6875 48.390625 
Q 23 48.390625 18.546875 47.265625 
Q 14.109375 46.140625 10.015625 43.890625 
L 10.015625 52.203125 
Q 14.9375 54.109375 19.578125 55.046875 
Q 24.21875 56 28.609375 56 
Q 40.484375 56 46.34375 49.84375 
Q 52.203125 43.703125 52.203125 31.203125 
" id="DejaVuSans-61"/>
     <path d="M 18.3125 70.21875 
L 18.3125 54.6875 
L 36.8125 54.6875 
L 36.8125 47.703125 
L 18.3125 47.703125 
L 18.3125 18.015625 
Q 18.3125 11.328125 20.140625 9.421875 
Q 21.96875 7.515625 27.59375 7.515625 
L 36.8125 7.515625 
L 36.8125 0 
L 27.59375 0 
Q 17.1875 0 13.234375 3.875 
Q 9.28125 7.765625 9.28125 18.015625 
L 9.28125 47.703125 
L 2.6875 47.703125 
L 2.6875 54.6875 
L 9.28125 54.6875 
L 9.28125 70.21875 
z
" id="DejaVuSans-74"/>
     <path d="M 9.421875 54.6875 
L 18.40625 54.6875 
L 18.40625 0 
L 9.421875 0 
z
M 9.421875 75.984375 
L 18.40625 75.984375 
L 18.40625 64.59375 
L 9.421875 64.59375 
z
" id="DejaVuSans-69"/>
     <path d="M 2.984375 54.6875 
L 12.5 54.6875 
L 29.59375 8.796875 
L 46.6875 54.6875 
L 56.203125 54.6875 
L 35.6875 0 
L 23.484375 0 
z
" id="DejaVuSans-76"/>
     <path d="M 56.203125 29.59375 
L 56.203125 25.203125 
L 14.890625 25.203125 
Q 15.484375 15.921875 20.484375 11.0625 
Q 25.484375 6.203125 34.421875 6.203125 
Q 39.59375 6.203125 44.453125 7.46875 
Q 49.3125 8.734375 54.109375 11.28125 
L 54.109375 2.78125 
Q 49.265625 0.734375 44.1875 -0.34375 
Q 39.109375 -1.421875 33.890625 -1.421875 
Q 20.796875 -1.421875 13.15625 6.1875 
Q 5.515625 13.8125 5.515625 26.8125 
Q 5.515625 40.234375 12.765625 48.109375 
Q 20.015625 56 32.328125 56 
Q 43.359375 56 49.78125 48.890625 
Q 56.203125 41.796875 56.203125 29.59375 
M 47.21875 32.234375 
Q 47.125 39.59375 43.09375 43.984375 
Q 39.0625 48.390625 32.421875 48.390625 
Q 24.90625 48.390625 20.390625 44.140625 
Q 15.875 39.890625 15.1875 32.171875 
z
" id="DejaVuSans-65"/>
     <path id="DejaVuSans-20"/>
     <path d="M 44.390625 34.1875 
Q 47.5625 33.109375 50.5625 29.59375 
Q 53.5625 26.078125 56.59375 19.921875 
L 66.609375 0 
L 56 0 
L 46.6875 18.703125 
Q 43.0625 26.03125 39.671875 28.421875 
Q 36.28125 30.8125 30.421875 30.8125 
L 19.671875 30.8125 
L 19.671875 0 
L 9.8125 0 
L 9.8125 72.90625 
L 32.078125 72.90625 
Q 44.578125 72.90625 50.734375 67.671875 
Q 56.890625 62.453125 56.890625 51.90625 
Q 56.890625 45.015625 53.6875 40.46875 
Q 50.484375 35.9375 44.390625 34.1875 
M 19.671875 64.796875 
L 19.671875 38.921875 
L 32.078125 38.921875 
Q 39.203125 38.921875 42.84375 42.21875 
Q 46.484375 45.515625 46.484375 51.90625 
Q 46.484375 58.296875 42.84375 61.546875 
Q 39.203125 64.796875 32.078125 64.796875 
z
" id="DejaVuSans-52"/>
     <path d="M 41.109375 46.296875 
Q 39.59375 47.171875 37.8125 47.578125 
Q 36.03125 48 33.890625 48 
Q 26.265625 48 22.1875 43.046875 
Q 18.109375 38.09375 18.109375 28.8125 
L 18.109375 0 
L 9.078125 0 
L 9.078125 54.6875 
L 18.109375 54.6875 
L 18.109375 46.1875 
Q 20.953125 51.171875 25.484375 53.578125 
Q 30.03125 56 36.53125 56 
Q 37.453125 56 38.578125 55.875 
Q 39.703125 55.765625 41.0625 55.515625 
z
" id="DejaVuSans-72"/>
     <path d="M 54.890625 33.015625 
L 54.890625 0 
L 45.90625 0 
L 45.90625 32.71875 
Q 45.90625 40.484375 42.875 44.328125 
Q 39.84375 48.1875 33.796875 48.1875 
Q 26.515625 48.1875 22.3125 43.546875 
Q 18.109375 38.921875 18.109375 30.90625 
L 18.109375 0 
L 9.078125 0 
L 9.078125 54.6875 
L 18.109375 54.6875 
L 18.109375 46.1875 
Q 21.34375 51.125 25.703125 53.5625 
Q 30.078125 56 35.796875 56 
Q 45.21875 56 50.046875 50.171875 
Q 54.890625 44.34375 54.890625 33.015625 
" id="DejaVuSans-6e"/>
     <path d="M 31 75.875 
Q 24.46875 64.65625 21.28125 53.65625 
Q 18.109375 42.671875 18.109375 31.390625 
Q 18.109375 20.125 21.3125 9.0625 
Q 24.515625 -2 31 -13.1875 
L 23.1875 -13.1875 
Q 15.875 -1.703125 12.234375 9.375 
Q 8.59375 20.453125 8.59375 31.390625 
Q 8.59375 42.28125 12.203125 53.3125 
Q 15.828125 64.359375 23.1875 75.875 
z
" id="DejaVuSans-28"/>
     <path d="M 9.8125 72.90625 
L 19.671875 72.90625 
L 19.671875 8.296875 
L 55.171875 8.296875 
L 55.171875 0 
L 9.8125 0 
z
" id="DejaVuSans-4c"/>
     <path d="M 30.609375 48.390625 
Q 23.390625 48.390625 19.1875 42.75 
Q 14.984375 37.109375 14.984375 27.296875 
Q 14.984375 17.484375 19.15625 11.84375 
Q 23.34375 6.203125 30.609375 6.203125 
Q 37.796875 6.203125 41.984375 11.859375 
Q 46.1875 17.53125 46.1875 27.296875 
Q 46.1875 37.015625 41.984375 42.703125 
Q 37.796875 48.390625 30.609375 48.390625 
M 30.609375 56 
Q 42.328125 56 49.015625 48.375 
Q 55.71875 40.765625 55.71875 27.296875 
Q 55.71875 13.875 49.015625 6.21875 
Q 42.328125 -1.421875 30.609375 -1.421875 
Q 18.84375 -1.421875 12.171875 6.21875 
Q 5.515625 13.875 5.515625 27.296875 
Q 5.515625 40.765625 12.171875 48.375 
Q 18.84375 56 30.609375 56 
" id="DejaVuSans-6f"/>
     <path d="M 45.40625 27.984375 
Q 45.40625 37.75 41.375 43.109375 
Q 37.359375 48.484375 30.078125 48.484375 
Q 22.859375 48.484375 18.828125 43.109375 
Q 14.796875 37.75 14.796875 27.984375 
Q 14.796875 18.265625 18.828125 12.890625 
Q 22.859375 7.515625 30.078125 7.515625 
Q 37.359375 7.515625 41.375 12.890625 
Q 45.40625 18.265625 45.40625 27.984375 
M 54.390625 6.78125 
Q 54.390625 -7.171875 48.1875 -13.984375 
Q 42 -20.796875 29.203125 -20.796875 
Q 24.46875 -20.796875 20.265625 -20.09375 
Q 16.0625 -19.390625 12.109375 -17.921875 
L 12.109375 -9.1875 
Q 16.0625 -11.328125 19.921875 -12.34375 
Q 23.78125 -13.375 27.78125 -13.375 
Q 36.625 -13.375 41.015625 -8.765625 
Q 45.40625 -4.15625 45.40625 5.171875 
L 45.40625 9.625 
Q 42.625 4.78125 38.28125 2.390625 
Q 33.9375 0 27.875 0 
Q 17.828125 0 11.671875 7.65625 
Q 5.515625 15.328125 5.515625 27.984375 
Q 5.515625 40.671875 11.671875 48.328125 
Q 17.828125 56 27.875 56 
Q 33.9375 56 38.28125 53.609375 
Q 42.625 51.21875 45.40625 46.390625 
L 45.40625 54.6875 
L 54.390625 54.6875 
z
" id="DejaVuSans-67"/>
     <path d="M 8.015625 75.875 
L 15.828125 75.875 
Q 23.140625 64.359375 26.78125 53.3125 
Q 30.421875 42.28125 30.421875 31.390625 
Q 30.421875 20.453125 26.78125 9.375 
Q 23.140625 -1.703125 15.828125 -13.1875 
L 8.015625 -13.1875 
Q 14.5 -2 17.703125 9.0625 
Q 20.90625 20.125 20.90625 31.390625 
Q 20.90625 42.671875 17.703125 53.65625 
Q 14.5 64.65625 8.015625 75.875 
" id="DejaVuSans-29"/>
    </defs>
    <g transform="translate(118.890438 18.14175)scale(0.144 -0.144)">
     <use xlink:href="#DejaVuSans-43"/>
     <use x="69.824219" xlink:href="#DejaVuSans-75"/>
     <use x="133.203125" xlink:href="#DejaVuSans-6d"/>
     <use x="230.615234" xlink:href="#DejaVuSans-75"/>
     <use x="293.994141" xlink:href="#DejaVuSans-6c"/>
     <use x="321.777344" xlink:href="#DejaVuSans-61"/>
     <use x="383.056641" xlink:href="#DejaVuSans-74"/>
     <use x="422.265625" xlink:href="#DejaVuSans-69"/>
     <use x="450.048828" xlink:href="#DejaVuSans-76"/>
     <use x="509.228516" xlink:href="#DejaVuSans-65"/>
     <use x="570.751953" xlink:href="#DejaVuSans-20"/>
     <use x="602.539062" xlink:href="#DejaVuSans-52"/>
     <use x="671.958984" xlink:href="#DejaVuSans-65"/>
     <use x="733.482422" xlink:href="#DejaVuSans-74"/>
     <use x="772.691406" xlink:href="#DejaVuSans-75"/>
     <use x="836.070312" xlink:href="#DejaVuSans-72"/>
     <use x="877.167969" xlink:href="#DejaVuSans-6e"/>
     <use x="940.546875" xlink:href="#DejaVuSans-20"/>
     <use x="972.333984" xlink:href="#DejaVuSans-28"/>
     <use x="1011.347656" xlink:href="#DejaVuSans-4c"/>
     <use x="1067.044922" xlink:href="#DejaVuSans-6f"/>
     <use x="1128.226562" xlink:href="#DejaVuSans-67"/>
     <use x="1191.703125" xlink:href="#DejaVuSans-29"/>
    </g>
   </g>
   <g id="legend_1">
    <g id="patch_7">
     <path d="M 35.942188 76.176125 
L 108.007813 76.176125 
Q 110.007813 76.176125 110.007813 74.176125 
L 110.007813 31.14175 
Q 110.007813 29.14175 108.007813 29.14175 
L 35.942188 29.14175 
Q 33.942188 29.14175 33.942188 31.14175 
L 33.942188 74.176125 
Q 33.942188 76.176125 35.942188 76.176125 
z
" style="fill:#e5e5e5;opacity:0.8;stroke:#cccccc;stroke-linejoin:miter;stroke-width:0.5;"/>
    </g>
    <g id="line2d_40">
     <path d="M 37.942188 37.240187 
L 57.942188 37.240187 
" style="fill:none;stroke:#e24a33;stroke-linecap:square;stroke-width:1.5;"/>
    </g>
    <g id="line2d_41"/>
    <g id="text_20">
     <!-- Market -->
     <defs>
      <path d="M 9.8125 72.90625 
L 24.515625 72.90625 
L 43.109375 23.296875 
L 61.8125 72.90625 
L 76.515625 72.90625 
L 76.515625 0 
L 66.890625 0 
L 66.890625 64.015625 
L 48.09375 14.015625 
L 38.1875 14.015625 
L 19.390625 64.015625 
L 19.390625 0 
L 9.8125 0 
z
" id="DejaVuSans-4d"/>
      <path d="M 9.078125 75.984375 
L 18.109375 75.984375 
L 18.109375 31.109375 
L 44.921875 54.6875 
L 56.390625 54.6875 
L 27.390625 29.109375 
L 57.625 0 
L 45.90625 0 
L 18.109375 26.703125 
L 18.109375 0 
L 9.078125 0 
z
" id="DejaVuSans-6b"/>
     </defs>
     <g transform="translate(65.942188 40.740187)scale(0.1 -0.1)">
      <use xlink:href="#DejaVuSans-4d"/>
      <use x="86.279297" xlink:href="#DejaVuSans-61"/>
      <use x="147.558594" xlink:href="#DejaVuSans-72"/>
      <use x="188.671875" xlink:href="#DejaVuSans-6b"/>
      <use x="246.535156" xlink:href="#DejaVuSans-65"/>
      <use x="308.058594" xlink:href="#DejaVuSans-74"/>
     </g>
    </g>
    <g id="line2d_42">
     <path d="M 37.942188 51.918312 
L 57.942188 51.918312 
" style="fill:none;stroke:#348abd;stroke-linecap:square;stroke-width:1.5;"/>
    </g>
    <g id="line2d_43"/>
    <g id="text_21">
     <!-- Model A -->
     <defs>
      <path d="M 45.40625 46.390625 
L 45.40625 75.984375 
L 54.390625 75.984375 
L 54.390625 0 
L 45.40625 0 
L 45.40625 8.203125 
Q 42.578125 3.328125 38.25 0.953125 
Q 33.9375 -1.421875 27.875 -1.421875 
Q 17.96875 -1.421875 11.734375 6.484375 
Q 5.515625 14.40625 5.515625 27.296875 
Q 5.515625 40.1875 11.734375 48.09375 
Q 17.96875 56 27.875 56 
Q 33.9375 56 38.25 53.625 
Q 42.578125 51.265625 45.40625 46.390625 
M 14.796875 27.296875 
Q 14.796875 17.390625 18.875 11.75 
Q 22.953125 6.109375 30.078125 6.109375 
Q 37.203125 6.109375 41.296875 11.75 
Q 45.40625 17.390625 45.40625 27.296875 
Q 45.40625 37.203125 41.296875 42.84375 
Q 37.203125 48.484375 30.078125 48.484375 
Q 22.953125 48.484375 18.875 42.84375 
Q 14.796875 37.203125 14.796875 27.296875 
" id="DejaVuSans-64"/>
      <path d="M 34.1875 63.1875 
L 20.796875 26.90625 
L 47.609375 26.90625 
z
M 28.609375 72.90625 
L 39.796875 72.90625 
L 67.578125 0 
L 57.328125 0 
L 50.6875 18.703125 
L 17.828125 18.703125 
L 11.1875 0 
L 0.78125 0 
z
" id="DejaVuSans-41"/>
     </defs>
     <g transform="translate(65.942188 55.418312)scale(0.1 -0.1)">
      <use xlink:href="#DejaVuSans-4d"/>
      <use x="86.279297" xlink:href="#DejaVuSans-6f"/>
      <use x="147.460938" xlink:href="#DejaVuSans-64"/>
      <use x="210.9375" xlink:href="#DejaVuSans-65"/>
      <use x="272.460938" xlink:href="#DejaVuSans-6c"/>
      <use x="300.244141" xlink:href="#DejaVuSans-20"/>
      <use x="332.03125" xlink:href="#DejaVuSans-41"/>
     </g>
    </g>
    <g id="line2d_44">
     <path d="M 37.942188 66.596437 
L 57.942188 66.596437 
" style="fill:none;stroke:#988ed5;stroke-linecap:square;stroke-width:1.5;"/>
    </g>
    <g id="line2d_45"/>
    <g id="text_22">
     <!-- Model B -->
     <defs>
      <path d="M 19.671875 34.8125 
L 19.671875 8.109375 
L 35.5 8.109375 
Q 43.453125 8.109375 47.28125 11.40625 
Q 51.125 14.703125 51.125 21.484375 
Q 51.125 28.328125 47.28125 31.5625 
Q 43.453125 34.8125 35.5 34.8125 
z
M 19.671875 64.796875 
L 19.671875 42.828125 
L 34.28125 42.828125 
Q 41.5 42.828125 45.03125 45.53125 
Q 48.578125 48.25 48.578125 53.8125 
Q 48.578125 59.328125 45.03125 62.0625 
Q 41.5 64.796875 34.28125 64.796875 
z
M 9.8125 72.90625 
L 35.015625 72.90625 
Q 46.296875 72.90625 52.390625 68.21875 
Q 58.5 63.53125 58.5 54.890625 
Q 58.5 48.1875 55.375 44.234375 
Q 52.25 40.28125 46.1875 39.3125 
Q 53.46875 37.75 57.5 32.78125 
Q 61.53125 27.828125 61.53125 20.40625 
Q 61.53125 10.640625 54.890625 5.3125 
Q 48.25 0 35.984375 0 
L 9.8125 0 
z
" id="DejaVuSans-42"/>
     </defs>
     <g transform="translate(65.942188 70.096437)scale(0.1 -0.1)">
      <use xlink:href="#DejaVuSans-4d"/>
      <use x="86.279297" xlink:href="#DejaVuSans-6f"/>
      <use x="147.460938" xlink:href="#DejaVuSans-64"/>
      <use x="210.9375" xlink:href="#DejaVuSans-65"/>
      <use x="272.460938" xlink:href="#DejaVuSans-6c"/>
      <use x="300.244141" xlink:href="#DejaVuSans-20"/>
      <use x="332.03125" xlink:href="#DejaVuSans-42"/>
     </g>
    </g>
   </g>
  </g>
 </g>
 <defs>
  <clipPath id="pb29b5b860d">
   <rect height="266.112" width="357.12" x="28.942188" y="24.14175"/>
  </clipPath>
 </defs>
</svg>
