<?xml version="1.0" encoding="utf-8" standalone="no"?>
<!DOCTYPE svg PUBLIC "-//W3C//DTD SVG 1.1//EN"
  "http://www.w3.org/Graphics/SVG/1.1/DTD/svg11.dtd">
<!-- Created with matplotlib (http://matplotlib.org/) -->
<svg height="340pt" version="1.1" viewBox="0 0 419 340" width="419pt" xmlns="http://www.w3.org/2000/svg" xmlns:xlink="http://www.w3.org/1999/xlink">
 <defs>
  <style type="text/css">
*{stroke-linecap:butt;stroke-linejoin:round;}
  </style>
 </defs>
 <g id="figure_1">
  <g id="patch_1">
   <path d="M 0 340.842128 
L 419.027812 340.842128 
L 419.027812 0 
L 0 0 
z
" style="fill:#ffffff;"/>
  </g>
  <g id="axes_1">
   <g id="patch_2">
    <path d="M 51.207813 290.25375 
L 408.327813 290.25375 
L 408.327813 24.14175 
L 51.207813 24.14175 
z
" style="fill:#e5e5e5;"/>
   </g>
   <g id="matplotlib.axis_1">
    <g id="xtick_1">
     <g id="line2d_1">
      <path clip-path="url(#pc1e6d33cc9)" d="M 59.864524 290.25375 
L 59.864524 24.14175 
" style="fill:none;stroke:#ffffff;stroke-linecap:square;stroke-width:0.8;"/>
     </g>
     <g id="line2d_2">
      <defs>
       <path d="M 0 0 
L 0 3.5 
" id="m91b8354531" style="stroke:#555555;stroke-width:0.8;"/>
      </defs>
      <g>
       <use style="fill:#555555;stroke:#555555;stroke-width:0.8;" x="59.864524" xlink:href="#m91b8354531" y="290.25375"/>
      </g>
     </g>
     <g id="text_1">
      <!-- 1999-12 -->
      <defs>
       <path d="M 12.40625 8.296875 
L 28.515625 8.296875 
L 28.515625 63.921875 
L 10.984375 60.40625 
L 10.984375 69.390625 
L 28.421875 72.90625 
L 38.28125 72.90625 
L 38.28125 8.296875 
L 54.390625 8.296875 
L 54.390625 0 
L 12.40625 0 
z
" id="DejaVuSans-31"/>
       <path d="M 10.984375 1.515625 
L 10.984375 10.5 
Q 14.703125 8.734375 18.5 7.8125 
Q 22.3125 6.890625 25.984375 6.890625 
Q 35.75 6.890625 40.890625 13.453125 
Q 46.046875 20.015625 46.78125 33.40625 
Q 43.953125 29.203125 39.59375 26.953125 
Q 35.25 24.703125 29.984375 24.703125 
Q 19.046875 24.703125 12.671875 31.3125 
Q 6.296875 37.9375 6.296875 49.421875 
Q 6.296875 60.640625 12.9375 67.421875 
Q 19.578125 74.21875 30.609375 74.21875 
Q 43.265625 74.21875 49.921875 64.515625 
Q 56.59375 54.828125 56.59375 36.375 
Q 56.59375 19.140625 48.40625 8.859375 
Q 40.234375 -1.421875 26.421875 -1.421875 
Q 22.703125 -1.421875 18.890625 -0.6875 
Q 15.09375 0.046875 10.984375 1.515625 
M 30.609375 32.421875 
Q 37.25 32.421875 41.125 36.953125 
Q 45.015625 41.5 45.015625 49.421875 
Q 45.015625 57.28125 41.125 61.84375 
Q 37.25 66.40625 30.609375 66.40625 
Q 23.96875 66.40625 20.09375 61.84375 
Q 16.21875 57.28125 16.21875 49.421875 
Q 16.21875 41.5 20.09375 36.953125 
Q 23.96875 32.421875 30.609375 32.421875 
" id="DejaVuSans-39"/>
       <path d="M 4.890625 31.390625 
L 31.203125 31.390625 
L 31.203125 23.390625 
L 4.890625 23.390625 
z
" id="DejaVuSans-2d"/>
       <path d="M 19.1875 8.296875 
L 53.609375 8.296875 
L 53.609375 0 
L 7.328125 0 
L 7.328125 8.296875 
Q 12.9375 14.109375 22.625 23.890625 
Q 32.328125 33.6875 34.8125 36.53125 
Q 39.546875 41.84375 41.421875 45.53125 
Q 43.3125 49.21875 43.3125 52.78125 
Q 43.3125 58.59375 39.234375 62.25 
Q 35.15625 65.921875 28.609375 65.921875 
Q 23.96875 65.921875 18.8125 64.3125 
Q 13.671875 62.703125 7.8125 59.421875 
L 7.8125 69.390625 
Q 13.765625 71.78125 18.9375 73 
Q 24.125 74.21875 28.421875 74.21875 
Q 39.75 74.21875 46.484375 68.546875 
Q 53.21875 62.890625 53.21875 53.421875 
Q 53.21875 48.921875 51.53125 44.890625 
Q 49.859375 40.875 45.40625 35.40625 
Q 44.1875 33.984375 37.640625 27.21875 
Q 31.109375 20.453125 19.1875 8.296875 
" id="DejaVuSans-32"/>
      </defs>
      <g style="fill:#555555;" transform="translate(47.043242 332.171567)rotate(-45)scale(0.1 -0.1)">
       <use xlink:href="#DejaVuSans-31"/>
       <use x="63.623047" xlink:href="#DejaVuSans-39"/>
       <use x="127.246094" xlink:href="#DejaVuSans-39"/>
       <use x="190.869141" xlink:href="#DejaVuSans-39"/>
       <use x="254.492188" xlink:href="#DejaVuSans-2d"/>
       <use x="290.576172" xlink:href="#DejaVuSans-31"/>
       <use x="354.199219" xlink:href="#DejaVuSans-32"/>
      </g>
     </g>
    </g>
    <g id="xtick_2">
     <g id="line2d_3">
      <path clip-path="url(#pc1e6d33cc9)" d="M 100.641313 290.25375 
L 100.641313 24.14175 
" style="fill:none;stroke:#ffffff;stroke-linecap:square;stroke-width:0.8;"/>
     </g>
     <g id="line2d_4">
      <g>
       <use style="fill:#555555;stroke:#555555;stroke-width:0.8;" x="100.641313" xlink:href="#m91b8354531" y="290.25375"/>
      </g>
     </g>
     <g id="text_2">
      <!-- 2000-06 -->
      <defs>
       <path d="M 31.78125 66.40625 
Q 24.171875 66.40625 20.328125 58.90625 
Q 16.5 51.421875 16.5 36.375 
Q 16.5 21.390625 20.328125 13.890625 
Q 24.171875 6.390625 31.78125 6.390625 
Q 39.453125 6.390625 43.28125 13.890625 
Q 47.125 21.390625 47.125 36.375 
Q 47.125 51.421875 43.28125 58.90625 
Q 39.453125 66.40625 31.78125 66.40625 
M 31.78125 74.21875 
Q 44.046875 74.21875 50.515625 64.515625 
Q 56.984375 54.828125 56.984375 36.375 
Q 56.984375 17.96875 50.515625 8.265625 
Q 44.046875 -1.421875 31.78125 -1.421875 
Q 19.53125 -1.421875 13.0625 8.265625 
Q 6.59375 17.96875 6.59375 36.375 
Q 6.59375 54.828125 13.0625 64.515625 
Q 19.53125 74.21875 31.78125 74.21875 
" id="DejaVuSans-30"/>
       <path d="M 33.015625 40.375 
Q 26.375 40.375 22.484375 35.828125 
Q 18.609375 31.296875 18.609375 23.390625 
Q 18.609375 15.53125 22.484375 10.953125 
Q 26.375 6.390625 33.015625 6.390625 
Q 39.65625 6.390625 43.53125 10.953125 
Q 47.40625 15.53125 47.40625 23.390625 
Q 47.40625 31.296875 43.53125 35.828125 
Q 39.65625 40.375 33.015625 40.375 
M 52.59375 71.296875 
L 52.59375 62.3125 
Q 48.875 64.0625 45.09375 64.984375 
Q 41.3125 65.921875 37.59375 65.921875 
Q 27.828125 65.921875 22.671875 59.328125 
Q 17.53125 52.734375 16.796875 39.40625 
Q 19.671875 43.65625 24.015625 45.921875 
Q 28.375 48.1875 33.59375 48.1875 
Q 44.578125 48.1875 50.953125 41.515625 
Q 57.328125 34.859375 57.328125 23.390625 
Q 57.328125 12.15625 50.6875 5.359375 
Q 44.046875 -1.421875 33.015625 -1.421875 
Q 20.359375 -1.421875 13.671875 8.265625 
Q 6.984375 17.96875 6.984375 36.375 
Q 6.984375 53.65625 15.1875 63.9375 
Q 23.390625 74.21875 37.203125 74.21875 
Q 40.921875 74.21875 44.703125 73.484375 
Q 48.484375 72.75 52.59375 71.296875 
" id="DejaVuSans-36"/>
      </defs>
      <g style="fill:#555555;" transform="translate(87.820031 332.171567)rotate(-45)scale(0.1 -0.1)">
       <use xlink:href="#DejaVuSans-32"/>
       <use x="63.623047" xlink:href="#DejaVuSans-30"/>
       <use x="127.246094" xlink:href="#DejaVuSans-30"/>
       <use x="190.869141" xlink:href="#DejaVuSans-30"/>
       <use x="254.492188" xlink:href="#DejaVuSans-2d"/>
       <use x="290.576172" xlink:href="#DejaVuSans-30"/>
       <use x="354.199219" xlink:href="#DejaVuSans-36"/>
      </g>
     </g>
    </g>
    <g id="xtick_3">
     <g id="line2d_5">
      <path clip-path="url(#pc1e6d33cc9)" d="M 141.418103 290.25375 
L 141.418103 24.14175 
" style="fill:none;stroke:#ffffff;stroke-linecap:square;stroke-width:0.8;"/>
     </g>
     <g id="line2d_6">
      <g>
       <use style="fill:#555555;stroke:#555555;stroke-width:0.8;" x="141.418103" xlink:href="#m91b8354531" y="290.25375"/>
      </g>
     </g>
     <g id="text_3">
      <!-- 2000-12 -->
      <g style="fill:#555555;" transform="translate(128.59682 332.171567)rotate(-45)scale(0.1 -0.1)">
       <use xlink:href="#DejaVuSans-32"/>
       <use x="63.623047" xlink:href="#DejaVuSans-30"/>
       <use x="127.246094" xlink:href="#DejaVuSans-30"/>
       <use x="190.869141" xlink:href="#DejaVuSans-30"/>
       <use x="254.492188" xlink:href="#DejaVuSans-2d"/>
       <use x="290.576172" xlink:href="#DejaVuSans-31"/>
       <use x="354.199219" xlink:href="#DejaVuSans-32"/>
      </g>
     </g>
    </g>
    <g id="xtick_4">
     <g id="line2d_7">
      <path clip-path="url(#pc1e6d33cc9)" d="M 181.972068 290.25375 
L 181.972068 24.14175 
" style="fill:none;stroke:#ffffff;stroke-linecap:square;stroke-width:0.8;"/>
     </g>
     <g id="line2d_8">
      <g>
       <use style="fill:#555555;stroke:#555555;stroke-width:0.8;" x="181.972068" xlink:href="#m91b8354531" y="290.25375"/>
      </g>
     </g>
     <g id="text_4">
      <!-- 2001-06 -->
      <g style="fill:#555555;" transform="translate(169.150786 332.171567)rotate(-45)scale(0.1 -0.1)">
       <use xlink:href="#DejaVuSans-32"/>
       <use x="63.623047" xlink:href="#DejaVuSans-30"/>
       <use x="127.246094" xlink:href="#DejaVuSans-30"/>
       <use x="190.869141" xlink:href="#DejaVuSans-31"/>
       <use x="254.492188" xlink:href="#DejaVuSans-2d"/>
       <use x="290.576172" xlink:href="#DejaVuSans-30"/>
       <use x="354.199219" xlink:href="#DejaVuSans-36"/>
      </g>
     </g>
    </g>
    <g id="xtick_5">
     <g id="line2d_9">
      <path clip-path="url(#pc1e6d33cc9)" d="M 222.748857 290.25375 
L 222.748857 24.14175 
" style="fill:none;stroke:#ffffff;stroke-linecap:square;stroke-width:0.8;"/>
     </g>
     <g id="line2d_10">
      <g>
       <use style="fill:#555555;stroke:#555555;stroke-width:0.8;" x="222.748857" xlink:href="#m91b8354531" y="290.25375"/>
      </g>
     </g>
     <g id="text_5">
      <!-- 2001-12 -->
      <g style="fill:#555555;" transform="translate(209.927575 332.171567)rotate(-45)scale(0.1 -0.1)">
       <use xlink:href="#DejaVuSans-32"/>
       <use x="63.623047" xlink:href="#DejaVuSans-30"/>
       <use x="127.246094" xlink:href="#DejaVuSans-30"/>
       <use x="190.869141" xlink:href="#DejaVuSans-31"/>
       <use x="254.492188" xlink:href="#DejaVuSans-2d"/>
       <use x="290.576172" xlink:href="#DejaVuSans-31"/>
       <use x="354.199219" xlink:href="#DejaVuSans-32"/>
      </g>
     </g>
    </g>
    <g id="xtick_6">
     <g id="line2d_11">
      <path clip-path="url(#pc1e6d33cc9)" d="M 263.302822 290.25375 
L 263.302822 24.14175 
" style="fill:none;stroke:#ffffff;stroke-linecap:square;stroke-width:0.8;"/>
     </g>
     <g id="line2d_12">
      <g>
       <use style="fill:#555555;stroke:#555555;stroke-width:0.8;" x="263.302822" xlink:href="#m91b8354531" y="290.25375"/>
      </g>
     </g>
     <g id="text_6">
      <!-- 2002-06 -->
      <g style="fill:#555555;" transform="translate(250.48154 332.171567)rotate(-45)scale(0.1 -0.1)">
       <use xlink:href="#DejaVuSans-32"/>
       <use x="63.623047" xlink:href="#DejaVuSans-30"/>
       <use x="127.246094" xlink:href="#DejaVuSans-30"/>
       <use x="190.869141" xlink:href="#DejaVuSans-32"/>
       <use x="254.492188" xlink:href="#DejaVuSans-2d"/>
       <use x="290.576172" xlink:href="#DejaVuSans-30"/>
       <use x="354.199219" xlink:href="#DejaVuSans-36"/>
      </g>
     </g>
    </g>
    <g id="xtick_7">
     <g id="line2d_13">
      <path clip-path="url(#pc1e6d33cc9)" d="M 304.079611 290.25375 
L 304.079611 24.14175 
" style="fill:none;stroke:#ffffff;stroke-linecap:square;stroke-width:0.8;"/>
     </g>
     <g id="line2d_14">
      <g>
       <use style="fill:#555555;stroke:#555555;stroke-width:0.8;" x="304.079611" xlink:href="#m91b8354531" y="290.25375"/>
      </g>
     </g>
     <g id="text_7">
      <!-- 2002-12 -->
      <g style="fill:#555555;" transform="translate(291.258329 332.171567)rotate(-45)scale(0.1 -0.1)">
       <use xlink:href="#DejaVuSans-32"/>
       <use x="63.623047" xlink:href="#DejaVuSans-30"/>
       <use x="127.246094" xlink:href="#DejaVuSans-30"/>
       <use x="190.869141" xlink:href="#DejaVuSans-32"/>
       <use x="254.492188" xlink:href="#DejaVuSans-2d"/>
       <use x="290.576172" xlink:href="#DejaVuSans-31"/>
       <use x="354.199219" xlink:href="#DejaVuSans-32"/>
      </g>
     </g>
    </g>
    <g id="xtick_8">
     <g id="line2d_15">
      <path clip-path="url(#pc1e6d33cc9)" d="M 344.633577 290.25375 
L 344.633577 24.14175 
" style="fill:none;stroke:#ffffff;stroke-linecap:square;stroke-width:0.8;"/>
     </g>
     <g id="line2d_16">
      <g>
       <use style="fill:#555555;stroke:#555555;stroke-width:0.8;" x="344.633577" xlink:href="#m91b8354531" y="290.25375"/>
      </g>
     </g>
     <g id="text_8">
      <!-- 2003-06 -->
      <defs>
       <path d="M 40.578125 39.3125 
Q 47.65625 37.796875 51.625 33 
Q 55.609375 28.21875 55.609375 21.1875 
Q 55.609375 10.40625 48.1875 4.484375 
Q 40.765625 -1.421875 27.09375 -1.421875 
Q 22.515625 -1.421875 17.65625 -0.515625 
Q 12.796875 0.390625 7.625 2.203125 
L 7.625 11.71875 
Q 11.71875 9.328125 16.59375 8.109375 
Q 21.484375 6.890625 26.8125 6.890625 
Q 36.078125 6.890625 40.9375 10.546875 
Q 45.796875 14.203125 45.796875 21.1875 
Q 45.796875 27.640625 41.28125 31.265625 
Q 36.765625 34.90625 28.71875 34.90625 
L 20.21875 34.90625 
L 20.21875 43.015625 
L 29.109375 43.015625 
Q 36.375 43.015625 40.234375 45.921875 
Q 44.09375 48.828125 44.09375 54.296875 
Q 44.09375 59.90625 40.109375 62.90625 
Q 36.140625 65.921875 28.71875 65.921875 
Q 24.65625 65.921875 20.015625 65.03125 
Q 15.375 64.15625 9.8125 62.3125 
L 9.8125 71.09375 
Q 15.4375 72.65625 20.34375 73.4375 
Q 25.25 74.21875 29.59375 74.21875 
Q 40.828125 74.21875 47.359375 69.109375 
Q 53.90625 64.015625 53.90625 55.328125 
Q 53.90625 49.265625 50.4375 45.09375 
Q 46.96875 40.921875 40.578125 39.3125 
" id="DejaVuSans-33"/>
      </defs>
      <g style="fill:#555555;" transform="translate(331.812294 332.171567)rotate(-45)scale(0.1 -0.1)">
       <use xlink:href="#DejaVuSans-32"/>
       <use x="63.623047" xlink:href="#DejaVuSans-30"/>
       <use x="127.246094" xlink:href="#DejaVuSans-30"/>
       <use x="190.869141" xlink:href="#DejaVuSans-33"/>
       <use x="254.492188" xlink:href="#DejaVuSans-2d"/>
       <use x="290.576172" xlink:href="#DejaVuSans-30"/>
       <use x="354.199219" xlink:href="#DejaVuSans-36"/>
      </g>
     </g>
    </g>
    <g id="xtick_9">
     <g id="line2d_17">
      <path clip-path="url(#pc1e6d33cc9)" d="M 385.410366 290.25375 
L 385.410366 24.14175 
" style="fill:none;stroke:#ffffff;stroke-linecap:square;stroke-width:0.8;"/>
     </g>
     <g id="line2d_18">
      <g>
       <use style="fill:#555555;stroke:#555555;stroke-width:0.8;" x="385.410366" xlink:href="#m91b8354531" y="290.25375"/>
      </g>
     </g>
     <g id="text_9">
      <!-- 2003-12 -->
      <g style="fill:#555555;" transform="translate(372.589083 332.171567)rotate(-45)scale(0.1 -0.1)">
       <use xlink:href="#DejaVuSans-32"/>
       <use x="63.623047" xlink:href="#DejaVuSans-30"/>
       <use x="127.246094" xlink:href="#DejaVuSans-30"/>
       <use x="190.869141" xlink:href="#DejaVuSans-33"/>
       <use x="254.492188" xlink:href="#DejaVuSans-2d"/>
       <use x="290.576172" xlink:href="#DejaVuSans-31"/>
       <use x="354.199219" xlink:href="#DejaVuSans-32"/>
      </g>
     </g>
    </g>
   </g>
   <g id="matplotlib.axis_2">
    <g id="ytick_1">
     <g id="line2d_19">
      <path clip-path="url(#pc1e6d33cc9)" d="M 51.207813 271.291492 
L 408.327813 271.291492 
" style="fill:none;stroke:#ffffff;stroke-linecap:square;stroke-width:0.8;"/>
     </g>
     <g id="line2d_20">
      <defs>
       <path d="M 0 0 
L -3.5 0 
" id="m31b23559f2" style="stroke:#555555;stroke-width:0.8;"/>
      </defs>
      <g>
       <use style="fill:#555555;stroke:#555555;stroke-width:0.8;" x="51.207813" xlink:href="#m31b23559f2" y="271.291492"/>
      </g>
     </g>
     <g id="text_10">
      <!-- −0.100 -->
      <defs>
       <path d="M 10.59375 35.5 
L 73.1875 35.5 
L 73.1875 27.203125 
L 10.59375 27.203125 
z
" id="DejaVuSans-2212"/>
       <path d="M 10.6875 12.40625 
L 21 12.40625 
L 21 0 
L 10.6875 0 
z
" id="DejaVuSans-2e"/>
      </defs>
      <g style="fill:#555555;" transform="translate(7.2 275.090711)scale(0.1 -0.1)">
       <use xlink:href="#DejaVuSans-2212"/>
       <use x="83.789062" xlink:href="#DejaVuSans-30"/>
       <use x="147.412109" xlink:href="#DejaVuSans-2e"/>
       <use x="179.199219" xlink:href="#DejaVuSans-31"/>
       <use x="242.822266" xlink:href="#DejaVuSans-30"/>
       <use x="306.445312" xlink:href="#DejaVuSans-30"/>
      </g>
     </g>
    </g>
    <g id="ytick_2">
     <g id="line2d_21">
      <path clip-path="url(#pc1e6d33cc9)" d="M 51.207813 235.647998 
L 408.327813 235.647998 
" style="fill:none;stroke:#ffffff;stroke-linecap:square;stroke-width:0.8;"/>
     </g>
     <g id="line2d_22">
      <g>
       <use style="fill:#555555;stroke:#555555;stroke-width:0.8;" x="51.207813" xlink:href="#m31b23559f2" y="235.647998"/>
      </g>
     </g>
     <g id="text_11">
      <!-- −0.075 -->
      <defs>
       <path d="M 8.203125 72.90625 
L 55.078125 72.90625 
L 55.078125 68.703125 
L 28.609375 0 
L 18.3125 0 
L 43.21875 64.59375 
L 8.203125 64.59375 
z
" id="DejaVuSans-37"/>
       <path d="M 10.796875 72.90625 
L 49.515625 72.90625 
L 49.515625 64.59375 
L 19.828125 64.59375 
L 19.828125 46.734375 
Q 21.96875 47.46875 24.109375 47.828125 
Q 26.265625 48.1875 28.421875 48.1875 
Q 40.625 48.1875 47.75 41.5 
Q 54.890625 34.8125 54.890625 23.390625 
Q 54.890625 11.625 47.5625 5.09375 
Q 40.234375 -1.421875 26.90625 -1.421875 
Q 22.3125 -1.421875 17.546875 -0.640625 
Q 12.796875 0.140625 7.71875 1.703125 
L 7.71875 11.625 
Q 12.109375 9.234375 16.796875 8.0625 
Q 21.484375 6.890625 26.703125 6.890625 
Q 35.15625 6.890625 40.078125 11.328125 
Q 45.015625 15.765625 45.015625 23.390625 
Q 45.015625 31 40.078125 35.4375 
Q 35.15625 39.890625 26.703125 39.890625 
Q 22.75 39.890625 18.8125 39.015625 
Q 14.890625 38.140625 10.796875 36.28125 
z
" id="DejaVuSans-35"/>
      </defs>
      <g style="fill:#555555;" transform="translate(7.2 239.447217)scale(0.1 -0.1)">
       <use xlink:href="#DejaVuSans-2212"/>
       <use x="83.789062" xlink:href="#DejaVuSans-30"/>
       <use x="147.412109" xlink:href="#DejaVuSans-2e"/>
       <use x="179.199219" xlink:href="#DejaVuSans-30"/>
       <use x="242.822266" xlink:href="#DejaVuSans-37"/>
       <use x="306.445312" xlink:href="#DejaVuSans-35"/>
      </g>
     </g>
    </g>
    <g id="ytick_3">
     <g id="line2d_23">
      <path clip-path="url(#pc1e6d33cc9)" d="M 51.207813 200.004504 
L 408.327813 200.004504 
" style="fill:none;stroke:#ffffff;stroke-linecap:square;stroke-width:0.8;"/>
     </g>
     <g id="line2d_24">
      <g>
       <use style="fill:#555555;stroke:#555555;stroke-width:0.8;" x="51.207813" xlink:href="#m31b23559f2" y="200.004504"/>
      </g>
     </g>
     <g id="text_12">
      <!-- −0.050 -->
      <g style="fill:#555555;" transform="translate(7.2 203.803722)scale(0.1 -0.1)">
       <use xlink:href="#DejaVuSans-2212"/>
       <use x="83.789062" xlink:href="#DejaVuSans-30"/>
       <use x="147.412109" xlink:href="#DejaVuSans-2e"/>
       <use x="179.199219" xlink:href="#DejaVuSans-30"/>
       <use x="242.822266" xlink:href="#DejaVuSans-35"/>
       <use x="306.445312" xlink:href="#DejaVuSans-30"/>
      </g>
     </g>
    </g>
    <g id="ytick_4">
     <g id="line2d_25">
      <path clip-path="url(#pc1e6d33cc9)" d="M 51.207813 164.361009 
L 408.327813 164.361009 
" style="fill:none;stroke:#ffffff;stroke-linecap:square;stroke-width:0.8;"/>
     </g>
     <g id="line2d_26">
      <g>
       <use style="fill:#555555;stroke:#555555;stroke-width:0.8;" x="51.207813" xlink:href="#m31b23559f2" y="164.361009"/>
      </g>
     </g>
     <g id="text_13">
      <!-- −0.025 -->
      <g style="fill:#555555;" transform="translate(7.2 168.160228)scale(0.1 -0.1)">
       <use xlink:href="#DejaVuSans-2212"/>
       <use x="83.789062" xlink:href="#DejaVuSans-30"/>
       <use x="147.412109" xlink:href="#DejaVuSans-2e"/>
       <use x="179.199219" xlink:href="#DejaVuSans-30"/>
       <use x="242.822266" xlink:href="#DejaVuSans-32"/>
       <use x="306.445312" xlink:href="#DejaVuSans-35"/>
      </g>
     </g>
    </g>
    <g id="ytick_5">
     <g id="line2d_27">
      <path clip-path="url(#pc1e6d33cc9)" d="M 51.207813 128.717515 
L 408.327813 128.717515 
" style="fill:none;stroke:#ffffff;stroke-linecap:square;stroke-width:0.8;"/>
     </g>
     <g id="line2d_28">
      <g>
       <use style="fill:#555555;stroke:#555555;stroke-width:0.8;" x="51.207813" xlink:href="#m31b23559f2" y="128.717515"/>
      </g>
     </g>
     <g id="text_14">
      <!-- 0.000 -->
      <g style="fill:#555555;" transform="translate(15.579688 132.516734)scale(0.1 -0.1)">
       <use xlink:href="#DejaVuSans-30"/>
       <use x="63.623047" xlink:href="#DejaVuSans-2e"/>
       <use x="95.410156" xlink:href="#DejaVuSans-30"/>
       <use x="159.033203" xlink:href="#DejaVuSans-30"/>
       <use x="222.65625" xlink:href="#DejaVuSans-30"/>
      </g>
     </g>
    </g>
    <g id="ytick_6">
     <g id="line2d_29">
      <path clip-path="url(#pc1e6d33cc9)" d="M 51.207813 93.074021 
L 408.327813 93.074021 
" style="fill:none;stroke:#ffffff;stroke-linecap:square;stroke-width:0.8;"/>
     </g>
     <g id="line2d_30">
      <g>
       <use style="fill:#555555;stroke:#555555;stroke-width:0.8;" x="51.207813" xlink:href="#m31b23559f2" y="93.074021"/>
      </g>
     </g>
     <g id="text_15">
      <!-- 0.025 -->
      <g style="fill:#555555;" transform="translate(15.579688 96.87324)scale(0.1 -0.1)">
       <use xlink:href="#DejaVuSans-30"/>
       <use x="63.623047" xlink:href="#DejaVuSans-2e"/>
       <use x="95.410156" xlink:href="#DejaVuSans-30"/>
       <use x="159.033203" xlink:href="#DejaVuSans-32"/>
       <use x="222.65625" xlink:href="#DejaVuSans-35"/>
      </g>
     </g>
    </g>
    <g id="ytick_7">
     <g id="line2d_31">
      <path clip-path="url(#pc1e6d33cc9)" d="M 51.207813 57.430527 
L 408.327813 57.430527 
" style="fill:none;stroke:#ffffff;stroke-linecap:square;stroke-width:0.8;"/>
     </g>
     <g id="line2d_32">
      <g>
       <use style="fill:#555555;stroke:#555555;stroke-width:0.8;" x="51.207813" xlink:href="#m31b23559f2" y="57.430527"/>
      </g>
     </g>
     <g id="text_16">
      <!-- 0.050 -->
      <g style="fill:#555555;" transform="translate(15.579688 61.229745)scale(0.1 -0.1)">
       <use xlink:href="#DejaVuSans-30"/>
       <use x="63.623047" xlink:href="#DejaVuSans-2e"/>
       <use x="95.410156" xlink:href="#DejaVuSans-30"/>
       <use x="159.033203" xlink:href="#DejaVuSans-35"/>
       <use x="222.65625" xlink:href="#DejaVuSans-30"/>
      </g>
     </g>
    </g>
   </g>
   <g id="line2d_33">
    <path clip-path="url(#pc1e6d33cc9)" d="M 67.44054 128.717515 
L 67.663364 130.664318 
L 68.109012 111.046923 
L 68.777484 135.740074 
L 69.000308 132.39189 
L 69.223132 111.088413 
L 69.445956 144.40981 
L 69.66878 121.662019 
L 70.560076 128.35902 
L 70.7829 154.524813 
L 71.005724 151.568391 
L 71.228548 163.411816 
L 71.897019 128.730928 
L 72.119843 147.495321 
L 72.342667 150.366146 
L 72.565491 147.461355 
L 72.788315 122.275383 
L 73.456787 103.975628 
L 73.679611 107.583839 
L 74.125259 134.229629 
L 74.348083 112.902 
L 75.016555 124.014434 
L 75.239379 142.586255 
L 75.462203 119.284267 
L 75.685027 134.836893 
L 75.907851 116.249483 
L 76.576323 116.328978 
L 77.244795 165.894414 
L 77.467619 122.233063 
L 78.358915 116.551985 
L 78.581739 150.447475 
L 78.804563 150.013043 
L 79.027387 127.45683 
L 79.695859 102.784928 
L 80.141507 146.260271 
L 80.364331 116.598964 
L 81.255627 160.155157 
L 81.478451 145.824113 
L 81.701275 119.253116 
L 81.924099 150.171304 
L 82.146923 135.194502 
L 82.815395 160.586333 
L 83.038219 127.992413 
L 83.261043 122.335138 
L 83.483867 136.674533 
L 83.706691 136.995823 
L 84.375163 113.011648 
L 84.597987 114.816177 
L 84.820811 111.237553 
L 85.043635 116.517992 
L 85.93493 124.998379 
L 86.157754 147.608509 
L 86.603402 136.802742 
L 86.826226 131.034276 
L 87.494698 157.161906 
L 87.717522 115.525674 
L 87.940346 102.339925 
L 88.385994 140.416557 
L 89.054466 115.345671 
L 89.27729 159.690519 
L 89.500114 149.017883 
L 89.722938 186.891479 
L 89.945762 104.762716 
L 90.614234 110.379258 
L 90.837058 124.163566 
L 91.059882 106.470306 
L 91.282706 118.859156 
L 92.174002 100.570988 
L 92.396826 133.26528 
L 92.61965 96.966452 
L 92.842474 106.426178 
L 93.065298 108.825339 
L 93.956594 141.535642 
L 94.179418 115.337116 
L 94.402242 102.207154 
L 94.625066 119.285616 
L 95.293538 109.593839 
L 95.516362 157.900764 
L 95.739186 110.973408 
L 95.96201 110.320783 
L 96.184834 107.043177 
L 96.853306 122.137278 
L 97.07613 118.845784 
L 97.298954 125.864128 
L 97.521778 120.963085 
L 97.744602 129.98339 
L 98.413074 131.767539 
L 98.858722 140.358904 
L 99.30437 99.997852 
L 100.195665 136.437796 
L 100.418489 123.37968 
L 100.641313 131.872941 
L 101.532609 142.223868 
L 101.755433 118.520681 
L 101.978257 141.798736 
L 102.201081 144.482989 
L 102.423905 153.78457 
L 103.092377 123.563392 
L 103.315201 143.905219 
L 103.538025 140.913919 
L 103.760849 150.369097 
L 103.983673 132.944166 
L 104.652145 143.049841 
L 104.874969 134.936767 
L 105.097793 154.776517 
L 105.543441 122.841487 
L 106.211913 141.690838 
L 106.434737 120.216276 
L 106.657561 148.271413 
L 106.880385 153.179519 
L 107.103209 107.486906 
L 107.771681 144.417676 
L 108.217329 125.086804 
L 108.440153 138.462984 
L 108.662977 130.102696 
L 109.331449 136.340586 
L 109.554273 126.854407 
L 109.777097 146.206976 
L 109.999921 128.494308 
L 110.222745 130.248968 
L 110.891217 138.382884 
L 111.114041 153.99119 
L 111.336865 125.169424 
L 111.559689 137.233916 
L 111.782513 124.297483 
L 112.450985 127.948234 
L 112.673809 150.044091 
L 112.896633 146.925764 
L 113.119457 150.138405 
L 113.342281 133.274758 
L 114.010753 135.84796 
L 114.233577 137.211782 
L 114.456401 140.932146 
L 114.679224 112.751473 
L 114.902048 104.570951 
L 115.57052 127.937926 
L 115.793344 142.042676 
L 116.016168 141.365827 
L 116.238992 109.761813 
L 116.461816 108.439284 
L 117.130288 126.383828 
L 117.575936 110.245966 
L 118.021584 119.918742 
L 118.690056 117.491614 
L 118.91288 113.303763 
L 119.135704 119.774613 
L 119.358528 119.75358 
L 119.581352 118.342113 
L 120.249824 119.927685 
L 120.472648 128.526011 
L 120.695472 128.441095 
L 120.918296 110.590708 
L 121.14112 123.037749 
L 122.032416 139.907242 
L 122.25524 122.756317 
L 122.700888 147.76045 
L 123.36936 145.799486 
L 123.592184 123.123939 
L 124.260656 154.961496 
L 125.151952 137.238325 
L 125.374776 142.089214 
L 125.5976 130.650901 
L 125.820424 148.152117 
L 126.488896 155.947942 
L 126.934544 133.367109 
L 127.157368 141.305485 
L 127.380192 158.035129 
L 128.048664 144.247566 
L 128.271488 128.622869 
L 128.717136 159.698733 
L 128.93996 128.9448 
L 129.608431 149.636189 
L 129.831255 138.737105 
L 130.054079 173.073645 
L 130.276903 100.253028 
L 130.499727 147.276772 
L 131.168199 159.931741 
L 131.391023 133.188595 
L 131.613847 138.735628 
L 131.836671 147.862225 
L 132.059495 150.331974 
L 132.727967 150.344169 
L 132.950791 140.920408 
L 133.173615 149.078255 
L 133.396439 120.01784 
L 133.619263 136.578618 
L 134.287735 123.919711 
L 134.510559 135.204977 
L 134.733383 155.163906 
L 134.956207 125.081205 
L 135.179031 120.512831 
L 135.847503 113.699399 
L 136.070327 130.776918 
L 136.293151 129.815209 
L 136.515975 134.142759 
L 136.738799 133.699118 
L 137.630095 108.178398 
L 137.852919 120.882795 
L 138.075743 120.113721 
L 138.298567 120.839294 
L 138.967039 119.369427 
L 139.189863 129.145385 
L 139.412687 105.303095 
L 139.858335 111.472485 
L 140.972455 159.325718 
L 141.195279 146.617823 
L 141.418103 162.877034 
L 142.086575 122.45416 
L 142.309399 153.609104 
L 142.755047 104.607611 
L 143.646342 151.971915 
L 143.869166 153.760418 
L 144.09199 152.182852 
L 144.314814 144.000391 
L 144.537638 140.71495 
L 145.428934 158.076336 
L 145.651758 136.931465 
L 145.874582 100.086521 
L 146.097406 106.54627 
L 146.988702 100.442835 
L 147.211526 96.747294 
L 147.657174 171.255785 
L 148.54847 88.706554 
L 148.771294 162.579196 
L 148.994118 165.831735 
L 149.216942 129.288241 
L 149.885414 138.558854 
L 150.108238 128.894439 
L 150.331062 111.323362 
L 150.553886 140.699456 
L 150.77671 115.063154 
L 151.668006 152.18656 
L 151.89083 131.32028 
L 152.113654 148.842912 
L 152.336478 124.816215 
L 153.00495 112.763191 
L 153.227774 139.102874 
L 153.450598 141.902354 
L 153.673422 135.096173 
L 153.896246 111.024764 
L 154.564718 120.609036 
L 154.787542 139.541696 
L 155.010366 127.897214 
L 155.23319 140.745028 
L 155.456014 117.80545 
L 156.124486 112.243381 
L 156.34731 121.588466 
L 156.570134 152.45358 
L 156.792958 130.987291 
L 157.015782 94.291065 
L 157.684254 118.591477 
L 157.907077 109.669646 
L 158.129901 134.646036 
L 158.352725 122.033538 
L 158.575549 137.822793 
L 159.466845 151.772898 
L 159.912493 133.2595 
L 160.135317 101.749574 
L 161.026613 160.931239 
L 161.695085 118.062634 
L 162.363557 116.071142 
L 162.586381 113.199462 
L 163.032029 140.694926 
L 163.254853 171.424999 
L 163.923325 135.341784 
L 164.146149 141.439035 
L 164.368973 142.105833 
L 164.591797 162.328616 
L 164.814621 103.696975 
L 165.483093 154.792043 
L 165.705917 154.956472 
L 166.151565 147.612987 
L 166.374389 159.134969 
L 167.042861 130.856753 
L 167.265685 137.050079 
L 167.488509 138.505061 
L 167.711333 123.069119 
L 167.934157 134.282046 
L 168.602629 174.809573 
L 169.048277 101.965833 
L 169.271101 148.58959 
L 169.493925 116.031229 
L 170.162397 113.132401 
L 170.385221 152.397262 
L 170.830869 111.21834 
L 171.722165 107.819492 
L 171.944989 105.897889 
L 172.167813 134.54463 
L 172.390636 142.434132 
L 172.61346 124.377746 
L 173.281932 121.309714 
L 173.504756 100.192999 
L 173.72758 119.933665 
L 173.950404 112.535556 
L 174.173228 113.526774 
L 174.8417 111.161447 
L 175.064524 124.384564 
L 175.287348 125.896354 
L 175.510172 96.308937 
L 175.732996 126.934326 
L 176.401468 125.478919 
L 176.624292 119.311864 
L 177.06994 138.611655 
L 177.292764 116.670419 
L 177.961236 114.716091 
L 178.18406 93.522499 
L 178.406884 112.250292 
L 178.629708 119.907932 
L 178.852532 106.110277 
L 179.521004 122.179348 
L 179.743828 142.532834 
L 179.966652 121.682008 
L 180.189476 122.271819 
L 180.4123 124.155274 
L 181.303596 136.176347 
L 181.52642 115.542578 
L 181.749244 111.801141 
L 181.972068 115.261307 
L 182.64054 107.426097 
L 182.863364 127.014557 
L 183.086188 112.590916 
L 183.309012 129.078225 
L 183.531836 130.943952 
L 184.200308 131.105912 
L 184.423132 136.168042 
L 184.645956 150.168009 
L 185.091604 128.971188 
L 185.760076 143.398893 
L 185.9829 129.8183 
L 186.205724 130.007692 
L 186.428548 146.913188 
L 186.651371 135.105415 
L 187.319843 126.72218 
L 187.542667 140.103726 
L 187.765491 135.115783 
L 187.988315 134.908366 
L 188.211139 129.131372 
L 188.879611 121.329713 
L 189.102435 120.113946 
L 189.548083 151.933833 
L 189.770907 134.519411 
L 190.439379 154.490153 
L 190.885027 129.572264 
L 191.107851 118.258408 
L 191.330675 130.313656 
L 191.999147 120.008013 
L 192.221971 145.373095 
L 192.667619 117.039728 
L 192.890443 137.834715 
L 193.558915 155.427493 
L 193.781739 129.349886 
L 194.227387 121.22096 
L 194.450211 119.217721 
L 195.118683 144.632274 
L 195.787155 129.416649 
L 196.009979 132.922641 
L 196.678451 125.422905 
L 196.901275 128.621253 
L 197.124099 118.202423 
L 197.346923 118.517375 
L 197.569747 118.077515 
L 198.238219 118.144062 
L 198.461043 121.46336 
L 198.683867 116.328779 
L 198.906691 133.21848 
L 199.129515 114.6705 
L 199.797987 131.272431 
L 200.020811 125.240473 
L 200.243635 122.305888 
L 200.466459 110.820788 
L 200.689283 121.191741 
L 201.357754 143.443531 
L 201.580578 130.809478 
L 201.803402 144.600039 
L 202.026226 117.546556 
L 202.24905 130.677954 
L 203.140346 145.525597 
L 203.36317 152.004209 
L 203.585994 153.828133 
L 203.808818 140.736746 
L 204.47729 159.970405 
L 206.037058 152.000564 
L 206.259882 163.661689 
L 206.482706 157.251442 
L 206.928354 119.634669 
L 207.596826 139.823094 
L 207.81965 157.466649 
L 208.265298 123.435387 
L 208.488122 133.400458 
L 209.156594 123.941393 
L 209.379418 101.978779 
L 209.602242 138.265016 
L 209.825066 139.994896 
L 210.04789 106.690013 
L 210.716362 121.453435 
L 210.939186 116.21082 
L 211.384834 136.956238 
L 211.607658 110.208083 
L 212.27613 110.093132 
L 212.498954 168.166217 
L 212.721778 124.694699 
L 213.167426 105.108109 
L 213.835898 120.65316 
L 214.281546 101.82728 
L 214.50437 113.094339 
L 214.727194 156.798078 
L 215.395665 149.486139 
L 215.618489 110.016314 
L 215.841313 103.509797 
L 216.064137 105.84566 
L 216.286961 112.163594 
L 216.955433 104.46478 
L 217.178257 114.822458 
L 217.401081 144.243571 
L 217.623905 114.715055 
L 217.846729 116.121687 
L 218.515201 111.134146 
L 218.960849 135.519299 
L 219.183673 134.33791 
L 219.406497 112.57276 
L 220.297793 131.911901 
L 220.520617 110.428842 
L 220.966265 112.708821 
L 221.634737 130.345724 
L 221.857561 140.805415 
L 222.080385 115.735381 
L 222.303209 121.755887 
L 222.526033 121.940518 
L 223.194505 107.865971 
L 223.417329 114.874556 
L 223.640153 140.177366 
L 223.862977 125.888725 
L 224.085801 130.986631 
L 224.754273 136.745841 
L 224.977097 143.672194 
L 225.199921 142.809199 
L 225.422745 122.707398 
L 225.645569 126.420577 
L 226.314041 126.464785 
L 226.536865 133.573251 
L 226.759689 152.041517 
L 227.205337 114.985758 
L 227.873809 118.317501 
L 228.319457 114.653711 
L 228.542281 119.035138 
L 228.765105 120.802964 
L 229.433577 132.625915 
L 229.879224 126.462659 
L 230.324872 142.32611 
L 230.993344 125.514009 
L 231.216168 144.91871 
L 231.438992 132.595857 
L 231.661816 140.267432 
L 231.88464 131.279913 
L 232.553112 135.02538 
L 232.775936 144.07354 
L 232.99876 123.203736 
L 233.221584 121.568993 
L 233.444408 140.353009 
L 234.335704 126.549177 
L 234.558528 138.139126 
L 234.781352 123.671956 
L 235.004176 123.769552 
L 235.672648 150.799448 
L 235.895472 127.875347 
L 236.118296 129.596418 
L 236.34112 133.601262 
L 236.563944 151.41872 
L 237.232416 136.291496 
L 237.45524 148.09211 
L 237.900888 107.824595 
L 238.123712 108.756662 
L 238.792184 120.394197 
L 239.015008 112.331139 
L 239.237832 125.490549 
L 239.460656 131.625863 
L 239.68348 141.296282 
L 240.574776 113.806958 
L 240.7976 155.911367 
L 241.020424 131.499782 
L 241.243248 121.430233 
L 241.91172 118.446342 
L 242.134544 137.771071 
L 242.357368 145.952968 
L 242.580192 122.340197 
L 242.803016 121.243381 
L 243.471488 143.151605 
L 243.694312 119.882256 
L 243.917136 143.161065 
L 244.362783 132.902479 
L 245.031255 129.521342 
L 245.254079 123.601269 
L 245.476903 121.38839 
L 245.699727 122.387024 
L 245.922551 122.387388 
L 246.591023 120.072899 
L 246.813847 129.872312 
L 247.259495 131.923932 
L 247.482319 136.402685 
L 248.150791 122.854162 
L 248.373615 114.553337 
L 248.596439 122.187008 
L 248.819263 110.682699 
L 249.710559 127.443749 
L 249.933383 136.945996 
L 250.156207 119.496229 
L 250.379031 122.241959 
L 250.601855 110.159329 
L 251.270327 126.94892 
L 251.493151 121.020238 
L 251.715975 155.526386 
L 251.938799 131.355324 
L 252.161623 143.547977 
L 252.830095 126.04826 
L 253.052919 142.790156 
L 253.275743 137.320143 
L 253.498567 127.616797 
L 253.721391 129.090006 
L 254.389863 127.125193 
L 254.612687 142.804702 
L 254.835511 118.706517 
L 255.058335 138.105248 
L 255.281159 135.377532 
L 255.949631 123.570033 
L 256.172455 135.695337 
L 256.395279 122.265487 
L 256.618103 120.998832 
L 256.840927 148.911019 
L 257.509399 136.700402 
L 257.732223 125.266379 
L 257.955047 133.43589 
L 258.177871 154.198154 
L 258.400695 111.551152 
L 259.069166 119.468444 
L 259.29199 128.282034 
L 259.514814 125.933524 
L 259.960462 137.264655 
L 260.628934 146.65926 
L 261.074582 108.643761 
L 261.52023 128.431214 
L 262.411526 127.202057 
L 262.63435 120.146844 
L 262.857174 124.744487 
L 263.079998 147.971883 
L 263.74847 137.676065 
L 263.971294 124.891848 
L 264.194118 151.634908 
L 264.416942 123.96094 
L 264.639766 124.524453 
L 265.308238 160.732567 
L 265.531062 129.320108 
L 265.753886 131.659028 
L 265.97671 130.555319 
L 266.199534 112.295267 
L 266.868006 123.989056 
L 267.09083 144.589044 
L 267.313654 133.37093 
L 267.536478 135.219556 
L 267.759302 139.310848 
L 268.427774 155.113038 
L 268.650598 114.396478 
L 269.096246 143.508034 
L 269.31907 151.756728 
L 269.987542 157.203681 
L 270.43319 94.827379 
L 270.878838 141.990454 
L 271.54731 148.468794 
L 271.770134 171.087594 
L 271.992958 136.803454 
L 272.215782 153.973113 
L 272.438606 144.418059 
L 273.107077 141.143722 
L 273.329901 150.891704 
L 273.552725 154.97367 
L 273.775549 161.427528 
L 273.998373 158.370303 
L 274.666845 163.964207 
L 274.889669 69.373613 
L 275.112493 161.368613 
L 275.558141 98.68201 
L 276.672261 161.841352 
L 276.895085 163.840014 
L 277.117909 170.304519 
L 277.786381 115.636248 
L 278.009205 116.514423 
L 278.232029 105.801077 
L 278.677677 109.416882 
L 279.346149 135.244587 
L 279.568973 93.561011 
L 279.791797 112.38734 
L 280.014621 105.379095 
L 280.237445 102.006172 
L 280.905917 125.468918 
L 281.128741 111.943928 
L 281.351565 108.542385 
L 281.574389 124.704068 
L 281.797213 109.64861 
L 282.465685 156.160518 
L 282.911333 111.714179 
L 283.134157 119.890607 
L 283.356981 155.951242 
L 284.248277 103.47113 
L 284.471101 131.667382 
L 284.693925 116.173951 
L 284.916749 114.815755 
L 285.585221 115.540508 
L 286.030869 143.673218 
L 286.253693 114.392556 
L 286.476517 119.569196 
L 287.144989 153.3608 
L 287.367813 131.047334 
L 287.590636 147.481036 
L 287.81346 152.318221 
L 288.036284 137.931143 
L 288.704756 139.926226 
L 288.92758 124.340585 
L 289.150404 126.219841 
L 289.373228 160.370088 
L 289.596052 146.810944 
L 290.264524 125.25583 
L 290.487348 153.784058 
L 290.710172 150.000666 
L 290.932996 161.220395 
L 291.15582 157.472897 
L 291.824292 140.647406 
L 292.047116 161.094084 
L 292.26994 119.077464 
L 292.492764 117.828509 
L 292.715588 119.701113 
L 293.38406 123.890622 
L 293.606884 144.788093 
L 294.275356 110.56389 
L 294.943828 134.909331 
L 295.166652 99.546179 
L 295.389476 122.217587 
L 295.6123 106.360049 
L 295.835124 153.220477 
L 296.503596 121.658518 
L 296.72642 120.099669 
L 296.949244 129.719996 
L 297.172068 112.316336 
L 297.394892 136.170419 
L 298.063364 114.332687 
L 298.509012 137.636596 
L 298.731836 133.015092 
L 298.95466 151.652852 
L 299.845956 107.143811 
L 300.291604 112.653302 
L 300.514428 122.58578 
L 301.1829 129.659615 
L 301.405724 99.069455 
L 301.628548 117.803491 
L 301.851371 112.413222 
L 302.074195 115.455361 
L 302.742667 130.444676 
L 302.965491 102.99677 
L 303.188315 127.304031 
L 303.633963 146.567614 
L 304.302435 130.811223 
L 304.525259 129.855783 
L 304.748083 136.286989 
L 304.970907 108.040515 
L 305.193731 137.513241 
L 305.862203 112.688885 
L 306.085027 114.149491 
L 306.307851 120.041956 
L 306.530675 132.43189 
L 306.753499 105.23505 
L 307.421971 134.839519 
L 307.644795 130.884737 
L 307.867619 120.522039 
L 308.090443 125.104608 
L 308.313267 108.521225 
L 308.981739 121.856786 
L 309.204563 120.758645 
L 309.873035 123.930353 
L 310.541507 124.028903 
L 310.764331 100.213666 
L 311.209979 121.629989 
L 311.432803 112.921607 
L 312.101275 142.8687 
L 312.324099 144.002872 
L 312.546923 128.952127 
L 312.769747 125.253349 
L 312.992571 147.842232 
L 313.661043 120.511483 
L 314.106691 150.630235 
L 314.552339 146.255395 
L 315.443635 144.764221 
L 315.666459 133.049366 
L 315.889283 156.608065 
L 316.112107 141.435436 
L 316.780578 128.245758 
L 317.003402 116.754958 
L 317.226226 154.990304 
L 317.44905 117.117897 
L 318.340346 139.342755 
L 318.56317 130.340298 
L 318.785994 131.304391 
L 319.008818 149.109168 
L 319.231642 118.050523 
L 320.122938 133.994237 
L 320.568586 113.678051 
L 320.79141 112.102835 
L 321.90553 137.985092 
L 322.128354 114.858936 
L 322.351178 149.860112 
L 323.01965 124.547725 
L 323.242474 138.042662 
L 323.465298 129.517731 
L 323.688122 134.658119 
L 323.910946 146.118104 
L 324.579418 138.983525 
L 324.802242 133.881407 
L 325.025066 124.278463 
L 325.24789 123.324144 
L 325.470714 138.613282 
L 326.139186 141.258022 
L 326.36201 138.85382 
L 326.584834 123.555314 
L 326.807658 136.254674 
L 327.030482 100.61845 
L 327.698954 131.340991 
L 327.921778 129.046806 
L 328.144602 110.832701 
L 328.59025 149.852479 
L 329.258722 117.725859 
L 329.481546 129.012111 
L 329.70437 121.990574 
L 329.927194 120.562511 
L 330.150018 144.446105 
L 330.818489 129.219329 
L 331.041313 133.221674 
L 331.264137 133.62547 
L 331.486961 126.023878 
L 331.709785 149.091827 
L 332.378257 133.876564 
L 332.601081 146.919157 
L 332.823905 122.036488 
L 333.046729 135.721779 
L 333.269553 109.854642 
L 333.938025 112.411221 
L 334.160849 144.918983 
L 334.383673 115.263983 
L 334.606497 116.686968 
L 335.497793 109.491202 
L 335.943441 138.227361 
L 336.166265 136.718123 
L 336.389089 111.926894 
L 337.057561 134.25413 
L 337.280385 133.680743 
L 337.726033 113.466043 
L 337.948857 129.89382 
L 338.617329 131.595386 
L 338.840153 135.063456 
L 339.062977 135.754491 
L 339.285801 118.362154 
L 339.508625 114.861879 
L 340.399921 132.067574 
L 340.622745 127.056318 
L 340.845569 132.692098 
L 341.068393 152.153845 
L 342.182513 116.401629 
L 342.405337 121.073048 
L 342.628161 115.248522 
L 343.519457 134.079163 
L 343.742281 129.57105 
L 343.965105 118.746248 
L 344.187929 134.837007 
L 344.856401 126.29542 
L 345.079224 106.108981 
L 345.302048 123.785884 
L 345.524872 151.354081 
L 345.747696 136.410328 
L 346.638992 111.149677 
L 347.08464 138.555451 
L 347.307464 109.926546 
L 347.975936 134.103693 
L 348.19876 133.234483 
L 348.421584 147.101912 
L 348.644408 136.335226 
L 348.867232 135.236342 
L 349.535704 121.140905 
L 349.758528 130.007167 
L 349.981352 116.46343 
L 350.427 141.186795 
L 351.095472 117.412679 
L 351.318296 116.602357 
L 351.54112 118.169576 
L 351.763944 125.967909 
L 352.65524 126.497007 
L 352.878064 134.162119 
L 353.100888 146.957291 
L 353.323712 118.089682 
L 353.546536 136.118867 
L 354.215008 143.28621 
L 354.437832 147.880469 
L 354.660656 145.530152 
L 354.88348 121.936165 
L 355.106304 138.484915 
L 355.774776 119.137978 
L 356.220424 134.456141 
L 356.443248 112.417893 
L 357.334544 134.185125 
L 357.557368 122.357283 
L 357.780192 134.962674 
L 358.003016 133.946996 
L 358.22584 124.466496 
L 358.894312 129.906119 
L 359.117136 135.441924 
L 359.33996 123.320414 
L 359.562783 122.188729 
L 359.785607 115.24359 
L 360.454079 114.043534 
L 360.676903 124.198763 
L 360.899727 116.516075 
L 361.122551 121.529746 
L 361.345375 114.686199 
L 362.013847 121.294314 
L 362.236671 119.620509 
L 362.459495 122.99256 
L 362.682319 155.440449 
L 362.905143 123.686649 
L 363.573615 117.712087 
L 363.796439 118.28279 
L 364.019263 116.012483 
L 364.242087 116.109587 
L 364.464911 122.019801 
L 365.579031 134.352254 
L 365.801855 139.756178 
L 366.024679 116.601161 
L 366.693151 139.055104 
L 366.915975 153.202148 
L 367.138799 117.840839 
L 367.361623 119.779823 
L 367.584447 126.635778 
L 368.252919 113.08021 
L 368.475743 129.705932 
L 368.698567 122.629202 
L 368.921391 140.131696 
L 369.812687 123.890383 
L 370.035511 150.812736 
L 370.258335 149.384615 
L 370.481159 145.033433 
L 370.703983 135.175203 
L 371.372455 142.645137 
L 371.595279 113.628823 
L 371.818103 117.905479 
L 372.040927 130.975981 
L 372.263751 119.733842 
L 372.932223 125.757988 
L 373.155047 129.727224 
L 373.377871 135.935943 
L 373.823518 116.951214 
L 374.49199 128.726325 
L 374.714814 145.489169 
L 374.937638 127.056975 
L 375.160462 140.298269 
L 375.383286 127.372876 
L 376.051758 127.402752 
L 376.274582 141.490302 
L 376.497406 123.122333 
L 376.72023 122.918054 
L 376.943054 118.213495 
L 377.611526 114.132665 
L 377.83435 124.36258 
L 378.057174 140.30263 
L 378.279998 130.926442 
L 378.502822 114.346861 
L 379.171294 124.079945 
L 379.394118 130.168326 
L 379.616942 132.200226 
L 379.839766 140.064876 
L 380.06259 142.114349 
L 380.731062 129.671468 
L 380.953886 118.13927 
L 381.17671 129.072262 
L 381.399534 145.811078 
L 381.622358 137.611433 
L 382.29083 145.722759 
L 382.736478 127.531267 
L 382.959302 131.521193 
L 383.182126 112.321404 
L 383.850598 122.428973 
L 384.073422 122.561953 
L 384.296246 120.078796 
L 384.741894 123.225085 
L 385.63319 145.700366 
L 385.856014 129.737578 
L 386.078838 132.128584 
L 386.301662 120.034682 
L 386.970134 148.92498 
L 387.192958 145.237679 
L 387.415782 111.895781 
L 387.638606 124.324913 
L 387.86143 160.692917 
L 388.529901 124.347034 
L 388.752725 132.609029 
L 388.975549 121.506843 
L 389.198373 141.629348 
L 389.421197 117.438694 
L 390.089669 117.529357 
L 390.312493 122.373238 
L 390.535317 122.363458 
L 390.980965 114.463009 
L 391.649437 122.119383 
L 391.872261 131.516113 
L 392.095085 128.717515 
L 392.095085 128.717515 
" style="fill:none;opacity:0.5;stroke:#e24a33;stroke-linecap:square;stroke-width:1.5;"/>
   </g>
   <g id="line2d_34">
    <path clip-path="url(#pc1e6d33cc9)" d="M 67.44054 128.717515 
L 67.663364 134.330039 
L 67.886188 144.997142 
L 68.109012 120.129345 
L 68.777484 117.324686 
L 69.000308 127.960654 
L 69.223132 115.198188 
L 69.445956 155.100904 
L 69.66878 144.207224 
L 70.560076 130.151074 
L 70.7829 143.533613 
L 71.005724 140.718674 
L 71.228548 166.842162 
L 71.897019 147.459835 
L 72.119843 133.809911 
L 72.342667 144.986675 
L 72.565491 122.217398 
L 72.788315 132.385313 
L 73.456787 110.418405 
L 73.679611 120.817863 
L 73.902435 149.502018 
L 74.125259 125.782592 
L 74.348083 119.982727 
L 75.016555 125.072641 
L 75.239379 127.6395 
L 75.462203 91.528142 
L 75.907851 108.189003 
L 77.021971 147.614579 
L 77.244795 142.918647 
L 77.467619 124.205449 
L 78.358915 150.860232 
L 78.581739 137.606262 
L 78.804563 114.891486 
L 79.027387 176.19453 
L 79.695859 123.273208 
L 79.918683 180.351717 
L 80.364331 141.304809 
L 80.587155 174.032978 
L 81.255627 71.717625 
L 81.478451 91.680209 
L 81.701275 131.817456 
L 81.924099 198.414521 
L 82.146923 122.951414 
L 83.038219 115.71693 
L 83.261043 148.339075 
L 83.483867 138.94098 
L 83.706691 135.654519 
L 84.375163 135.914067 
L 84.597987 115.431202 
L 84.820811 109.027419 
L 85.043635 105.921941 
L 85.266459 109.339283 
L 85.93493 96.257719 
L 86.380578 158.340167 
L 86.603402 238.641364 
L 86.826226 129.36153 
L 87.494698 123.571163 
L 87.717522 113.331248 
L 87.940346 110.945985 
L 88.16317 98.1196 
L 88.385994 97.551013 
L 89.054466 99.460094 
L 89.27729 121.744508 
L 89.500114 119.67107 
L 89.945762 181.145757 
L 90.614234 174.302115 
L 90.837058 66.060652 
L 91.059882 101.354352 
L 91.282706 118.363412 
L 92.174002 117.446613 
L 92.396826 82.666896 
L 92.61965 98.916968 
L 92.842474 94.443396 
L 93.065298 173.767614 
L 93.73377 101.546376 
L 93.956594 109.694131 
L 94.179418 156.053924 
L 94.402242 106.000061 
L 94.625066 129.232263 
L 95.293538 110.761442 
L 95.516362 141.06988 
L 95.739186 122.661627 
L 95.96201 90.762839 
L 96.184834 104.595695 
L 96.853306 108.691016 
L 97.07613 84.446004 
L 97.298954 114.372026 
L 97.521778 110.524466 
L 97.744602 126.550174 
L 98.413074 104.923586 
L 98.635898 147.227404 
L 98.858722 114.198724 
L 99.30437 94.692565 
L 100.195665 161.293012 
L 100.418489 141.800771 
L 100.641313 147.039239 
L 100.864137 129.648275 
L 101.532609 139.645598 
L 101.755433 112.707978 
L 101.978257 108.902729 
L 102.201081 134.426549 
L 102.423905 143.366124 
L 103.092377 154.935358 
L 103.315201 120.663573 
L 103.538025 150.88185 
L 103.760849 134.204274 
L 103.983673 130.354082 
L 104.652145 139.930976 
L 104.874969 85.974243 
L 105.097793 147.521799 
L 105.320617 132.535019 
L 105.543441 147.166329 
L 106.211913 145.546449 
L 106.434737 136.283906 
L 106.657561 146.683669 
L 106.880385 142.531829 
L 107.103209 94.052888 
L 107.771681 116.107486 
L 108.217329 148.439081 
L 108.440153 175.101411 
L 108.662977 142.069445 
L 109.331449 157.398864 
L 109.554273 134.756281 
L 109.777097 144.607664 
L 110.222745 123.304909 
L 110.891217 119.407365 
L 111.114041 148.554227 
L 111.336865 141.307156 
L 111.559689 107.949108 
L 111.782513 108.634012 
L 112.450985 154.423313 
L 112.673809 142.480419 
L 113.119457 152.702744 
L 113.342281 137.049091 
L 114.010753 142.812499 
L 114.233577 142.428333 
L 114.456401 165.790572 
L 114.679224 97.320274 
L 114.902048 97.694352 
L 115.57052 133.785977 
L 115.793344 121.64514 
L 116.016168 159.44305 
L 116.238992 117.620508 
L 116.461816 102.017715 
L 117.130288 109.786946 
L 117.353112 123.22461 
L 117.575936 90.248622 
L 117.79876 118.082683 
L 118.021584 114.393604 
L 118.690056 115.541085 
L 118.91288 118.437483 
L 119.135704 115.286794 
L 119.358528 114.709255 
L 119.581352 100.18639 
L 120.249824 110.545223 
L 120.472648 133.799871 
L 120.695472 133.689818 
L 120.918296 108.087863 
L 121.14112 132.004991 
L 122.032416 148.261007 
L 122.25524 138.689373 
L 122.478064 123.333151 
L 122.700888 135.373338 
L 123.592184 123.146008 
L 123.815008 141.781099 
L 124.037832 138.014718 
L 124.260656 147.355883 
L 124.929128 156.014353 
L 125.151952 140.989779 
L 125.374776 170.496648 
L 125.820424 107.424758 
L 126.488896 135.700661 
L 126.71172 130.144081 
L 126.934544 161.197414 
L 127.157368 145.417073 
L 127.380192 151.490583 
L 128.048664 124.101032 
L 128.271488 124.757939 
L 128.494312 159.697977 
L 128.93996 118.847617 
L 129.608431 162.850105 
L 130.054079 91.233579 
L 130.276903 157.455181 
L 130.499727 147.370096 
L 131.168199 86.23148 
L 131.391023 107.291602 
L 131.613847 155.887591 
L 131.836671 146.235501 
L 132.059495 158.540711 
L 132.727967 126.612571 
L 133.173615 144.606612 
L 133.396439 116.563256 
L 133.619263 104.852161 
L 134.287735 160.691794 
L 134.510559 135.829045 
L 134.733383 172.830507 
L 134.956207 85.530538 
L 135.179031 136.455138 
L 135.847503 95.831386 
L 136.070327 146.629593 
L 136.293151 121.926531 
L 136.738799 135.450705 
L 137.407271 141.283919 
L 137.630095 111.796078 
L 137.852919 121.49748 
L 138.075743 278.15775 
L 138.298567 67.460405 
L 138.967039 88.427907 
L 139.189863 117.577037 
L 139.412687 110.140437 
L 139.858335 71.329665 
L 140.526807 120.068718 
L 140.749631 115.540576 
L 140.972455 184.673223 
L 141.195279 138.285774 
L 141.418103 225.365373 
L 142.086575 136.437467 
L 142.309399 158.800891 
L 142.532223 121.575871 
L 142.755047 121.455727 
L 143.646342 236.746563 
L 143.869166 81.533596 
L 144.09199 140.619048 
L 144.314814 151.262757 
L 144.537638 126.280376 
L 145.20611 157.185014 
L 145.428934 130.830446 
L 145.651758 177.048188 
L 145.874582 129.798874 
L 146.097406 125.192589 
L 146.988702 118.755642 
L 147.211526 123.224108 
L 147.43435 143.546331 
L 147.657174 83.828603 
L 148.54847 172.408216 
L 148.771294 164.644348 
L 148.994118 118.348048 
L 149.216942 126.192207 
L 149.885414 145.792014 
L 150.108238 158.885302 
L 150.331062 99.755807 
L 150.553886 97.88467 
L 150.77671 122.083472 
L 151.668006 161.918834 
L 151.89083 160.172333 
L 152.113654 144.342421 
L 152.336478 148.202294 
L 153.00495 155.258978 
L 153.227774 122.070117 
L 153.450598 149.470097 
L 153.673422 249.691421 
L 153.896246 152.097973 
L 154.564718 122.427501 
L 154.787542 174.382204 
L 155.010366 126.069722 
L 155.23319 131.184986 
L 155.456014 174.410551 
L 156.124486 185.48165 
L 156.34731 140.888867 
L 156.570134 126.498122 
L 156.792958 93.412272 
L 157.015782 110.944917 
L 157.684254 97.024072 
L 158.129901 125.447195 
L 158.575549 92.766401 
L 159.466845 163.96579 
L 159.689669 98.353409 
L 159.912493 136.344083 
L 160.135317 53.138586 
L 160.803789 112.882999 
L 161.026613 159.772122 
L 161.249437 110.745349 
L 161.472261 158.704417 
L 161.695085 57.350417 
L 162.363557 121.911264 
L 162.586381 117.13709 
L 162.809205 72.453565 
L 163.032029 133.518139 
L 163.254853 158.152637 
L 163.923325 155.348447 
L 164.146149 131.905571 
L 164.368973 95.488634 
L 164.591797 155.64583 
L 164.814621 112.991521 
L 165.483093 162.203086 
L 165.705917 144.546307 
L 165.928741 165.79614 
L 166.151565 124.159618 
L 166.374389 143.441832 
L 167.042861 148.063787 
L 167.265685 147.691233 
L 167.488509 103.375005 
L 167.711333 142.795884 
L 167.934157 144.300018 
L 168.602629 190.970342 
L 168.825453 36.23775 
L 169.048277 167.49382 
L 169.271101 159.154094 
L 169.493925 116.74346 
L 170.162397 164.71165 
L 170.385221 163.759142 
L 170.608045 152.258633 
L 170.830869 110.887883 
L 171.722165 93.624584 
L 171.944989 173.862073 
L 172.167813 161.939084 
L 172.390636 127.698397 
L 173.281932 104.147369 
L 173.504756 103.405552 
L 173.72758 87.648995 
L 173.950404 117.050964 
L 174.173228 106.092816 
L 174.8417 107.070148 
L 175.287348 135.6244 
L 175.510172 61.408653 
L 175.732996 104.246974 
L 176.847116 132.865125 
L 177.06994 158.498106 
L 177.292764 75.778596 
L 177.961236 112.094902 
L 178.18406 96.45231 
L 178.406884 132.180798 
L 178.852532 108.465545 
L 179.521004 105.076666 
L 179.743828 126.074322 
L 179.966652 110.425941 
L 180.189476 114.472249 
L 180.4123 112.14419 
L 181.303596 134.94888 
L 181.52642 125.31866 
L 181.749244 109.608397 
L 181.972068 121.905861 
L 182.64054 113.117625 
L 182.863364 120.216241 
L 183.086188 136.738795 
L 183.309012 108.332428 
L 183.531836 122.253798 
L 184.200308 125.899097 
L 184.423132 116.783121 
L 184.645956 140.984038 
L 185.091604 110.860645 
L 185.760076 108.186605 
L 185.9829 139.353304 
L 186.205724 132.378543 
L 186.428548 131.256237 
L 186.651371 123.243526 
L 187.319843 140.732393 
L 187.542667 185.648422 
L 187.765491 143.887941 
L 187.988315 152.575996 
L 188.211139 149.357466 
L 188.879611 109.997536 
L 189.102435 122.812624 
L 189.548083 191.340468 
L 189.770907 136.015479 
L 190.439379 135.397646 
L 190.885027 169.222256 
L 191.107851 96.473514 
L 191.330675 126.407704 
L 191.999147 149.83758 
L 192.221971 187.268369 
L 192.444795 134.172781 
L 192.890443 95.525818 
L 193.558915 177.771681 
L 193.781739 140.338041 
L 194.004563 132.130618 
L 194.227387 110.802395 
L 194.450211 112.482211 
L 195.341507 149.01638 
L 195.564331 111.230762 
L 195.787155 111.669944 
L 196.009979 117.095744 
L 196.678451 120.282243 
L 196.901275 115.660452 
L 197.124099 105.278282 
L 197.346923 105.719179 
L 197.569747 113.271336 
L 198.238219 109.450165 
L 198.461043 104.510219 
L 198.683867 124.944186 
L 198.906691 118.184298 
L 199.129515 100.247958 
L 199.797987 114.37354 
L 200.020811 133.267113 
L 200.243635 105.946901 
L 200.466459 130.34484 
L 200.689283 120.315587 
L 201.357754 124.748322 
L 201.580578 106.556095 
L 201.803402 152.629227 
L 202.026226 115.035732 
L 202.24905 137.590765 
L 203.36317 144.241145 
L 203.808818 112.417446 
L 204.47729 124.708811 
L 206.037058 129.447969 
L 206.259882 155.450248 
L 206.482706 130.20134 
L 206.70553 119.150001 
L 206.928354 151.942336 
L 207.81965 148.586706 
L 208.265298 163.430103 
L 208.488122 122.384146 
L 209.156594 136.861648 
L 209.379418 128.032294 
L 209.602242 141.269353 
L 210.04789 85.507394 
L 210.939186 118.441482 
L 211.16201 149.111449 
L 211.384834 134.57979 
L 211.607658 96.624957 
L 212.27613 109.810611 
L 212.498954 148.040344 
L 212.721778 109.825894 
L 212.944602 111.141583 
L 213.167426 106.310458 
L 213.835898 109.282221 
L 214.058722 108.967209 
L 214.281546 89.326799 
L 214.50437 81.434432 
L 214.727194 128.549415 
L 215.395665 123.371933 
L 215.618489 105.281093 
L 216.064137 117.536682 
L 216.286961 142.746767 
L 216.955433 102.041276 
L 217.401081 137.126401 
L 217.846729 108.432656 
L 218.515201 126.865296 
L 218.738025 128.82093 
L 218.960849 136.923406 
L 219.183673 140.79992 
L 219.406497 125.2602 
L 220.074969 139.549079 
L 220.297793 111.492604 
L 220.520617 113.402607 
L 220.966265 110.439716 
L 221.634737 113.832463 
L 221.857561 138.959676 
L 222.080385 126.117863 
L 222.303209 122.289284 
L 222.526033 107.225985 
L 223.194505 121.512627 
L 223.640153 144.719249 
L 224.085801 115.407842 
L 224.754273 141.783981 
L 225.199921 147.009787 
L 225.422745 128.290845 
L 225.645569 123.861024 
L 226.314041 119.061183 
L 226.536865 143.568068 
L 226.759689 141.217499 
L 226.982513 135.226289 
L 227.205337 118.026862 
L 227.873809 120.219336 
L 228.319457 115.102219 
L 228.542281 115.671982 
L 228.765105 110.210738 
L 229.433577 150.783255 
L 229.879224 139.362429 
L 230.324872 119.316098 
L 231.216168 149.401722 
L 231.438992 139.172116 
L 231.661816 113.479892 
L 231.88464 115.767945 
L 232.775936 147.742875 
L 233.221584 109.283608 
L 233.444408 130.888786 
L 234.335704 125.398155 
L 234.558528 151.202669 
L 234.781352 122.787992 
L 235.004176 121.856445 
L 235.672648 117.134231 
L 235.895472 137.713198 
L 236.118296 180.816777 
L 236.34112 117.549846 
L 236.563944 132.394334 
L 237.232416 133.399027 
L 237.45524 152.671757 
L 237.678064 104.244152 
L 237.900888 85.130801 
L 238.123712 124.313827 
L 238.792184 122.026617 
L 239.015008 119.414695 
L 239.237832 98.366733 
L 239.460656 117.330648 
L 239.68348 113.750381 
L 240.574776 112.53277 
L 240.7976 157.046202 
L 241.243248 146.185875 
L 241.91172 95.410203 
L 242.357368 150.448918 
L 242.580192 152.122091 
L 242.803016 151.259663 
L 243.471488 169.772434 
L 243.917136 87.721628 
L 244.13996 145.940189 
L 244.362783 130.064612 
L 245.031255 128.871213 
L 245.476903 120.302188 
L 245.699727 122.364844 
L 245.922551 125.768133 
L 246.591023 117.926594 
L 246.813847 112.927829 
L 247.036671 142.916681 
L 247.259495 131.865109 
L 247.482319 111.585398 
L 248.373615 120.655871 
L 248.596439 127.141456 
L 248.819263 111.141437 
L 249.710559 130.544602 
L 250.156207 108.671391 
L 250.379031 119.560079 
L 250.601855 111.500389 
L 251.270327 118.722725 
L 251.493151 133.249766 
L 251.715975 134.45298 
L 251.938799 146.205076 
L 252.161623 143.375523 
L 252.830095 155.800224 
L 253.052919 150.215417 
L 253.275743 136.010964 
L 253.498567 113.109657 
L 253.721391 112.382868 
L 254.389863 120.390515 
L 254.612687 113.093166 
L 254.835511 132.49629 
L 255.058335 99.707419 
L 255.281159 94.697507 
L 255.949631 143.288675 
L 256.172455 137.716387 
L 256.395279 141.029092 
L 256.618103 118.958017 
L 256.840927 126.288374 
L 257.509399 120.129967 
L 257.732223 176.544653 
L 258.177871 112.308463 
L 258.400695 133.49971 
L 259.069166 143.587421 
L 259.29199 136.162391 
L 259.514814 137.200339 
L 259.960462 119.762705 
L 260.628934 116.417298 
L 260.851758 123.266308 
L 261.074582 106.004962 
L 261.297406 117.813129 
L 261.52023 121.652798 
L 262.411526 117.732568 
L 262.63435 112.97747 
L 262.857174 119.841434 
L 263.079998 115.525505 
L 263.74847 144.034182 
L 263.971294 138.731109 
L 264.194118 149.966576 
L 264.639766 115.58427 
L 265.308238 136.766388 
L 265.753886 117.800001 
L 265.97671 149.115729 
L 266.199534 140.278736 
L 266.868006 120.962487 
L 267.09083 144.463651 
L 267.313654 119.949463 
L 267.536478 135.426056 
L 267.759302 168.67254 
L 268.427774 143.559058 
L 268.650598 111.718987 
L 269.096246 148.436996 
L 269.31907 148.393688 
L 269.987542 141.019512 
L 270.210366 83.717911 
L 270.43319 94.630464 
L 270.878838 143.291808 
L 271.54731 130.443687 
L 271.770134 143.982991 
L 271.992958 131.174239 
L 272.215782 146.887958 
L 272.438606 128.049442 
L 273.107077 172.935925 
L 273.329901 129.214751 
L 273.552725 151.099471 
L 273.775549 144.393221 
L 273.998373 162.07538 
L 274.889669 136.858061 
L 275.112493 177.470168 
L 275.335317 141.332635 
L 275.558141 141.248001 
L 276.226613 134.822118 
L 276.449437 143.823452 
L 276.672261 214.163489 
L 277.117909 81.149589 
L 277.786381 143.089508 
L 278.009205 92.484115 
L 278.232029 110.252502 
L 278.454853 92.875782 
L 278.677677 100.849609 
L 279.346149 108.119618 
L 279.568973 127.254272 
L 279.791797 127.536085 
L 280.014621 102.758568 
L 280.237445 102.083419 
L 280.905917 115.408143 
L 281.128741 103.232181 
L 281.351565 111.009839 
L 281.574389 105.030474 
L 281.797213 108.144615 
L 282.465685 125.939353 
L 282.688509 115.858344 
L 282.911333 99.658391 
L 283.134157 112.032043 
L 283.356981 106.26484 
L 284.248277 110.877265 
L 284.471101 115.265235 
L 284.693925 113.003403 
L 284.916749 95.505309 
L 285.585221 107.480855 
L 285.808045 115.812412 
L 286.030869 147.394337 
L 286.253693 153.009931 
L 286.476517 123.27195 
L 287.144989 117.777183 
L 287.590636 128.738065 
L 287.81346 144.445342 
L 288.036284 97.743031 
L 288.704756 120.145424 
L 288.92758 137.053949 
L 289.150404 137.807307 
L 289.373228 151.484643 
L 289.596052 147.758942 
L 290.264524 156.426835 
L 290.487348 180.713758 
L 290.710172 165.247439 
L 290.932996 211.91299 
L 291.15582 144.191073 
L 291.824292 142.577711 
L 292.047116 148.943189 
L 292.492764 121.108993 
L 292.715588 97.480711 
L 293.606884 144.42951 
L 294.052532 115.529318 
L 294.275356 123.187405 
L 294.943828 112.275197 
L 295.389476 77.465918 
L 295.6123 74.404651 
L 295.835124 113.879705 
L 296.503596 102.755828 
L 296.72642 216.843285 
L 296.949244 57.277025 
L 297.394892 132.891632 
L 298.063364 142.894363 
L 298.286188 122.20983 
L 298.509012 142.861625 
L 298.731836 109.375515 
L 298.95466 106.662569 
L 299.623132 144.601694 
L 299.845956 94.205956 
L 300.06878 129.821444 
L 300.291604 94.461948 
L 300.514428 128.746303 
L 301.1829 129.262992 
L 301.405724 111.615295 
L 301.628548 120.298992 
L 301.851371 97.192911 
L 302.074195 115.05593 
L 302.742667 120.156637 
L 302.965491 109.460675 
L 303.188315 109.023681 
L 303.633963 114.098847 
L 304.302435 129.054408 
L 304.525259 120.917674 
L 304.748083 117.103852 
L 304.970907 108.218782 
L 305.193731 149.011573 
L 306.085027 105.943782 
L 306.307851 108.021372 
L 306.530675 120.614243 
L 306.753499 119.489673 
L 307.421971 124.027932 
L 307.644795 107.662302 
L 308.090443 144.011977 
L 308.313267 54.436427 
L 308.981739 119.428325 
L 309.204563 120.546128 
L 309.650211 108.164558 
L 309.873035 115.478969 
L 310.764331 126.389391 
L 311.209979 125.128817 
L 311.432803 131.307595 
L 312.101275 139.636317 
L 312.324099 135.185457 
L 312.546923 146.334899 
L 312.769747 92.716328 
L 312.992571 123.486639 
L 313.883867 107.487024 
L 314.106691 141.38505 
L 314.329515 146.664071 
L 314.552339 131.553397 
L 315.443635 139.429325 
L 315.666459 150.57699 
L 315.889283 145.433856 
L 316.112107 128.723025 
L 316.780578 129.614803 
L 317.003402 124.660332 
L 317.226226 124.081048 
L 317.44905 144.192273 
L 317.671874 114.715897 
L 318.56317 133.25936 
L 318.785994 111.289474 
L 319.008818 101.233364 
L 319.231642 122.394177 
L 319.900114 121.196759 
L 320.122938 119.668898 
L 320.345762 106.985818 
L 320.568586 148.566055 
L 320.79141 120.956161 
L 321.682706 124.829185 
L 321.90553 118.875462 
L 322.128354 101.280183 
L 322.351178 138.167861 
L 323.01965 127.941692 
L 323.242474 111.937268 
L 323.465298 143.079164 
L 323.688122 137.202271 
L 323.910946 117.079478 
L 324.579418 119.2908 
L 324.802242 149.586679 
L 325.025066 117.618723 
L 325.24789 128.181368 
L 325.470714 120.885242 
L 326.139186 145.404432 
L 326.36201 133.851721 
L 326.584834 166.324538 
L 327.030482 111.336714 
L 327.698954 143.492284 
L 327.921778 136.112165 
L 328.144602 123.176611 
L 328.367426 150.205624 
L 328.59025 134.012957 
L 329.258722 121.619921 
L 329.481546 111.448598 
L 329.70437 119.493362 
L 329.927194 114.213106 
L 330.150018 134.324154 
L 330.818489 123.594672 
L 331.041313 150.725709 
L 331.264137 135.232151 
L 331.486961 100.72192 
L 331.709785 125.927785 
L 332.378257 129.528048 
L 332.601081 146.100081 
L 333.046729 112.372548 
L 333.269553 110.327228 
L 333.938025 110.599922 
L 334.160849 144.676506 
L 334.606497 110.462489 
L 335.943441 153.159636 
L 336.166265 108.032864 
L 336.389089 136.473506 
L 337.280385 128.576267 
L 337.503209 132.786576 
L 337.726033 125.12497 
L 337.948857 141.114505 
L 338.617329 77.700471 
L 338.840153 126.82392 
L 339.062977 131.063144 
L 339.285801 120.188462 
L 339.508625 127.51054 
L 340.177097 132.116621 
L 340.399921 131.676908 
L 340.622745 121.508912 
L 340.845569 124.794521 
L 341.068393 120.353056 
L 341.736865 116.285117 
L 341.959689 96.434357 
L 342.628161 143.438513 
L 343.519457 133.123025 
L 343.742281 117.087056 
L 343.965105 143.05056 
L 344.187929 135.238732 
L 344.856401 119.837977 
L 345.079224 134.676255 
L 345.302048 128.070275 
L 345.524872 143.525879 
L 345.747696 124.967449 
L 346.638992 91.254173 
L 346.861816 128.277151 
L 347.08464 132.225938 
L 347.307464 118.084384 
L 347.975936 134.1941 
L 348.19876 131.130745 
L 348.421584 143.177088 
L 348.867232 103.199687 
L 349.535704 110.013056 
L 349.758528 130.076191 
L 349.981352 120.062293 
L 350.204176 124.753785 
L 350.427 144.387638 
L 351.095472 109.10635 
L 351.318296 138.910353 
L 351.54112 111.660021 
L 351.763944 145.681363 
L 352.65524 158.825093 
L 352.878064 125.566114 
L 353.100888 118.484034 
L 353.323712 142.098001 
L 353.546536 122.706799 
L 354.215008 134.611271 
L 354.437832 147.5229 
L 354.660656 138.522697 
L 354.88348 118.929425 
L 355.106304 142.707138 
L 355.774776 132.929899 
L 355.9976 117.26002 
L 356.220424 110.219037 
L 356.443248 110.005469 
L 356.666072 161.176492 
L 357.334544 130.346264 
L 357.557368 113.523799 
L 357.780192 149.597821 
L 358.003016 110.69061 
L 358.22584 126.445204 
L 358.894312 107.965374 
L 359.117136 141.542757 
L 359.33996 125.793067 
L 359.562783 126.497319 
L 359.785607 109.974438 
L 360.454079 104.268329 
L 360.676903 111.842879 
L 360.899727 125.223436 
L 361.122551 124.983674 
L 361.345375 131.843666 
L 362.236671 119.782114 
L 362.459495 118.71294 
L 362.682319 131.639273 
L 362.905143 115.460856 
L 363.573615 110.852301 
L 363.796439 112.075616 
L 364.019263 112.4152 
L 364.242087 111.179812 
L 364.464911 143.579862 
L 365.356207 154.382407 
L 365.579031 146.136222 
L 366.024679 119.233563 
L 366.915975 142.04365 
L 367.584447 112.583251 
L 368.252919 102.201157 
L 368.698567 139.825836 
L 368.921391 126.94885 
L 369.144215 136.20962 
L 369.812687 129.926336 
L 370.035511 166.344721 
L 370.258335 132.942931 
L 370.481159 151.543352 
L 370.703983 114.18239 
L 371.372455 147.889865 
L 371.818103 119.810045 
L 372.040927 142.185308 
L 372.263751 134.149661 
L 372.932223 139.219074 
L 373.155047 148.029389 
L 373.377871 139.050262 
L 373.600695 125.27448 
L 373.823518 135.371134 
L 374.49199 130.367913 
L 374.714814 134.896371 
L 374.937638 154.438595 
L 375.160462 107.716055 
L 375.383286 119.558085 
L 376.274582 134.041827 
L 376.497406 137.414956 
L 376.72023 116.66975 
L 376.943054 118.838676 
L 377.611526 136.00353 
L 377.83435 70.165014 
L 378.057174 113.091031 
L 378.279998 126.052241 
L 378.502822 121.035672 
L 379.171294 121.987572 
L 379.394118 138.135946 
L 379.616942 132.003997 
L 379.839766 135.359187 
L 380.06259 127.786254 
L 380.731062 117.250124 
L 380.953886 133.075248 
L 381.17671 132.083712 
L 381.399534 149.005074 
L 381.622358 127.216021 
L 382.29083 137.079918 
L 382.513654 146.713897 
L 382.736478 110.50838 
L 382.959302 125.691336 
L 383.850598 115.470071 
L 384.073422 111.146566 
L 384.296246 112.547569 
L 384.741894 128.572522 
L 385.410366 131.171409 
L 385.63319 137.41074 
L 385.856014 136.258682 
L 386.078838 129.188116 
L 386.301662 115.795864 
L 386.970134 135.62075 
L 387.192958 138.043594 
L 387.415782 138.250439 
L 387.638606 114.263636 
L 387.86143 136.869013 
L 388.529901 145.428085 
L 388.752725 134.500477 
L 388.975549 161.652695 
L 389.421197 114.377915 
L 390.089669 110.75592 
L 390.312493 120.907023 
L 390.535317 116.014016 
L 390.980965 110.972504 
L 391.649437 120.369972 
L 391.872261 119.078376 
L 392.095085 128.717515 
L 392.095085 128.717515 
" style="fill:none;opacity:0.5;stroke:#348abd;stroke-linecap:square;stroke-width:1.5;"/>
   </g>
   <g id="patch_3">
    <path d="M 51.207813 290.25375 
L 51.207813 24.14175 
" style="fill:none;stroke:#ffffff;stroke-linecap:square;stroke-linejoin:miter;"/>
   </g>
   <g id="patch_4">
    <path d="M 408.327813 290.25375 
L 408.327813 24.14175 
" style="fill:none;stroke:#ffffff;stroke-linecap:square;stroke-linejoin:miter;"/>
   </g>
   <g id="patch_5">
    <path d="M 51.207813 290.25375 
L 408.327813 290.25375 
" style="fill:none;stroke:#ffffff;stroke-linecap:square;stroke-linejoin:miter;"/>
   </g>
   <g id="patch_6">
    <path d="M 51.207813 24.14175 
L 408.327813 24.14175 
" style="fill:none;stroke:#ffffff;stroke-linecap:square;stroke-linejoin:miter;"/>
   </g>
   <g id="text_17">
    <!-- Daily Return -->
    <defs>
     <path d="M 19.671875 64.796875 
L 19.671875 8.109375 
L 31.59375 8.109375 
Q 46.6875 8.109375 53.6875 14.9375 
Q 60.6875 21.78125 60.6875 36.53125 
Q 60.6875 51.171875 53.6875 57.984375 
Q 46.6875 64.796875 31.59375 64.796875 
z
M 9.8125 72.90625 
L 30.078125 72.90625 
Q 51.265625 72.90625 61.171875 64.09375 
Q 71.09375 55.28125 71.09375 36.53125 
Q 71.09375 17.671875 61.125 8.828125 
Q 51.171875 0 30.078125 0 
L 9.8125 0 
z
" id="DejaVuSans-44"/>
     <path d="M 34.28125 27.484375 
Q 23.390625 27.484375 19.1875 25 
Q 14.984375 22.515625 14.984375 16.5 
Q 14.984375 11.71875 18.140625 8.90625 
Q 21.296875 6.109375 26.703125 6.109375 
Q 34.1875 6.109375 38.703125 11.40625 
Q 43.21875 16.703125 43.21875 25.484375 
L 43.21875 27.484375 
z
M 52.203125 31.203125 
L 52.203125 0 
L 43.21875 0 
L 43.21875 8.296875 
Q 40.140625 3.328125 35.546875 0.953125 
Q 30.953125 -1.421875 24.3125 -1.421875 
Q 15.921875 -1.421875 10.953125 3.296875 
Q 6 8.015625 6 15.921875 
Q 6 25.140625 12.171875 29.828125 
Q 18.359375 34.515625 30.609375 34.515625 
L 43.21875 34.515625 
L 43.21875 35.40625 
Q 43.21875 41.609375 39.140625 45 
Q 35.0625 48.390625 27.6875 48.390625 
Q 23 48.390625 18.546875 47.265625 
Q 14.109375 46.140625 10.015625 43.890625 
L 10.015625 52.203125 
Q 14.9375 54.109375 19.578125 55.046875 
Q 24.21875 56 28.609375 56 
Q 40.484375 56 46.34375 49.84375 
Q 52.203125 43.703125 52.203125 31.203125 
" id="DejaVuSans-61"/>
     <path d="M 9.421875 54.6875 
L 18.40625 54.6875 
L 18.40625 0 
L 9.421875 0 
z
M 9.421875 75.984375 
L 18.40625 75.984375 
L 18.40625 64.59375 
L 9.421875 64.59375 
z
" id="DejaVuSans-69"/>
     <path d="M 9.421875 75.984375 
L 18.40625 75.984375 
L 18.40625 0 
L 9.421875 0 
z
" id="DejaVuSans-6c"/>
     <path d="M 32.171875 -5.078125 
Q 28.375 -14.84375 24.75 -17.8125 
Q 21.140625 -20.796875 15.09375 -20.796875 
L 7.90625 -20.796875 
L 7.90625 -13.28125 
L 13.1875 -13.28125 
Q 16.890625 -13.28125 18.9375 -11.515625 
Q 21 -9.765625 23.484375 -3.21875 
L 25.09375 0.875 
L 2.984375 54.6875 
L 12.5 54.6875 
L 29.59375 11.921875 
L 46.6875 54.6875 
L 56.203125 54.6875 
z
" id="DejaVuSans-79"/>
     <path id="DejaVuSans-20"/>
     <path d="M 44.390625 34.1875 
Q 47.5625 33.109375 50.5625 29.59375 
Q 53.5625 26.078125 56.59375 19.921875 
L 66.609375 0 
L 56 0 
L 46.6875 18.703125 
Q 43.0625 26.03125 39.671875 28.421875 
Q 36.28125 30.8125 30.421875 30.8125 
L 19.671875 30.8125 
L 19.671875 0 
L 9.8125 0 
L 9.8125 72.90625 
L 32.078125 72.90625 
Q 44.578125 72.90625 50.734375 67.671875 
Q 56.890625 62.453125 56.890625 51.90625 
Q 56.890625 45.015625 53.6875 40.46875 
Q 50.484375 35.9375 44.390625 34.1875 
M 19.671875 64.796875 
L 19.671875 38.921875 
L 32.078125 38.921875 
Q 39.203125 38.921875 42.84375 42.21875 
Q 46.484375 45.515625 46.484375 51.90625 
Q 46.484375 58.296875 42.84375 61.546875 
Q 39.203125 64.796875 32.078125 64.796875 
z
" id="DejaVuSans-52"/>
     <path d="M 56.203125 29.59375 
L 56.203125 25.203125 
L 14.890625 25.203125 
Q 15.484375 15.921875 20.484375 11.0625 
Q 25.484375 6.203125 34.421875 6.203125 
Q 39.59375 6.203125 44.453125 7.46875 
Q 49.3125 8.734375 54.109375 11.28125 
L 54.109375 2.78125 
Q 49.265625 0.734375 44.1875 -0.34375 
Q 39.109375 -1.421875 33.890625 -1.421875 
Q 20.796875 -1.421875 13.15625 6.1875 
Q 5.515625 13.8125 5.515625 26.8125 
Q 5.515625 40.234375 12.765625 48.109375 
Q 20.015625 56 32.328125 56 
Q 43.359375 56 49.78125 48.890625 
Q 56.203125 41.796875 56.203125 29.59375 
M 47.21875 32.234375 
Q 47.125 39.59375 43.09375 43.984375 
Q 39.0625 48.390625 32.421875 48.390625 
Q 24.90625 48.390625 20.390625 44.140625 
Q 15.875 39.890625 15.1875 32.171875 
z
" id="DejaVuSans-65"/>
     <path d="M 18.3125 70.21875 
L 18.3125 54.6875 
L 36.8125 54.6875 
L 36.8125 47.703125 
L 18.3125 47.703125 
L 18.3125 18.015625 
Q 18.3125 11.328125 20.140625 9.421875 
Q 21.96875 7.515625 27.59375 7.515625 
L 36.8125 7.515625 
L 36.8125 0 
L 27.59375 0 
Q 17.1875 0 13.234375 3.875 
Q 9.28125 7.765625 9.28125 18.015625 
L 9.28125 47.703125 
L 2.6875 47.703125 
L 2.6875 54.6875 
L 9.28125 54.6875 
L 9.28125 70.21875 
z
" id="DejaVuSans-74"/>
     <path d="M 8.5 21.578125 
L 8.5 54.6875 
L 17.484375 54.6875 
L 17.484375 21.921875 
Q 17.484375 14.15625 20.5 10.265625 
Q 23.53125 6.390625 29.59375 6.390625 
Q 36.859375 6.390625 41.078125 11.03125 
Q 45.3125 15.671875 45.3125 23.6875 
L 45.3125 54.6875 
L 54.296875 54.6875 
L 54.296875 0 
L 45.3125 0 
L 45.3125 8.40625 
Q 42.046875 3.421875 37.71875 1 
Q 33.40625 -1.421875 27.6875 -1.421875 
Q 18.265625 -1.421875 13.375 4.4375 
Q 8.5 10.296875 8.5 21.578125 
M 31.109375 56 
z
" id="DejaVuSans-75"/>
     <path d="M 41.109375 46.296875 
Q 39.59375 47.171875 37.8125 47.578125 
Q 36.03125 48 33.890625 48 
Q 26.265625 48 22.1875 43.046875 
Q 18.109375 38.09375 18.109375 28.8125 
L 18.109375 0 
L 9.078125 0 
L 9.078125 54.6875 
L 18.109375 54.6875 
L 18.109375 46.1875 
Q 20.953125 51.171875 25.484375 53.578125 
Q 30.03125 56 36.53125 56 
Q 37.453125 56 38.578125 55.875 
Q 39.703125 55.765625 41.0625 55.515625 
z
" id="DejaVuSans-72"/>
     <path d="M 54.890625 33.015625 
L 54.890625 0 
L 45.90625 0 
L 45.90625 32.71875 
Q 45.90625 40.484375 42.875 44.328125 
Q 39.84375 48.1875 33.796875 48.1875 
Q 26.515625 48.1875 22.3125 43.546875 
Q 18.109375 38.921875 18.109375 30.90625 
L 18.109375 0 
L 9.078125 0 
L 9.078125 54.6875 
L 18.109375 54.6875 
L 18.109375 46.1875 
Q 21.34375 51.125 25.703125 53.5625 
Q 30.078125 56 35.796875 56 
Q 45.21875 56 50.046875 50.171875 
Q 54.890625 44.34375 54.890625 33.015625 
" id="DejaVuSans-6e"/>
    </defs>
    <g transform="translate(184.925313 18.14175)scale(0.144 -0.144)">
     <use xlink:href="#DejaVuSans-44"/>
     <use x="77.001953" xlink:href="#DejaVuSans-61"/>
     <use x="138.28125" xlink:href="#DejaVuSans-69"/>
     <use x="166.064453" xlink:href="#DejaVuSans-6c"/>
     <use x="193.847656" xlink:href="#DejaVuSans-79"/>
     <use x="253.027344" xlink:href="#DejaVuSans-20"/>
     <use x="284.814453" xlink:href="#DejaVuSans-52"/>
     <use x="354.234375" xlink:href="#DejaVuSans-65"/>
     <use x="415.757812" xlink:href="#DejaVuSans-74"/>
     <use x="454.966797" xlink:href="#DejaVuSans-75"/>
     <use x="518.345703" xlink:href="#DejaVuSans-72"/>
     <use x="559.443359" xlink:href="#DejaVuSans-6e"/>
    </g>
   </g>
   <g id="legend_1">
    <g id="patch_7">
     <path d="M 329.2825 61.498 
L 401.327813 61.498 
Q 403.327813 61.498 403.327813 59.498 
L 403.327813 31.14175 
Q 403.327813 29.14175 401.327813 29.14175 
L 329.2825 29.14175 
Q 327.2825 29.14175 327.2825 31.14175 
L 327.2825 59.498 
Q 327.2825 61.498 329.2825 61.498 
z
" style="fill:#e5e5e5;opacity:0.8;stroke:#cccccc;stroke-linejoin:miter;stroke-width:0.5;"/>
    </g>
    <g id="line2d_35">
     <path d="M 331.2825 37.240187 
L 351.2825 37.240187 
" style="fill:none;opacity:0.5;stroke:#e24a33;stroke-linecap:square;stroke-width:1.5;"/>
    </g>
    <g id="line2d_36"/>
    <g id="text_18">
     <!-- Market -->
     <defs>
      <path d="M 9.8125 72.90625 
L 24.515625 72.90625 
L 43.109375 23.296875 
L 61.8125 72.90625 
L 76.515625 72.90625 
L 76.515625 0 
L 66.890625 0 
L 66.890625 64.015625 
L 48.09375 14.015625 
L 38.1875 14.015625 
L 19.390625 64.015625 
L 19.390625 0 
L 9.8125 0 
z
" id="DejaVuSans-4d"/>
      <path d="M 9.078125 75.984375 
L 18.109375 75.984375 
L 18.109375 31.109375 
L 44.921875 54.6875 
L 56.390625 54.6875 
L 27.390625 29.109375 
L 57.625 0 
L 45.90625 0 
L 18.109375 26.703125 
L 18.109375 0 
L 9.078125 0 
z
" id="DejaVuSans-6b"/>
     </defs>
     <g transform="translate(359.2825 40.740187)scale(0.1 -0.1)">
      <use xlink:href="#DejaVuSans-4d"/>
      <use x="86.279297" xlink:href="#DejaVuSans-61"/>
      <use x="147.558594" xlink:href="#DejaVuSans-72"/>
      <use x="188.671875" xlink:href="#DejaVuSans-6b"/>
      <use x="246.535156" xlink:href="#DejaVuSans-65"/>
      <use x="308.058594" xlink:href="#DejaVuSans-74"/>
     </g>
    </g>
    <g id="line2d_37">
     <path d="M 331.2825 51.918312 
L 351.2825 51.918312 
" style="fill:none;opacity:0.5;stroke:#348abd;stroke-linecap:square;stroke-width:1.5;"/>
    </g>
    <g id="line2d_38"/>
    <g id="text_19">
     <!-- Model A -->
     <defs>
      <path d="M 30.609375 48.390625 
Q 23.390625 48.390625 19.1875 42.75 
Q 14.984375 37.109375 14.984375 27.296875 
Q 14.984375 17.484375 19.15625 11.84375 
Q 23.34375 6.203125 30.609375 6.203125 
Q 37.796875 6.203125 41.984375 11.859375 
Q 46.1875 17.53125 46.1875 27.296875 
Q 46.1875 37.015625 41.984375 42.703125 
Q 37.796875 48.390625 30.609375 48.390625 
M 30.609375 56 
Q 42.328125 56 49.015625 48.375 
Q 55.71875 40.765625 55.71875 27.296875 
Q 55.71875 13.875 49.015625 6.21875 
Q 42.328125 -1.421875 30.609375 -1.421875 
Q 18.84375 -1.421875 12.171875 6.21875 
Q 5.515625 13.875 5.515625 27.296875 
Q 5.515625 40.765625 12.171875 48.375 
Q 18.84375 56 30.609375 56 
" id="DejaVuSans-6f"/>
      <path d="M 45.40625 46.390625 
L 45.40625 75.984375 
L 54.390625 75.984375 
L 54.390625 0 
L 45.40625 0 
L 45.40625 8.203125 
Q 42.578125 3.328125 38.25 0.953125 
Q 33.9375 -1.421875 27.875 -1.421875 
Q 17.96875 -1.421875 11.734375 6.484375 
Q 5.515625 14.40625 5.515625 27.296875 
Q 5.515625 40.1875 11.734375 48.09375 
Q 17.96875 56 27.875 56 
Q 33.9375 56 38.25 53.625 
Q 42.578125 51.265625 45.40625 46.390625 
M 14.796875 27.296875 
Q 14.796875 17.390625 18.875 11.75 
Q 22.953125 6.109375 30.078125 6.109375 
Q 37.203125 6.109375 41.296875 11.75 
Q 45.40625 17.390625 45.40625 27.296875 
Q 45.40625 37.203125 41.296875 42.84375 
Q 37.203125 48.484375 30.078125 48.484375 
Q 22.953125 48.484375 18.875 42.84375 
Q 14.796875 37.203125 14.796875 27.296875 
" id="DejaVuSans-64"/>
      <path d="M 34.1875 63.1875 
L 20.796875 26.90625 
L 47.609375 26.90625 
z
M 28.609375 72.90625 
L 39.796875 72.90625 
L 67.578125 0 
L 57.328125 0 
L 50.6875 18.703125 
L 17.828125 18.703125 
L 11.1875 0 
L 0.78125 0 
z
" id="DejaVuSans-41"/>
     </defs>
     <g transform="translate(359.2825 55.418312)scale(0.1 -0.1)">
      <use xlink:href="#DejaVuSans-4d"/>
      <use x="86.279297" xlink:href="#DejaVuSans-6f"/>
      <use x="147.460938" xlink:href="#DejaVuSans-64"/>
      <use x="210.9375" xlink:href="#DejaVuSans-65"/>
      <use x="272.460938" xlink:href="#DejaVuSans-6c"/>
      <use x="300.244141" xlink:href="#DejaVuSans-20"/>
      <use x="332.03125" xlink:href="#DejaVuSans-41"/>
     </g>
    </g>
   </g>
  </g>
 </g>
 <defs>
  <clipPath id="pc1e6d33cc9">
   <rect height="266.112" width="357.12" x="51.207813" y="24.14175"/>
  </clipPath>
 </defs>
</svg>
