<?xml version="1.0" encoding="utf-8" standalone="no"?>
<!DOCTYPE svg PUBLIC "-//W3C//DTD SVG 1.1//EN"
  "http://www.w3.org/Graphics/SVG/1.1/DTD/svg11.dtd">
<!-- Created with matplotlib (http://matplotlib.org/) -->
<svg height="340pt" version="1.1" viewBox="0 0 406 340" width="406pt" xmlns="http://www.w3.org/2000/svg" xmlns:xlink="http://www.w3.org/1999/xlink">
 <defs>
  <style type="text/css">
*{stroke-linecap:butt;stroke-linejoin:round;}
  </style>
 </defs>
 <g id="figure_1">
  <g id="patch_1">
   <path d="M 0 340.842128 
L 406.302813 340.842128 
L 406.302813 0 
L 0 0 
z
" style="fill:#ffffff;"/>
  </g>
  <g id="axes_1">
   <g id="patch_2">
    <path d="M 38.482813 290.25375 
L 395.602813 290.25375 
L 395.602813 24.14175 
L 38.482813 24.14175 
z
" style="fill:#e5e5e5;"/>
   </g>
   <g id="matplotlib.axis_1">
    <g id="xtick_1">
     <g id="line2d_1">
      <path clip-path="url(#p295d7eaf52)" d="M 47.139524 290.25375 
L 47.139524 24.14175 
" style="fill:none;stroke:#ffffff;stroke-linecap:square;stroke-width:0.8;"/>
     </g>
     <g id="line2d_2">
      <defs>
       <path d="M 0 0 
L 0 3.5 
" id="ma5dc6c07f4" style="stroke:#555555;stroke-width:0.8;"/>
      </defs>
      <g>
       <use style="fill:#555555;stroke:#555555;stroke-width:0.8;" x="47.139524" xlink:href="#ma5dc6c07f4" y="290.25375"/>
      </g>
     </g>
     <g id="text_1">
      <!-- 1999-12 -->
      <defs>
       <path d="M 12.40625 8.296875 
L 28.515625 8.296875 
L 28.515625 63.921875 
L 10.984375 60.40625 
L 10.984375 69.390625 
L 28.421875 72.90625 
L 38.28125 72.90625 
L 38.28125 8.296875 
L 54.390625 8.296875 
L 54.390625 0 
L 12.40625 0 
z
" id="DejaVuSans-31"/>
       <path d="M 10.984375 1.515625 
L 10.984375 10.5 
Q 14.703125 8.734375 18.5 7.8125 
Q 22.3125 6.890625 25.984375 6.890625 
Q 35.75 6.890625 40.890625 13.453125 
Q 46.046875 20.015625 46.78125 33.40625 
Q 43.953125 29.203125 39.59375 26.953125 
Q 35.25 24.703125 29.984375 24.703125 
Q 19.046875 24.703125 12.671875 31.3125 
Q 6.296875 37.9375 6.296875 49.421875 
Q 6.296875 60.640625 12.9375 67.421875 
Q 19.578125 74.21875 30.609375 74.21875 
Q 43.265625 74.21875 49.921875 64.515625 
Q 56.59375 54.828125 56.59375 36.375 
Q 56.59375 19.140625 48.40625 8.859375 
Q 40.234375 -1.421875 26.421875 -1.421875 
Q 22.703125 -1.421875 18.890625 -0.6875 
Q 15.09375 0.046875 10.984375 1.515625 
M 30.609375 32.421875 
Q 37.25 32.421875 41.125 36.953125 
Q 45.015625 41.5 45.015625 49.421875 
Q 45.015625 57.28125 41.125 61.84375 
Q 37.25 66.40625 30.609375 66.40625 
Q 23.96875 66.40625 20.09375 61.84375 
Q 16.21875 57.28125 16.21875 49.421875 
Q 16.21875 41.5 20.09375 36.953125 
Q 23.96875 32.421875 30.609375 32.421875 
" id="DejaVuSans-39"/>
       <path d="M 4.890625 31.390625 
L 31.203125 31.390625 
L 31.203125 23.390625 
L 4.890625 23.390625 
z
" id="DejaVuSans-2d"/>
       <path d="M 19.1875 8.296875 
L 53.609375 8.296875 
L 53.609375 0 
L 7.328125 0 
L 7.328125 8.296875 
Q 12.9375 14.109375 22.625 23.890625 
Q 32.328125 33.6875 34.8125 36.53125 
Q 39.546875 41.84375 41.421875 45.53125 
Q 43.3125 49.21875 43.3125 52.78125 
Q 43.3125 58.59375 39.234375 62.25 
Q 35.15625 65.921875 28.609375 65.921875 
Q 23.96875 65.921875 18.8125 64.3125 
Q 13.671875 62.703125 7.8125 59.421875 
L 7.8125 69.390625 
Q 13.765625 71.78125 18.9375 73 
Q 24.125 74.21875 28.421875 74.21875 
Q 39.75 74.21875 46.484375 68.546875 
Q 53.21875 62.890625 53.21875 53.421875 
Q 53.21875 48.921875 51.53125 44.890625 
Q 49.859375 40.875 45.40625 35.40625 
Q 44.1875 33.984375 37.640625 27.21875 
Q 31.109375 20.453125 19.1875 8.296875 
" id="DejaVuSans-32"/>
      </defs>
      <g style="fill:#555555;" transform="translate(34.318242 332.171567)rotate(-45)scale(0.1 -0.1)">
       <use xlink:href="#DejaVuSans-31"/>
       <use x="63.623047" xlink:href="#DejaVuSans-39"/>
       <use x="127.246094" xlink:href="#DejaVuSans-39"/>
       <use x="190.869141" xlink:href="#DejaVuSans-39"/>
       <use x="254.492188" xlink:href="#DejaVuSans-2d"/>
       <use x="290.576172" xlink:href="#DejaVuSans-31"/>
       <use x="354.199219" xlink:href="#DejaVuSans-32"/>
      </g>
     </g>
    </g>
    <g id="xtick_2">
     <g id="line2d_3">
      <path clip-path="url(#p295d7eaf52)" d="M 87.916313 290.25375 
L 87.916313 24.14175 
" style="fill:none;stroke:#ffffff;stroke-linecap:square;stroke-width:0.8;"/>
     </g>
     <g id="line2d_4">
      <g>
       <use style="fill:#555555;stroke:#555555;stroke-width:0.8;" x="87.916313" xlink:href="#ma5dc6c07f4" y="290.25375"/>
      </g>
     </g>
     <g id="text_2">
      <!-- 2000-06 -->
      <defs>
       <path d="M 31.78125 66.40625 
Q 24.171875 66.40625 20.328125 58.90625 
Q 16.5 51.421875 16.5 36.375 
Q 16.5 21.390625 20.328125 13.890625 
Q 24.171875 6.390625 31.78125 6.390625 
Q 39.453125 6.390625 43.28125 13.890625 
Q 47.125 21.390625 47.125 36.375 
Q 47.125 51.421875 43.28125 58.90625 
Q 39.453125 66.40625 31.78125 66.40625 
M 31.78125 74.21875 
Q 44.046875 74.21875 50.515625 64.515625 
Q 56.984375 54.828125 56.984375 36.375 
Q 56.984375 17.96875 50.515625 8.265625 
Q 44.046875 -1.421875 31.78125 -1.421875 
Q 19.53125 -1.421875 13.0625 8.265625 
Q 6.59375 17.96875 6.59375 36.375 
Q 6.59375 54.828125 13.0625 64.515625 
Q 19.53125 74.21875 31.78125 74.21875 
" id="DejaVuSans-30"/>
       <path d="M 33.015625 40.375 
Q 26.375 40.375 22.484375 35.828125 
Q 18.609375 31.296875 18.609375 23.390625 
Q 18.609375 15.53125 22.484375 10.953125 
Q 26.375 6.390625 33.015625 6.390625 
Q 39.65625 6.390625 43.53125 10.953125 
Q 47.40625 15.53125 47.40625 23.390625 
Q 47.40625 31.296875 43.53125 35.828125 
Q 39.65625 40.375 33.015625 40.375 
M 52.59375 71.296875 
L 52.59375 62.3125 
Q 48.875 64.0625 45.09375 64.984375 
Q 41.3125 65.921875 37.59375 65.921875 
Q 27.828125 65.921875 22.671875 59.328125 
Q 17.53125 52.734375 16.796875 39.40625 
Q 19.671875 43.65625 24.015625 45.921875 
Q 28.375 48.1875 33.59375 48.1875 
Q 44.578125 48.1875 50.953125 41.515625 
Q 57.328125 34.859375 57.328125 23.390625 
Q 57.328125 12.15625 50.6875 5.359375 
Q 44.046875 -1.421875 33.015625 -1.421875 
Q 20.359375 -1.421875 13.671875 8.265625 
Q 6.984375 17.96875 6.984375 36.375 
Q 6.984375 53.65625 15.1875 63.9375 
Q 23.390625 74.21875 37.203125 74.21875 
Q 40.921875 74.21875 44.703125 73.484375 
Q 48.484375 72.75 52.59375 71.296875 
" id="DejaVuSans-36"/>
      </defs>
      <g style="fill:#555555;" transform="translate(75.095031 332.171567)rotate(-45)scale(0.1 -0.1)">
       <use xlink:href="#DejaVuSans-32"/>
       <use x="63.623047" xlink:href="#DejaVuSans-30"/>
       <use x="127.246094" xlink:href="#DejaVuSans-30"/>
       <use x="190.869141" xlink:href="#DejaVuSans-30"/>
       <use x="254.492188" xlink:href="#DejaVuSans-2d"/>
       <use x="290.576172" xlink:href="#DejaVuSans-30"/>
       <use x="354.199219" xlink:href="#DejaVuSans-36"/>
      </g>
     </g>
    </g>
    <g id="xtick_3">
     <g id="line2d_5">
      <path clip-path="url(#p295d7eaf52)" d="M 128.693103 290.25375 
L 128.693103 24.14175 
" style="fill:none;stroke:#ffffff;stroke-linecap:square;stroke-width:0.8;"/>
     </g>
     <g id="line2d_6">
      <g>
       <use style="fill:#555555;stroke:#555555;stroke-width:0.8;" x="128.693103" xlink:href="#ma5dc6c07f4" y="290.25375"/>
      </g>
     </g>
     <g id="text_3">
      <!-- 2000-12 -->
      <g style="fill:#555555;" transform="translate(115.87182 332.171567)rotate(-45)scale(0.1 -0.1)">
       <use xlink:href="#DejaVuSans-32"/>
       <use x="63.623047" xlink:href="#DejaVuSans-30"/>
       <use x="127.246094" xlink:href="#DejaVuSans-30"/>
       <use x="190.869141" xlink:href="#DejaVuSans-30"/>
       <use x="254.492188" xlink:href="#DejaVuSans-2d"/>
       <use x="290.576172" xlink:href="#DejaVuSans-31"/>
       <use x="354.199219" xlink:href="#DejaVuSans-32"/>
      </g>
     </g>
    </g>
    <g id="xtick_4">
     <g id="line2d_7">
      <path clip-path="url(#p295d7eaf52)" d="M 169.247068 290.25375 
L 169.247068 24.14175 
" style="fill:none;stroke:#ffffff;stroke-linecap:square;stroke-width:0.8;"/>
     </g>
     <g id="line2d_8">
      <g>
       <use style="fill:#555555;stroke:#555555;stroke-width:0.8;" x="169.247068" xlink:href="#ma5dc6c07f4" y="290.25375"/>
      </g>
     </g>
     <g id="text_4">
      <!-- 2001-06 -->
      <g style="fill:#555555;" transform="translate(156.425786 332.171567)rotate(-45)scale(0.1 -0.1)">
       <use xlink:href="#DejaVuSans-32"/>
       <use x="63.623047" xlink:href="#DejaVuSans-30"/>
       <use x="127.246094" xlink:href="#DejaVuSans-30"/>
       <use x="190.869141" xlink:href="#DejaVuSans-31"/>
       <use x="254.492188" xlink:href="#DejaVuSans-2d"/>
       <use x="290.576172" xlink:href="#DejaVuSans-30"/>
       <use x="354.199219" xlink:href="#DejaVuSans-36"/>
      </g>
     </g>
    </g>
    <g id="xtick_5">
     <g id="line2d_9">
      <path clip-path="url(#p295d7eaf52)" d="M 210.023857 290.25375 
L 210.023857 24.14175 
" style="fill:none;stroke:#ffffff;stroke-linecap:square;stroke-width:0.8;"/>
     </g>
     <g id="line2d_10">
      <g>
       <use style="fill:#555555;stroke:#555555;stroke-width:0.8;" x="210.023857" xlink:href="#ma5dc6c07f4" y="290.25375"/>
      </g>
     </g>
     <g id="text_5">
      <!-- 2001-12 -->
      <g style="fill:#555555;" transform="translate(197.202575 332.171567)rotate(-45)scale(0.1 -0.1)">
       <use xlink:href="#DejaVuSans-32"/>
       <use x="63.623047" xlink:href="#DejaVuSans-30"/>
       <use x="127.246094" xlink:href="#DejaVuSans-30"/>
       <use x="190.869141" xlink:href="#DejaVuSans-31"/>
       <use x="254.492188" xlink:href="#DejaVuSans-2d"/>
       <use x="290.576172" xlink:href="#DejaVuSans-31"/>
       <use x="354.199219" xlink:href="#DejaVuSans-32"/>
      </g>
     </g>
    </g>
    <g id="xtick_6">
     <g id="line2d_11">
      <path clip-path="url(#p295d7eaf52)" d="M 250.577822 290.25375 
L 250.577822 24.14175 
" style="fill:none;stroke:#ffffff;stroke-linecap:square;stroke-width:0.8;"/>
     </g>
     <g id="line2d_12">
      <g>
       <use style="fill:#555555;stroke:#555555;stroke-width:0.8;" x="250.577822" xlink:href="#ma5dc6c07f4" y="290.25375"/>
      </g>
     </g>
     <g id="text_6">
      <!-- 2002-06 -->
      <g style="fill:#555555;" transform="translate(237.75654 332.171567)rotate(-45)scale(0.1 -0.1)">
       <use xlink:href="#DejaVuSans-32"/>
       <use x="63.623047" xlink:href="#DejaVuSans-30"/>
       <use x="127.246094" xlink:href="#DejaVuSans-30"/>
       <use x="190.869141" xlink:href="#DejaVuSans-32"/>
       <use x="254.492188" xlink:href="#DejaVuSans-2d"/>
       <use x="290.576172" xlink:href="#DejaVuSans-30"/>
       <use x="354.199219" xlink:href="#DejaVuSans-36"/>
      </g>
     </g>
    </g>
    <g id="xtick_7">
     <g id="line2d_13">
      <path clip-path="url(#p295d7eaf52)" d="M 291.354611 290.25375 
L 291.354611 24.14175 
" style="fill:none;stroke:#ffffff;stroke-linecap:square;stroke-width:0.8;"/>
     </g>
     <g id="line2d_14">
      <g>
       <use style="fill:#555555;stroke:#555555;stroke-width:0.8;" x="291.354611" xlink:href="#ma5dc6c07f4" y="290.25375"/>
      </g>
     </g>
     <g id="text_7">
      <!-- 2002-12 -->
      <g style="fill:#555555;" transform="translate(278.533329 332.171567)rotate(-45)scale(0.1 -0.1)">
       <use xlink:href="#DejaVuSans-32"/>
       <use x="63.623047" xlink:href="#DejaVuSans-30"/>
       <use x="127.246094" xlink:href="#DejaVuSans-30"/>
       <use x="190.869141" xlink:href="#DejaVuSans-32"/>
       <use x="254.492188" xlink:href="#DejaVuSans-2d"/>
       <use x="290.576172" xlink:href="#DejaVuSans-31"/>
       <use x="354.199219" xlink:href="#DejaVuSans-32"/>
      </g>
     </g>
    </g>
    <g id="xtick_8">
     <g id="line2d_15">
      <path clip-path="url(#p295d7eaf52)" d="M 331.908577 290.25375 
L 331.908577 24.14175 
" style="fill:none;stroke:#ffffff;stroke-linecap:square;stroke-width:0.8;"/>
     </g>
     <g id="line2d_16">
      <g>
       <use style="fill:#555555;stroke:#555555;stroke-width:0.8;" x="331.908577" xlink:href="#ma5dc6c07f4" y="290.25375"/>
      </g>
     </g>
     <g id="text_8">
      <!-- 2003-06 -->
      <defs>
       <path d="M 40.578125 39.3125 
Q 47.65625 37.796875 51.625 33 
Q 55.609375 28.21875 55.609375 21.1875 
Q 55.609375 10.40625 48.1875 4.484375 
Q 40.765625 -1.421875 27.09375 -1.421875 
Q 22.515625 -1.421875 17.65625 -0.515625 
Q 12.796875 0.390625 7.625 2.203125 
L 7.625 11.71875 
Q 11.71875 9.328125 16.59375 8.109375 
Q 21.484375 6.890625 26.8125 6.890625 
Q 36.078125 6.890625 40.9375 10.546875 
Q 45.796875 14.203125 45.796875 21.1875 
Q 45.796875 27.640625 41.28125 31.265625 
Q 36.765625 34.90625 28.71875 34.90625 
L 20.21875 34.90625 
L 20.21875 43.015625 
L 29.109375 43.015625 
Q 36.375 43.015625 40.234375 45.921875 
Q 44.09375 48.828125 44.09375 54.296875 
Q 44.09375 59.90625 40.109375 62.90625 
Q 36.140625 65.921875 28.71875 65.921875 
Q 24.65625 65.921875 20.015625 65.03125 
Q 15.375 64.15625 9.8125 62.3125 
L 9.8125 71.09375 
Q 15.4375 72.65625 20.34375 73.4375 
Q 25.25 74.21875 29.59375 74.21875 
Q 40.828125 74.21875 47.359375 69.109375 
Q 53.90625 64.015625 53.90625 55.328125 
Q 53.90625 49.265625 50.4375 45.09375 
Q 46.96875 40.921875 40.578125 39.3125 
" id="DejaVuSans-33"/>
      </defs>
      <g style="fill:#555555;" transform="translate(319.087294 332.171567)rotate(-45)scale(0.1 -0.1)">
       <use xlink:href="#DejaVuSans-32"/>
       <use x="63.623047" xlink:href="#DejaVuSans-30"/>
       <use x="127.246094" xlink:href="#DejaVuSans-30"/>
       <use x="190.869141" xlink:href="#DejaVuSans-33"/>
       <use x="254.492188" xlink:href="#DejaVuSans-2d"/>
       <use x="290.576172" xlink:href="#DejaVuSans-30"/>
       <use x="354.199219" xlink:href="#DejaVuSans-36"/>
      </g>
     </g>
    </g>
    <g id="xtick_9">
     <g id="line2d_17">
      <path clip-path="url(#p295d7eaf52)" d="M 372.685366 290.25375 
L 372.685366 24.14175 
" style="fill:none;stroke:#ffffff;stroke-linecap:square;stroke-width:0.8;"/>
     </g>
     <g id="line2d_18">
      <g>
       <use style="fill:#555555;stroke:#555555;stroke-width:0.8;" x="372.685366" xlink:href="#ma5dc6c07f4" y="290.25375"/>
      </g>
     </g>
     <g id="text_9">
      <!-- 2003-12 -->
      <g style="fill:#555555;" transform="translate(359.864083 332.171567)rotate(-45)scale(0.1 -0.1)">
       <use xlink:href="#DejaVuSans-32"/>
       <use x="63.623047" xlink:href="#DejaVuSans-30"/>
       <use x="127.246094" xlink:href="#DejaVuSans-30"/>
       <use x="190.869141" xlink:href="#DejaVuSans-33"/>
       <use x="254.492188" xlink:href="#DejaVuSans-2d"/>
       <use x="290.576172" xlink:href="#DejaVuSans-31"/>
       <use x="354.199219" xlink:href="#DejaVuSans-32"/>
      </g>
     </g>
    </g>
   </g>
   <g id="matplotlib.axis_2">
    <g id="ytick_1">
     <g id="line2d_19">
      <path clip-path="url(#p295d7eaf52)" d="M 38.482813 284.584711 
L 395.602813 284.584711 
" style="fill:none;stroke:#ffffff;stroke-linecap:square;stroke-width:0.8;"/>
     </g>
     <g id="line2d_20">
      <defs>
       <path d="M 0 0 
L -3.5 0 
" id="m1dfd0db282" style="stroke:#555555;stroke-width:0.8;"/>
      </defs>
      <g>
       <use style="fill:#555555;stroke:#555555;stroke-width:0.8;" x="38.482813" xlink:href="#m1dfd0db282" y="284.584711"/>
      </g>
     </g>
     <g id="text_10">
      <!-- −1.0 -->
      <defs>
       <path d="M 10.59375 35.5 
L 73.1875 35.5 
L 73.1875 27.203125 
L 10.59375 27.203125 
z
" id="DejaVuSans-2212"/>
       <path d="M 10.6875 12.40625 
L 21 12.40625 
L 21 0 
L 10.6875 0 
z
" id="DejaVuSans-2e"/>
      </defs>
      <g style="fill:#555555;" transform="translate(7.2 288.38393)scale(0.1 -0.1)">
       <use xlink:href="#DejaVuSans-2212"/>
       <use x="83.789062" xlink:href="#DejaVuSans-31"/>
       <use x="147.412109" xlink:href="#DejaVuSans-2e"/>
       <use x="179.199219" xlink:href="#DejaVuSans-30"/>
      </g>
     </g>
    </g>
    <g id="ytick_2">
     <g id="line2d_21">
      <path clip-path="url(#p295d7eaf52)" d="M 38.482813 248.233952 
L 395.602813 248.233952 
" style="fill:none;stroke:#ffffff;stroke-linecap:square;stroke-width:0.8;"/>
     </g>
     <g id="line2d_22">
      <g>
       <use style="fill:#555555;stroke:#555555;stroke-width:0.8;" x="38.482813" xlink:href="#m1dfd0db282" y="248.233952"/>
      </g>
     </g>
     <g id="text_11">
      <!-- −0.8 -->
      <defs>
       <path d="M 31.78125 34.625 
Q 24.75 34.625 20.71875 30.859375 
Q 16.703125 27.09375 16.703125 20.515625 
Q 16.703125 13.921875 20.71875 10.15625 
Q 24.75 6.390625 31.78125 6.390625 
Q 38.8125 6.390625 42.859375 10.171875 
Q 46.921875 13.96875 46.921875 20.515625 
Q 46.921875 27.09375 42.890625 30.859375 
Q 38.875 34.625 31.78125 34.625 
M 21.921875 38.8125 
Q 15.578125 40.375 12.03125 44.71875 
Q 8.5 49.078125 8.5 55.328125 
Q 8.5 64.0625 14.71875 69.140625 
Q 20.953125 74.21875 31.78125 74.21875 
Q 42.671875 74.21875 48.875 69.140625 
Q 55.078125 64.0625 55.078125 55.328125 
Q 55.078125 49.078125 51.53125 44.71875 
Q 48 40.375 41.703125 38.8125 
Q 48.828125 37.15625 52.796875 32.3125 
Q 56.78125 27.484375 56.78125 20.515625 
Q 56.78125 9.90625 50.3125 4.234375 
Q 43.84375 -1.421875 31.78125 -1.421875 
Q 19.734375 -1.421875 13.25 4.234375 
Q 6.78125 9.90625 6.78125 20.515625 
Q 6.78125 27.484375 10.78125 32.3125 
Q 14.796875 37.15625 21.921875 38.8125 
M 18.3125 54.390625 
Q 18.3125 48.734375 21.84375 45.5625 
Q 25.390625 42.390625 31.78125 42.390625 
Q 38.140625 42.390625 41.71875 45.5625 
Q 45.3125 48.734375 45.3125 54.390625 
Q 45.3125 60.0625 41.71875 63.234375 
Q 38.140625 66.40625 31.78125 66.40625 
Q 25.390625 66.40625 21.84375 63.234375 
Q 18.3125 60.0625 18.3125 54.390625 
" id="DejaVuSans-38"/>
      </defs>
      <g style="fill:#555555;" transform="translate(7.2 252.033171)scale(0.1 -0.1)">
       <use xlink:href="#DejaVuSans-2212"/>
       <use x="83.789062" xlink:href="#DejaVuSans-30"/>
       <use x="147.412109" xlink:href="#DejaVuSans-2e"/>
       <use x="179.199219" xlink:href="#DejaVuSans-38"/>
      </g>
     </g>
    </g>
    <g id="ytick_3">
     <g id="line2d_23">
      <path clip-path="url(#p295d7eaf52)" d="M 38.482813 211.883193 
L 395.602813 211.883193 
" style="fill:none;stroke:#ffffff;stroke-linecap:square;stroke-width:0.8;"/>
     </g>
     <g id="line2d_24">
      <g>
       <use style="fill:#555555;stroke:#555555;stroke-width:0.8;" x="38.482813" xlink:href="#m1dfd0db282" y="211.883193"/>
      </g>
     </g>
     <g id="text_12">
      <!-- −0.6 -->
      <g style="fill:#555555;" transform="translate(7.2 215.682411)scale(0.1 -0.1)">
       <use xlink:href="#DejaVuSans-2212"/>
       <use x="83.789062" xlink:href="#DejaVuSans-30"/>
       <use x="147.412109" xlink:href="#DejaVuSans-2e"/>
       <use x="179.199219" xlink:href="#DejaVuSans-36"/>
      </g>
     </g>
    </g>
    <g id="ytick_4">
     <g id="line2d_25">
      <path clip-path="url(#p295d7eaf52)" d="M 38.482813 175.532433 
L 395.602813 175.532433 
" style="fill:none;stroke:#ffffff;stroke-linecap:square;stroke-width:0.8;"/>
     </g>
     <g id="line2d_26">
      <g>
       <use style="fill:#555555;stroke:#555555;stroke-width:0.8;" x="38.482813" xlink:href="#m1dfd0db282" y="175.532433"/>
      </g>
     </g>
     <g id="text_13">
      <!-- −0.4 -->
      <defs>
       <path d="M 37.796875 64.3125 
L 12.890625 25.390625 
L 37.796875 25.390625 
z
M 35.203125 72.90625 
L 47.609375 72.90625 
L 47.609375 25.390625 
L 58.015625 25.390625 
L 58.015625 17.1875 
L 47.609375 17.1875 
L 47.609375 0 
L 37.796875 0 
L 37.796875 17.1875 
L 4.890625 17.1875 
L 4.890625 26.703125 
z
" id="DejaVuSans-34"/>
      </defs>
      <g style="fill:#555555;" transform="translate(7.2 179.331652)scale(0.1 -0.1)">
       <use xlink:href="#DejaVuSans-2212"/>
       <use x="83.789062" xlink:href="#DejaVuSans-30"/>
       <use x="147.412109" xlink:href="#DejaVuSans-2e"/>
       <use x="179.199219" xlink:href="#DejaVuSans-34"/>
      </g>
     </g>
    </g>
    <g id="ytick_5">
     <g id="line2d_27">
      <path clip-path="url(#p295d7eaf52)" d="M 38.482813 139.181674 
L 395.602813 139.181674 
" style="fill:none;stroke:#ffffff;stroke-linecap:square;stroke-width:0.8;"/>
     </g>
     <g id="line2d_28">
      <g>
       <use style="fill:#555555;stroke:#555555;stroke-width:0.8;" x="38.482813" xlink:href="#m1dfd0db282" y="139.181674"/>
      </g>
     </g>
     <g id="text_14">
      <!-- −0.2 -->
      <g style="fill:#555555;" transform="translate(7.2 142.980893)scale(0.1 -0.1)">
       <use xlink:href="#DejaVuSans-2212"/>
       <use x="83.789062" xlink:href="#DejaVuSans-30"/>
       <use x="147.412109" xlink:href="#DejaVuSans-2e"/>
       <use x="179.199219" xlink:href="#DejaVuSans-32"/>
      </g>
     </g>
    </g>
    <g id="ytick_6">
     <g id="line2d_29">
      <path clip-path="url(#p295d7eaf52)" d="M 38.482813 102.830915 
L 395.602813 102.830915 
" style="fill:none;stroke:#ffffff;stroke-linecap:square;stroke-width:0.8;"/>
     </g>
     <g id="line2d_30">
      <g>
       <use style="fill:#555555;stroke:#555555;stroke-width:0.8;" x="38.482813" xlink:href="#m1dfd0db282" y="102.830915"/>
      </g>
     </g>
     <g id="text_15">
      <!-- 0.0 -->
      <g style="fill:#555555;" transform="translate(15.579688 106.630133)scale(0.1 -0.1)">
       <use xlink:href="#DejaVuSans-30"/>
       <use x="63.623047" xlink:href="#DejaVuSans-2e"/>
       <use x="95.410156" xlink:href="#DejaVuSans-30"/>
      </g>
     </g>
    </g>
    <g id="ytick_7">
     <g id="line2d_31">
      <path clip-path="url(#p295d7eaf52)" d="M 38.482813 66.480155 
L 395.602813 66.480155 
" style="fill:none;stroke:#ffffff;stroke-linecap:square;stroke-width:0.8;"/>
     </g>
     <g id="line2d_32">
      <g>
       <use style="fill:#555555;stroke:#555555;stroke-width:0.8;" x="38.482813" xlink:href="#m1dfd0db282" y="66.480155"/>
      </g>
     </g>
     <g id="text_16">
      <!-- 0.2 -->
      <g style="fill:#555555;" transform="translate(15.579688 70.279374)scale(0.1 -0.1)">
       <use xlink:href="#DejaVuSans-30"/>
       <use x="63.623047" xlink:href="#DejaVuSans-2e"/>
       <use x="95.410156" xlink:href="#DejaVuSans-32"/>
      </g>
     </g>
    </g>
    <g id="ytick_8">
     <g id="line2d_33">
      <path clip-path="url(#p295d7eaf52)" d="M 38.482813 30.129396 
L 395.602813 30.129396 
" style="fill:none;stroke:#ffffff;stroke-linecap:square;stroke-width:0.8;"/>
     </g>
     <g id="line2d_34">
      <g>
       <use style="fill:#555555;stroke:#555555;stroke-width:0.8;" x="38.482813" xlink:href="#m1dfd0db282" y="30.129396"/>
      </g>
     </g>
     <g id="text_17">
      <!-- 0.4 -->
      <g style="fill:#555555;" transform="translate(15.579688 33.928615)scale(0.1 -0.1)">
       <use xlink:href="#DejaVuSans-30"/>
       <use x="63.623047" xlink:href="#DejaVuSans-2e"/>
       <use x="95.410156" xlink:href="#DejaVuSans-34"/>
      </g>
     </g>
    </g>
   </g>
   <g id="line2d_35">
    <path clip-path="url(#p295d7eaf52)" d="M 54.71554 102.830915 
L 54.938364 103.079263 
L 55.161188 101.91161 
L 55.384012 99.672802 
L 56.275308 101.039267 
L 56.498132 98.805684 
L 56.720956 100.817234 
L 56.94378 99.920015 
L 57.835076 99.874319 
L 58.503548 110.60856 
L 59.172019 110.61027 
L 59.840491 118.206234 
L 60.063315 117.386838 
L 60.731787 114.259789 
L 60.954611 111.585433 
L 61.177435 111.09578 
L 61.400259 111.799828 
L 61.623083 109.794761 
L 62.291555 109.196197 
L 62.514379 110.972844 
L 62.737203 109.774251 
L 62.960027 110.55603 
L 63.182851 108.973511 
L 63.851323 107.401038 
L 64.074147 107.904276 
L 64.519795 116.028455 
L 64.742619 115.203689 
L 65.633915 113.659403 
L 66.079563 119.186112 
L 66.302387 119.025471 
L 66.970859 115.749281 
L 67.193683 115.977005 
L 67.416507 118.227233 
L 67.639331 116.688885 
L 67.862155 116.725189 
L 68.530627 120.777716 
L 68.753451 122.971659 
L 68.976275 121.769121 
L 69.199099 124.524843 
L 69.421923 125.352413 
L 70.090395 129.461154 
L 70.313219 129.368741 
L 70.536043 128.556929 
L 70.981691 130.632531 
L 71.650163 128.641289 
L 72.541459 121.850862 
L 73.20993 121.377363 
L 73.655578 125.659422 
L 73.878402 126.693063 
L 74.101226 126.988645 
L 74.769698 130.651405 
L 74.992522 128.977437 
L 75.215346 125.645541 
L 75.43817 124.287653 
L 75.660994 125.785204 
L 76.329466 124.088501 
L 76.775114 130.686968 
L 76.997938 138.258548 
L 77.220762 135.230152 
L 78.112058 132.327678 
L 78.334882 129.513496 
L 78.557706 128.261074 
L 79.449002 124.707903 
L 79.671826 125.28858 
L 80.117474 118.465635 
L 80.340298 115.947301 
L 81.00877 116.513339 
L 81.231594 118.154789 
L 81.454418 116.457005 
L 81.677242 113.108491 
L 81.900066 111.910069 
L 82.568538 109.488381 
L 82.791362 113.247274 
L 83.459834 105.926729 
L 84.128306 105.089808 
L 84.35113 103.835693 
L 84.573954 103.472306 
L 84.796778 102.486447 
L 85.688074 103.037127 
L 85.910898 103.989043 
L 86.133722 105.479183 
L 86.356546 104.036651 
L 86.57937 100.411846 
L 87.470665 101.398704 
L 87.693489 100.719506 
L 87.916313 101.122206 
L 88.139137 101.854651 
L 88.807609 103.584653 
L 89.030433 102.289383 
L 89.476081 105.985661 
L 89.698905 109.209644 
L 90.367377 108.553779 
L 91.258673 115.382728 
L 92.149969 118.01363 
L 92.372793 121.366375 
L 92.595617 122.462095 
L 92.818441 121.714556 
L 93.486913 123.37597 
L 93.709737 122.295447 
L 94.155385 127.950923 
L 94.378209 125.264391 
L 95.046681 127.276955 
L 95.492329 126.814699 
L 95.715153 128.06132 
L 95.937977 128.237989 
L 96.606449 129.212388 
L 96.829273 128.975033 
L 97.052097 131.218384 
L 97.274921 131.189931 
L 97.497745 131.385266 
L 98.166217 132.621606 
L 98.389041 135.872402 
L 98.611865 135.420652 
L 98.834689 136.509581 
L 99.057513 135.946986 
L 99.725985 135.848944 
L 100.394457 143.675809 
L 100.617281 144.257699 
L 101.285753 145.168971 
L 101.731401 147.818895 
L 101.954224 145.794851 
L 102.177048 142.742414 
L 102.84552 142.643059 
L 103.291168 145.969349 
L 103.736816 141.001928 
L 104.405288 140.704672 
L 104.628112 139.522198 
L 105.07376 135.449429 
L 105.296584 134.331205 
L 105.965056 132.905728 
L 106.410704 129.814839 
L 106.856352 127.357821 
L 107.524824 126.24073 
L 107.970472 126.181084 
L 108.193296 123.884839 
L 108.41612 123.162219 
L 109.307416 124.594316 
L 109.53024 123.835965 
L 109.753064 124.420933 
L 109.975888 126.864891 
L 110.64436 129.055656 
L 110.867184 128.343981 
L 111.090008 129.252826 
L 111.312832 131.250466 
L 111.535656 134.627233 
L 112.204128 136.240283 
L 112.426952 137.329778 
L 112.649776 139.042451 
L 112.8726 139.289087 
L 113.095424 141.783657 
L 113.763896 145.28858 
L 113.98672 147.17484 
L 114.209544 147.76854 
L 114.432368 149.380385 
L 114.655192 153.156766 
L 115.323664 155.147404 
L 115.546488 155.135339 
L 115.769312 157.569056 
L 115.992136 161.562095 
L 116.21496 161.591072 
L 117.106255 165.559359 
L 117.329079 171.30372 
L 117.551903 167.710805 
L 117.774727 170.09228 
L 118.443199 174.115686 
L 118.666023 174.686556 
L 118.888847 175.968176 
L 119.334495 181.201803 
L 120.002967 183.9799 
L 120.225791 185.542225 
L 120.448615 188.156531 
L 120.671439 187.050863 
L 120.894263 188.055772 
L 121.562735 187.445173 
L 121.785559 188.274084 
L 122.008383 191.67714 
L 122.231207 191.214172 
L 122.454031 190.171234 
L 123.122503 188.266732 
L 123.568151 188.669444 
L 124.013799 189.998544 
L 124.682271 188.378868 
L 124.905095 185.779215 
L 125.573567 182.688104 
L 126.242039 181.500296 
L 126.464863 181.554849 
L 126.687687 178.594216 
L 127.133335 176.409003 
L 127.801807 177.623993 
L 128.024631 179.693145 
L 128.693103 190.341648 
L 129.361575 189.544942 
L 129.584399 192.746157 
L 129.807223 192.890163 
L 130.030047 189.842322 
L 130.252871 188.488647 
L 130.921342 191.477568 
L 131.589814 199.673459 
L 131.812638 201.209368 
L 132.48111 204.390344 
L 132.703934 208.172089 
L 132.926758 209.222234 
L 133.372406 202.803862 
L 134.263702 199.234671 
L 134.486526 195.204119 
L 134.70935 195.561307 
L 134.932174 201.066644 
L 135.82347 196.036291 
L 136.269118 205.199083 
L 136.491942 205.271854 
L 137.160414 206.530781 
L 137.383238 206.553337 
L 137.606062 204.349342 
L 137.828886 205.883258 
L 138.05171 204.150878 
L 138.943006 207.167618 
L 139.16583 207.499722 
L 139.388654 210.083595 
L 139.611478 209.586935 
L 140.27995 207.564367 
L 140.948422 211.396748 
L 141.171246 209.15515 
L 141.839718 208.124406 
L 142.062542 209.509541 
L 142.285366 209.404999 
L 142.50819 210.944775 
L 142.731014 209.558997 
L 143.62231 206.56436 
L 143.845134 209.615713 
L 144.067958 209.905295 
L 144.290782 205.568747 
L 144.959254 204.282439 
L 145.182077 201.870288 
L 145.404901 202.627633 
L 145.627725 201.777549 
L 145.850549 202.942015 
L 146.741845 205.905146 
L 146.964669 207.403011 
L 147.187493 207.982949 
L 147.410317 204.577176 
L 148.078789 206.191519 
L 148.301613 210.34524 
L 148.524437 212.392467 
L 148.747261 211.899495 
L 148.970085 210.546257 
L 149.638557 208.941201 
L 149.861381 206.973643 
L 150.084205 206.409787 
L 150.307029 207.943122 
L 150.529853 213.470694 
L 151.198325 214.317126 
L 151.643973 217.66096 
L 151.866797 221.997028 
L 152.089621 218.835065 
L 152.758093 222.189826 
L 153.649389 234.660314 
L 154.317861 234.93323 
L 154.763509 237.250606 
L 154.986333 236.531969 
L 155.209157 237.242726 
L 156.100453 244.470504 
L 156.323277 241.09179 
L 156.546101 243.642909 
L 156.768925 242.03281 
L 157.437397 240.056795 
L 157.660221 243.100847 
L 157.883045 243.061935 
L 158.105869 240.844714 
L 158.997165 238.199962 
L 159.219989 235.313943 
L 159.442812 236.058308 
L 159.665636 237.815373 
L 159.88846 237.262978 
L 160.556932 236.321074 
L 160.779756 232.720656 
L 161.00258 231.604323 
L 161.448228 227.626783 
L 162.339524 224.850868 
L 162.562348 224.491581 
L 162.785172 220.406381 
L 163.007996 220.179201 
L 163.676468 219.766812 
L 163.899292 218.571714 
L 164.122116 218.551713 
L 164.34494 219.817418 
L 164.567764 218.288102 
L 165.236236 216.511903 
L 165.45906 212.079713 
L 166.127532 206.013535 
L 166.796004 205.181952 
L 167.018828 206.951722 
L 167.6873 204.656524 
L 168.578596 205.609874 
L 169.247068 200.086872 
L 169.91554 197.392701 
L 170.138364 197.175737 
L 170.361188 195.131453 
L 170.584012 195.177442 
L 170.806836 195.461491 
L 171.475308 195.76622 
L 171.698132 196.718506 
L 171.920956 199.473801 
L 172.14378 200.569125 
L 172.366604 200.601467 
L 173.035076 202.482756 
L 173.480724 202.787686 
L 173.703548 205.122205 
L 173.926371 205.938367 
L 174.594843 205.684178 
L 175.040491 207.959013 
L 175.263315 208.749943 
L 175.486139 208.802709 
L 176.154611 207.863341 
L 176.377435 206.769851 
L 177.045907 210.494974 
L 177.937203 215.001631 
L 178.160027 215.110627 
L 178.382851 213.782163 
L 178.605675 213.985754 
L 179.274147 212.878841 
L 179.496971 215.014599 
L 179.719795 215.059191 
L 179.942619 213.576566 
L 180.833915 218.179858 
L 181.056739 218.260491 
L 181.279563 217.688865 
L 181.725211 215.528685 
L 182.393683 217.568912 
L 182.616507 218.874972 
L 182.839331 219.49935 
L 183.062155 219.588498 
L 183.284979 220.125361 
L 184.176275 219.693577 
L 184.844747 215.710985 
L 185.513219 214.368051 
L 185.736043 213.445634 
L 185.958867 211.873135 
L 186.181691 212.447828 
L 186.404515 210.665873 
L 187.072987 210.991867 
L 187.295811 210.549152 
L 187.518635 209.733628 
L 187.741459 207.466348 
L 187.964283 206.509482 
L 188.632754 208.396522 
L 188.855578 208.663402 
L 189.078402 210.699474 
L 189.301226 209.280946 
L 189.52405 209.531035 
L 190.415346 211.686466 
L 191.083818 219.447918 
L 191.75229 223.476363 
L 193.312058 226.468996 
L 193.757706 234.653599 
L 193.98053 235.273433 
L 194.203354 234.119221 
L 194.871826 235.540507 
L 195.09465 239.242911 
L 195.317474 240.572391 
L 195.540298 239.900268 
L 195.763122 240.498233 
L 196.431594 239.890389 
L 196.654418 236.513295 
L 197.100066 239.177868 
L 197.32289 236.391266 
L 197.991362 235.467589 
L 198.214186 233.880184 
L 198.43701 233.360238 
L 198.659834 234.413559 
L 198.882658 232.069156 
L 199.55113 229.710286 
L 199.773954 234.810104 
L 199.996778 234.297996 
L 200.442426 229.158744 
L 201.110898 228.133593 
L 201.77937 220.364328 
L 202.002194 223.979769 
L 202.670665 226.646833 
L 203.116313 221.092887 
L 203.561961 216.102172 
L 204.230433 213.036427 
L 204.453257 211.273656 
L 204.676081 213.263779 
L 205.121729 209.88878 
L 206.013025 206.834832 
L 206.458673 208.421907 
L 206.681497 206.375333 
L 207.349969 206.211842 
L 207.572793 206.619521 
L 207.795617 204.302901 
L 208.241265 202.273479 
L 208.909737 202.481163 
L 209.132561 204.028702 
L 209.578209 201.495913 
L 210.469505 197.995114 
L 210.692329 196.238921 
L 210.915153 197.70573 
L 211.137977 197.345472 
L 212.029273 198.661316 
L 212.474921 202.383162 
L 212.697745 201.6186 
L 212.920569 201.326021 
L 213.589041 201.039069 
L 213.811865 201.659137 
L 214.034689 204.657078 
L 214.257513 204.876603 
L 214.480337 203.13445 
L 215.148809 201.813464 
L 216.040105 197.793091 
L 216.708577 198.292019 
L 217.154224 198.004796 
L 217.377048 198.609695 
L 217.599872 200.352856 
L 218.268344 199.94493 
L 218.491168 202.022088 
L 218.713992 202.517174 
L 218.936816 203.995557 
L 219.828112 205.12842 
L 220.050936 207.096629 
L 220.496584 205.486068 
L 220.719408 206.97545 
L 221.610704 206.69924 
L 221.833528 207.904296 
L 222.279176 206.632546 
L 222.947648 209.469585 
L 223.170472 209.362257 
L 223.393296 209.474334 
L 223.61612 210.097985 
L 223.838944 213.015229 
L 224.507416 213.983337 
L 224.73024 216.470152 
L 224.953064 216.523293 
L 225.398712 211.352215 
L 226.067184 210.29424 
L 226.290008 208.217213 
L 226.512832 207.806303 
L 226.735656 208.177438 
L 226.95848 209.7881 
L 227.849776 207.897167 
L 228.0726 211.397336 
L 228.295424 211.752367 
L 228.518248 210.825748 
L 229.18672 209.521069 
L 229.409544 210.6789 
L 229.632368 212.88947 
L 230.078016 211.127983 
L 230.746488 212.977424 
L 230.969312 211.854578 
L 231.41496 214.747264 
L 231.637783 215.281549 
L 232.306255 215.38405 
L 232.751903 213.801071 
L 233.197551 212.190663 
L 233.866023 211.091972 
L 234.311671 211.503786 
L 234.534495 211.913001 
L 234.757319 212.895359 
L 235.425791 212.14943 
L 235.648615 210.352686 
L 235.871439 209.522075 
L 236.094263 207.23741 
L 236.985559 207.075103 
L 237.208383 208.127111 
L 237.654031 206.131726 
L 237.876855 203.781187 
L 238.545327 203.555866 
L 238.768151 202.577254 
L 238.990975 206.027398 
L 239.213799 206.363978 
L 239.436623 208.264472 
L 240.105095 207.924513 
L 240.550743 210.827398 
L 240.773567 210.687132 
L 240.996391 210.734623 
L 241.664863 210.531747 
L 241.887687 212.336517 
L 242.110511 211.064771 
L 242.556159 213.116491 
L 243.224631 212.46147 
L 243.447455 213.353189 
L 243.893103 211.551211 
L 244.115927 214.14389 
L 244.784399 215.164411 
L 245.007223 214.724991 
L 245.230047 215.327488 
L 245.452871 218.605146 
L 245.675695 216.429841 
L 246.344166 215.254575 
L 246.56699 215.199068 
L 246.789814 214.84451 
L 247.012638 215.080564 
L 247.235462 216.173436 
L 247.903934 218.475169 
L 248.126758 217.943801 
L 248.349582 215.402639 
L 248.572406 214.182081 
L 249.686526 213.952498 
L 249.90935 212.863177 
L 250.132174 212.357398 
L 250.354998 214.828677 
L 251.02347 215.974319 
L 251.246294 215.487274 
L 251.469118 218.432527 
L 251.914766 217.293417 
L 252.583238 221.421228 
L 252.806062 221.498063 
L 253.25171 222.10787 
L 253.474534 220.026322 
L 254.143006 219.424533 
L 254.36583 221.459188 
L 254.811478 222.884155 
L 255.702774 227.636087 
L 255.925598 225.819544 
L 256.148422 226.366328 
L 256.371246 228.261676 
L 256.59407 231.222713 
L 257.262542 234.890907 
L 257.485366 234.952571 
L 257.70819 230.682793 
L 258.82231 234.918261 
L 259.045134 240.401498 
L 259.267958 241.43523 
L 259.713606 246.696293 
L 260.382077 248.287333 
L 260.827725 254.514667 
L 261.273373 262.55314 
L 261.941845 267.102873 
L 262.164669 259.690899 
L 262.387493 263.901674 
L 262.610317 264.054904 
L 262.833141 260.265741 
L 263.501613 261.055555 
L 263.724437 263.529469 
L 264.392909 277.715815 
L 265.061381 276.055814 
L 265.284205 274.50678 
L 265.952677 266.49625 
L 266.621149 267.330234 
L 266.843973 262.902835 
L 267.289621 257.881789 
L 267.512445 254.508123 
L 268.180917 254.094462 
L 268.626565 249.414735 
L 268.849389 248.903818 
L 269.072213 246.48902 
L 269.740685 250.021572 
L 269.963509 250.572906 
L 270.409157 247.29635 
L 270.631981 250.801702 
L 271.523277 247.611447 
L 271.746101 247.987886 
L 272.191749 244.632205 
L 272.860221 242.96011 
L 273.083045 243.05959 
L 273.305869 244.976218 
L 273.751517 241.996676 
L 274.419989 245.165677 
L 274.642813 245.462926 
L 275.311284 252.082959 
L 275.979756 253.517496 
L 276.425404 252.642252 
L 276.871052 259.044116 
L 277.539524 258.603354 
L 278.43082 272.455564 
L 279.099292 273.982789 
L 279.322116 278.15775 
L 279.990588 274.404314 
L 280.65906 273.790019 
L 280.881884 275.850336 
L 281.104708 276.301779 
L 281.327532 275.035295 
L 281.550356 272.735674 
L 282.218828 273.526728 
L 282.441652 269.845489 
L 282.664476 269.018759 
L 282.8873 266.190737 
L 283.110124 269.341537 
L 283.778596 268.443874 
L 284.00142 267.348575 
L 284.224244 267.476416 
L 284.447068 265.397523 
L 284.669892 266.350114 
L 285.561188 263.940284 
L 285.784012 265.080863 
L 286.006836 265.629546 
L 286.22966 268.577123 
L 286.898132 266.684668 
L 287.566604 259.522855 
L 287.789428 258.742856 
L 288.4579 258.862995 
L 288.680724 255.122211 
L 289.126371 251.669503 
L 289.349195 249.986654 
L 290.017667 250.206967 
L 290.240491 246.957302 
L 290.463315 246.7772 
L 290.908963 249.067102 
L 291.800259 249.479369 
L 292.023083 250.446899 
L 292.245907 247.829919 
L 292.468731 248.954674 
L 293.137203 246.922739 
L 293.582851 243.972414 
L 293.805675 244.446542 
L 294.028499 241.477374 
L 294.919795 242.535978 
L 295.142619 241.494207 
L 295.365443 241.034215 
L 295.588267 238.47765 
L 296.256739 237.60514 
L 296.479563 236.593362 
L 296.925211 235.877024 
L 297.148035 235.267777 
L 297.816507 234.671051 
L 298.039331 231.073217 
L 298.484979 230.171935 
L 298.707803 228.16934 
L 299.376275 229.982351 
L 299.599099 231.941454 
L 299.821923 231.971365 
L 300.044747 231.530287 
L 300.267571 233.984812 
L 300.936043 232.941703 
L 301.158867 234.040331 
L 301.827339 241.627277 
L 302.941459 244.237582 
L 303.164283 247.828316 
L 303.387107 249.456875 
L 304.055578 249.396745 
L 304.278402 247.878117 
L 304.501226 251.258624 
L 304.72405 249.785884 
L 304.946874 249.109813 
L 305.83817 250.676385 
L 306.060994 251.00646 
L 306.283818 253.624765 
L 306.506642 252.269994 
L 307.175114 252.321738 
L 307.397938 252.995664 
L 307.620762 252.512119 
L 308.06641 248.499126 
L 308.957706 248.834001 
L 309.18053 250.019291 
L 309.403354 248.261126 
L 309.626178 250.976575 
L 310.29465 250.445785 
L 310.517474 251.638463 
L 310.740298 251.740503 
L 310.963122 252.499395 
L 311.185946 254.731276 
L 312.077242 256.704214 
L 312.52289 255.45295 
L 312.745714 256.718864 
L 313.414186 258.324605 
L 313.63701 259.6214 
L 313.859834 258.964509 
L 314.082658 259.927897 
L 314.305482 256.38066 
L 315.196778 256.757393 
L 315.419602 254.491612 
L 315.642426 254.770545 
L 315.86525 257.485007 
L 316.533722 256.089161 
L 316.756546 256.12672 
L 317.202194 254.234543 
L 317.425018 256.250771 
L 318.093489 256.314754 
L 318.539137 257.516601 
L 318.761961 257.17354 
L 318.984785 259.789601 
L 319.653257 260.448471 
L 319.876081 262.783761 
L 320.098905 261.934051 
L 320.321729 262.829157 
L 320.544553 260.44028 
L 321.213025 258.373345 
L 321.435849 260.450539 
L 321.881497 257.216295 
L 322.772793 254.781697 
L 322.995617 254.533868 
L 323.441265 256.773041 
L 323.664089 254.645072 
L 324.332561 255.352256 
L 324.555385 255.986074 
L 324.778209 255.097258 
L 325.001033 253.163321 
L 325.892329 253.680581 
L 326.337977 255.390667 
L 326.783625 252.317539 
L 327.452097 252.340807 
L 327.674921 252.768376 
L 327.897745 252.55673 
L 328.120569 253.064119 
L 328.343393 256.076618 
L 329.011865 256.483793 
L 329.234689 255.718225 
L 329.903161 251.474046 
L 331.017281 252.26768 
L 331.240105 251.000964 
L 331.462929 251.782758 
L 332.131401 251.47425 
L 332.354224 248.61472 
L 332.577048 247.987118 
L 332.799872 250.895989 
L 333.022696 251.879327 
L 333.691168 250.300596 
L 333.913992 248.074727 
L 334.136816 248.122112 
L 334.35964 249.380602 
L 334.582464 247.000772 
L 335.250936 247.688704 
L 335.47376 248.265443 
L 335.696584 250.624333 
L 336.142232 252.430973 
L 336.810704 251.467662 
L 337.033528 251.632142 
L 337.256352 250.076662 
L 337.479176 249.989365 
L 337.702 251.585945 
L 338.370472 250.150484 
L 338.81612 247.272859 
L 339.038944 246.922676 
L 339.93024 246.639825 
L 340.153064 247.335233 
L 340.375888 249.675448 
L 340.598712 248.325633 
L 340.821536 249.271617 
L 341.490008 251.138393 
L 341.935656 255.753877 
L 342.15848 254.891438 
L 342.381304 256.140874 
L 343.2726 254.535585 
L 343.495424 255.268624 
L 343.941072 251.779524 
L 344.609544 252.477877 
L 344.832368 251.668875 
L 345.278016 253.134641 
L 345.50084 252.593526 
L 346.169312 252.745113 
L 346.392136 253.60437 
L 346.837783 252.087253 
L 347.060607 250.377658 
L 347.951903 247.941434 
L 348.620375 243.698638 
L 349.288847 242.754781 
L 349.734495 240.870418 
L 349.957319 244.309397 
L 350.180143 243.669189 
L 350.848615 242.2716 
L 351.739911 236.881728 
L 352.631207 237.274359 
L 352.854031 237.994101 
L 353.076855 239.406789 
L 353.299679 237.868718 
L 353.968151 239.191358 
L 354.190975 242.33978 
L 354.636623 239.822657 
L 354.859447 239.55747 
L 355.527919 237.574873 
L 355.750743 237.700921 
L 355.973567 236.926433 
L 356.419215 239.291039 
L 357.087687 238.676714 
L 357.756159 246.261357 
L 357.978983 247.086456 
L 358.647455 248.870683 
L 359.093103 245.584156 
L 359.315927 245.872294 
L 359.538751 244.730645 
L 360.207223 244.353755 
L 360.430047 244.482518 
L 360.652871 245.405063 
L 360.875695 245.295875 
L 361.098518 243.802059 
L 361.76699 243.803182 
L 361.989814 245.953913 
L 362.212638 245.74235 
L 362.435462 247.224697 
L 362.658286 247.053363 
L 363.326758 246.885833 
L 363.549582 248.52145 
L 363.99523 247.071753 
L 364.218054 245.737605 
L 365.10935 243.333446 
L 365.332174 244.816354 
L 365.554998 245.098167 
L 365.777822 243.275362 
L 366.446294 242.685122 
L 366.669118 242.870166 
L 366.891942 243.314687 
L 367.33759 246.482947 
L 368.006062 246.604598 
L 368.228886 245.261058 
L 368.45171 245.306286 
L 368.897358 248.635899 
L 369.788654 251.664059 
L 370.011478 251.512899 
L 370.234302 251.870664 
L 370.457126 249.79241 
L 371.125598 248.992507 
L 371.571246 247.111539 
L 372.016894 246.412707 
L 372.685366 247.756798 
L 372.90819 249.934775 
L 373.131014 250.064859 
L 373.353838 250.500225 
L 373.576662 249.396691 
L 374.245134 251.991175 
L 374.467958 254.109468 
L 374.690782 251.977579 
L 374.913606 251.41847 
L 375.13643 255.54111 
L 375.804901 254.984811 
L 376.027725 255.481581 
L 376.250549 254.564679 
L 376.473373 256.218182 
L 376.696197 254.786012 
L 377.364669 253.365309 
L 378.255965 249.941969 
L 378.924437 249.102777 
L 379.147261 249.459894 
L 379.370085 249.459894 
L 379.370085 249.459894 
" style="fill:none;stroke:#e24a33;stroke-linecap:square;stroke-width:1.5;"/>
   </g>
   <g id="line2d_36">
    <path clip-path="url(#p295d7eaf52)" d="M 54.71554 102.830915 
L 54.938364 103.547813 
L 55.161188 105.635085 
L 55.384012 104.543546 
L 56.052484 103.096956 
L 56.275308 103.000497 
L 56.498132 101.285169 
L 56.94378 106.665479 
L 57.835076 106.848322 
L 58.280724 110.283352 
L 58.503548 115.209658 
L 59.394843 118.265122 
L 59.617667 120.351044 
L 59.840491 119.52429 
L 60.063315 119.992464 
L 60.954611 116.67026 
L 61.177435 119.339379 
L 61.400259 118.965618 
L 61.623083 117.855502 
L 62.514379 117.254071 
L 62.960027 108.768207 
L 63.182851 106.169886 
L 63.851323 106.893049 
L 64.519795 113.370896 
L 64.742619 112.796605 
L 65.633915 115.641515 
L 65.856739 116.778203 
L 66.079563 115.024147 
L 66.302387 121.1796 
L 66.970859 120.486879 
L 67.416507 130.721571 
L 67.639331 132.333329 
L 67.862155 138.203958 
L 68.530627 131.079085 
L 68.753451 126.417841 
L 68.976275 126.813453 
L 69.199099 135.92297 
L 69.421923 135.189388 
L 70.090395 133.698922 
L 70.313219 132.049113 
L 70.758867 135.875834 
L 70.981691 136.762324 
L 71.650163 137.682066 
L 72.095811 133.50324 
L 72.541459 128.166533 
L 73.432754 123.390108 
L 73.655578 127.206196 
L 73.878402 141.789006 
L 74.101226 141.871124 
L 74.769698 141.216247 
L 75.215346 137.013791 
L 75.660994 129.224111 
L 76.775114 123.495763 
L 76.997938 127.300898 
L 77.220762 134.110453 
L 77.889234 140.016521 
L 78.112058 132.199537 
L 78.334882 128.744323 
L 78.557706 127.429149 
L 79.449002 125.99798 
L 79.89465 116.460419 
L 80.117474 112.142834 
L 80.340298 117.978527 
L 81.00877 114.547333 
L 81.231594 112.138262 
L 81.454418 115.656958 
L 81.677242 112.783759 
L 81.900066 112.849391 
L 82.568538 110.574639 
L 82.791362 112.156184 
L 83.014186 111.385812 
L 83.459834 103.561285 
L 84.128306 101.026064 
L 84.35113 95.468167 
L 84.796778 91.343955 
L 85.019602 91.067871 
L 85.688074 88.059645 
L 85.910898 90.434744 
L 86.133722 88.593243 
L 86.57937 81.205645 
L 87.470665 85.406557 
L 87.916313 89.432911 
L 88.139137 89.551603 
L 88.807609 90.950086 
L 89.253257 86.411954 
L 89.476081 87.141205 
L 89.698905 89.018274 
L 90.367377 92.391646 
L 90.590201 91.367816 
L 90.813025 94.215526 
L 91.035849 94.916329 
L 91.258673 95.125079 
L 91.927145 96.560226 
L 92.149969 91.191381 
L 92.372793 93.604506 
L 92.595617 94.091815 
L 92.818441 96.459025 
L 93.709737 99.58428 
L 94.155385 103.658805 
L 94.378209 99.292613 
L 95.046681 97.692149 
L 95.492329 100.223812 
L 95.715153 106.23517 
L 95.937977 107.945299 
L 97.274921 115.008935 
L 97.497745 114.320241 
L 98.166217 113.137238 
L 98.611865 117.295845 
L 99.057513 112.124992 
L 99.725985 115.431878 
L 100.171633 119.5235 
L 100.394457 122.607157 
L 100.617281 123.672384 
L 101.285753 125.478159 
L 101.508577 127.234477 
L 101.731401 132.023095 
L 102.177048 124.151568 
L 102.84552 124.798848 
L 103.068344 123.899488 
L 103.291168 127.859212 
L 103.513992 126.450039 
L 103.736816 123.077817 
L 104.628112 119.981531 
L 104.850936 115.142496 
L 105.296584 111.97489 
L 105.965056 110.302868 
L 106.410704 107.292929 
L 106.633528 105.515867 
L 106.856352 101.914624 
L 107.524824 99.612653 
L 107.970472 100.89669 
L 108.193296 98.28566 
L 108.41612 98.705232 
L 109.307416 101.213876 
L 109.53024 102.489559 
L 109.753064 101.804451 
L 109.975888 102.654924 
L 110.64436 102.368661 
L 110.867184 101.659788 
L 111.535656 106.913599 
L 112.426952 111.998397 
L 112.649776 117.40401 
L 112.8726 118.260754 
L 113.095424 115.566415 
L 113.98672 116.640766 
L 114.432368 122.970638 
L 114.655192 125.897192 
L 115.323664 125.309632 
L 115.546488 124.805563 
L 115.769312 128.798504 
L 115.992136 129.849287 
L 116.21496 128.595404 
L 116.883431 132.99957 
L 117.106255 131.485168 
L 117.329079 126.768438 
L 117.774727 132.86288 
L 118.443199 127.525876 
L 118.666023 124.814813 
L 119.334495 134.401122 
L 120.002967 134.132981 
L 120.225791 135.245121 
L 120.448615 137.28204 
L 120.671439 135.739178 
L 120.894263 132.721997 
L 121.785559 137.753339 
L 122.008383 143.465713 
L 122.231207 138.041959 
L 122.454031 139.03104 
L 123.122503 134.886324 
L 123.345327 137.184227 
L 123.568151 136.320566 
L 123.790975 136.549745 
L 124.013799 137.410128 
L 124.682271 139.019199 
L 124.905095 136.874749 
L 125.127919 135.956659 
L 125.350743 156.081514 
L 125.573567 148.43554 
L 126.687687 139.60305 
L 127.133335 132.430628 
L 127.801807 131.331407 
L 128.024631 129.659321 
L 128.247455 136.936326 
L 128.470279 138.160203 
L 128.693103 150.918388 
L 129.361575 151.905205 
L 129.584399 155.781282 
L 130.030047 153.94975 
L 130.252871 156.922244 
L 130.921342 171.243514 
L 131.144166 165.32588 
L 131.36699 166.84946 
L 131.589814 169.746502 
L 131.812638 169.436079 
L 132.48111 173.101846 
L 132.703934 173.371403 
L 132.926758 179.639464 
L 133.149582 179.777368 
L 133.372406 179.328564 
L 134.263702 178.063037 
L 134.486526 177.364081 
L 134.70935 179.264363 
L 134.932174 173.630146 
L 135.82347 179.286976 
L 136.046294 183.925634 
L 136.269118 182.608515 
L 136.491942 182.286872 
L 137.160414 184.476674 
L 137.383238 188.363744 
L 137.828886 180.820011 
L 138.05171 179.976263 
L 138.943006 184.258838 
L 139.16583 188.313604 
L 139.611478 192.817523 
L 140.27995 196.232928 
L 140.502774 195.387485 
L 140.725598 198.052474 
L 140.948422 214.168075 
L 141.171246 217.173333 
L 141.839718 216.373244 
L 142.062542 222.289859 
L 142.285366 221.95263 
L 142.50819 222.267457 
L 142.731014 228.187805 
L 143.62231 237.13038 
L 143.845134 236.847671 
L 144.290782 230.150116 
L 144.959254 226.154077 
L 145.182077 223.823087 
L 145.404901 223.406663 
L 145.627725 221.30718 
L 145.850549 216.780949 
L 146.741845 221.33089 
L 146.964669 217.500706 
L 147.187493 218.475553 
L 147.410317 209.087417 
L 148.078789 207.079954 
L 148.301613 211.082558 
L 148.524437 208.80578 
L 148.747261 212.669294 
L 148.970085 203.79177 
L 149.638557 202.926172 
L 149.861381 201.455858 
L 150.084205 194.421219 
L 150.307029 195.034237 
L 150.529853 198.825913 
L 151.198325 202.25294 
L 151.421149 202.659809 
L 151.643973 198.47239 
L 151.866797 201.938053 
L 152.089621 199.944274 
L 152.980917 206.293098 
L 153.203741 211.082445 
L 153.426565 210.502329 
L 153.649389 212.38915 
L 154.317861 214.872305 
L 154.540685 217.30732 
L 154.763509 214.105025 
L 155.209157 217.906058 
L 155.877629 226.020542 
L 156.100453 214.597775 
L 156.546101 223.531537 
L 156.768925 222.011455 
L 157.437397 226.658914 
L 157.883045 234.207927 
L 158.105869 231.949094 
L 158.997165 227.529605 
L 159.442812 237.662951 
L 159.665636 237.53308 
L 159.88846 236.708038 
L 160.556932 233.60251 
L 160.779756 230.404041 
L 161.00258 225.242598 
L 161.225404 223.761394 
L 161.448228 220.899835 
L 162.339524 217.219733 
L 162.562348 218.102365 
L 162.785172 209.718194 
L 163.007996 206.625149 
L 163.676468 205.522736 
L 163.899292 204.868628 
L 164.122116 205.398138 
L 164.34494 209.234788 
L 164.567764 202.608391 
L 165.236236 200.501592 
L 165.45906 196.434264 
L 165.681884 196.876301 
L 165.904708 195.762377 
L 166.127532 193.198813 
L 166.796004 190.209783 
L 167.018828 189.87314 
L 167.6873 183.648588 
L 168.578596 184.444706 
L 168.80142 184.011934 
L 169.024244 181.592078 
L 169.247068 180.725793 
L 169.91554 178.747915 
L 170.138364 177.667388 
L 170.361188 178.692831 
L 170.584012 176.112536 
L 170.806836 175.290401 
L 171.475308 174.931463 
L 171.698132 173.416394 
L 171.920956 174.986901 
L 172.14378 174.963358 
L 172.366604 172.701096 
L 173.035076 170.102474 
L 173.2579 171.463411 
L 173.703548 172.254646 
L 173.926371 171.558156 
L 174.594843 173.096307 
L 174.817667 180.502755 
L 175.040491 182.447049 
L 175.486139 188.164691 
L 176.377435 185.04259 
L 176.823083 193.206418 
L 177.045907 194.139154 
L 177.714379 194.992741 
L 178.160027 203.744875 
L 178.382851 199.68019 
L 178.605675 199.385973 
L 179.274147 202.098507 
L 179.496971 209.720183 
L 179.719795 210.416956 
L 179.942619 209.129011 
L 180.165443 204.946224 
L 181.056739 212.797236 
L 181.279563 213.232861 
L 181.725211 208.905278 
L 182.393683 210.510743 
L 182.616507 213.117047 
L 183.284979 207.265508 
L 183.953451 206.193345 
L 184.176275 204.536402 
L 184.844747 196.705722 
L 185.513219 194.265962 
L 185.736043 191.205912 
L 185.958867 190.725522 
L 186.181691 189.38768 
L 186.404515 185.794131 
L 187.072987 183.974694 
L 187.295811 184.555605 
L 187.518635 181.675736 
L 187.741459 181.883306 
L 187.964283 180.815369 
L 188.632754 180.310078 
L 188.855578 177.506665 
L 189.078402 180.580789 
L 189.301226 178.844946 
L 189.52405 179.979646 
L 190.415346 181.864672 
L 190.63817 183.854482 
L 190.860994 184.069352 
L 191.083818 182.003202 
L 191.75229 181.492888 
L 193.312058 181.58603 
L 193.534882 185.026283 
L 193.757706 185.21554 
L 193.98053 183.999944 
L 194.203354 186.985032 
L 194.871826 189.632502 
L 195.317474 195.616393 
L 195.540298 200.096326 
L 195.763122 199.290734 
L 196.431594 200.331927 
L 196.654418 200.244596 
L 196.877242 201.851794 
L 197.100066 198.834535 
L 197.32289 193.407918 
L 197.991362 191.426713 
L 198.214186 190.121419 
L 198.43701 192.740018 
L 198.659834 193.488884 
L 198.882658 189.443079 
L 199.55113 187.048661 
L 199.773954 189.528787 
L 200.442426 182.075159 
L 201.110898 179.614276 
L 201.333722 177.11378 
L 201.77937 166.230485 
L 202.002194 166.209057 
L 202.670665 165.528874 
L 203.116313 160.417622 
L 203.339137 158.997845 
L 203.561961 160.795157 
L 204.453257 156.695494 
L 204.676081 157.770635 
L 204.898905 156.800916 
L 205.121729 154.233218 
L 206.013025 154.010434 
L 206.458673 156.606378 
L 206.681497 156.166172 
L 207.349969 157.552255 
L 207.795617 153.427638 
L 208.241265 151.112387 
L 208.909737 149.224672 
L 209.132561 150.535059 
L 209.355385 150.203956 
L 209.578209 149.386325 
L 209.801033 146.667021 
L 210.469505 145.750852 
L 210.692329 146.555622 
L 210.915153 148.607062 
L 211.137977 148.373575 
L 211.360801 146.684724 
L 212.029273 148.358122 
L 212.474921 152.659638 
L 212.697745 152.605254 
L 212.920569 151.987199 
L 213.589041 150.760356 
L 214.034689 154.263967 
L 214.257513 155.095608 
L 214.480337 153.737844 
L 215.148809 152.657709 
L 215.594457 150.930261 
L 216.040105 146.930705 
L 216.708577 149.765648 
L 217.154224 151.127757 
L 217.377048 151.062113 
L 217.599872 149.867551 
L 218.268344 151.233013 
L 218.713992 155.226823 
L 219.15964 151.651269 
L 219.828112 153.000471 
L 220.050936 155.442158 
L 220.27376 155.453869 
L 220.496584 152.993161 
L 220.719408 153.270166 
L 221.610704 152.847505 
L 221.833528 155.736763 
L 222.279176 154.109879 
L 222.947648 152.639205 
L 223.170472 153.78961 
L 223.393296 160.555631 
L 223.61612 159.137519 
L 223.838944 159.606847 
L 224.507416 160.204629 
L 224.73024 163.284268 
L 224.953064 160.19087 
L 225.175888 154.717662 
L 225.398712 154.157144 
L 226.067184 153.306181 
L 226.290008 152.124107 
L 226.512832 148.295586 
L 226.95848 144.95168 
L 227.849776 142.900066 
L 228.295424 149.258106 
L 228.518248 151.498733 
L 229.18672 147.301543 
L 229.409544 147.543123 
L 230.078016 156.239804 
L 230.746488 161.550332 
L 230.969312 160.865909 
L 231.192136 155.713466 
L 231.41496 157.922387 
L 231.637783 158.094197 
L 232.306255 158.113791 
L 232.529079 157.550202 
L 232.974727 155.672525 
L 233.197551 155.296925 
L 233.866023 153.926474 
L 234.088847 151.924664 
L 234.311671 153.743853 
L 234.534495 154.145553 
L 234.757319 151.974562 
L 235.425791 150.607976 
L 235.648615 149.583169 
L 235.871439 149.382364 
L 236.094263 147.155458 
L 236.985559 147.388525 
L 237.208383 146.137636 
L 237.431207 143.599948 
L 237.654031 142.436288 
L 237.876855 140.25459 
L 238.545327 138.984896 
L 238.990975 140.296223 
L 239.436623 144.417607 
L 240.105095 147.903333 
L 240.327919 150.664765 
L 240.550743 151.596922 
L 240.996391 147.547531 
L 241.664863 146.48909 
L 241.887687 144.508127 
L 242.110511 144.990486 
L 242.556159 137.043442 
L 243.224631 138.910536 
L 243.670279 141.63765 
L 243.893103 140.397745 
L 244.784399 138.996881 
L 245.007223 145.198511 
L 245.230047 146.259227 
L 245.452871 144.179341 
L 246.344166 146.695577 
L 246.789814 148.731762 
L 247.012638 148.64536 
L 247.235462 147.507368 
L 248.126758 145.25246 
L 248.349582 142.379877 
L 248.79523 140.096682 
L 249.686526 138.701684 
L 250.132174 135.578115 
L 250.354998 133.904126 
L 251.02347 135.867264 
L 251.246294 137.148304 
L 251.469118 139.87753 
L 251.691942 140.749484 
L 251.914766 139.082917 
L 252.583238 140.111898 
L 252.806062 140.121128 
L 253.028886 138.734661 
L 253.474534 142.83365 
L 254.143006 141.847716 
L 254.36583 143.866205 
L 254.588654 142.751874 
L 254.811478 143.609099 
L 255.034302 148.775312 
L 255.702774 150.677233 
L 255.925598 148.523071 
L 256.148422 148.833859 
L 256.59407 153.891046 
L 257.262542 155.466114 
L 257.70819 145.523921 
L 258.153838 147.391419 
L 258.82231 147.611605 
L 259.045134 149.568146 
L 259.267958 149.8816 
L 259.490782 152.212862 
L 259.713606 152.127716 
L 260.382077 157.853958 
L 260.604901 157.917357 
L 261.273373 167.10567 
L 262.164669 170.245429 
L 262.387493 176.56918 
L 262.833141 179.788968 
L 263.501613 180.568856 
L 263.724437 182.50484 
L 263.947261 193.737584 
L 264.170085 195.5082 
L 264.392909 189.543188 
L 265.061381 191.384631 
L 265.729853 179.97186 
L 265.952677 176.453524 
L 266.621149 173.846484 
L 267.066797 173.509498 
L 267.512445 166.866009 
L 268.180917 165.177196 
L 268.849389 156.718712 
L 269.072213 154.114813 
L 269.740685 153.760997 
L 269.963509 152.129054 
L 270.409157 146.347114 
L 270.631981 143.507143 
L 271.523277 141.246973 
L 271.968925 137.54783 
L 272.191749 133.362488 
L 272.860221 130.675196 
L 273.083045 129.03745 
L 273.528693 134.557601 
L 273.751517 133.864721 
L 274.642813 131.923574 
L 274.865636 131.926193 
L 275.08846 133.942323 
L 275.311284 130.035966 
L 275.979756 128.946465 
L 276.425404 131.174795 
L 276.871052 136.544343 
L 277.539524 140.111514 
L 278.43082 164.49262 
L 279.099292 166.268167 
L 279.322116 168.865006 
L 279.54494 170.012015 
L 279.767764 169.044657 
L 279.990588 165.105574 
L 280.65906 165.535719 
L 280.881884 167.549808 
L 281.104708 168.040047 
L 281.327532 166.366539 
L 282.218828 163.578844 
L 282.664476 152.452051 
L 282.8873 145.656852 
L 283.110124 143.775098 
L 283.778596 140.495265 
L 284.00142 152.091772 
L 284.447068 138.647939 
L 285.338364 140.997152 
L 285.561188 140.169438 
L 285.784012 141.981537 
L 286.22966 136.742341 
L 286.898132 138.778625 
L 287.120956 134.431484 
L 287.34378 134.572268 
L 287.566604 130.256992 
L 288.4579 130.330212 
L 288.680724 128.162988 
L 288.903548 127.092948 
L 289.126371 123.117966 
L 289.349195 121.384673 
L 290.017667 120.296593 
L 290.463315 115.364759 
L 290.908963 113.510656 
L 291.577435 113.553608 
L 292.023083 111.087475 
L 292.245907 108.492897 
L 292.468731 111.09858 
L 293.137203 109.869676 
L 293.582851 104.37003 
L 294.028499 102.167368 
L 294.696971 101.57052 
L 294.919795 98.90602 
L 295.142619 98.474381 
L 295.365443 100.434657 
L 295.588267 91.20371 
L 296.256739 90.023361 
L 296.925211 86.383252 
L 297.148035 84.703384 
L 298.484979 83.257842 
L 298.707803 83.588327 
L 299.376275 84.985617 
L 299.599099 85.812028 
L 299.821923 88.071889 
L 300.044747 83.539432 
L 300.936043 80.836579 
L 301.158867 78.150061 
L 301.827339 82.436373 
L 302.718635 83.807074 
L 303.164283 88.758907 
L 303.387107 88.759609 
L 304.055578 88.874032 
L 304.501226 87.767456 
L 304.72405 89.750967 
L 304.946874 87.974744 
L 305.615346 88.122985 
L 305.83817 88.702905 
L 306.060994 86.494642 
L 306.283818 83.024296 
L 306.506642 82.219977 
L 307.175114 81.263748 
L 307.397938 80.113872 
L 307.620762 77.364409 
L 307.843586 79.912486 
L 308.06641 78.925749 
L 308.957706 78.430738 
L 309.18053 77.180381 
L 309.403354 73.71589 
L 309.626178 74.924634 
L 310.29465 74.825759 
L 310.517474 72.699097 
L 310.963122 75.62408 
L 311.185946 74.146481 
L 311.854418 72.948716 
L 312.077242 75.628787 
L 312.300066 74.219387 
L 312.52289 74.151052 
L 312.745714 73.155324 
L 313.63701 75.950816 
L 313.859834 80.809335 
L 314.082658 81.713207 
L 314.305482 79.510893 
L 315.196778 82.349339 
L 315.419602 81.644351 
L 315.642426 84.404516 
L 315.86525 85.080837 
L 316.533722 84.178278 
L 316.97937 80.817945 
L 317.202194 78.97826 
L 317.425018 79.694406 
L 318.093489 79.042514 
L 318.316313 81.870006 
L 318.539137 82.702397 
L 318.761961 79.168096 
L 318.984785 78.812808 
L 319.653257 78.916164 
L 319.876081 81.145719 
L 320.098905 80.54618 
L 320.544553 76.144962 
L 321.213025 73.849877 
L 321.435849 75.895807 
L 321.658673 75.678087 
L 321.881497 73.365703 
L 322.772793 74.686332 
L 322.995617 76.655335 
L 323.218441 79.798243 
L 323.441265 77.180301 
L 323.664089 78.171737 
L 324.332561 78.486075 
L 324.555385 78.468069 
L 324.778209 78.987536 
L 325.001033 78.530133 
L 325.223857 80.117417 
L 325.892329 73.727403 
L 326.115153 73.486167 
L 326.337977 73.785435 
L 326.560801 72.701388 
L 326.783625 72.547587 
L 327.452097 72.981424 
L 327.674921 73.35908 
L 328.343393 70.879834 
L 329.011865 69.301818 
L 329.234689 65.232251 
L 329.457513 63.503291 
L 329.680337 63.442092 
L 329.903161 65.328485 
L 330.794457 65.89097 
L 331.017281 64.41433 
L 331.240105 66.250758 
L 331.462929 67.083992 
L 332.131401 65.955536 
L 332.354224 66.71675 
L 332.577048 66.634258 
L 332.799872 68.531906 
L 333.022696 68.054473 
L 333.691168 64.244014 
L 333.913992 59.529842 
L 334.136816 59.473713 
L 334.35964 59.921519 
L 334.582464 58.571034 
L 335.47376 59.578435 
L 335.696584 61.431157 
L 335.919408 60.338453 
L 336.142232 57.1142 
L 336.810704 54.745255 
L 337.033528 54.918542 
L 337.256352 53.818506 
L 337.479176 53.31391 
L 337.702 55.322601 
L 338.370472 52.839601 
L 338.593296 54.143655 
L 338.81612 51.982065 
L 339.038944 54.15759 
L 339.93024 58.036819 
L 340.153064 57.635521 
L 340.375888 56.335613 
L 340.598712 58.049416 
L 340.821536 57.284779 
L 341.490008 58.037674 
L 341.935656 61.705228 
L 342.15848 60.461702 
L 342.381304 62.253911 
L 343.049776 62.791702 
L 343.2726 61.336934 
L 343.718248 56.624009 
L 343.941072 60.809721 
L 344.609544 61.017473 
L 344.832368 59.09082 
L 345.055192 61.772333 
L 345.278016 59.488664 
L 345.50084 59.199219 
L 346.169312 56.572797 
L 346.392136 58.215162 
L 346.837783 57.559923 
L 347.060607 55.186118 
L 347.729079 52.09575 
L 347.951903 49.957196 
L 348.397551 49.036945 
L 348.620375 49.435906 
L 349.288847 48.614571 
L 349.734495 46.208105 
L 349.957319 46.580954 
L 350.180143 44.898798 
L 350.848615 42.635486 
L 351.517087 36.23775 
L 351.739911 38.142351 
L 352.631207 41.443927 
L 352.854031 43.678145 
L 353.076855 44.297945 
L 353.299679 43.092931 
L 353.968151 43.96 
L 354.190975 45.666809 
L 354.413799 45.994633 
L 354.636623 44.655998 
L 354.859447 42.610747 
L 355.527919 39.261482 
L 355.750743 38.894236 
L 355.973567 40.315874 
L 356.196391 40.090543 
L 356.419215 41.048158 
L 357.087687 41.202324 
L 357.310511 46.063485 
L 357.533335 46.602943 
L 357.756159 49.536333 
L 357.978983 47.692772 
L 358.870279 50.708013 
L 359.093103 49.576018 
L 359.315927 51.301058 
L 359.538751 51.994872 
L 360.207223 53.338569 
L 360.652871 57.139297 
L 360.875695 56.700907 
L 361.098518 57.551098 
L 361.76699 57.761613 
L 361.989814 58.551008 
L 362.212638 61.859877 
L 362.435462 59.202131 
L 362.658286 58.038218 
L 363.326758 58.415737 
L 363.549582 59.095753 
L 363.772406 60.207901 
L 364.218054 57.423486 
L 364.886526 58.354691 
L 365.10935 51.039599 
L 365.332174 49.058367 
L 365.554998 48.718914 
L 365.777822 47.742259 
L 366.446294 46.886342 
L 366.669118 48.09099 
L 366.891942 48.510436 
L 367.114766 49.359096 
L 367.33759 49.240418 
L 368.006062 47.784398 
L 368.45171 48.770406 
L 368.674534 51.375248 
L 368.897358 51.183937 
L 369.56583 52.253118 
L 369.788654 54.561905 
L 370.011478 52.255297 
L 370.234302 51.869927 
L 370.457126 51.15026 
L 371.125598 49.469269 
L 371.571246 45.19326 
L 372.016894 45.174777 
L 372.685366 45.48787 
L 373.131014 47.563379 
L 373.353838 47.623382 
L 373.576662 45.983545 
L 374.245134 46.865709 
L 374.690782 49.277848 
L 374.913606 47.444539 
L 375.13643 48.486677 
L 376.027725 51.368242 
L 376.250549 55.616085 
L 376.473373 56.817514 
L 376.696197 54.998629 
L 377.587493 51.730215 
L 377.810317 50.11794 
L 378.255965 47.869762 
L 378.924437 46.808717 
L 379.147261 45.584052 
L 379.370085 45.584052 
L 379.370085 45.584052 
" style="fill:none;stroke:#348abd;stroke-linecap:square;stroke-width:1.5;"/>
   </g>
   <g id="patch_3">
    <path d="M 38.482813 290.25375 
L 38.482813 24.14175 
" style="fill:none;stroke:#ffffff;stroke-linecap:square;stroke-linejoin:miter;"/>
   </g>
   <g id="patch_4">
    <path d="M 395.602813 290.25375 
L 395.602813 24.14175 
" style="fill:none;stroke:#ffffff;stroke-linecap:square;stroke-linejoin:miter;"/>
   </g>
   <g id="patch_5">
    <path d="M 38.482813 290.25375 
L 395.602813 290.25375 
" style="fill:none;stroke:#ffffff;stroke-linecap:square;stroke-linejoin:miter;"/>
   </g>
   <g id="patch_6">
    <path d="M 38.482813 24.14175 
L 395.602813 24.14175 
" style="fill:none;stroke:#ffffff;stroke-linecap:square;stroke-linejoin:miter;"/>
   </g>
   <g id="text_18">
    <!-- Cumulative Return (Log) -->
    <defs>
     <path d="M 64.40625 67.28125 
L 64.40625 56.890625 
Q 59.421875 61.53125 53.78125 63.8125 
Q 48.140625 66.109375 41.796875 66.109375 
Q 29.296875 66.109375 22.65625 58.46875 
Q 16.015625 50.828125 16.015625 36.375 
Q 16.015625 21.96875 22.65625 14.328125 
Q 29.296875 6.6875 41.796875 6.6875 
Q 48.140625 6.6875 53.78125 8.984375 
Q 59.421875 11.28125 64.40625 15.921875 
L 64.40625 5.609375 
Q 59.234375 2.09375 53.4375 0.328125 
Q 47.65625 -1.421875 41.21875 -1.421875 
Q 24.65625 -1.421875 15.125 8.703125 
Q 5.609375 18.84375 5.609375 36.375 
Q 5.609375 53.953125 15.125 64.078125 
Q 24.65625 74.21875 41.21875 74.21875 
Q 47.75 74.21875 53.53125 72.484375 
Q 59.328125 70.75 64.40625 67.28125 
" id="DejaVuSans-43"/>
     <path d="M 8.5 21.578125 
L 8.5 54.6875 
L 17.484375 54.6875 
L 17.484375 21.921875 
Q 17.484375 14.15625 20.5 10.265625 
Q 23.53125 6.390625 29.59375 6.390625 
Q 36.859375 6.390625 41.078125 11.03125 
Q 45.3125 15.671875 45.3125 23.6875 
L 45.3125 54.6875 
L 54.296875 54.6875 
L 54.296875 0 
L 45.3125 0 
L 45.3125 8.40625 
Q 42.046875 3.421875 37.71875 1 
Q 33.40625 -1.421875 27.6875 -1.421875 
Q 18.265625 -1.421875 13.375 4.4375 
Q 8.5 10.296875 8.5 21.578125 
M 31.109375 56 
z
" id="DejaVuSans-75"/>
     <path d="M 52 44.1875 
Q 55.375 50.25 60.0625 53.125 
Q 64.75 56 71.09375 56 
Q 79.640625 56 84.28125 50.015625 
Q 88.921875 44.046875 88.921875 33.015625 
L 88.921875 0 
L 79.890625 0 
L 79.890625 32.71875 
Q 79.890625 40.578125 77.09375 44.375 
Q 74.3125 48.1875 68.609375 48.1875 
Q 61.625 48.1875 57.5625 43.546875 
Q 53.515625 38.921875 53.515625 30.90625 
L 53.515625 0 
L 44.484375 0 
L 44.484375 32.71875 
Q 44.484375 40.625 41.703125 44.40625 
Q 38.921875 48.1875 33.109375 48.1875 
Q 26.21875 48.1875 22.15625 43.53125 
Q 18.109375 38.875 18.109375 30.90625 
L 18.109375 0 
L 9.078125 0 
L 9.078125 54.6875 
L 18.109375 54.6875 
L 18.109375 46.1875 
Q 21.1875 51.21875 25.484375 53.609375 
Q 29.78125 56 35.6875 56 
Q 41.65625 56 45.828125 52.96875 
Q 50 49.953125 52 44.1875 
" id="DejaVuSans-6d"/>
     <path d="M 9.421875 75.984375 
L 18.40625 75.984375 
L 18.40625 0 
L 9.421875 0 
z
" id="DejaVuSans-6c"/>
     <path d="M 34.28125 27.484375 
Q 23.390625 27.484375 19.1875 25 
Q 14.984375 22.515625 14.984375 16.5 
Q 14.984375 11.71875 18.140625 8.90625 
Q 21.296875 6.109375 26.703125 6.109375 
Q 34.1875 6.109375 38.703125 11.40625 
Q 43.21875 16.703125 43.21875 25.484375 
L 43.21875 27.484375 
z
M 52.203125 31.203125 
L 52.203125 0 
L 43.21875 0 
L 43.21875 8.296875 
Q 40.140625 3.328125 35.546875 0.953125 
Q 30.953125 -1.421875 24.3125 -1.421875 
Q 15.921875 -1.421875 10.953125 3.296875 
Q 6 8.015625 6 15.921875 
Q 6 25.140625 12.171875 29.828125 
Q 18.359375 34.515625 30.609375 34.515625 
L 43.21875 34.515625 
L 43.21875 35.40625 
Q 43.21875 41.609375 39.140625 45 
Q 35.0625 48.390625 27.6875 48.390625 
Q 23 48.390625 18.546875 47.265625 
Q 14.109375 46.140625 10.015625 43.890625 
L 10.015625 52.203125 
Q 14.9375 54.109375 19.578125 55.046875 
Q 24.21875 56 28.609375 56 
Q 40.484375 56 46.34375 49.84375 
Q 52.203125 43.703125 52.203125 31.203125 
" id="DejaVuSans-61"/>
     <path d="M 18.3125 70.21875 
L 18.3125 54.6875 
L 36.8125 54.6875 
L 36.8125 47.703125 
L 18.3125 47.703125 
L 18.3125 18.015625 
Q 18.3125 11.328125 20.140625 9.421875 
Q 21.96875 7.515625 27.59375 7.515625 
L 36.8125 7.515625 
L 36.8125 0 
L 27.59375 0 
Q 17.1875 0 13.234375 3.875 
Q 9.28125 7.765625 9.28125 18.015625 
L 9.28125 47.703125 
L 2.6875 47.703125 
L 2.6875 54.6875 
L 9.28125 54.6875 
L 9.28125 70.21875 
z
" id="DejaVuSans-74"/>
     <path d="M 9.421875 54.6875 
L 18.40625 54.6875 
L 18.40625 0 
L 9.421875 0 
z
M 9.421875 75.984375 
L 18.40625 75.984375 
L 18.40625 64.59375 
L 9.421875 64.59375 
z
" id="DejaVuSans-69"/>
     <path d="M 2.984375 54.6875 
L 12.5 54.6875 
L 29.59375 8.796875 
L 46.6875 54.6875 
L 56.203125 54.6875 
L 35.6875 0 
L 23.484375 0 
z
" id="DejaVuSans-76"/>
     <path d="M 56.203125 29.59375 
L 56.203125 25.203125 
L 14.890625 25.203125 
Q 15.484375 15.921875 20.484375 11.0625 
Q 25.484375 6.203125 34.421875 6.203125 
Q 39.59375 6.203125 44.453125 7.46875 
Q 49.3125 8.734375 54.109375 11.28125 
L 54.109375 2.78125 
Q 49.265625 0.734375 44.1875 -0.34375 
Q 39.109375 -1.421875 33.890625 -1.421875 
Q 20.796875 -1.421875 13.15625 6.1875 
Q 5.515625 13.8125 5.515625 26.8125 
Q 5.515625 40.234375 12.765625 48.109375 
Q 20.015625 56 32.328125 56 
Q 43.359375 56 49.78125 48.890625 
Q 56.203125 41.796875 56.203125 29.59375 
M 47.21875 32.234375 
Q 47.125 39.59375 43.09375 43.984375 
Q 39.0625 48.390625 32.421875 48.390625 
Q 24.90625 48.390625 20.390625 44.140625 
Q 15.875 39.890625 15.1875 32.171875 
z
" id="DejaVuSans-65"/>
     <path id="DejaVuSans-20"/>
     <path d="M 44.390625 34.1875 
Q 47.5625 33.109375 50.5625 29.59375 
Q 53.5625 26.078125 56.59375 19.921875 
L 66.609375 0 
L 56 0 
L 46.6875 18.703125 
Q 43.0625 26.03125 39.671875 28.421875 
Q 36.28125 30.8125 30.421875 30.8125 
L 19.671875 30.8125 
L 19.671875 0 
L 9.8125 0 
L 9.8125 72.90625 
L 32.078125 72.90625 
Q 44.578125 72.90625 50.734375 67.671875 
Q 56.890625 62.453125 56.890625 51.90625 
Q 56.890625 45.015625 53.6875 40.46875 
Q 50.484375 35.9375 44.390625 34.1875 
M 19.671875 64.796875 
L 19.671875 38.921875 
L 32.078125 38.921875 
Q 39.203125 38.921875 42.84375 42.21875 
Q 46.484375 45.515625 46.484375 51.90625 
Q 46.484375 58.296875 42.84375 61.546875 
Q 39.203125 64.796875 32.078125 64.796875 
z
" id="DejaVuSans-52"/>
     <path d="M 41.109375 46.296875 
Q 39.59375 47.171875 37.8125 47.578125 
Q 36.03125 48 33.890625 48 
Q 26.265625 48 22.1875 43.046875 
Q 18.109375 38.09375 18.109375 28.8125 
L 18.109375 0 
L 9.078125 0 
L 9.078125 54.6875 
L 18.109375 54.6875 
L 18.109375 46.1875 
Q 20.953125 51.171875 25.484375 53.578125 
Q 30.03125 56 36.53125 56 
Q 37.453125 56 38.578125 55.875 
Q 39.703125 55.765625 41.0625 55.515625 
z
" id="DejaVuSans-72"/>
     <path d="M 54.890625 33.015625 
L 54.890625 0 
L 45.90625 0 
L 45.90625 32.71875 
Q 45.90625 40.484375 42.875 44.328125 
Q 39.84375 48.1875 33.796875 48.1875 
Q 26.515625 48.1875 22.3125 43.546875 
Q 18.109375 38.921875 18.109375 30.90625 
L 18.109375 0 
L 9.078125 0 
L 9.078125 54.6875 
L 18.109375 54.6875 
L 18.109375 46.1875 
Q 21.34375 51.125 25.703125 53.5625 
Q 30.078125 56 35.796875 56 
Q 45.21875 56 50.046875 50.171875 
Q 54.890625 44.34375 54.890625 33.015625 
" id="DejaVuSans-6e"/>
     <path d="M 31 75.875 
Q 24.46875 64.65625 21.28125 53.65625 
Q 18.109375 42.671875 18.109375 31.390625 
Q 18.109375 20.125 21.3125 9.0625 
Q 24.515625 -2 31 -13.1875 
L 23.1875 -13.1875 
Q 15.875 -1.703125 12.234375 9.375 
Q 8.59375 20.453125 8.59375 31.390625 
Q 8.59375 42.28125 12.203125 53.3125 
Q 15.828125 64.359375 23.1875 75.875 
z
" id="DejaVuSans-28"/>
     <path d="M 9.8125 72.90625 
L 19.671875 72.90625 
L 19.671875 8.296875 
L 55.171875 8.296875 
L 55.171875 0 
L 9.8125 0 
z
" id="DejaVuSans-4c"/>
     <path d="M 30.609375 48.390625 
Q 23.390625 48.390625 19.1875 42.75 
Q 14.984375 37.109375 14.984375 27.296875 
Q 14.984375 17.484375 19.15625 11.84375 
Q 23.34375 6.203125 30.609375 6.203125 
Q 37.796875 6.203125 41.984375 11.859375 
Q 46.1875 17.53125 46.1875 27.296875 
Q 46.1875 37.015625 41.984375 42.703125 
Q 37.796875 48.390625 30.609375 48.390625 
M 30.609375 56 
Q 42.328125 56 49.015625 48.375 
Q 55.71875 40.765625 55.71875 27.296875 
Q 55.71875 13.875 49.015625 6.21875 
Q 42.328125 -1.421875 30.609375 -1.421875 
Q 18.84375 -1.421875 12.171875 6.21875 
Q 5.515625 13.875 5.515625 27.296875 
Q 5.515625 40.765625 12.171875 48.375 
Q 18.84375 56 30.609375 56 
" id="DejaVuSans-6f"/>
     <path d="M 45.40625 27.984375 
Q 45.40625 37.75 41.375 43.109375 
Q 37.359375 48.484375 30.078125 48.484375 
Q 22.859375 48.484375 18.828125 43.109375 
Q 14.796875 37.75 14.796875 27.984375 
Q 14.796875 18.265625 18.828125 12.890625 
Q 22.859375 7.515625 30.078125 7.515625 
Q 37.359375 7.515625 41.375 12.890625 
Q 45.40625 18.265625 45.40625 27.984375 
M 54.390625 6.78125 
Q 54.390625 -7.171875 48.1875 -13.984375 
Q 42 -20.796875 29.203125 -20.796875 
Q 24.46875 -20.796875 20.265625 -20.09375 
Q 16.0625 -19.390625 12.109375 -17.921875 
L 12.109375 -9.1875 
Q 16.0625 -11.328125 19.921875 -12.34375 
Q 23.78125 -13.375 27.78125 -13.375 
Q 36.625 -13.375 41.015625 -8.765625 
Q 45.40625 -4.15625 45.40625 5.171875 
L 45.40625 9.625 
Q 42.625 4.78125 38.28125 2.390625 
Q 33.9375 0 27.875 0 
Q 17.828125 0 11.671875 7.65625 
Q 5.515625 15.328125 5.515625 27.984375 
Q 5.515625 40.671875 11.671875 48.328125 
Q 17.828125 56 27.875 56 
Q 33.9375 56 38.28125 53.609375 
Q 42.625 51.21875 45.40625 46.390625 
L 45.40625 54.6875 
L 54.390625 54.6875 
z
" id="DejaVuSans-67"/>
     <path d="M 8.015625 75.875 
L 15.828125 75.875 
Q 23.140625 64.359375 26.78125 53.3125 
Q 30.421875 42.28125 30.421875 31.390625 
Q 30.421875 20.453125 26.78125 9.375 
Q 23.140625 -1.703125 15.828125 -13.1875 
L 8.015625 -13.1875 
Q 14.5 -2 17.703125 9.0625 
Q 20.90625 20.125 20.90625 31.390625 
Q 20.90625 42.671875 17.703125 53.65625 
Q 14.5 64.65625 8.015625 75.875 
" id="DejaVuSans-29"/>
    </defs>
    <g transform="translate(128.431063 18.14175)scale(0.144 -0.144)">
     <use xlink:href="#DejaVuSans-43"/>
     <use x="69.824219" xlink:href="#DejaVuSans-75"/>
     <use x="133.203125" xlink:href="#DejaVuSans-6d"/>
     <use x="230.615234" xlink:href="#DejaVuSans-75"/>
     <use x="293.994141" xlink:href="#DejaVuSans-6c"/>
     <use x="321.777344" xlink:href="#DejaVuSans-61"/>
     <use x="383.056641" xlink:href="#DejaVuSans-74"/>
     <use x="422.265625" xlink:href="#DejaVuSans-69"/>
     <use x="450.048828" xlink:href="#DejaVuSans-76"/>
     <use x="509.228516" xlink:href="#DejaVuSans-65"/>
     <use x="570.751953" xlink:href="#DejaVuSans-20"/>
     <use x="602.539062" xlink:href="#DejaVuSans-52"/>
     <use x="671.958984" xlink:href="#DejaVuSans-65"/>
     <use x="733.482422" xlink:href="#DejaVuSans-74"/>
     <use x="772.691406" xlink:href="#DejaVuSans-75"/>
     <use x="836.070312" xlink:href="#DejaVuSans-72"/>
     <use x="877.167969" xlink:href="#DejaVuSans-6e"/>
     <use x="940.546875" xlink:href="#DejaVuSans-20"/>
     <use x="972.333984" xlink:href="#DejaVuSans-28"/>
     <use x="1011.347656" xlink:href="#DejaVuSans-4c"/>
     <use x="1067.044922" xlink:href="#DejaVuSans-6f"/>
     <use x="1128.226562" xlink:href="#DejaVuSans-67"/>
     <use x="1191.703125" xlink:href="#DejaVuSans-29"/>
    </g>
   </g>
   <g id="legend_1">
    <g id="patch_7">
     <path d="M 45.482813 61.498 
L 117.528125 61.498 
Q 119.528125 61.498 119.528125 59.498 
L 119.528125 31.14175 
Q 119.528125 29.14175 117.528125 29.14175 
L 45.482813 29.14175 
Q 43.482813 29.14175 43.482813 31.14175 
L 43.482813 59.498 
Q 43.482813 61.498 45.482813 61.498 
z
" style="fill:#e5e5e5;opacity:0.8;stroke:#cccccc;stroke-linejoin:miter;stroke-width:0.5;"/>
    </g>
    <g id="line2d_37">
     <path d="M 47.482813 37.240187 
L 67.482813 37.240187 
" style="fill:none;stroke:#e24a33;stroke-linecap:square;stroke-width:1.5;"/>
    </g>
    <g id="line2d_38"/>
    <g id="text_19">
     <!-- Market -->
     <defs>
      <path d="M 9.8125 72.90625 
L 24.515625 72.90625 
L 43.109375 23.296875 
L 61.8125 72.90625 
L 76.515625 72.90625 
L 76.515625 0 
L 66.890625 0 
L 66.890625 64.015625 
L 48.09375 14.015625 
L 38.1875 14.015625 
L 19.390625 64.015625 
L 19.390625 0 
L 9.8125 0 
z
" id="DejaVuSans-4d"/>
      <path d="M 9.078125 75.984375 
L 18.109375 75.984375 
L 18.109375 31.109375 
L 44.921875 54.6875 
L 56.390625 54.6875 
L 27.390625 29.109375 
L 57.625 0 
L 45.90625 0 
L 18.109375 26.703125 
L 18.109375 0 
L 9.078125 0 
z
" id="DejaVuSans-6b"/>
     </defs>
     <g transform="translate(75.482813 40.740187)scale(0.1 -0.1)">
      <use xlink:href="#DejaVuSans-4d"/>
      <use x="86.279297" xlink:href="#DejaVuSans-61"/>
      <use x="147.558594" xlink:href="#DejaVuSans-72"/>
      <use x="188.671875" xlink:href="#DejaVuSans-6b"/>
      <use x="246.535156" xlink:href="#DejaVuSans-65"/>
      <use x="308.058594" xlink:href="#DejaVuSans-74"/>
     </g>
    </g>
    <g id="line2d_39">
     <path d="M 47.482813 51.918312 
L 67.482813 51.918312 
" style="fill:none;stroke:#348abd;stroke-linecap:square;stroke-width:1.5;"/>
    </g>
    <g id="line2d_40"/>
    <g id="text_20">
     <!-- Model A -->
     <defs>
      <path d="M 45.40625 46.390625 
L 45.40625 75.984375 
L 54.390625 75.984375 
L 54.390625 0 
L 45.40625 0 
L 45.40625 8.203125 
Q 42.578125 3.328125 38.25 0.953125 
Q 33.9375 -1.421875 27.875 -1.421875 
Q 17.96875 -1.421875 11.734375 6.484375 
Q 5.515625 14.40625 5.515625 27.296875 
Q 5.515625 40.1875 11.734375 48.09375 
Q 17.96875 56 27.875 56 
Q 33.9375 56 38.25 53.625 
Q 42.578125 51.265625 45.40625 46.390625 
M 14.796875 27.296875 
Q 14.796875 17.390625 18.875 11.75 
Q 22.953125 6.109375 30.078125 6.109375 
Q 37.203125 6.109375 41.296875 11.75 
Q 45.40625 17.390625 45.40625 27.296875 
Q 45.40625 37.203125 41.296875 42.84375 
Q 37.203125 48.484375 30.078125 48.484375 
Q 22.953125 48.484375 18.875 42.84375 
Q 14.796875 37.203125 14.796875 27.296875 
" id="DejaVuSans-64"/>
      <path d="M 34.1875 63.1875 
L 20.796875 26.90625 
L 47.609375 26.90625 
z
M 28.609375 72.90625 
L 39.796875 72.90625 
L 67.578125 0 
L 57.328125 0 
L 50.6875 18.703125 
L 17.828125 18.703125 
L 11.1875 0 
L 0.78125 0 
z
" id="DejaVuSans-41"/>
     </defs>
     <g transform="translate(75.482813 55.418312)scale(0.1 -0.1)">
      <use xlink:href="#DejaVuSans-4d"/>
      <use x="86.279297" xlink:href="#DejaVuSans-6f"/>
      <use x="147.460938" xlink:href="#DejaVuSans-64"/>
      <use x="210.9375" xlink:href="#DejaVuSans-65"/>
      <use x="272.460938" xlink:href="#DejaVuSans-6c"/>
      <use x="300.244141" xlink:href="#DejaVuSans-20"/>
      <use x="332.03125" xlink:href="#DejaVuSans-41"/>
     </g>
    </g>
   </g>
  </g>
 </g>
 <defs>
  <clipPath id="p295d7eaf52">
   <rect height="266.112" width="357.12" x="38.482813" y="24.14175"/>
  </clipPath>
 </defs>
</svg>
